<svg preserveAspectRatio="none" width="100%" height="100%" overflow="visible" style="display: block;" viewBox="0 0 22.0845 22" fill="none" xmlns="http://www.w3.org/2000/svg">
<g id="logomark" clip-path="url(#clip0_0_4)">
<path id="Vector" d="M6.03509 13.8691C7.79362 13.858 9.49463 13.3225 11.0402 12.4994C12.5856 13.3225 14.2867 13.858 16.0452 13.8691C18.0446 13.8817 20.3068 12.9577 21.9726 12.1172C22.006 12.1004 22.0392 12.0836 22.0722 12.0667C21.4525 13.1514 20.6582 14.4344 19.7254 15.7139C18.5437 17.3348 17.1628 18.9178 15.6591 20.0876C14.1511 21.2609 12.5947 21.9613 11.0402 21.9613C9.48563 21.9613 7.92921 21.2609 6.42113 20.0876C4.91749 18.9178 3.53662 17.3348 2.35493 15.7139C1.42208 14.4344 0.627798 13.1514 0.00812366 12.0667C0.0411322 12.0836 0.0743233 12.1004 0.107691 12.1172C1.77345 12.9577 4.03575 13.8817 6.03509 13.8691Z" fill="var(--fill-0, white)"/>
<path id="Vector_2" d="M11.0402 10.3405C10.1722 9.78519 9.35236 9.12219 8.61019 8.4002C7.57911 7.39715 6.73496 6.31472 6.15451 5.32417C5.55739 4.30516 5.29976 3.48657 5.29976 2.98937C5.29976 2.16586 5.80825 1.45381 6.88317 0.898086C7.96434 0.339156 9.47381 0.032608 11.0402 0.032608C12.6065 0.032608 14.116 0.339156 15.1971 0.898086C16.2721 1.45381 16.7805 2.16586 16.7805 2.98937C16.7805 3.48657 16.5229 4.30516 15.9258 5.32417C15.3454 6.31472 14.5012 7.39715 13.4701 8.4002C12.7279 9.12219 11.9081 9.78519 11.0402 10.3405Z" fill="var(--fill-0, white)"/>
</g>
<defs>
<clipPath id="clip0_0_4">
<rect width="22.0845" height="22" fill="white"/>
</clipPath>
</defs>
</svg>
