<svg preserveAspectRatio="none" width="100%" height="100%" overflow="visible" style="display: block;" viewBox="0 0 111.729 28" fill="none" xmlns="http://www.w3.org/2000/svg">
<g id="logo-accent" clip-path="url(#clip0_0_4)">
<path id="Vector" d="M7.26197 16.6809C9.37946 16.6675 11.4278 16.0227 13.2888 15.0315C15.1499 16.0227 17.1982 16.6675 19.3157 16.6809C21.7233 16.6961 24.4475 15.5835 26.4533 14.5714C26.4934 14.5511 26.5334 14.5308 26.5732 14.5106C25.827 15.8167 24.8705 17.3616 23.7473 18.9024C22.3243 20.8541 20.6615 22.7603 18.8508 24.169C17.0349 25.5818 15.1607 26.4252 13.2888 26.4252C11.4169 26.4252 9.54271 25.5818 7.72678 24.169C5.91618 22.7603 4.25338 20.8541 2.83043 18.9024C1.70713 17.3616 0.750685 15.8167 0.00450212 14.5106C0.0442498 14.5308 0.0842169 14.5511 0.124397 14.5714C2.13024 15.5835 4.85441 16.6961 7.26197 16.6809Z" fill="var(--fill-0, #6B5EBF)"/>
<path id="Vector_2" d="M13.2888 12.4319C12.2437 11.7632 11.2565 10.9649 10.3628 10.0955C9.12115 8.88766 8.10468 7.5842 7.40576 6.39142C6.68671 5.16438 6.3765 4.17867 6.3765 3.57996C6.3765 2.58833 6.98875 1.7309 8.28319 1.06172C9.58502 0.38868 11.4027 0.0195478 13.2888 0.0195478C15.175 0.0195478 16.9926 0.38868 18.2945 1.06172C19.5889 1.7309 20.2012 2.58833 20.2012 3.57996C20.2012 4.17867 19.891 5.16438 19.1719 6.39142C18.4729 7.5842 17.4565 8.88766 16.2149 10.0955C15.3212 10.9649 14.334 11.7632 13.2888 12.4319Z" fill="var(--fill-0, #6B5EBF)"/>
<path id="Vector_3" d="M111.403 8.76339V20.3835C111.403 22.9426 110.755 24.8447 109.458 26.0897C108.161 27.3347 106.276 27.9572 103.803 27.9572C102.489 27.9572 101.244 27.793 100.068 27.4644C98.9098 27.1359 97.9329 26.6603 97.1376 26.0378L98.7458 23.1328C99.3336 23.617 100.051 23.9974 100.898 24.2741C101.746 24.5508 102.601 24.6891 103.466 24.6891C104.815 24.6891 105.801 24.3778 106.423 23.7553C107.045 23.1328 107.357 22.1818 107.357 20.9022V20.4353C106.838 20.954 106.224 21.3518 105.515 21.6285C104.806 21.9051 104.045 22.0435 103.233 22.0435C101.4 22.0435 99.9471 21.5247 98.8753 20.4872C97.8027 19.4324 97.2671 17.8588 97.2671 15.7665V8.76339H101.313V15.17C101.313 17.4352 102.256 18.5678 104.14 18.5678C105.109 18.5678 105.887 18.2565 106.475 17.634C107.063 16.9942 107.357 16.0519 107.357 14.8068V8.76339H111.403Z" fill="var(--fill-0, #6B5EBF)"/>
<path id="Vector_4" d="M96.1241 3.47221V22.718H92.2597V21.1098C91.2563 22.3203 89.8041 22.9255 87.9017 22.9255C86.5878 22.6315 85.3946 22.6315 84.3227 22.0436C83.2678 21.4557 82.438 20.617 81.8325 19.5277C81.2271 18.4382 80.9247 17.1759 80.9247 15.7407C80.9247 14.3055 81.2271 13.0432 81.8325 11.9538C82.438 10.8645 83.2678 10.0258 84.3227 9.4379C85.3946 8.84997 86.5878 8.556 87.9017 8.556C89.6827 8.556 91.0753 9.11797 92.078 10.242V3.47221H96.1241ZM88.602 19.6054C89.6224 19.6054 90.4698 19.2596 91.1444 18.5679C91.8183 17.859 92.1559 16.9165 92.1559 15.7407C92.1559 14.5649 91.8183 13.6311 91.1444 12.9395C90.4698 12.2305 89.6224 11.876 88.602 11.876C87.5647 11.876 86.7085 12.2305 86.0346 12.9395C85.36 13.6311 85.023 14.5649 85.023 15.7407C85.023 16.9165 85.36 17.859 86.0346 18.5679C86.7085 19.2596 87.5647 19.6054 88.602 19.6054Z" fill="var(--fill-0, #6B5EBF)"/>
<path id="Vector_5" d="M79.9119 3.47221V22.718H76.0468V21.1098C75.0441 22.3203 73.5912 22.9255 71.6895 22.9255C70.3749 22.9255 69.1817 22.6315 68.1098 22.0436C67.0551 21.4557 66.2251 20.617 65.6199 19.5277C65.0146 18.4382 64.7121 17.1759 64.7121 15.7407C64.7121 14.3055 65.0146 13.0432 65.6199 11.9538C66.2251 10.8645 67.0551 10.0258 68.1098 9.4379C69.1817 8.84997 70.3749 8.556 71.6895 8.556C73.4705 8.556 74.8624 9.11797 75.8651 10.242V3.47221H79.9119ZM72.3898 19.6054C73.4102 19.6054 74.2569 19.2596 74.9315 18.5679C75.6061 17.859 75.9431 16.9165 75.9431 15.7407C75.9431 14.5649 75.6061 13.6311 74.9315 12.9395C74.2569 12.2305 73.4102 11.876 72.3898 11.876C71.3519 11.876 70.4963 12.2305 69.8217 12.9395C69.1471 13.6311 68.8102 14.5649 68.8102 15.7407C68.8102 16.9165 69.1471 17.859 69.8217 18.5679C70.4963 19.2596 71.3519 19.6054 72.3898 19.6054Z" fill="var(--fill-0, #6B5EBF)"/>
<path id="Vector_6" d="M63.6987 8.76339V22.7178H59.8599V21.0578C59.3239 21.6631 58.6841 22.1299 57.9405 22.4584C57.197 22.7697 56.393 22.9254 55.5283 22.9254C53.6954 22.9254 52.2429 22.3979 51.1708 21.3431C50.0987 20.2883 49.5626 18.7235 49.5626 16.6484V8.76339H53.6089V16.0519C53.6089 18.2998 54.5513 19.4237 56.4361 19.4237C57.4045 19.4237 58.1826 19.1125 58.7705 18.49C59.3584 17.8502 59.6524 16.9078 59.6524 15.6628V8.76339H63.6987Z" fill="var(--fill-0, #6B5EBF)"/>
<path id="Vector_7" d="M41.5982 8.556C42.8951 8.556 44.0709 8.85858 45.1258 9.4638C46.1978 10.0517 47.0365 10.8904 47.6417 11.9798C48.2469 13.0519 48.5495 14.3055 48.5495 15.7407C48.5495 17.1759 48.2469 18.4382 47.6417 19.5277C47.0365 20.5997 46.1978 21.4384 45.1258 22.0436C44.0709 22.6315 42.8951 22.9255 41.5982 22.9255C39.6788 22.9255 38.2177 22.3203 37.2148 21.1098V22.718H33.35V3.47221H37.3963V10.242C38.4165 9.11797 39.8172 8.556 41.5982 8.556ZM40.8979 19.6054C41.9354 19.6054 42.7827 19.2596 43.4398 18.5679C44.1142 17.859 44.4514 16.9165 44.4514 15.7407C44.4514 14.5649 44.1142 13.6311 43.4398 12.9395C42.7827 12.2305 41.9354 11.876 40.8979 11.876C39.8604 11.876 39.0045 12.2305 38.3301 12.9395C37.673 13.6311 37.3445 14.5649 37.3445 15.7407C37.3445 16.9165 37.673 17.859 38.3301 18.5679C39.0045 19.2596 39.8604 19.6054 40.8979 19.6054Z" fill="var(--fill-0, #6B5EBF)"/>
</g>
<defs>
<clipPath id="clip0_0_4">
<rect width="111.729" height="28" fill="white"/>
</clipPath>
</defs>
</svg>
