<svg width="2710" height="2991" viewBox="0 0 2710 2991" fill="none" xmlns="http://www.w3.org/2000/svg">
<path d="M0.765625 2547.3C0.765625 2547.3 571.416 2534.17 572.334 2516.65C573.262 2499.13 555.768 2400.49 653.33 2370.99C750.9 2341.49 800.6 2344.26 839.252 2267.74C877.913 2191.22 920.247 2093.5 919.329 1981.02C918.41 1868.55 882.514 1732.11 902.762 1757.92C923.011 1783.74 951.334 1961.55 934.977 1985.64C918.62 2009.72 731.57 1856.57 668.059 1771.75C604.549 1686.94 539.201 1569.85 534.601 1598.43C530 1627.01 634.463 1842.74 663.459 2030.81C692.454 2218.88 691.763 2279.72 675.879 2286.63C660.003 2293.55 575.562 2308.76 554.849 2336.42C534.137 2364.07 527.236 2406.49 544.73 2412.48C562.214 2418.47 579.245 2424.46 582.927 2416.62C586.6 2408.79 607.313 2372.37 652.411 2357.62C697.51 2342.87 775.286 2328.12 805.655 2294.47C836.033 2260.82 870.548 2140.74 880.213 2079.21C889.878 2017.67 888.496 1992.09 884.35 1988.63C880.213 1985.17 690.145 1853.8 622.043 1748.7C553.931 1643.6 485.638 1537.13 470.317 1308.96C454.987 1080.78 564.978 880.268 558.532 835.096C552.085 789.923 446.704 558.061 536.446 476.478C626.18 394.886 663.459 382.445 674.506 361.699C685.544 340.952 703.493 183.314 782.188 103.106C860.883 22.8983 920.247 -10.2886 932.677 22.8984C945.097 56.0853 985.831 289.095 1014.13 296.017C1042.43 302.929 1091.45 303.621 1150.35 345.561C1209.26 387.509 1211.1 406.406 1220.3 407.335C1229.51 408.255 1311.65 361.007 1411.75 349.249C1511.84 337.501 1530.48 345.105 1540.14 363.083C1549.81 381.061 1566.37 424.621 1504.25 542.16C1442.12 659.707 1368.95 706.719 1369.63 717.092C1370.32 727.466 1422.79 841.553 1367.57 936.97C1312.34 1032.39 1112.15 1075.25 909.209 1022.71C706.257 970.157 568.197 866.443 609.613 876.124C651.029 885.805 750.437 972.925 891.26 988.134C1032.07 1003.34 1232.26 1021.32 1420.03 1209.39C1607.79 1397.46 1701.67 1502.56 1756.9 1751.47C1812.11 2000.38 1804.52 2134.52 1821.09 2157.34C1837.66 2180.16 2077.2 2276.03 2186.72 2334.11C2296.25 2392.2 2422.34 2471.48 2437.07 2640.19C2451.8 2808.89 2408.54 2909.38 2261.27 2942.57C2114.01 2975.76 2011.85 2903.85 2048.66 2803.36C2085.48 2702.87 2178.44 2713.94 2177.52 2626.35C2176.59 2538.78 2056.95 2401.41 1925.32 2394.96C1793.71 2388.51 1755.98 2369.15 1741.25 2391.28C1726.52 2413.4 1649.21 2517.58 1510.23 2522.18C1371.25 2526.79 1011.72 2516.88 1006.53 2511.35C1001.36 2505.82 993.769 2480.58 1005.15 2456.04C1016.55 2431.49 1033.8 2419.04 1019.65 2422.16C1005.5 2425.26 994.46 2440.14 991.695 2468.13C988.931 2496.14 993.078 2512.04 989.277 2513.77C985.485 2515.5 959.254 2517.58 956.144 2508.24C953.044 2498.91 955.799 2446.36 957.181 2443.24C958.563 2440.14 1011.72 2363.73 1045.54 2355.43C1079.36 2347.13 1183.25 2335.73 1261.26 2367.53C1339.26 2399.34 1461.45 2456.73 1436.6 2456.04C1411.75 2455.35 1419.34 2443.59 1315.8 2409.02C1212.25 2374.45 1178.91 2377.04 1160.48 2361.77C1142.04 2346.5 1106.17 2266.82 1110.77 2253.91C1115.37 2241 1212.01 2087.05 1236.86 1926.63C1261.72 1766.22 1239.63 1653.75 1250.68 1668.49C1261.72 1683.25 1295.77 1855.18 1241.93 2018.36C1188.08 2181.54 905.527 2502.82 835.569 2515.73C765.621 2528.63 623.425 2540.62 628.025 2529.1C632.626 2517.58 1435.22 2559.06 1564.99 2536.93C1694.77 2514.81 1736.18 2429.07 1875.63 2437.37C2015.07 2445.66 2173.84 2563.2 2135.18 2621.29C2096.53 2679.37 1969.5 2789.99 1995.74 2857.75C2021.97 2925.52 2044.06 2972.53 2177.98 2978.07C2311.9 2983.6 2709.51 2978.07 2709.51 2978.07" stroke="#6B5EBF" stroke-width="20" stroke-miterlimit="10"/>
</svg>
