<svg width="2101" height="3000" viewBox="0 0 2101 3000" fill="none" xmlns="http://www.w3.org/2000/svg">
<path d="M135.991 2933.02C123.319 2861.1 121.385 2786.31 133.436 2714.16C137.853 2687.69 145.632 2661.99 150.409 2635.61C156.572 2601.66 159.155 2566.6 156.254 2532.17C151.953 2481.04 130.68 2432.97 129.323 2381.54C127.577 2315.86 150.842 2251.91 184.975 2196.61C198.888 2174.06 214.677 2152.66 232.27 2132.84C237.985 2126.41 243.873 2120.09 250.094 2114.13C251.826 2112.47 254.077 2110.88 255.607 2109.05C257.945 2106.23 258.71 2108.37 254.698 2108.1C252.619 2104.47 250.541 2100.85 248.463 2097.23C243.83 2106.51 236.354 2115.14 230.48 2123.64C216.712 2143.57 202.77 2163.38 188.583 2183C174.179 2202.9 159.646 2222.76 144.059 2241.73C138.733 2248.21 133.335 2254.86 127.231 2260.64C126.437 2261.4 122.497 2263.95 122.28 2264.86C122.309 2264.76 128.371 2268.99 128.573 2268.83C131.373 2266.68 133.595 2252.17 134.981 2248.5C139.08 2237.72 143.554 2227.09 147.941 2216.42C157.813 2192.44 167.916 2168.38 175.276 2143.48C179.635 2128.76 187.168 2105.99 178.466 2091.39C165.895 2070.33 138.387 2091.8 124.171 2098.86C112.105 2104.83 102.493 2106.25 98.6976 2091.85C95.306 2079.03 96.8359 2064.56 98.6832 2051.63C104.485 2011.17 119.74 1971.44 138.849 1935.51C158.737 1898.07 185.061 1866.1 213.017 1834.5C220.969 1825.51 242.935 1804.91 229.008 1792.18C216.654 1780.87 190.315 1792.94 177.571 1797.36C153.671 1805.61 129.54 1816.8 104.37 1820.52C91.5537 1822.41 81.8406 1821.46 84.8859 1808.64C88.4796 1793.48 99.1451 1779.03 107.473 1766.21C149.081 1702.04 195.582 1640.84 239.587 1578.31C273.979 1529.42 307.795 1480.04 343.183 1431.86C344.179 1430.51 346.517 1428.34 347.022 1426.7C347.296 1425.8 349.649 1426.21 344.843 1427.49C342.505 1426.87 340.167 1426.25 337.828 1425.63C334.35 1422.81 337.814 1422.19 336.327 1424.2C335.303 1425.6 335.043 1429.15 334.495 1430.87C332.258 1437.84 329.212 1444.58 326.109 1451.2C316.786 1471.1 305.817 1490.23 294.17 1508.85C259.547 1564.14 217.664 1615.46 168.839 1658.85C154.306 1671.76 137.55 1682.79 120.072 1691.3C115.41 1693.58 110.633 1695.66 105.553 1696.78C100.891 1697.84 102.479 1698.8 102.739 1695.63C103.547 1685.7 112.091 1673.71 116.565 1665.14C132.773 1634.01 148.417 1602.7 161.955 1570.29C172.534 1545.01 185.307 1517.42 188.496 1489.9C189.665 1479.7 185.667 1465.48 172.62 1472.34C159.631 1479.16 149.514 1497.16 139.455 1507.42C115.179 1532.18 86.026 1551.76 52.817 1562.32C45.774 1564.56 38.5866 1566.51 31.2982 1567.78C27.921 1568.36 17.3998 1567.49 14.9463 1569.15C11.8866 1571.21 13.5752 1575.83 16.072 1576.12C17.4575 1576.29 23.0718 1572.32 24.4573 1571.63C59.658 1554.19 101.613 1537.62 121.573 1501.24C126.249 1492.71 129.338 1483.32 130.146 1473.61C131.344 1459.5 125.888 1446.18 126.264 1432.17C127.375 1392.38 167.064 1371.52 194.688 1350.22C229.181 1323.61 263.314 1297.4 299.135 1272.58C328.563 1252.18 355.566 1228.33 379.697 1201.89C397.391 1182.53 413.613 1161.78 428.291 1140.04C433.111 1132.89 437.759 1125.61 442.29 1118.25C443.56 1116.19 445.725 1113.74 446.476 1111.43C448.251 1105.99 450.286 1111.41 443.185 1110.97C441.107 1109.77 439.043 1108.59 436.965 1107.39C434.656 1102.15 436.691 1102.01 433.934 1107.76C431.38 1113.07 428.349 1118.2 425.318 1123.23C416.153 1138.5 405.805 1153.1 394.663 1167C360.112 1210.04 317.926 1247.17 269.621 1274.08C224.606 1299.15 166.184 1323.65 113.332 1320.79C110.229 1320.62 99.6646 1320.66 97.9327 1317.01C98.7698 1318.77 99.8089 1315.7 101.757 1313.61C109.796 1305.01 121.501 1298.95 131.228 1292.54C203.592 1244.89 269.606 1182.48 263.747 1088.27C262.217 1063.69 256.285 1039.76 248.881 1016.36C243.469 999.236 235.806 981.747 233.439 963.839C227.291 917.028 299.799 957.201 315.978 966.826C389.872 1010.78 463.232 1074.92 496.6 1155.73C535.221 1249.24 510.282 1354.08 473.118 1443.8C459.133 1477.55 442.42 1509.96 426.415 1542.77C422.085 1551.65 404.578 1578.75 417.986 1587.04C434.309 1597.16 461.933 1560.27 469.597 1551.04C500.626 1513.59 524.238 1469.94 540.691 1424.27C577.407 1322.38 566.77 1217.11 538.829 1114.81C538.237 1112.63 537.256 1103.12 535.538 1101.72C534.615 1100.95 536.563 1101.8 535.495 1100.98C535.192 1100.75 523.184 1106.49 523.906 1104.5C523.704 1105.05 525.681 1107.53 525.811 1108.24C527.759 1118.96 533.446 1130.26 536.736 1140.71C547.373 1174.37 557.504 1208.33 570.811 1241.07C577.031 1256.35 588.722 1293.59 609.937 1294.43C633.881 1295.37 637.547 1248.79 639.798 1233.38C642.252 1216.48 643.926 1199.47 645.484 1182.47C646.163 1175.02 646.798 1167.56 647.52 1160.13C647.996 1155.31 650.29 1148.31 649.583 1143.57C649.381 1142.19 649.829 1141.2 650.002 1141.43C646.682 1141.83 643.363 1142.24 640.043 1142.64C639.827 1142.37 639.61 1142.11 639.408 1141.85C639.307 1142.14 640.144 1142.77 640.072 1143.13C639.87 1144.34 642.237 1149.91 642.814 1152.06C646.206 1164.86 648.342 1178.04 650.218 1191.13C665.762 1299.76 657.882 1413.72 632.12 1520.09C603.818 1636.88 549.22 1745.05 484.505 1845.7C466.392 1873.87 446.865 1901.07 428.464 1929.05C425.477 1933.59 419.675 1940.36 419.747 1946.22C419.963 1960.92 434.959 1951.29 439.967 1945.97C512.114 1869.71 574.044 1786.81 616.764 1690.4C639.61 1638.83 656.078 1585.93 667.811 1530.91C672.271 1510 678.765 1489.42 683.514 1468.54C690.672 1436.97 696.604 1405.14 701.468 1373.15C708.366 1327.71 712.639 1282.04 717.098 1236.32C718.354 1223.49 719.162 1210.3 722.178 1197.74C722.568 1196.15 725.209 1191.01 724.892 1189.67C725.05 1190.3 720.822 1189.91 720.778 1190.1C720.75 1190.19 722.424 1192.14 722.496 1192.94C722.857 1197.35 726.205 1203.03 727.374 1207.43C729.322 1214.75 730.867 1222.18 732.353 1229.61C735.831 1247.06 738.747 1264.62 742.037 1282.11C745.155 1298.62 748.344 1315.24 753.295 1331.31C756.325 1341.14 759.962 1353.44 768.016 1360.48C789.982 1379.68 806.132 1337.35 811.443 1323.07C831.461 1269.24 841.52 1211.18 852.084 1154.94C847.452 1154.94 842.805 1154.94 838.172 1154.94C866.185 1284.73 866.329 1424 824.259 1550.84C803.188 1614.34 781.683 1676.98 767.424 1742.53C752.212 1812.48 742.571 1883.88 739.338 1955.41C737.65 1992.5 733.782 2035.44 743.235 2071.93C744.924 2078.5 749.398 2087.52 757.725 2082.81C763.729 2079.44 764.148 2069.16 765.014 2063.28C770.729 2024.26 774.063 1984.96 780.312 1946C791.743 1874.81 808.239 1804.47 829.397 1735.54C857.627 1643.58 889.739 1551.59 910.334 1457.48C921.115 1408.17 919.412 1355.79 911.214 1306.36C903.551 1260.15 886.044 1218.28 871.511 1174.19C869.548 1168.23 863.515 1154.75 868.97 1149.15C874.036 1143.94 886.795 1147.75 892.524 1149.34C926.383 1158.69 957.557 1181.65 984.43 1203.36C1025.37 1236.45 1061.9 1275.34 1092.99 1317.76C1176.66 1431.93 1216 1569.74 1194.02 1710.69C1183.03 1781.1 1161.99 1851.11 1137.98 1918.08C1114.93 1982.38 1086.22 2044.58 1052.83 2104.14C1027.73 2148.92 999.973 2192.18 969.997 2233.84C953.429 2256.88 935.201 2278.77 918.936 2302.02C915.862 2306.41 910.853 2312.53 914.043 2318.11C918.07 2325.2 925.849 2321.05 930.77 2317.76C956.806 2300.42 978.7 2273.74 999.093 2250.49C1088.92 2148 1155.19 2029.96 1211.8 1906.58C1272.52 1774.21 1321.17 1623.28 1268.56 1479.87C1207.44 1313.29 1046.23 1208.28 892.972 1135.35C889.161 1133.54 880.141 1126.77 875.97 1126.88C877.991 1126.83 869.49 1136.06 869.779 1138.76C869.808 1139.03 869.966 1137.88 871.496 1139.67C873.748 1142.28 879.391 1144.34 882.378 1146.19C916.901 1167.63 951.163 1189.45 986.306 1209.93C1046.26 1244.88 1107.77 1277.16 1170.82 1306.16C1223.23 1330.29 1276.73 1350.1 1330.63 1370.35C1356.76 1380.15 1381.52 1394.53 1405.57 1408.56C1443.01 1430.42 1479.13 1454.79 1512.45 1482.55C1596.6 1552.61 1668.8 1651.7 1633.76 1766.26C1626.3 1790.64 1615.07 1813.68 1601.5 1835.21C1597.92 1840.87 1583.33 1855.57 1585.77 1863.45C1587.03 1867.5 1590.68 1869.08 1594.65 1868.49C1601 1867.55 1607.55 1856.09 1610.85 1851.72C1621.78 1837.3 1631.25 1821.79 1639.37 1805.64C1661.57 1761.56 1673.75 1711.99 1667.47 1662.6C1656.4 1575.41 1595.24 1503.54 1530.52 1448.56C1472.98 1399.7 1407.46 1355.08 1337.79 1325.74C1303.13 1311.14 1267.07 1300.39 1231.83 1287.3C1181.33 1268.54 1133.3 1244.29 1087.19 1216.48C1036.92 1186.18 988.658 1151.82 944.668 1112.92C930.048 1099.99 915.515 1086.57 903.002 1071.56C899.654 1067.53 897.2 1062.54 893.809 1058.67C893.203 1057.98 892.596 1055.07 892.308 1054.86C893.462 1055.66 890.302 1058.14 890.403 1058.24C891.37 1059.18 898.947 1059.39 900.52 1059.8C906.12 1061.23 911.604 1063.15 917.03 1065.12C931.968 1070.58 946.53 1077.01 961.035 1083.54C991.256 1097.1 1021.02 1111.7 1051.41 1124.91C1060.59 1128.9 1089.82 1146.25 1099.34 1135.59C1111.19 1122.32 1073.68 1100.25 1066.35 1094.81C1039.46 1074.86 1011.46 1056.35 985.296 1035.46C980.605 1031.7 975.915 1027.89 971.527 1023.77C970.243 1022.56 964.831 1014.99 963.488 1014.81C963.82 1014.86 961.266 1019.74 961.107 1019.54C961.295 1019.77 963.561 1019.39 964.354 1019.64C969.03 1021.05 974.269 1021.44 979.061 1022.71C1010.32 1031.05 1040.56 1043.74 1070.66 1055.44C1083.58 1060.48 1096.48 1065.63 1109.53 1070.3C1114.8 1072.19 1123.65 1076.81 1129.45 1074.76C1151.24 1067.09 1102.76 1042.55 1098.79 1040.3C1071.18 1024.63 1043.16 1009.58 1014.78 995.369C1009.57 992.757 1002.2 987.418 996.063 988.529C992.325 989.207 989.929 993.94 991.026 997.403C992.44 1001.86 997.794 1004.88 1001.27 1007.5C1009.18 1013.51 1017.39 1019.12 1025.72 1024.52C1050.05 1040.26 1075.95 1054.45 1103.44 1063.84C1126.53 1071.72 1155.01 1077.45 1177.62 1065.05C1199.18 1053.26 1201.54 1030.02 1202.79 1007.79C1205.27 963.695 1211.21 920.636 1228.91 879.712C1242.58 848.125 1263.68 822.512 1284.19 795.325C1303.69 769.467 1316.17 741.3 1320.58 709.063C1324.6 679.539 1318.77 653.623 1312.97 624.95C1303.44 577.909 1310 528.038 1322.22 482.122C1326.75 465.109 1332.35 448.399 1338.89 432.065C1341 426.783 1347.12 417.591 1343.78 411.747C1342.15 408.875 1338.73 407.707 1335.63 408.428C1327.11 410.391 1321.11 428.111 1317.99 434.619C1307.5 456.509 1299.35 479.611 1293.36 503.118C1277.41 565.672 1276.99 634.388 1293.6 696.927C1297.31 710.91 1302.94 735.066 1317.89 741.848C1328.01 746.422 1336.36 739.279 1341.78 731.242C1360.63 703.204 1366.28 663.435 1372.71 631.04C1376.53 611.732 1379.88 592.339 1382.58 572.858C1383.6 565.441 1387.95 551.949 1382.75 545.282C1380.89 542.887 1376.44 542.584 1374 544.157C1369.88 546.812 1369.93 551.891 1369.28 556.249C1367.84 565.86 1366.38 575.441 1364.65 585.008C1358 621.718 1348.47 657.923 1336.36 693.219C1319.65 741.92 1298.15 789.409 1270.7 833.045C1254.1 859.438 1233.58 882.916 1216.53 908.933C1191.65 946.884 1183.7 992.526 1183.18 1037.22C1182.36 1108.92 1205 1181.78 1259.58 1230.69C1307.25 1273.41 1373.14 1294.01 1436.66 1293.02C1466.41 1292.55 1495.11 1285.41 1522.05 1272.92C1549.13 1260.38 1573.79 1244.95 1604.97 1250.03C1649.04 1257.22 1680.2 1300.25 1704.48 1333.8C1733.47 1373.9 1758.58 1416.68 1784.17 1458.98C1805.95 1494.98 1827.7 1531.11 1847.27 1568.38C1870.26 1612.17 1891.13 1659.21 1895.14 1709.11C1896.83 1730.28 1893.82 1751.52 1889.78 1772.25C1879.51 1824.95 1862.8 1876.48 1845.63 1927.24C1825.15 1987.72 1802.59 2047.46 1779.51 2106.98C1761.54 2153.36 1743.43 2199.67 1725.03 2245.89C1709.02 2286.09 1694.29 2327.68 1674.83 2366.41C1674.34 2367.36 1672.32 2369.9 1672.41 2370.88C1672.38 2370.55 1683.87 2374.56 1684.11 2374.33C1685.4 2373.12 1686.64 2362.32 1687.45 2359.11C1693.06 2336.91 1700.02 2315.04 1707.44 2293.39C1716.72 2266.31 1726.91 2239.42 1739.32 2213.61C1748.18 2195.17 1758.48 2171.91 1775.27 2159.15C1793.97 2144.94 1801.46 2176.68 1805.94 2189.68C1822.1 2236.64 1836.88 2283.72 1855.73 2329.74C1876.27 2379.89 1898.03 2429.54 1918.63 2479.67C1933.42 2515.7 1948.96 2551.46 1966.37 2586.32C1986.56 2626.77 2010.01 2665.31 2025.96 2707.78C2055.07 2785.33 2073.98 2867.79 2082.54 2950.17C2083.99 2964.2 2085.32 2978.31 2085.65 2992.41C2090.46 2992.41 2095.28 2992.41 2100.09 2992.41C2098.74 2946.6 2091.14 2900.38 2082.13 2855.56C2068.28 2786.58 2048.72 2717.91 2019.55 2653.74C1993.85 2597.19 1964.09 2542.53 1938.05 2486.1C1904.37 2413.05 1869.66 2339.65 1841.34 2264.29C1822.46 2214.01 1813.43 2163.97 1821.55 2110.06C1830.08 2053.52 1858.37 2002.99 1874.87 1948.77C1894.11 1885.6 1898.12 1818.88 1895.26 1753.19C1891.74 1671.85 1873.52 1590.81 1835.93 1518.25C1799.96 1448.83 1746.71 1392.54 1688.1 1341.76C1668.28 1324.59 1647.41 1308.14 1629.56 1288.86C1619.04 1277.49 1605.79 1261.3 1611.88 1244.68C1615.91 1233.65 1628.29 1229.06 1638.1 1224.4C1664.83 1211.73 1691.33 1198.96 1717.02 1184.21C1751.25 1164.55 1786.02 1143.69 1816.21 1118.04C1831.11 1105.38 1842.74 1091.36 1850.4 1073.32C1880.08 1003.44 1852.19 925.383 1794.85 879.712C1773.06 862.367 1748.45 848.789 1722.49 838.774C1711.74 834.633 1690.41 824.402 1678.4 829.048C1662.88 835.051 1681.43 849.929 1687.43 854.691C1706.14 869.525 1726.42 882.569 1746.98 894.647C1755.58 899.698 1837.72 946.465 1827.9 905.571C1823.43 886.97 1805.23 868.875 1794.67 853.652C1770.95 819.481 1749.64 783.738 1732.2 745.946C1713.77 706.018 1704.55 662.829 1690.44 621.314C1666.82 551.863 1641.54 480.347 1601.91 418.125C1570.07 368.139 1532.46 320.838 1472.75 305.989C1455.88 301.805 1438.39 299.813 1421.03 299.77C1412.5 299.756 1403.48 301.718 1395.03 301.242C1395.67 305.96 1396.32 310.694 1396.95 315.412C1403.69 313.32 1419.32 314.835 1428.24 315.369C1452.2 316.826 1475.95 321.17 1498.93 328.082C1516.15 333.262 1532.63 340.088 1548.91 347.663C1554.81 350.405 1564.15 356.74 1571.12 354.72C1588.4 349.727 1567.23 327.707 1562.07 322.108C1537.15 295.109 1508.18 271.458 1479.48 248.673C1414.66 197.245 1345.31 148.572 1271.68 110.564C1198 72.5407 1120.28 47.9806 1039.09 32.4828C993.999 23.8825 948.84 15.2822 903.479 8.31252C871.568 3.40631 839.11 -0.807197 806.767 1.01098C738.285 4.87823 671.275 36.5953 616.649 76.7829C597.41 90.9388 579.976 107.187 562.484 123.435C536.419 147.62 510.065 171.632 485.227 197.101C481.503 200.91 445.292 236.191 469.683 237.129C477.895 237.447 487.752 228.933 494.29 224.965C503.787 219.178 516.314 209.078 527.658 207.678C532.074 207.129 529.419 207.346 529.433 207.461C529.953 209.727 526.532 215.21 525.724 217.158C523.199 223.233 520.197 229.568 519.922 236.264C519.533 245.946 524.93 253.825 534.369 256.191C544.255 258.659 555.715 255.239 565.226 252.743C581.217 248.558 596.919 243.363 613.113 239.929C649.699 232.166 687.05 235.153 712.682 265.196C731.79 287.591 739.411 316.841 756.484 340.477C769.878 359.02 790.603 368.039 812.496 358.197C824.533 352.772 834.491 343.623 846.456 337.966C864.006 329.655 885.698 327.894 904.575 332.295C925.921 337.274 941.927 352.064 951.827 371.141C958.351 383.724 965.22 402.858 960.472 417.187C957.152 427.158 950.326 423.349 941.551 421.603C921.086 417.548 900.621 413.637 880.04 410.145C871.958 408.789 859.878 408.63 852.994 403.536C839.196 393.32 845.417 367.519 854.61 356.567C866.459 342.483 894.011 337.187 909.237 349.193C929.861 365.441 900.289 403.147 879.607 377.476C873.473 369.871 868.797 350.621 883.677 352.209C890.965 352.988 899.885 360.694 905.643 364.994C914.736 371.776 923.554 379.337 931.044 387.865C934.234 391.502 942.619 400.217 940.397 405.6C938.058 411.256 926.31 411.444 921.201 411.761C900.938 412.988 880.083 408.803 860.802 402.858C820.781 390.52 784.064 367.086 773.428 324.142C764.595 288.5 745.992 260.982 714.197 241.79C695.276 230.362 672.82 221.43 650.695 219.164C626.809 216.74 602.707 223.421 579.153 226.365C504.898 235.614 431.25 229.409 358.698 212.844C319.672 203.926 279.478 201.761 239.573 203.175C201.327 204.546 161.998 205.744 124.589 214.604C92.2319 222.252 59.7445 233.075 39.8133 261.3C21.4264 287.331 10.4722 333.176 47.1017 349.756C59.9032 355.557 71.4782 350.766 76.6594 337.735C79.2717 331.213 80.0942 323.81 79.286 316.826C78.8241 312.901 77.8573 309.28 76.3707 305.658C75.6347 303.854 74.3502 302.05 73.7729 300.217C73.2966 298.63 70.6699 283.912 74.1481 291.516C77.4387 298.717 76.4717 309.871 74.3068 317.1C70.41 330.174 61.1877 332.858 50.2768 338.572C35.7867 346.148 30.1725 361.92 31.5725 377.634C32.9724 393.219 40.9102 407.649 53.8705 416.509C59.7445 420.52 66.3546 423.435 73.1378 425.528C75.7068 426.321 78.3912 427.144 81.0468 427.562C83.8034 428.01 87.3826 430.232 83.8178 427.173C84.8858 423.147 85.9393 419.135 87.0073 415.109C80.6426 417.577 67.7978 409.669 63.6268 406.061C56.8724 400.217 53.8273 392.728 49.7862 385.124C46.4234 378.774 39.7557 371.877 33.0735 379.294C27.0263 386.018 29.4076 401.04 29.22 409.106C28.7437 430.982 27.5602 453.479 20.4017 474.344C15.74 487.909 8.58158 500.217 4.98791 514.2C-0.265497 534.647 -1.07368 555.989 1.62518 576.884C6.0848 611.415 19.3627 646.033 36.1765 676.408C44.071 690.65 53.0912 704.373 63.4681 716.956C68.4617 723.002 75.4038 732.541 83.4426 734.878C102.465 740.405 92.4917 713.348 89.9949 705.931C78.0448 670.347 65.5753 633.334 61.361 595.874C60.4662 587.822 58.8352 576.639 62.833 569.078C68.6349 558.111 85.7085 560.188 94.7721 551.891C105.51 542.079 106.506 527.793 106.78 514.056C107.299 488.443 107.025 462.728 106.881 437.1C106.722 410.895 106.506 384.763 108.901 358.616C110.013 346.365 111.514 334.128 113.563 321.992C114.169 318.399 115.093 314.792 115.569 311.184C115.872 308.789 118.513 304.229 115.41 308.212C111.644 307.721 107.862 307.23 104.081 306.754C102.493 303.854 103.619 313.06 103.561 315.759C103.403 324.951 102.739 334.142 101.829 343.291C99.6069 365.571 94.1804 386.913 90.2259 408.875C88.5084 418.399 87.397 428.803 94.5122 436.523C104.586 447.461 121.66 445.297 134.793 443.262C153.7 440.304 195.611 436.148 201.24 413.046C203.491 403.825 197.589 397.274 190.776 392.064C177.297 381.747 164.322 373.305 156.297 357.591C149.76 344.763 143.409 323.031 155.157 311.314C165.52 300.968 173.14 309.034 177.888 319.813C182.622 330.549 183.07 340.621 180.847 351.992C174.93 382.223 204.862 393.94 231.187 392.469C247.294 391.574 261.784 385.455 274.427 375.629C283.75 368.356 292.438 354.575 303.306 349.842C304.244 349.438 309.916 347.014 310.465 348.948C310.508 349.092 300.347 351.213 299.597 351.372C288.917 353.594 278.309 356.105 268.279 360.492C254.539 366.509 244.624 377.057 229.008 378.226C209.264 379.727 183.993 373.204 190.589 348.774C194.067 335.917 198.584 323.551 188.814 312.136C173.169 293.854 135.775 294.777 134.375 323.392C133.61 339.193 140.667 356.177 149.601 368.89C158.809 381.992 171.509 387.533 182.969 397.764C200.692 413.608 154.898 432.757 143.813 434.446C129.987 436.567 116.507 430.924 104.081 439.481C79.4593 456.437 81.321 497.317 90.9908 521.761C103.994 554.676 136.886 564.489 162.446 585.037C180.645 599.655 192.985 619.063 206.176 637.995C227.637 668.832 251.739 697.418 276.837 725.34C304.259 755.845 333.571 784.185 367.328 807.649C390.593 823.825 415.547 834.965 441.367 846.278C507.121 875.095 568.228 915.484 622.768 962.021C625.582 964.431 629.869 969.727 633.78 970.361C639.235 971.242 643.955 967.23 642.656 961.487C641.025 954.286 629.739 946.552 624.817 941.992C608.667 926.985 591.421 913.146 573.625 900.159C527.413 866.436 477.217 839.64 422.792 822.007C321.361 789.164 269.044 691.184 205.166 613.277C179.014 581.372 141.706 554.878 99.7513 549.51C82.8942 547.346 64.9979 551.098 57.7095 568.067C49.7428 586.624 55.8478 610.333 60.1054 629.034C71.4637 679.005 81.321 737.288 122.035 772.613C142.226 790.131 166.545 801.199 190.964 811.502C220.81 824.099 250.137 837.432 278.396 853.334C336.703 886.148 389.222 927.461 440.761 969.842C468.225 992.425 494.565 1016.34 519.475 1041.72C526.922 1049.31 534.254 1057.01 541.369 1064.92C543.288 1067.06 545.107 1069.86 547.315 1071.66C548.239 1072.43 550.115 1075.76 549.249 1073.98C552.54 1070.69 555.845 1067.39 559.135 1064.1C561.387 1065.46 554.704 1059.29 553.175 1057.74C546.391 1050.78 539.551 1043.85 532.652 1037C510.397 1014.91 487.536 993.406 464.083 972.598C413.887 928.096 360.632 886.884 305.211 849.077C267.124 823.089 224.851 791.934 179.765 779.294C160.786 773.969 142.168 779.467 147.393 802.122C150.813 816.956 159.704 830.968 167.656 843.695C185.855 872.815 206.999 900.102 228.2 927.071C233.944 934.359 244.09 924.085 238.403 916.87C219.916 893.349 201.673 869.525 185.292 844.474C177.224 832.165 168.738 819.265 163.543 805.412C161.84 800.838 159.588 792.844 161.334 791.458C165.318 788.269 183.517 795.556 189.377 797.966C233.482 816.061 274.21 844.792 313.048 871.992C364.904 908.313 414.696 947.548 461.789 989.871C483.697 1009.57 505.086 1029.86 525.941 1050.68C533.835 1058.57 542.119 1070.75 551.847 1076.57C558.443 1080.51 564.677 1072.89 561.719 1066.7C557.937 1058.77 548.513 1051.27 542.668 1045.05C526.085 1027.36 508.694 1010.39 490.783 994.056C450.098 956.956 406.556 922.064 361.887 889.871C314.001 855.369 262.939 826.264 208.528 803.349C160.353 783.06 114.039 760.997 96.3451 707.909C87.3537 680.953 80.3107 652.887 74.0182 625.196C70.5255 609.799 59.5858 573.421 79.9932 564.835C97.0668 557.649 121.977 569.395 137.42 576.668C156.961 585.86 173.328 598.688 187.616 614.821C250.888 686.22 298.096 785.354 389.973 825.383C407.97 833.219 427.079 838.053 445.422 844.965C476.784 856.754 506.544 873.017 534.745 891.025C559.005 906.538 582.256 923.695 603.977 942.627C610.356 948.197 616.634 953.897 622.652 959.871C624.225 961.444 625.755 963.55 627.545 964.878C629.811 966.566 629.508 968.702 628.743 965.326C631.701 962.367 634.66 959.409 637.619 956.451C640.895 956.971 638.745 957.014 636.565 954.893C633.722 952.136 630.475 949.683 627.458 947.144C617.399 938.688 607.123 930.506 596.674 922.555C562.772 896.769 526.85 873.406 489.225 853.392C463.621 839.77 436.431 829.799 410.554 816.797C377.431 800.145 347.686 776.696 321.159 750.968C290.938 721.689 262.448 689.38 236.946 655.946C221.546 635.759 208.514 613.681 192.249 594.186C175.377 573.969 153.613 562.267 131.95 548.024C113.072 535.6 101.397 517.981 99.3327 495.181C97.976 480.362 99.9245 452.497 118.441 448.861C125.398 447.49 133.148 449.857 140.263 449.424C148.937 448.875 157.308 446.451 165.246 442.988C178.523 437.187 194.154 427.548 199.768 413.378C203.896 403.017 200.749 393.94 192.552 386.985C179.635 376.018 166.212 370.102 157.539 354.344C152.992 346.134 147.984 334.763 148.706 325.095C149.658 312.425 162.503 312.267 171.856 317.202C189.781 326.639 172.144 348.009 174.627 363.291C179.288 391.92 220.392 396.942 243.022 390.419C256.747 386.465 267.254 375.845 280.806 371.083C292.208 367.072 314.996 367.837 323.353 357.837C330.583 349.178 321.707 337.721 312.759 334.922C304.085 332.194 296.306 336.61 289.783 341.992C278.959 350.91 270.357 362.093 258.205 369.453C242.358 379.049 216.206 383.046 200.057 371.415C191.787 365.455 194.255 359.611 195.842 351.199C197.271 343.666 197.228 336.22 195.77 328.688C193.244 315.557 186.23 298.587 173.198 292.656C146.945 280.708 132.412 318.125 135.053 337.678C139.123 367.923 158.549 385.484 181.453 403.031C186.678 407.043 189.074 409.077 183.286 414.012C177.643 418.832 169.113 420.924 162.114 422.872C147.479 426.927 125.08 434.503 110.677 429.741C95.3204 424.662 107.934 395.917 110.056 385.225C114.039 365.123 116.695 344.633 117.691 324.157C118.023 317.245 120.13 305.961 116.551 299.467C114.516 295.787 108.079 294.316 105.207 298.01C100.386 304.215 100.199 314.604 99.0151 322.036C95.9122 341.531 93.8484 361.227 92.9102 380.953C90.9186 422.916 92.5783 465.21 92.4051 507.23C92.333 524.936 93.5597 539.683 74.0903 546.249C64.8103 549.366 56.2663 551.704 50.9841 560.665C42.3246 575.354 46.4811 596.163 49.2666 611.79C55.2849 645.614 65.6474 678.572 76.5294 711.097C77.6407 714.402 78.4057 718.587 79.9789 721.704C80.2675 722.281 80.5562 725.657 81.0613 725.96C101.714 738.341 86.762 720.333 86.7765 720.376C85.9827 718.298 80.1809 714.214 78.651 712.54C72.7482 706.105 67.5236 699.063 62.6165 691.862C23.3459 634.301 -1.10252 558.659 28.6427 492.151C35.6713 476.422 39.5536 460.261 41.5741 443.147C42.7431 433.262 43.2915 423.32 43.5657 413.378C43.6812 408.948 46.6399 393.118 44.3019 389.496C44.4173 388.876 44.5472 388.269 44.6627 387.663C41.7329 388.226 38.7887 388.803 35.8589 389.38C35.3682 390.535 39.871 397.923 40.4628 399.063C44.5616 406.927 49.9305 413.825 57.089 419.15C64.8103 424.907 80.7004 432.945 90.8464 429.02C95.4504 427.245 98.5389 420.838 94.0216 416.971C91.2505 414.59 88.3064 414.517 84.8859 413.652C76.111 411.429 67.6823 408.962 60.3795 403.363C50.6376 395.903 45.2256 383.609 45.8173 371.329C46.5678 355.383 57.7096 352.411 69.4143 345.874C83.789 337.865 90.0671 321.704 90.4567 305.888C90.6877 296.466 89.2155 278.861 78.3335 275.123C66.0371 270.91 56.1076 287.36 57.623 297.836C59.1672 308.558 68.2019 316.365 64.5505 328.313C57.8539 350.232 37.4753 323.883 36.7825 311.66C35.4836 288.645 52.1963 262.916 70.6265 250.203C85.7661 239.77 104.759 234.691 122.367 230.03C161.811 219.597 203.953 218.645 244.494 217.447C286.651 216.206 327.726 220.232 368.685 230.059C441.857 247.591 520.341 249.626 594.61 238.688C619.275 235.051 642.612 230.044 667.162 237.072C697.456 245.73 727.23 262.815 744.765 289.626C756.398 307.389 757.393 327.822 765.562 346.841C773.587 365.513 788.135 380.982 804.645 392.526C834.477 413.378 874.007 424.85 910.103 426.22C931.116 427.028 966.692 420.506 951.38 391.502C940.541 370.982 913.711 348.977 892.351 340.145C858.94 326.35 850.901 367.966 869.981 388.645C894.862 415.571 933.484 392.93 929.89 358.861C926.57 327.505 884.428 323.392 861.365 333.911C834.694 346.09 818.616 388.125 840.755 411.848C846.124 417.605 853.614 419.756 861.09 421.357C878.756 425.138 896.782 427.461 914.534 430.881C932.444 434.33 962.954 448.14 972.956 425.08C983.997 399.611 968.179 364.647 951.813 345.253C927.653 316.653 885.539 308.976 850.771 320.722C828.026 328.414 800.027 361.689 776.026 341.054C754.882 322.858 747.637 289.684 732.094 267.057C712.696 238.861 684.596 222.281 650.031 221.502C615.653 220.737 584.738 234.691 551.659 241.184C548.268 241.848 539.94 244.157 536.606 241.848C530.747 237.793 537.92 225.282 539.868 220.535C543.505 211.617 548.095 198.789 536.332 193.825C518.017 186.076 489.629 211.603 474.994 219.698C473.883 220.318 470.506 221.372 469.712 222.469C466.898 226.394 473.118 230.376 476.712 228.255C481.215 225.585 485.862 217.317 489.557 213.406C501.709 200.535 514.496 188.255 527.312 176.061C553.103 151.545 578.864 126.725 605.867 103.551C656.973 59.6689 724.459 25.0515 791.555 16.7831C824.678 12.6994 858.377 16.1627 891.211 20.9534C938.665 27.8798 985.859 37.0139 1032.95 45.9605C1120.8 62.656 1204.38 89.8134 1283.07 132.959C1361.06 175.715 1435.59 228.962 1503.09 286.697C1517.15 298.731 1531 311.054 1544.03 324.186C1548.1 328.269 1552.11 332.425 1555.88 336.797C1556.81 337.851 1562.17 346.567 1563.24 346.783C1596.23 353.435 1568.12 340.708 1567.9 340.318C1567.62 339.77 1563.44 338.544 1562.66 338.212C1556.29 335.499 1550.11 332.31 1543.76 329.51C1524.84 321.155 1505.35 314.229 1485.22 309.424C1464.65 304.518 1443.51 301.502 1422.37 300.65C1413.52 300.304 1401.83 298.789 1393.11 301.502C1385.22 303.955 1386.91 315.21 1395.03 315.672C1402.36 316.09 1410.22 314.315 1417.6 314.214C1437.45 313.955 1457.29 316.336 1476.34 321.949C1498.34 328.428 1516.31 338.659 1532.91 354.229C1580.75 399.106 1612.64 460.347 1637.34 520.318C1661.61 579.265 1681.47 639.395 1699.57 700.434C1715.68 754.705 1744.34 805.21 1775.95 851.819C1788.34 870.102 1803.72 887.663 1813.4 907.62C1815.03 910.982 1812.91 909.929 1815.04 908.846C1814.94 908.904 1811.42 908.601 1810.63 908.327C1802.03 905.441 1793.73 902.944 1785.46 898.991C1763.33 888.428 1742.25 875.484 1721.91 861.833C1713.38 856.119 1704.9 850.275 1696.86 843.868C1694.4 841.92 1691.99 839.063 1689.31 837.461C1688.56 836.999 1687.62 835.109 1686.81 834.95C1685.83 834.748 1681.91 842.295 1682.35 842.858C1683.2 843.94 1696.41 845.354 1699.25 846.162C1709.79 849.135 1720.11 852.988 1730.1 857.447C1757.16 869.51 1782.86 885.759 1803.69 906.956C1848.28 952.31 1867.59 1036.64 1824.32 1089.81C1806.79 1111.34 1781.5 1127.07 1758.5 1141.96C1726.14 1162.93 1692.72 1182.32 1658.02 1199.15C1634.62 1210.49 1597.97 1219.52 1596.03 1250.9C1593.69 1288.56 1640.28 1319.61 1664.93 1340.79C1719.52 1387.72 1771.33 1437.11 1808.78 1499.29C1852.02 1571.08 1874.29 1653.57 1879.92 1736.81C1884.16 1799.58 1882.16 1864.36 1866.44 1925.46C1852.86 1978.21 1826.37 2026.52 1813.08 2079.28C1800.74 2128.23 1800.32 2181.57 1814.54 2230.19C1831.02 2286.57 1856.88 2340.55 1880.77 2394.03C1912.33 2464.73 1944.5 2535.04 1979.34 2604.19C2000.99 2647.17 2020.97 2690.22 2035.92 2736.06C2059.41 2808.11 2075.87 2883.03 2083.21 2958.51C2084.31 2969.77 2085.32 2981.1 2085.65 2992.41C2085.93 3001.67 2100.3 3001.72 2100.09 2992.41C2098.8 2937.71 2088.9 2882.3 2076.81 2829.12C2061.98 2763.94 2042.23 2699.01 2010.86 2639.71C1978.82 2579.11 1949.77 2518.17 1923.89 2454.58C1902.78 2402.66 1879.44 2351.67 1859.05 2299.47C1842.19 2256.31 1831.08 2210.81 1813.23 2168.11C1806.99 2153.19 1796.53 2135.7 1777.62 2141.57C1760.32 2146.94 1748.5 2166.84 1739.97 2181.41C1712.33 2228.57 1694.32 2282.58 1679.13 2334.86C1675.83 2346.21 1667.98 2363.48 1669.67 2375.67C1671.87 2391.79 1684.68 2378.99 1688.23 2371.78C1708.49 2330.58 1724.24 2286.74 1741.18 2244.13C1784.77 2134.45 1828.8 2024.55 1865.77 1912.45C1881.72 1864.06 1897.37 1814.78 1905.82 1764.42C1909.12 1744.81 1911.22 1724.96 1909.2 1705.11C1903.31 1647.43 1878.14 1594.34 1850.61 1544.1C1828.73 1504.17 1804.96 1465.3 1781.29 1426.41C1756.64 1385.93 1732.09 1345.27 1702.92 1307.84C1677.92 1275.74 1647.44 1241.42 1604.92 1235.54C1574.61 1231.36 1549.88 1243.28 1523.47 1256.28C1495.08 1270.25 1465.25 1278.57 1433.45 1278.62C1359.28 1278.7 1283.01 1248.4 1239.36 1186.47C1200.24 1130.94 1191.12 1058.25 1201.15 992.223C1204.41 970.737 1210.28 949.438 1220.6 930.232C1234.66 904.056 1255.21 881.805 1271.94 857.389C1323.62 781.978 1357.59 692.872 1375.74 603.536C1378.13 591.776 1380.21 579.972 1382.01 568.111C1382.53 564.705 1383.41 561.083 1383.56 557.634C1383.77 552.151 1386.62 553.19 1381.29 556.61C1378.38 556.235 1375.46 555.859 1372.55 555.484C1368.26 549.972 1371.32 551.069 1370.21 556.278C1369.27 560.708 1369.15 565.484 1368.52 569.986C1366.6 583.868 1364.31 597.692 1361.78 611.487C1356.11 642.569 1349.89 674.243 1338.88 703.94C1337.22 708.428 1331.36 727.735 1325.14 728.558C1316.59 729.712 1309.69 701.069 1308.02 694.979C1293.1 640.65 1291.91 580.405 1303.05 525.34C1308.18 500.015 1315.81 475.008 1326.15 451.314C1329.41 443.839 1332.93 436.437 1336.91 429.308C1338.08 427.201 1340.23 424.763 1340.97 422.483C1341.88 419.64 1343.91 421.314 1339.47 422.339C1336.75 421.242 1334.03 420.131 1331.31 419.02C1328.64 414.359 1331.27 413.897 1328.5 419.568C1326.64 423.392 1325.22 427.534 1323.68 431.487C1318.45 444.85 1313.85 458.443 1309.95 472.252C1298.83 511.733 1292.07 554.113 1294.57 595.181C1296.17 621.285 1305.09 645.917 1307.43 671.79C1310.27 703.132 1303.37 736.567 1287.86 763.969C1274.35 787.808 1255.05 807.678 1239.71 830.275C1217.7 862.714 1203.59 899.914 1195.86 938.24C1192.36 955.672 1190.37 973.363 1189.25 991.098C1188.46 1003.98 1188.81 1017.42 1186.07 1030.09C1180.68 1055.07 1156.23 1060.06 1133.79 1056.73C1103.5 1052.21 1074.73 1037.24 1048.7 1021.79C1037.64 1015.22 1026.83 1008.24 1016.35 1000.77C1013.32 998.616 1010.44 996.191 1007.35 994.113C1003.99 991.848 1003.39 988.644 1004.94 993.565C1003.26 996.523 1001.59 999.481 999.902 1002.44C994.316 1003.45 996.914 1002.64 1001.6 1004.91C1006.68 1007.36 1011.71 1009.94 1016.73 1012.53C1030.44 1019.57 1044.06 1026.78 1057.65 1034.1C1071.95 1041.8 1086.21 1049.61 1100.26 1057.78C1104.71 1060.38 1118.94 1070.98 1121.32 1070.79C1123.18 1067.43 1125.05 1064.07 1126.91 1060.71C1126.75 1060.71 1126.59 1060.69 1126.44 1060.69C1126.66 1061.01 1126.94 1061.16 1126.3 1060.58C1125.56 1059.9 1123.15 1059.71 1122.19 1059.41C1117.38 1057.89 1112.65 1056.15 1107.94 1054.4C1094.07 1049.26 1080.33 1043.8 1066.56 1038.44C1037.9 1027.32 1008.92 1015.08 978.989 1007.79C967.833 1005.08 940.223 1002.89 951.539 1022.94C956.171 1031.16 965.191 1037.62 972.35 1043.45C984.271 1053.16 996.726 1062.24 1009.18 1071.26C1033.01 1088.51 1058.57 1104.55 1080.54 1124.21C1081.53 1125.09 1086.57 1131.29 1087.43 1131.27C1087.39 1131.27 1090.49 1122.51 1091.55 1124.21C1091.43 1124.04 1089.06 1123.91 1088.4 1123.67C1078.43 1120 1068.48 1116.71 1058.68 1112.45C1029.2 1099.63 1000.29 1085.48 970.979 1072.27C947.945 1061.88 923.092 1048.59 897.893 1044.49C878.568 1041.34 874.224 1055.34 883.923 1070.16C904.33 1101.37 937.221 1126.55 965.942 1149.51C1048.09 1215.21 1139.98 1269.76 1239.16 1305.28C1274.97 1318.11 1311.4 1329.18 1346.05 1345.01C1381.74 1361.3 1414.96 1381.98 1447.38 1403.94C1513.13 1448.47 1577.73 1501.31 1619.04 1570.23C1642.89 1610.04 1657.21 1655.14 1654.4 1701.86C1651.54 1749.26 1632.46 1795.37 1605.75 1834.26C1602.22 1839.37 1598.59 1844.42 1594.6 1849.19C1593.39 1850.65 1591.34 1852.31 1590.45 1853.95C1589.08 1856.47 1586.58 1855.2 1590.81 1854.58C1593.77 1856.25 1596.73 1857.94 1599.68 1859.61C1601.47 1865.41 1597.94 1864.88 1601.69 1860.75C1603.45 1858.8 1604.84 1856.26 1606.32 1854.1C1611.66 1846.28 1616.73 1838.28 1621.43 1830.06C1635.1 1806.13 1645.95 1780.3 1652.15 1753.42C1664.54 1699.6 1655.32 1645.43 1629.6 1597C1584.89 1512.77 1503.36 1450.43 1423.12 1402.18C1398.87 1387.61 1373.82 1373.03 1347.81 1361.8C1333.02 1355.41 1317.63 1350.58 1302.45 1345.2C1269.69 1333.58 1237.56 1320.22 1205.77 1306.18C1098.72 1258.9 997.174 1201.5 898.297 1139.16C891.399 1134.81 883.85 1128.51 876.042 1125.83C868.133 1123.1 859.272 1129.48 866.185 1137.49C869.404 1141.2 876.014 1143.19 880.257 1145.22C890.201 1150 900.202 1154.69 910.117 1159.55C985.411 1196.49 1057.89 1240.78 1120.53 1296.87C1207.17 1374.46 1271.59 1475.66 1276.59 1594.55C1279.9 1673.32 1259.44 1750.94 1231.38 1823.91C1203.76 1895.7 1169.87 1966.45 1132.68 2033.78C1099.53 2093.77 1061.48 2151.24 1018.62 2204.76C992.815 2236.97 965.466 2268.9 934.465 2296.29C931.174 2299.19 927.884 2302.18 924.304 2304.72C923.251 2305.47 921.144 2306.36 920.364 2307.36C920.105 2307.71 919.195 2307.74 919.022 2308.1C920.307 2305.53 926.282 2315.69 927.321 2315.43C926.758 2315.57 928.447 2313.52 929.818 2311.56C932.271 2308.05 934.811 2304.62 937.395 2301.2C957.21 2274.95 977.257 2248.95 996.019 2221.95C1066.93 2119.96 1124.22 2008.27 1162.8 1890.09C1184.81 1822.68 1204.71 1753.32 1212.12 1682.61C1219.81 1609.02 1211.57 1534.49 1187.22 1464.58C1150.99 1360.58 1083.22 1266.02 998.271 1196.12C970.56 1173.33 940.137 1151.33 906.278 1138.69C890.951 1132.97 861.855 1125.38 854.076 1146.32C850.338 1156.38 854.423 1168.38 857.598 1178.02C863.53 1196.02 870.933 1213.51 877.067 1231.43C896.349 1287.78 904.72 1345.57 902.454 1405.08C901.241 1437.19 893.636 1467.3 885.092 1498.92C851.926 1621.67 807.128 1741.36 780.63 1865.83C769.517 1918.05 761.434 1970.81 755.301 2023.84C753.728 2037.39 752.746 2051.14 750.307 2064.58C749.917 2066.7 748.705 2072.4 748.546 2072.11C748.662 2071.98 748.777 2071.83 748.878 2071.69C750.884 2068.96 754.089 2069.18 758.505 2072.34C758.231 2072.73 758.519 2070.49 758.173 2071.78C758.476 2070.66 756.874 2066.86 756.643 2065.76C748.157 2025.28 752.198 1979.77 754.637 1938.95C759.197 1862.7 770.845 1786.77 789.174 1712.61C803.938 1652.93 825.861 1596.06 843.685 1537.39C863.327 1472.71 871.511 1404.07 871.958 1336.64C872.362 1274.26 865.247 1212.04 852.084 1151.1C850.627 1144.33 839.485 1144.11 838.172 1151.1C827.275 1209.08 817.519 1270.19 795.25 1325.17C793.229 1330.15 785.465 1351.98 778.219 1350.28C770.325 1348.41 765.793 1322.89 764.22 1316.81C755.517 1283.16 751.491 1248.51 743.942 1214.6C741.835 1205.15 733.133 1163.02 714.876 1179.29C709.29 1184.27 708.092 1194.01 706.909 1200.88C704.427 1215.4 703.243 1230.15 701.858 1244.79C697.095 1295.22 691.87 1345.54 683.326 1395.5C675.504 1441.17 662.255 1485.43 653.249 1530.74C648.818 1553.05 643.291 1575.05 636.594 1596.81C606.979 1692.96 558.702 1784.06 495.228 1862.12C477.823 1883.52 457.834 1902.54 440.154 1923.59C437.297 1927 425.65 1936.58 425.101 1940.46C427.382 1924.49 435.016 1947.06 434.093 1947.5C434.959 1947.09 432.621 1948.5 434.223 1947.27C435.146 1946.55 435.897 1944.23 436.546 1943.18C452.234 1917.4 470.636 1893.19 487.204 1867.98C550.49 1771.7 605.579 1668.36 637.287 1557.13C669.053 1445.67 679.733 1326.19 667.119 1210.88C665.387 1195.09 663.251 1179.32 660.191 1163.74C658.488 1155.05 657.175 1144.79 652.975 1136.86C649.742 1130.75 643.031 1126.68 637.778 1133.78C633.087 1140.15 633.809 1152.73 633.087 1160.13C629.768 1193.9 628.801 1228.98 619.521 1261.79C617.919 1267.45 615.292 1281.7 608.09 1278.69C599.546 1275.12 593.095 1256.28 589.674 1248.75C574.592 1215.54 564.259 1180.15 553.348 1145.43C549.35 1132.71 545.612 1119.84 540.878 1107.37C538.786 1101.91 536.188 1092.43 528.755 1092.53C510.974 1092.79 532.825 1148 534.499 1154.94C547.734 1209.74 554.113 1266.44 548.888 1322.76C543.072 1385.66 521.221 1446.88 488.056 1500.51C476.611 1519.01 463.809 1536.83 448.944 1552.76C444.224 1557.81 439.317 1562.8 433.948 1567.19C432.895 1568.04 423.658 1573.22 423.514 1573.95C423.673 1573.15 427.05 1577.24 427.512 1577.2C428.176 1577.14 426.877 1577.37 427.786 1576.49C429.445 1574.91 430.499 1568.23 431.452 1565.96C436.575 1553.71 442.911 1541.91 448.828 1530.02C466.941 1493.69 484.303 1456.97 498.303 1418.83C531.973 1327.07 547.012 1222.81 501.651 1132.21C463.405 1055.8 391.705 993.68 318.374 951.502C296.061 938.659 247.64 910.621 225.068 937.404C216.813 947.216 218.011 960.722 220.406 972.468C224.476 992.339 232.501 1011.37 238.216 1030.79C253.846 1083.9 254.727 1138.73 224.938 1187.22C202.698 1223.42 168.825 1250.15 133.956 1273.45C122.237 1281.29 110.099 1288.63 98.9286 1297.23C92.6938 1302.05 84.1931 1308.51 83.89 1317.23C82.8941 1346 143.886 1333.59 157.64 1330.94C264.772 1310.32 359.275 1242.9 421.868 1154.75C430.167 1143.05 438.091 1130.95 444.758 1118.23C447.558 1112.86 452.119 1106.25 449.42 1100.12C448.395 1097.76 445.538 1096.68 443.185 1096.54C434.771 1096 426.573 1116.26 423.196 1121.56C408.374 1144.69 391.835 1166.68 373.549 1187.2C346.344 1217.74 315.487 1244.76 281.282 1267.22C241.579 1293.28 206.06 1324.66 167.713 1352.55C140.508 1372.32 112.726 1395.56 111.831 1432.17C111.427 1449.12 118.874 1464.99 114.054 1481.96C110.215 1495.46 101.31 1506.65 91.0773 1515.97C72.243 1533.13 48.7037 1544.27 25.8716 1555.04C18.6699 1558.43 -6.26941 1567.1 3.51577 1579.26C9.08668 1586.18 22.2635 1583.61 29.6962 1582.55C49.0646 1579.77 67.87 1573.19 85.4343 1564.69C115.396 1550.2 140.638 1528.49 162.547 1503.69C163.874 1502.18 180.255 1486.32 179.909 1484.79C179.505 1483 174.554 1483.12 174.526 1483.15C173.833 1483.82 174.078 1489.31 173.876 1490.62C172.823 1497.42 170.759 1504.13 168.753 1510.68C155.85 1553 137.03 1593.84 116.94 1633.18C109.305 1648.11 100.935 1662.76 94.0071 1678.04C90.8464 1685.02 86.228 1694.19 88.6238 1702.11C94.9019 1722.89 126.538 1704.55 137.045 1698.6C194.226 1666.28 239.096 1611.88 277.256 1559.52C296.176 1533.56 313.654 1506.41 328.736 1478.04C336.847 1462.81 346.329 1446.13 350.024 1429.08C351.9 1420.4 347.253 1407.43 336.948 1416.34C328.043 1424.06 321.217 1437.74 314.491 1447.19C270.573 1508.92 227.319 1571.13 183.43 1632.89C149.009 1681.33 110.561 1728.88 81.5808 1780.91C71.3338 1799.32 58.6909 1832.37 91.4814 1835.47C113.043 1837.52 136.135 1827.49 155.966 1820.39C167.916 1816.12 179.779 1811.59 191.888 1807.76C197.964 1805.85 211.372 1799.8 217.751 1802.48C220.132 1803.49 218.934 1800.87 218.53 1803.84C217.938 1808.1 212.31 1813.23 209.755 1816.32C200.158 1827.88 189.723 1838.75 180.01 1850.22C152.559 1882.61 129.511 1918.14 112.437 1957.09C98.3512 1989.24 87.0507 2023.39 83.4137 2058.46C81.6386 2075.54 79.8634 2102.77 96.0421 2114.24C104.73 2120.39 115.252 2118.33 124.431 2114.56C134.88 2110.28 149.341 2096.65 160.844 2096.94C175.969 2097.33 162.893 2134.65 160.584 2142.24C153.267 2166.22 143.554 2189.44 134.028 2212.6C127.288 2228.93 117.489 2246.8 114.746 2264.46C113.029 2275.51 120.173 2283 130.651 2276.6C143.178 2268.95 152.906 2253.81 161.796 2242.57C190.776 2205.93 217.65 2167.59 244.162 2129.15C249.632 2121.24 256.617 2113.16 260.918 2104.52C263.458 2099.45 260.326 2094.06 254.698 2093.67C247.251 2093.15 237.552 2106.12 233.208 2110.61C218.602 2125.66 205.296 2141.99 192.956 2158.92C155.605 2210.13 127.101 2269.61 117.979 2332.73C113.679 2362.43 113.852 2392.3 119.134 2421.83C123.68 2447.3 131.733 2471.98 136.814 2497.33C143.828 2532.35 144.29 2568.01 140.523 2603.45C137.261 2634.24 128.732 2663.65 122.569 2693.88C106.318 2773.57 107.992 2856.99 122.078 2936.86C123.68 2945.99 137.593 2942.12 135.991 2933.02Z" fill="#6B5EBF"/>
</svg>
