<svg width="5430" height="2999" viewBox="0 0 5430 2999" fill="none" xmlns="http://www.w3.org/2000/svg">
<path d="M1973.71 1361.57C1955.44 1365.87 1927.46 1365.17 1911.47 1372.13C1906.09 1374.47 1906.32 1376.25 1904.83 1381.41C1909.49 1396.96 1940.68 1416.57 1953.46 1428.48C1989.96 1462.49 2019.15 1500.06 2045.6 1542.33C2097.71 1625.69 2130.7 1746.79 2120.2 1845.09C2110.37 1937.05 2077 2029.52 2056.24 2119.66C2005.03 2341.96 1962.09 2722.37 2087.75 2923.01C1998.7 2943.38 1908.77 2963.94 1817.65 2972.01C1805.64 2973.29 1793.63 2974.36 1781.59 2975.22C1769.55 2976.07 1757.5 2976.7 1745.43 2977.11C1733.37 2977.55 1721.3 2977.74 1709.23 2977.73C1697.16 2977.72 1685.1 2977.5 1673.03 2977.04C1660.97 2976.6 1648.92 2975.93 1636.88 2975.06C1624.85 2974.17 1612.82 2973.08 1600.83 2971.77C1588.83 2970.47 1576.85 2968.94 1564.91 2967.2C1552.97 2965.46 1541.05 2963.51 1529.18 2961.34C1517.3 2959.18 1505.47 2956.8 1493.69 2954.2C1481.89 2951.62 1470.16 2948.82 1458.47 2945.8C1446.78 2942.79 1435.15 2939.58 1423.58 2936.14C1412.01 2932.71 1400.5 2929.08 1389.06 2925.24C1377.61 2921.39 1366.25 2917.34 1354.95 2913.1C1343.64 2908.85 1332.43 2904.4 1321.29 2899.75C1310.16 2895.08 1299.1 2890.24 1288.15 2885.19C1277.18 2880.15 1266.31 2874.89 1255.54 2869.46C1282.37 2858.65 1333.28 2834.23 1348.49 2809.95C1357.47 2795.64 1336.84 2784.26 1327.44 2776.2C1260.37 2718.71 1199.43 2639.19 1175.31 2553.22C1161.41 2503.72 1161.15 2450.35 1167.75 2399.61C1198.51 2162.99 1372.11 1989.23 1483.4 1788.89C1558.92 1652.91 1622.72 1468.39 1536.87 1321.82C1503.22 1264.37 1459.27 1223.29 1440.65 1156.48C1410.65 1048.77 1436.36 942.221 1497.55 850.901C1520.35 816.869 1548.34 782.602 1562.69 743.907C1586.62 679.397 1581.66 600.468 1615.98 540.277C1622.58 543.107 1626.63 545.789 1631.04 551.633C1644.29 569.179 1654.92 590.588 1666.2 609.523C1694.75 657.447 1723.27 705.162 1760.69 746.823C1813.14 735.528 1864.16 731.639 1916.96 744.263C2030.42 771.418 2112.25 867.61 2129.4 982.049C2135 1019.39 2131.66 1070.91 2152.35 1103.66C2165.48 1124.42 2185.51 1127.92 2207.67 1133.19C2201.54 1159.47 2194.86 1185.21 2183 1209.65C2143.55 1290.81 2059.28 1341.49 1973.71 1361.57ZM2087.35 2149.18C2054.15 2313.2 2016.97 2568.05 2079.78 2727.03C2110.63 2805.14 2167.24 2802.72 2184.68 2842.57C2192.02 2859.33 2192.53 2884.52 2186.39 2901.67C2178.45 2908.04 2172.62 2907.97 2162.77 2909.5L2110.92 2917.69C2102.39 2905.44 2094.73 2893.14 2088.29 2879.67C2059.41 2819.18 2046.46 2751.35 2038.37 2685.29C2013.71 2483.69 2040.57 2288.67 2086.9 2092.38C2096.65 2051.04 2103.96 2006.26 2118.12 1966.46C2122.29 2024.42 2098.8 2092.61 2087.35 2149.18ZM1224.91 2856.44C926.836 2662.6 841.608 2345.25 934.063 2011.69C967.708 1890.32 1039.16 1760.31 1020.63 1631.69C1008.89 1550.13 960.765 1471.19 904 1412.77C870.736 1378.55 791.509 1325.23 781.399 1279.84C779.053 1269.33 778.821 1258.09 785.248 1248.88C796.46 1232.81 817.818 1226.72 836.081 1223.94C895.751 1222.8 949.39 1264.04 991.037 1302.65C1045.41 1353.09 1089.09 1417.78 1118.43 1485.73C1244.33 1777.31 1028.94 1971.92 1040.11 2257.66C1044 2357.66 1070.11 2455.49 1121.94 2541.42C1136.61 2565.76 1154.45 2588 1169.89 2611.84C1186.02 2636.71 1199.76 2663.13 1216.46 2687.63C1246.55 2731.79 1284.52 2767.07 1323.55 2803.09C1302.43 2820.49 1277.81 2834.17 1253.6 2846.74L1224.91 2856.44ZM2184.89 1250.94C2211.32 1212.61 2234.47 1159.31 2225.46 1111.74C2223.77 1102.86 2221.5 1098.76 2213.95 1093.78C2195.43 1081.54 2172.61 1076.59 2167.29 1051.59C2161.85 1025.96 2160.98 999.028 2156.44 973.141C2141.26 886.669 2099 808.896 2024.7 759.126C1946.07 706.441 1858.21 701.077 1768.38 719.36L1766.47 719.754C1744.39 691.603 1724.76 661.421 1706.04 630.969C1687.13 600.209 1666.16 552.261 1638.62 528.711C1630.68 521.92 1622.37 519.582 1612.24 518.216C1579.26 540.548 1572.16 593.085 1565.12 629.714C1557.75 668.041 1555.02 709.16 1539.15 745.076C1519.75 788.976 1485.02 824.989 1461.06 866.478C1392.07 985.961 1383.47 1138.68 1463.27 1256C1481.69 1283.06 1502.92 1308.55 1519.18 1337.03C1557.51 1404.2 1561.37 1487.1 1547.36 1561.91C1483.35 1903.76 1067.32 2175.29 1152.79 2549.18C1064.85 2402.21 1039.85 2242.28 1081.93 2075.52C1100.84 2000.6 1130.22 1929.34 1152.28 1855.48C1198.66 1700.17 1187.68 1550.06 1103.72 1409.52C1056.25 1330.06 975.144 1231.85 881.151 1208.99C851.836 1201.86 814.925 1200.38 788.406 1217.04C773.302 1226.53 761.672 1242.01 758.426 1259.74C754.427 1281.61 763.092 1302.6 775.793 1320.02C800.51 1353.92 838.299 1381.01 868.889 1409.7C955.447 1490.86 1016.07 1599.18 998.35 1721.34C986.544 1802.81 950.498 1878.46 927.218 1956.87C852.007 2210.21 845.004 2465.19 1009.65 2686.8C1062.78 2758.33 1124.11 2813.83 1197.49 2863.83C1092.24 2888.22 980.388 2878.01 876.694 2850.61C620.309 2792.2 400.543 2692.56 129.525 2732.11C93.4337 2737.36 40.3604 2744.34 9.65969 2763.95C5.94305 2766.32 3.49811 2769.15 0.80819 2772.59L0.507812 2779.1C16.0207 2785.4 112.312 2756.64 137.717 2752.94C153.341 2750.65 169.014 2748.8 184.739 2747.39C200.465 2745.97 216.219 2744.99 232.001 2744.45C247.778 2743.91 263.561 2743.8 279.347 2744.12C295.133 2744.44 310.898 2745.2 326.643 2746.39C471.813 2758.23 616.547 2803.81 756.401 2842.58C847.258 2867.77 938.076 2893.42 1032.8 2898.34C1097.83 2901.73 1158.72 2895.07 1222.17 2881C1274.31 2900.72 1322.4 2928.33 1375.55 2946.19C1626.81 3030.62 1852.86 3000.92 2104.47 2942.79C2122.03 2956.52 2142.35 2967.38 2165.44 2965.02C2176.95 2963.85 2186.84 2958.58 2194.08 2949.55C2212.11 2927.07 2215.47 2881.13 2211.3 2853.78C2208.14 2833.11 2197.76 2816.41 2180.76 2804.22C2107.05 2751.41 2095.88 2735.34 2080.51 2643.9C2055.78 2496.84 2073.22 2344.94 2101.3 2199.53C2114.39 2131.82 2130.65 2064.12 2138.99 1995.61C2145.47 1942.31 2145.61 1889.66 2143.95 1836.11C2138.28 1653.05 2085.41 1512.85 1945.19 1391.01C2040.14 1373.01 2128.09 1333.34 2184.89 1250.94ZM3798.53 2859.31C3800.06 2792.35 3773.82 2538.38 3741.96 2492.27C3749.38 2454.29 3669.4 2275.54 3649.9 2237.25C3592.42 2124.21 3510.19 2026.63 3386.19 1986.6C3268.77 1948.7 3147.92 1971.72 3040.35 2027.45C2943.32 2077.75 2871.41 2155.12 2838.18 2260.06C2804.98 2209.26 2778.34 2153.11 2753.96 2097.57C2742.91 2072.41 2725.66 2005.9 2711.01 1988.66C2707.44 1984.45 2706.17 1984.93 2701.08 1984.87C2685.6 1999.03 2677.3 2054.93 2672.76 2075.46C2652.03 2169.42 2633.67 2263.75 2622.8 2359.39C2607.7 2492.29 2618.75 2777.35 2544.54 2876.79C2517.73 2912.73 2478.36 2929.26 2434.94 2935.37C2391.83 2941.44 2334.74 2939.39 2298.77 2911.5C2283.22 2899.44 2270.71 2879.42 2269.13 2859.59C2263.5 2789.8 2374.09 2767.47 2409.43 2724.16C2440.69 2685.86 2453.35 2628.15 2459.21 2579.76C2471.6 2477.32 2462.76 2371.33 2456.76 2268.61C2449.76 2149.15 2444.78 2029.54 2436.15 1910.18C2418.2 1661.97 2369.05 1348.13 2484.14 1119.19C2518.11 1051.57 2564.73 987.441 2616.72 932.528C2686.32 859.037 2772.92 788.45 2822.23 699.246C2865.18 621.535 2878.39 542.986 2897.23 457.585C2920.81 350.652 2958.09 243.128 3028.48 157.542C3098.89 71.9192 3197.29 33.3958 3305.26 22.6052C3317.33 21.0427 3331.24 20.9197 3343.21 23.2697C3366.75 27.8837 3381.4 40.4828 3394.28 59.9599C3309.59 85.5397 3177.58 157.862 3126.56 231.439C3095.64 276.016 3093.94 319.388 3102.99 371.199C3120.79 472.977 3212.35 661.559 3299.24 721.147C3310.35 728.776 3324.02 735.186 3337.77 731.778C3350.03 728.751 3358.83 718.588 3365.36 708.339C3417.01 627.121 3438.25 354.761 3438.5 247.152C3438.62 189.729 3436.37 129.858 3423.4 73.7402C3435.55 70.9349 3447.84 68.8309 3460.24 67.4282C3472.63 66.0256 3485.07 65.3245 3497.54 65.3491C3558.72 65.4475 3615.4 84.0877 3663.87 121.504C1É┤3.57 183.06 3749.34 277.579 3816.41 345.829C3864.18 394.417 3929.87 435.512 3987.67 471.698C4013.65 487.951 4046.15 503.442 4067.85 525.183C4070.82 533.365 4071.44 539.886 4068.64 548.277C4061.18 570.67 4036.24 589.028 4016.06 599.228C4024.9 617.155 4017.24 648.653 4011.44 666.727C3999.8 703.134 3977.13 731.815 3947.06 755.118C3799.47 869.397 3620.62 732.639 3478.69 807.028C3450.63 821.732 3432.27 845.761 3422.89 875.795C3409.56 918.502 3414.91 964.715 3424.46 1007.62C3437.47 1066.01 3461.42 1117.43 3490.55 1169.34C3554.11 1282.55 3638.29 1379.1 3726.4 1473.69C3766.91 1517.16 3808.95 1559.39 3846.97 1605.11C3857.95 1618.11 3868.55 1631.4 3878.79 1645C3889.03 1658.59 3898.87 1672.46 3908.33 1686.6C3917.79 1700.73 3926.87 1715.13 3935.52 1729.78C3944.18 1744.43 3952.42 1759.3 3960.24 1774.41C4076.86 1997.12 4083.68 2271.11 4009.26 2508.25C3974.45 2619.37 3927.83 2719.04 3852.26 2808.28C3837.61 2825.57 3818.7 2848.78 3798.53 2859.31ZM3777.22 2881.28C3668.02 2982.72 3491.32 2970.53 3354.02 2965.01C3274.82 2961.82 3195.7 2956.73 3116.48 2954.39C3060.7 2952.37 3004.98 2949.69 2949.15 2949.11C2897.37 2948.57 2842.43 2951.17 2791.07 2943.86C2778.72 2942.1 2764.77 2939.6 2755.13 2931.16C2743.72 2905.74 2751.46 2865.24 2759.16 2839.7C2803.12 2693.62 2943.32 2763.25 3023.81 2718.37C3039.02 2709.88 3050.09 2695.84 3054.26 2678.86C3070.09 2614.31 2975.79 2483.66 2943 2429.61L2861.43 2293.04C2887.51 2236.15 2917.5 2182.84 2958.9 2135.53C3035.51 2047.99 3129.76 1998.94 3245.95 1991.01C3246.34 1991 3246.73 1990.96 3247.11 1990.96C3349.39 1989.2 3438.05 2018.13 3514.13 2088.52C3696.32 2257.09 3753.48 2579.73 3773.23 2816.88C3774.09 2827.49 3774.88 2838.42 3777.25 2848.81C3779.22 2857.41 3784.48 2864.84 3784.79 2873.68C3782.37 2876.32 3779.84 2878.86 3777.22 2881.28ZM2728.25 2933.09C2722.44 2934.73 2718.75 2934.67 2712.82 2933.22C2711.68 2932.95 2710.54 2932.65 2709.41 2932.32C2708.28 2931.99 2707.16 2931.63 2706.05 2931.24C2704.94 2930.84 2703.85 2930.42 2702.75 2929.98C2701.67 2929.54 2700.58 2929.06 2699.53 2928.55C2698.45 2928.05 2697.41 2927.52 2696.37 2926.97C2695.34 2926.41 2694.32 2925.82 2693.31 2925.22C2692.3 2924.6 2691.31 2923.96 2690.34 2923.3C2689.37 2922.64 2688.41 2921.96 2687.47 2921.25C2686.54 2920.53 2685.61 2919.79 2684.72 2919.03C2683.82 2918.28 2682.94 2917.49 2682.08 2916.69C2681.23 2915.88 2680.39 2915.06 2679.57 2914.21C2678.76 2913.36 2677.97 2912.48 2677.19 2911.6C2676.43 2910.71 2675.68 2909.8 2674.97 2908.87C2674.24 2907.94 2673.54 2907 2672.87 2906.03C2672.2 2905.07 2671.54 2904.08 2670.93 2903.08C2670.3 2902.08 2669.71 2901.07 2669.14 2900.03C2660.34 2883.93 2659.15 2864.67 2661.29 2846.77C2671.92 2758.03 2754.22 2735.51 2779.35 2655.01C2794.23 2607.31 2799.03 2557.05 2806.3 2507.8C2814.82 2450.09 2825.61 2393.57 2842.87 2337.78C2860.9 2353.62 2888.53 2409.13 2903.87 2432.2C2941.33 2488.55 2988.3 2541.84 3017.35 2603.19C3027.29 2624.17 3040.56 2656.17 3031.15 2679.46C3014.77 2720 2924.22 2713.26 2887.71 2717.21C2865.54 2719.61 2843.41 2724.12 2822.88 2733C2779.48 2751.76 2755.86 2783.29 2739.13 2826.3C2734.17 2842.16 2730.23 2858.16 2728.96 2874.79C2727.9 2888.65 2734.39 2922.98 2728.25 2933.09ZM3405.83 92.8358C3431.12 189.212 3405.88 608.419 3348.92 695.063C3343.37 703.528 3339.2 707.133 3329.26 709.102C3293.87 702.839 3254.92 642.968 3234.47 615.026C3197.98 559.179 3165.81 500.144 3143.36 437.198C3124.37 383.971 3106.28 317.813 3132.39 264.266C3171.66 183.713 3317.33 109.581 3398.53 80.7657C3403.45 84.0632 3404.31 87.0284 3405.83 92.8358ZM5426.33 2793.81C5416.1 2782.85 5383.57 2772.98 5369.12 2766.95C5237.45 2712.05 5106.15 2691.24 4963.94 2697.67C4937.76 2699.05 4911.62 2701.09 4885.54 2703.79C4859.46 2706.48 4833.47 2709.83 4807.57 2713.83C4781.64 2717.84 4755.85 2722.49 4730.18 2727.78C4704.5 2733.08 4678.97 2739.02 4653.6 2745.61C4442.11 2802.49 4014.95 2993.43 3817.72 2873.42C3837.77 2860.45 3856.05 2838.48 3871.73 2820.6C3971.01 2707.33 4025.57 2560.15 4056.68 2414.55C4111.48 2158.18 4071.76 1895.84 3928.06 1675.28C3878.44 1599.07 3813.73 1532.85 3751.31 1467.08C3634.41 1343.87 3516.12 1209.86 3459.44 1047.08C3442.91 999.609 3429.29 946.432 3440.28 896.256C3446.24 869.065 3460.21 846.425 3483.95 831.353C3606.9 753.322 3807.49 896.539 3963.63 771.347C3965.92 769.514 3968.18 767.631 3970.42 765.687C3972.63 763.756 3974.8 761.787 3976.93 759.757C3979.06 757.727 3981.16 755.659 3983.21 753.556C3985.27 751.439 3987.26 749.286 3989.21 747.084C3991.19 744.894 3993.1 742.654 3994.93 740.366C3996.8 738.09 3998.63 735.776 4000.39 733.414C400▓815 731.064 4003.86 728.677 4005.52 726.241C4007.17 723.817 4008.79 721.356 4010.37 718.858C4011.92 716.361 4013.42 713.839 4014.88 711.267C4016.32 708.708 4017.72 706.124 4019.06 703.503C4020.4 700.883 4021.7 698.237 4022.93 695.567C4024.13 692.897 4025.3 690.19 4026.44 687.471C4027.54 684.752 4028.6 681.996 4029.6 679.24C4030.6 676.472 4031.53 673.679 4032.41 670.873C4033.29 668.068 4034.13 665.238 4034.89 662.396C4035.66 659.554 4036.35 656.699 4036.99 653.82C4039.71 641.885 4044.41 623.577 4038.96 612.11C4061.37 598.551 4081.95 579.443 4088.9 553.309C4092.09 541.325 4092.18 524.408 4085.54 513.482C4072.43 491.815 3873.62 374.226 3827.63 325.355C3760.35 253.857 3769.12 174.522 3677.29 103.491C3673.4 100.452 3669.43 97.5115 3665.41 94.6939C3661.36 91.864 3657.23 89.157 3653.05 86.5485C3648.86 83.9524 3644.6 81.4671 3640.26 79.0924C3635.95 76.7178 3631.57 74.4661 3627.11 72.3375C3622.67 70.1967 3618.16 68.1912 3613.6 66.2964C3609.05 64.4016 3604.45 62.6421 3599.79 61.0057C3595.14 59.357 3590.45 57.8436 3585.72 56.4532C3580.98 55.0629 3576.22 53.808 3571.42 52.6883C3568.98 52.0977 3566.53 51.544 3564.07 51.0273C3561.59 50.4982 3559.12 50.0061 3556.62 49.5385L3552.86 48.8618C3507.3 40.9996 3462.54 43.9156 3417.47 52.9959C3395.25 25.3121 3374.25 5.25665 3337.17 1.09793C1ō43 -0.489277 3304.49 -0.439918 3290.4 1.79939C3172.78 16.1211 3073.69 63.0851 2999.5 157.518C2932.19 243.227 2897.03 352.731 2874.84 458.028C2858.89 533.71 2846.74 608.394 2808.16 676.681C2758.36 764.826 2680.84 832.99 2611.61 905.447C2556.93 962.685 2506.63 1026.1 2470.24 1096.66C2347.6 1334.44 2394 1618.79 2411.8 1874.36C2420.92 2005.33 2426.79 2136.6 2434.41 2267.67C2440.46 2371.58 2448.75 2478.67 2436.21 2582.33C2431.4 2622.21 2422.52 2669.21 2398.22 2701.83C2354.29 2760.78 2236.23 2769.75 2249.47 2869.02C2252.77 2893.77 2266.97 2916.07 2286.74 2930.99C2327.9 2962.07 2392.8 2964.44 2441.7 2956.95C2488.95 2949.73 2533.27 2930.98 2562.17 2891.64C2643.52 2780.96 2629.66 2481.49 2647.18 2337.4C2659.54 2235.84 2681.42 2134.94 2705.15 2035.46C2742.59 2121.41 2776.09 2221.09 2834.92 2294.63C2806.89 2366.89 2794.33 2440.89 2782.77 2517.16C2775.7 2563.76 2771.96 2618.94 2752.98 2662.43C2721.02 2735.63 2652.73 2745.27 2639.3 2839.18C2636.17 2861.07 2637.29 2884.74 2646.4 2905.15C2656.17 2927 2673.16 2941.57 2695.45 2949.69C2727.83 2961.47 2764.54 2963.99 2798.66 2966.72C2911.49 2975.75 3026.4 2973.27 3139.66 2977.88C3278.74 2983.55 3423.56 3000.19 3562.28 2988.04C3616.44 2983.29 3672.83 2968.26 3721.9 2944.8C3744.21 2934.13 3788.9 2911.92 3801.26 2891.62C3824.62 2904.49 3847.01 2917.19 3873.07 2924.1C3981.78 2952.96 4161.38 2922.48 4269.48 2890.92C4282.46 2887.11 4298.73 2883.53 4310.57 2877.01C4391.34 2855.86 4470.43 2825.07 4549.93 2799.57C4717.36 2745.91 4893.32 2713.4 5069.59 2721.05C5186.88 2726.14 5288.9 2755.81 5395.81 2802.65C5407.37 2807.72 5418.82 2816.97 5429.32 2806.4C5429.6 2800.85 5430.46 2798.24 5426.33 2793.81Z" fill="#6B5EBF"/>
</svg>
