<svg width="5670" height="3000" viewBox="0 0 5670 3000" fill="none" xmlns="http://www.w3.org/2000/svg">
<g clip-path="url(#clip0_2147_22706)">
<path d="M4999.67 2999.97H4890.52L4889.6 2999.5C4886.18 2998.11 4882.52 2997.41 4878.82 2997.47L4876.62 2997.35C4859.26 2996.13 4840.16 2994.78 4816.81 2993.06C4815.16 2992.94 4813.58 2992.7 4812.05 2992.47C4810.85 2992.3 4809.66 2992.12 4808.46 2992.02L4804.88 2991.67C4801.08 2991.27 4797.49 2990.91 4793.88 2990.87C4789.17 2990.87 4784.48 2990.75 4779.78 2990.66C4760.46 2990.33 4740.47 2989.99 4721.05 2992.3C4719.52 2992.49 4714.29 2993.09 4710.98 2993.27C4706.17 2993.53 4701.31 2993.67 4696.6 2993.82C4685.43 2993.96 4674.27 2994.76 4663.18 2996.22C4659.81 2996.66 4656.41 2996.83 4653.01 2996.72H4646.8C4635.56 2996.72 4623.95 2996.83 4612.49 2996.72C4606.78 2996.72 4601.02 2996.31 4595.46 2995.96L4592.32 2995.75C4588.85 2995.56 4585.5 2995.3 4582.08 2995.06C4576.75 2994.66 4571.22 2994.26 4565.83 2994.05C4558.33 2993.74 4550.67 2993.58 4543.26 2993.44L4530.88 2993.16C4525.29 2993.31 4519.72 2992.29 4514.54 2990.18C4512.3 2989.2 4510.34 2987.68 4508.83 2985.75H3061.3L3061.89 2980.89C3062.72 2974.07 3064.82 2969.62 3068.52 2966.9C3074.42 2962.56 3082.67 2964.02 3092.23 2965.77H3127.75C3133.45 2965.77 3138.62 2965.6 3143.57 2965.23C3144.52 2965.15 3145.44 2964.82 3146.23 2964.28C3147.02 2963.73 3147.65 2962.99 3148.07 2962.12C3150.81 2956.43 3151.21 2952.09 3149.37 2948.01C3141.33 2930.37 3133.03 2912.14 3121.59 2895.93C3108.38 2877.14 3090.6 2867.4 3067.25 2866.15C3053.67 2865.39 3040.04 2865.94 3026.56 2867.8C3018.94 2868.9 3011.19 2869.75 3003.71 2870.58C2996.23 2871.41 2988.09 2872.32 2980.31 2873.43C2968.94 2875.36 2957.45 2876.46 2945.92 2876.73L2944.91 2877.23L2940.95 2869.5L2942.36 2868.74C2943.09 2868.08 2943.82 2867.39 2944.53 2866.69C2946.57 2864.6 2948.81 2862.72 2951.21 2861.07C2968.62 2849.56 2984.94 2836.5 2999.96 2822.02C3010.21 2812.15 3019.75 2801.56 3028.5 2790.34C3043.24 2771.92 3055.85 2751.91 3066.12 2730.67C3070.39 2722.05 3073.5 2712.89 3075.34 2703.45C3076.41 2698.56 3076.5 2693.5 3075.6 2688.57C3075.08 2686.07 3074.59 2683.55 3074.11 2681.05C3073.24 2676.57 3072.37 2671.96 3071.26 2667.51C3064.96 2641.47 3058.41 2613.69 3053.26 2585.92C3050.88 2573.14 3050.1 2559.53 3050.71 2541.82C3050.85 2538.71 3051.36 2535.62 3052.22 2532.62C3052.73 2530.62 3053.7 2528.76 3055.04 2527.19C3056.39 2525.62 3058.08 2524.39 3059.98 2523.58C3063.73 2522.05 3067.6 2520.87 3071.35 2519.74L3072.98 2519.25C3086.61 2515.15 3099.91 2510.05 3112.79 2503.99C3138.83 2491.67 3160.65 2473.28 3176.73 2458.63C3178.28 2457.14 3179.73 2455.55 3181.07 2453.87C3182.07 2452.66 3183.12 2451.41 3184.26 2450.19L3188.2 2445.99C3195.53 2438.2 3203.08 2430.12 3210.67 2422.31C3217.24 2415.7 3224.72 2410.06 3232.89 2405.57C3235.99 2403.82 3239.22 2402.32 3242.56 2401.08C3254.35 2396.69 3265.48 2399.05 3274.69 2408.02C3280.66 2413.97 3285.29 2421.12 3288.27 2428.99L3290.01 2433.42C3294.57 2444.67 3299.31 2456.3 3303.36 2468.02C3306.83 2477.88 3309.88 2487.97 3312.91 2497.74C3315.08 2504.69 3317.3 2511.87 3319.59 2518.87C3323.06 2529.5 3326.92 2540.19 3330.39 2549.69C3330.13 2545.9 3329.83 2542.13 3329.54 2538.42C3329.29 2535.31 3329.05 2532.22 3328.79 2529.11C3328.5 2525.64 3328.2 2522.05 3327.94 2518.52C3327.81 2517.44 3327.99 2516.35 3328.45 2515.36C3328.9 2514.38 3329.62 2513.54 3330.53 2512.93C3331.25 2512.49 3332.06 2512.23 3332.9 2512.16C3333.74 2512.09 3334.59 2512.22 3335.37 2512.53C3336.28 2512.94 3337.08 2513.56 3337.7 2514.34C3338.32 2515.12 3338.75 2516.04 3338.95 2517.01C3339.81 2520.35 3340.69 2523.68 3341.59 2527.01C3343.67 2534.83 3345.8 2542.91 3347.77 2550.94L3351.24 2564.82C3359.92 2600.03 3368.77 2636.44 3377.28 2672.29C3385.33 2706.11 3392.1 2740.29 3397.38 2773.92C3399.12 2785.13 3400.56 2797.13 3401.69 2810.62C3402.14 2818.1 3404.97 2825.23 3409.76 2831L3410.91 2832.35C3414.9 2837.36 3419.25 2842.08 3423.93 2846.45C3430.18 2851.96 3435.32 2858.62 3439.05 2866.07L3448.84 2885.44C3454.09 2895.86 3459.35 2906.27 3464.6 2916.69C3471.15 2929.64 3477 2941.36 3482.52 2952.47C3484.37 2956.44 3487.1 2959.94 3490.49 2962.71C3492.31 2964.34 3494.61 2965.32 3497.05 2965.51C3501.13 2965.68 3504.83 2965.84 3508.53 2965.84C3567.38 2965.84 3620.52 2965.84 3675.19 2965.84C3680.4 2965.84 3685.69 2965.39 3689.72 2965.01C3690.49 2964.61 3691.16 2964.05 3691.68 2963.36C3692.2 2962.67 3692.57 2961.88 3692.74 2961.03C3692.78 2959.72 3692.66 2958.41 3692.39 2957.12C3688.98 2943.2 3682.01 2930.41 3672.17 2919.99C3661.49 2908.88 3647.74 2902.45 3628.85 2899.8C3627.25 2899.57 3625.61 2899.49 3623.85 2899.4C3622.84 2899.4 3621.82 2899.3 3620.81 2899.21C3599.36 2897.47 3581.56 2887.98 3567.95 2870.77C3556.7 2856.5 3547.31 2840.87 3539.98 2824.24C3529.58 2800.5 3522.09 2775.59 3517.66 2750.05C3512.81 2722.86 3508.98 2695.1 3505.3 2668.24L3504.06 2659.28C3501.53 2640.93 3498.96 2622.58 3496.36 2604.23C3493.82 2586.3 3491.3 2568.37 3488.8 2550.41C3487.24 2539.13 3485.75 2527.85 3484.26 2516.54C3482.15 2500.59 3479.97 2484.1 3477.62 2467.93C3473.16 2437.14 3468.27 2405.04 3463.06 2372.45C3459.9 2352.76 3456.84 2331.76 3457.1 2310.44C3457.26 2296.55 3456.69 2282.82 3456.15 2269.55C3455.25 2247.99 3454.31 2225.68 3456.63 2202.66C3459.53 2173.93 3461.72 2144.85 3463.2 2115.86C3449.66 2119.05 3437.64 2118.57 3426.9 2114.47L3422.07 2112.73L3424.69 2108.29C3429.57 2100.04 3437.28 2094.68 3444.72 2089.51C3447.88 2087.32 3450.85 2085.25 3453.63 2082.98C3457.68 2079.66 3461.44 2076.01 3464.88 2072.06C3464.88 2070.79 3464.88 2069.52 3464.88 2068.27C3466.63 1993.16 3463.56 1918 3455.7 1843.28C3455.13 1838.69 3456.24 1834.04 3458.84 1830.21C3461.43 1826.38 3465.33 1823.62 3469.81 1822.45C3474.16 1821.12 3478.85 1821.42 3483 1823.29C3487.14 1825.15 3490.48 1828.45 3492.38 1832.59L3492.55 1832.93C3503.91 1856.82 3503.51 1883.99 3503.16 1907.97C3503.06 1916.16 3503.16 1924.67 3503.16 1933.68C3503.65 1982.74 3504.2 2037.56 3473.25 2075.37C3472.98 2084.92 3472.64 2094.5 3472.22 2104.11C3478.33 2101.81 3484.28 2099.11 3490.04 2096.03C3514.55 2083.05 3537.73 2070.79 3569.2 2067.98C3581.35 2066.9 3593.73 2066.45 3605.66 2066.02C3614.46 2065.69 3623.57 2065.36 3632.48 2064.77L3634.69 2064.63C3649.6 2063.66 3665 2062.65 3679.58 2058.97C3685.83 2057.48 3691.95 2055.48 3697.88 2052.98C3706.05 2049.63 3713.31 2044.37 3719.04 2037.66C3724.78 2030.94 3728.83 2022.95 3730.86 2014.35C3733.1 2006.14 3734.22 1997.66 3734.2 1989.14C3734.09 1979.96 3734.08 1970.62 3734.04 1961.61V1954.11C3734.04 1952.24 3734.04 1950.34 3734.04 1948.47C3734.04 1945.92 3734.04 1943.36 3734.04 1940.81C3733.65 1930.09 3735.9 1919.44 3740.59 1909.79C3748.6 1892.88 3751.69 1874.05 3749.49 1855.47C3748.68 1848.24 3751.8 1843.85 3758.81 1842.39L3762.13 1841.72C3765.39 1841.06 3768.5 1840.43 3771.57 1839.63C3772.11 1839.44 3772.55 1839.05 3772.81 1838.54C3773.07 1838.04 3773.14 1837.46 3773 1836.91V1836.7C3771.97 1832.05 3770.93 1827.24 3769.53 1822.71C3756.49 1780.29 3745.39 1733.49 3735.62 1679.62C3732.65 1663.32 3730.41 1646.63 3728.12 1630.52L3727.6 1626.76C3725.74 1613.41 3724.13 1599.81 3722.62 1586.67L3721.87 1580.39C3721.54 1577.52 3721.37 1574.66 3721.21 1571.9C3721.11 1570.16 3721.02 1568.6 3720.88 1566.95C3720.57 1563.14 3720.25 1559.34 3719.93 1555.54C3719.54 1551.05 3719.17 1546.56 3718.8 1542.05L3718.59 1539.42C3718.26 1535.32 3717.91 1531.08 3717.81 1526.85C3717.55 1514.4 3717.36 1501.76 3717.17 1489.54L3716.97 1476.83C3716.97 1476.14 3716.97 1475.44 3716.97 1474.76C3716.97 1473.79 3716.97 1472.89 3716.97 1472.07C3715.99 1457.99 3721.28 1447.11 3732.72 1439.73C3735.67 1437.68 3738.41 1435.36 3740.92 1432.79C3744.32 1429.58 3746.94 1425.64 3748.59 1421.27C3750.24 1416.89 3750.87 1412.2 3750.43 1407.54C3750.16 1403.4 3749.47 1399.29 3748.38 1395.29C3746.45 1388.24 3744.28 1381.12 3742.18 1374.21C3741.26 1371.16 3740.32 1368.1 3739.4 1365.04C3739.06 1363.85 3738.68 1362.65 3738.31 1361.45C3736.18 1355.49 3734.82 1349.28 3734.28 1342.98C3734.09 1338.83 3734.04 1334.66 3734.02 1331.16C3734.02 1321.04 3738.02 1311.33 3745.17 1304.16C3750.72 1298.27 3756.88 1293 3763.55 1288.41C3777.86 1278.34 3791.1 1266.82 3803.07 1254.06C3820.07 1236.24 3834.5 1216.13 3845.93 1194.32C3848.76 1188.96 3851.8 1183.64 3854.94 1178.23C3855.61 1177.15 3856.56 1176.27 3857.69 1175.69C3858.82 1175.11 3860.08 1174.84 3861.35 1174.91C3862.75 1174.88 3864.13 1175.23 3865.36 1175.92C3866.58 1176.61 3867.59 1177.62 3868.29 1178.83L3869.09 1180.34C3870.93 1183.82 3872.82 1187.29 3874.38 1191.07C3877.25 1198.02 3880.04 1204.82 3882.84 1211.7C3887.07 1222.11 3891.52 1232.91 3895.96 1243.38C3901.68 1256.63 3907.98 1269.93 3914.07 1282.77L3915.42 1285.62C3916.87 1288.67 3918.25 1291.8 3919.61 1294.84C3922.88 1302.83 3926.84 1310.53 3931.43 1317.84C3932.51 1319.46 3933.57 1321.09 3934.63 1322.72C3937.54 1327.2 3940.29 1331.4 3943.44 1335.39C3961.64 1358.26 3986.01 1367.49 4017.97 1363.66C4019.19 1363.52 4020.42 1363.27 4021.74 1363.01L4022.4 1362.89C4031.47 1361.11 4040.86 1361.84 4049.55 1364.99C4078.44 1375.13 4110.52 1383.24 4150.54 1390.53C4169.74 1394 4185.37 1396.62 4199.69 1398.72C4216.13 1400.9 4232.13 1405.68 4247.07 1412.89L4247.47 1413.08C4249.97 1414.46 4252.62 1415.56 4255.36 1416.36C4282.88 1422.98 4308.16 1435.23 4332.62 1447.09C4357.57 1459.24 4383.36 1471.69 4411.38 1478.08C4477.67 1493.2 4545.36 1506.07 4612.56 1516.27C4629.35 1518.83 4645.77 1520.91 4661.17 1519.75C4667.9 1517.31 4674.32 1514.06 4680.27 1510.08C4693.39 1501.08 4702.96 1487.92 4710.58 1476.22C4731.58 1444.06 4746.86 1408.5 4755.72 1371.12L4756.36 1368.46L4759.03 1367.89C4762.32 1367.23 4765.71 1367.29 4768.97 1368.05C4772.24 1368.81 4775.3 1370.26 4777.96 1372.3C4781.6 1375.01 4784.65 1378.45 4786.91 1382.39C4789.17 1386.32 4790.61 1390.69 4791.12 1395.2C4792.63 1410.43 4785.28 1424.38 4777.14 1437.2C4762.72 1459.88 4745.19 1480.42 4725.06 1498.22C4714.95 1507.16 4702.59 1517.07 4687.65 1522.8C4679.75 1525.77 4671.47 1527.63 4663.06 1528.32C4659.59 1529.61 4655.79 1530.82 4651.71 1532.02C4601.24 1546.71 4547.36 1544.66 4498.15 1526.17L4493.38 1524.33C4481.59 1519.75 4469.39 1515.02 4457.72 1517.18C4442.48 1519.99 4438.38 1539.03 4434.75 1555.82C4433.61 1561.03 4432.55 1566.03 4431.18 1570.33C4425.86 1587.05 4420.59 1603.77 4415.34 1620.49C4407.39 1645.73 4399.2 1671.81 4391.04 1697.43C4383.38 1721.18 4375.29 1745.19 4367.46 1768.44L4361.35 1786.6C4355.92 1802.78 4354.82 1803.85 4338.23 1809.7L4331.18 1812.19C4295.94 1824.58 4259.48 1837.39 4224.38 1851.82C4184.74 1868.11 4138.11 1887.95 4092.82 1911.63C4027.57 1945.74 3971.8 1981.3 3922.32 2020.31C3905.35 2033.45 3889.41 2047.86 3874.63 2063.41C3859.51 2079.2 3846.61 2096.97 3836.29 2116.24C3827.09 2133.48 3820.97 2152.2 3818.22 2171.55C3818 2173.29 3817.75 2175.02 3817.51 2176.62C3816.48 2182.35 3815.97 2188.16 3815.98 2193.98C3816.36 2204.3 3817.52 2214.58 3819.46 2224.73C3824.66 2252.16 3836.73 2278.23 3855.41 2302.23C3875.03 2327.4 3899.78 2348.42 3931.12 2366.46C3959.16 2382.62 3991.1 2395.37 4028.81 2405.4C4066.77 2415.49 4105.26 2423.48 4144.1 2429.32C4174.26 2433.87 4199.38 2437.08 4223.16 2439.46C4245.73 2441.72 4269.53 2443.89 4296.08 2446.08C4303.8 2446.72 4311.7 2447.17 4319.32 2447.62C4328.61 2448.16 4338.19 2448.73 4347.62 2449.62C4356.3 2450.42 4365.14 2450.85 4373.66 2451.25C4381.44 2451.62 4389.48 2452.01 4397.41 2452.67C4407.7 2453.56 4418.24 2454.06 4428.38 2454.55C4437.84 2455 4447.62 2455.45 4457.23 2456.29C4466.85 2457.12 4476.64 2457.6 4486.11 2458.14C4492.53 2458.51 4498.95 2458.87 4505.38 2459.29C4519.26 2460.23 4533.47 2461.55 4547.15 2462.76L4565.18 2464.5L4567.18 2464.67L4571.76 2465.07C4600.27 2467.15 4629.05 2470.17 4657.37 2474.01C4663.22 2475.06 4669 2476.53 4674.64 2478.4C4689.9 2483 4708.93 2488.82 4716.39 2479.01C4722.78 2470.68 4722.18 2458.84 4720.53 2450.38C4715.32 2423 4696.74 2400.04 4678.86 2377.85C4673.97 2371.77 4668.91 2365.49 4664.19 2359.22C4643.86 2332.12 4627.73 2301.79 4612.27 2272.42C4600.3 2249.85 4587.96 2226.46 4573.74 2204.87C4561.49 2186.2 4547.46 2168.24 4533.81 2150.88C4524.66 2139.16 4515.18 2127.04 4506.31 2114.75C4468.85 2063.01 4439.44 2005.38 4410.99 1949.67C4409.63 1947.01 4408.21 1944.3 4406.77 1941.52C4395.45 1919.77 4382.64 1895.14 4382.01 1870.78C4381.46 1848.94 4392.91 1826.87 4403.02 1807.41C4404.61 1804.34 4406.18 1801.3 4407.69 1798.33C4419.72 1774.48 4440.59 1756.18 4459.02 1740.05L4505.9 1698.94C4525.7 1681.58 4548.15 1661.91 4574.77 1651.43C4595.74 1643.16 4618.17 1640.85 4639.85 1638.61C4686.38 1633.81 4739.1 1628.35 4787.96 1641.36C4811.84 1647.73 4834.48 1658.39 4856.37 1668.68L4861.69 1671.18C4979 1726.2 5100.51 1771.81 5225.05 1807.59L5234.21 1810.21C5270.84 1820.62 5308.71 1831.46 5341.94 1851.44C5350.82 1856.79 5359.42 1866.49 5354.37 1876.2L5353.64 1877.62L5352.14 1878.23C5303.79 1897.84 5251 1874.44 5204.42 1853.8C5199.05 1851.42 5193.74 1849.1 5188.48 1846.86C5142.46 1826.98 5093.23 1812.9 5045.62 1799.29C4996.72 1785.29 4946.13 1770.83 4898.7 1750.02C4889.71 1746.08 4880.7 1741.84 4871.98 1737.76C4852.26 1728.49 4831.88 1718.92 4810.92 1712.31C4766.27 1698.21 4718.51 1697.07 4672.33 1695.97C4636.24 1695.11 4595.32 1694.13 4559.49 1707.83C4540.62 1715.05 4521.9 1726.7 4502.3 1743.47C4472.79 1768.77 4448.48 1798.4 4432.34 1829.17C4418.88 1854.75 4434.2 1871.47 4453.57 1892.64C4460.54 1899.95 4467.05 1907.69 4473.07 1915.81C4516.61 1977.23 4549.09 2046.02 4580.5 2112.65C4583.52 2119.04 4586.53 2125.4 4589.54 2131.74C4615.58 2186.6 4641.29 2242.7 4666.21 2296.93C4678.65 2324.03 4691.52 2352.05 4704.24 2379.55C4710.63 2393.34 4717.02 2407.33 4723.2 2420.97C4735.54 2448.13 4748.3 2476.18 4761.55 2503.37C4764.64 2509.69 4770.42 2517.6 4776.55 2525.94C4791.88 2546.91 4810.98 2572.98 4801.65 2594.46C4799.01 2600.55 4796.76 2607.05 4794.59 2613.31C4793.72 2615.79 4792.85 2618.29 4791.97 2620.76C4788.77 2630.51 4786.61 2640.57 4785.53 2650.78C4784.89 2655.96 4784.81 2661.2 4785.26 2666.4C4785.82 2673.5 4790.25 2677.95 4797.42 2678.55C4799.87 2678.78 4802.33 2678.83 4804.97 2678.87C4806.83 2678.87 4808.68 2678.87 4810.56 2679.04C4812.9 2679.02 4815.21 2679.55 4817.31 2680.59C4819.59 2681.96 4821.32 2684.08 4822.23 2686.57C4822.87 2688.8 4822.98 2691.15 4822.57 2693.43C4821.33 2703.85 4820.08 2714.21 4818.82 2724.53C4817.93 2731.79 4817.05 2739.07 4816.18 2746.35C4815.92 2748.55 4815.7 2750.77 4815.45 2752.98C4815.18 2755.76 4814.88 2758.52 4814.53 2761.28C4814.16 2764.78 4813.58 2768.26 4812.8 2771.69C4812.23 2774.27 4811.03 2776.67 4809.33 2778.68C4807.62 2780.68 4805.44 2782.25 4802.99 2783.22C4763.88 2799 4727.52 2818.72 4684.94 2843.46C4676.79 2848.33 4668.89 2853.6 4661.27 2859.26C4653.21 2865.13 4644.46 2870.01 4635.23 2873.79C4611.43 2883.5 4589.82 2892.75 4569.16 2902.06C4555.44 2908.49 4542.81 2917 4531.69 2927.3C4526.37 2932.01 4522.32 2937.98 4519.91 2944.66C4516.64 2953.09 4514.61 2961.95 4513.88 2970.96C4513.79 2973.07 4513.96 2975.19 4514.39 2977.26H5000.59C5001.37 2951 5001.82 2927.12 5000.26 2903.37C4999.01 2884.61 4997.13 2864.54 4991.79 2845.01C4988.68 2833.34 4987.25 2821.28 4987.55 2809.21C4987.74 2795.22 4987.67 2781.43 4987.55 2765.98C4987.48 2756.42 4987.39 2746.85 4987.27 2737.25C4987.16 2725.68 4987.05 2714.16 4986.96 2702.7C4986.96 2692.95 4987.17 2683.31 4987.43 2674.25C4987.53 2671.57 4988.31 2668.96 4989.71 2666.67C4991.11 2664.38 4993.07 2662.49 4995.42 2661.18C4996.86 2660.31 4998.33 2659.53 4999.74 2658.76C5001.14 2658 5002.71 2657.17 5004.08 2656.31C5005.71 2655.31 5007.34 2654.3 5008.99 2653.31C5013.85 2650.34 5018.87 2647.29 5023.42 2643.94C5077.24 2604.39 5052.93 2540 5031.61 2483.18C5026.65 2470.02 5021.96 2457.59 5018.28 2445.7C5009.11 2416.03 4999.63 2385.37 5000.24 2353.3V2350.47L5002.86 2349.38C5013.28 2345.07 5023.7 2352.85 5030.08 2361.67C5050.92 2390.33 5054.98 2426.16 5058.87 2460.8C5060.38 2476.83 5062.76 2492.78 5065.97 2508.56C5068.14 2518.18 5071.02 2527.81 5073.82 2537.15C5080.07 2557.98 5086.77 2568.09 5101.39 2578.82C5104.55 2580.79 5107.86 2582.54 5111.28 2584.03C5124.16 2590.19 5141.8 2598.61 5138.49 2613.35L5138.38 2613.85C5137.96 2615.71 5137.56 2617.46 5137.36 2619.18C5136.66 2624.94 5136.42 2630.74 5136.64 2636.54C5136.97 2643.66 5137.51 2650.93 5138.03 2657.96L5138.28 2661.33C5138.83 2668.75 5139.41 2676.16 5140.01 2683.57L5140.1 2684.51C5140.1 2685.46 5140.29 2686.44 5140.43 2687.37C5140.71 2689.3 5140.87 2691.24 5140.9 2693.19C5141.08 2708.13 5142.05 2723.05 5143.81 2737.89C5144.25 2742.22 5144.7 2746.57 5145.1 2750.86C5146.62 2768.88 5149.68 2786.74 5154.27 2804.23C5156.07 2811.11 5156.71 2818.25 5156.16 2825.34C5154.5 2853.47 5154.27 2881.66 5155.46 2909.82C5155.88 2921.46 5158.38 2932.91 5161.97 2946.52C5164.81 2958.09 5171.62 2968.31 5181.21 2975.39C5182.06 2976.05 5182.95 2976.69 5183.8 2977.31H5213.93C5214.06 2977.09 5214.18 2976.85 5214.28 2976.62C5218.76 2967.85 5223.22 2959.07 5227.65 2950.3C5234.06 2937.66 5240.49 2925.04 5246.92 2912.42C5256.66 2893.46 5264.93 2873.79 5271.68 2853.57L5273.12 2849.21C5281.24 2824.73 5289.66 2799.44 5297.82 2774.56C5306.93 2746.92 5318.06 2719.99 5331.12 2693.99C5339.96 2676.35 5349.23 2658.57 5358.18 2641.37L5363.97 2630.27C5377.63 2604.01 5393.2 2573.33 5405.09 2541.73C5407.18 2536.23 5408.9 2530.57 5410.15 2526.25C5410.18 2525.57 5410.04 2524.89 5409.74 2524.28C5409.43 2523.67 5408.98 2523.15 5408.41 2522.78L5402.99 2519.72C5397.23 2516.46 5391.26 2513.07 5385.25 2510.26C5357.26 2497.12 5327.23 2484.88 5293.45 2472.81C5287.06 2470.59 5280.55 2468.77 5273.93 2467.38C5266.17 2465.58 5258.66 2462.8 5251.59 2459.12C5229.44 2447.92 5208.36 2435.57 5188.87 2423.91C5164.73 2409 5140.52 2394.23 5116.21 2379.59C5095.84 2367.33 5075.47 2355.08 5055.1 2342.85C5048.94 2339.15 5042.57 2335.51 5036.42 2331.98C5032.57 2329.78 5028.71 2327.57 5024.88 2325.33L5023.99 2324.81C5021.58 2323.54 5019.31 2322.01 5017.24 2320.25C5014.62 2318.24 5012.84 2315.34 5012.24 2312.1C5011.77 2307.78 5011.08 2303.42 5010.42 2299.1C5008.94 2289.73 5007.41 2280 5008.09 2270.02C5008.22 2268.03 5008.94 2266.13 5010.15 2264.55C5010.47 2264.15 5013.33 2260.72 5017.1 2261.46C5019.73 2261.94 5022.27 2262.85 5024.6 2264.15C5032.76 2268.88 5042.39 2274.57 5051.91 2280.33C5075.59 2294.88 5100.19 2307.57 5123.28 2319.12C5142 2328.51 5161.19 2336.95 5180.78 2344.38C5206.45 2354.26 5232.99 2361.72 5260.04 2366.67C5288.13 2371.8 5316.74 2373.38 5345.22 2371.36C5400.35 2367.16 5449.02 2347.35 5489.85 2312.5C5506.37 2298.15 5521.01 2281.78 5533.44 2263.77C5549.52 2240.81 5563.12 2216.21 5574.01 2190.37C5578.02 2180.91 5581.76 2171.12 5585.37 2161.64C5587.1 2157.3 5588.68 2152.96 5590.37 2148.62C5590.61 2147.93 5590.82 2147.23 5590.99 2146.52C5591.96 2143.18 5593.31 2139.96 5595.04 2136.94C5596.69 2134.12 5597.91 2131.07 5598.65 2127.89C5599.52 2122.82 5600.89 2117.84 5602.21 2113.05C5602.64 2111.42 5603.09 2109.8 5603.51 2108.19C5604.25 2105.37 5605.01 2102.56 5605.8 2099.75C5606.93 2095.69 5608.07 2091.47 5609.1 2087.34C5609.67 2085.01 5610.09 2082.63 5610.52 2080.11C5610.85 2078.2 5611.18 2076.31 5611.56 2074.42C5612.07 2072.08 5612.68 2069.77 5613.3 2067.48C5613.53 2066.68 5613.73 2065.88 5613.94 2065.08V1956.21C5610.75 1944.3 5606.56 1932.69 5601.41 1921.49C5598.98 1916.29 5597.9 1910.55 5598.27 1904.82C5598.6 1899.61 5598.94 1894.55 5599.57 1889.44C5600.9 1878.85 5600.81 1868.12 5599.31 1857.55C5598.79 1853.96 5598.28 1850.35 5597.8 1846.75C5597.02 1841.13 5596.22 1835.29 5595.3 1829.62C5592.64 1813.11 5585.9 1796.63 5574.72 1779.17C5572.1 1775.09 5569.2 1771.02 5566.39 1767.01C5564.45 1764.31 5562.43 1761.49 5560.51 1758.68C5557.9 1754.84 5554.5 1749.77 5551.37 1744.41C5542.45 1729.56 5539.32 1711.93 5542.57 1694.91C5545.91 1676.67 5544.99 1657.28 5539.67 1633.86C5535.59 1615.8 5528.89 1597.19 5518.61 1575.27C5512.69 1562.64 5507.94 1553.03 5503.2 1544.02C5479.71 1499.71 5460.6 1449.61 5444.78 1390.88C5443.46 1385.98 5442.15 1381.09 5440.84 1376.19C5435.63 1356.76 5430.27 1336.68 5424.42 1317.16C5417.19 1293.12 5410.06 1271.47 5402.56 1250.98C5389.95 1216.54 5372.47 1184.41 5358.65 1160.24C5343.25 1133.35 5327.25 1107.05 5311.78 1081.63C5307.49 1074.63 5304.94 1066.7 5304.33 1058.51C5302.48 1031.53 5296.21 1005.04 5285.77 980.089C5274.31 952.959 5256.44 929.016 5233.69 910.316C5221.14 899.778 5210.81 892.747 5200.2 887.539C5192.07 883.505 5185.09 877.501 5179.87 870.074C5165.55 850.265 5148.62 832.505 5135.38 819.242C5108.83 792.853 5078.91 770.087 5046.4 751.535C5027.4 740.762 5006.93 732.809 4985.64 727.925C4970.62 724.453 4954.39 724.071 4935.99 726.987C4903.77 732.195 4892.22 753.931 4880.44 781.951C4866.41 815.188 4842.92 843.564 4812.89 863.546C4804.71 868.963 4796.03 873.72 4787.64 878.338C4784.28 880.178 4780.92 882.041 4777.57 883.928L4756.25 895.612C4754.24 896.688 4752.24 897.782 4750.25 898.875C4738.48 905.351 4726.32 912.035 4712.85 915.299C4696.38 919.292 4677.7 918.198 4657.3 912.035C4649.38 909.622 4640.09 903.077 4637.68 895.23C4637.03 893.235 4636.9 891.11 4637.3 889.051C4637.7 886.993 4638.61 885.069 4639.96 883.459L4641.69 881.289L4644.4 881.966C4679.73 890.807 4717.09 886.268 4749.28 869.223C4786.48 849.276 4812.97 813.93 4834.9 782.42C4838.57 777.426 4842.51 772.628 4846.69 768.045C4854.27 759.365 4862.87 749.574 4865.51 741.64C4867.92 734.418 4865.89 727.178 4863.77 719.522C4861.76 712.352 4859.67 704.939 4861.13 697.075C4861.89 693.31 4863.56 689.791 4866.01 686.832L4919.72 620.063C4926.91 611.122 4934.34 601.869 4940 591.852C4967.67 542.79 4977.43 462.497 4974.84 404.703C4972.62 355.538 4959.74 306.39 4936.65 258.631C4928.2 241.456 4918.23 225.066 4906.88 209.656C4893.44 191.306 4875.51 167.383 4855.71 144.953C4833.32 119.589 4813.25 101.378 4792.56 87.6627C4766.64 70.4756 4741.79 59.8855 4716.59 55.094C4709.27 53.6187 4702.09 51.4981 4695.15 48.7573C4689.94 46.9936 4685.3 43.8772 4681.7 39.7279C4678.1 35.5787 4675.67 30.5461 4674.66 25.1468C4673.58 19.7965 4671.67 14.6479 4669 9.8868C4668.87 12.7304 4668.5 15.5583 4667.91 18.3414C4666.73 24.0451 4664.98 29.6166 4662.7 34.9729C4661.27 38.1536 4659.17 40.9891 4656.54 43.2867C4653.92 45.5843 4650.83 47.2903 4647.49 48.2886C4644.24 49.1611 4640.84 49.2911 4637.53 48.669C4634.23 48.0469 4631.1 46.6887 4628.39 44.695C4626.66 43.4797 4624.92 42.2123 4623.19 40.9624C4621.45 39.7124 4619.47 38.2021 4617.58 36.9868C4608.9 31.3619 4600.55 29.1397 4592.08 30.2335C4581.85 31.5355 4573.78 35.0424 4567.42 40.9103L4565.69 42.4901C4564.25 43.8269 4562.79 45.1637 4561.36 46.5352C4555.22 52.4205 4547.28 56.344 4537.06 58.5141C4534.8 58.9828 4532.58 59.2605 4530.43 59.5209C4529.25 59.6598 4528.08 59.7987 4526.96 59.9723C4480.3 66.7328 4436.21 85.4994 4398.99 114.433C4393.31 118.837 4388.15 123.881 4383.63 129.467C4377.29 137.349 4370.59 145.248 4364.68 152.21C4356.99 161.756 4346.09 168.184 4334.01 170.299L4332.52 170.56C4327.33 171.604 4322.07 172.185 4316.79 172.296C4310.55 172.296 4304.32 171.706 4298.3 171.168L4293.21 170.716L4291.09 170.525C4287.32 169.951 4283.49 170.015 4279.74 170.716C4278.78 170.959 4277.74 172.452 4277.9 173.129C4278.23 175.167 4278.96 177.12 4280.05 178.876C4282.29 181.36 4284.8 183.59 4287.53 185.525C4288.82 186.514 4290.1 187.504 4291.3 188.511C4292.21 189.193 4293.2 189.775 4294.24 190.247L4295.57 190.924C4296.5 191.473 4297.28 192.247 4297.84 193.175C4298.39 194.103 4298.71 195.156 4298.75 196.236C4298.92 197.414 4298.81 198.615 4298.43 199.742C4298.05 200.87 4297.41 201.893 4296.56 202.729L4295.99 203.267C4295.17 204.123 4294.22 204.839 4293.18 205.385C4279.83 211.893 4265.67 216.565 4251.08 219.274L4248.63 219.725C4245.05 220.385 4241.68 220.993 4238.32 221.843C4237.63 222.025 4237.03 222.437 4236.61 223.009C4236.2 223.581 4235.99 224.279 4236.02 224.986C4236.02 227.173 4237.1 227.711 4237.55 227.937C4239.65 228.996 4241.79 229.933 4244.06 230.94C4246.34 231.947 4248.78 233.041 4251.15 234.222C4253.02 235.227 4254.77 236.451 4256.35 237.867L4257.31 238.683C4258.24 239.522 4258.97 240.568 4259.43 241.738C4259.89 242.907 4260.06 244.168 4259.95 245.419C4259.95 246.635 4259.66 247.834 4259.11 248.918C4258.56 250.001 4257.76 250.938 4256.77 251.652L4255.73 252.346C4254.08 253.516 4252.34 254.55 4250.52 255.436C4238.16 261.252 4231.22 277.259 4233.16 295.366C4233.33 295.745 4233.62 296.053 4233.99 296.234C4237.15 295.47 4240.23 294.654 4243.11 293.786C4252.41 291.008 4261.08 292.987 4268.87 299.723C4277.29 306.914 4282.97 316.784 4284.96 327.674C4285.38 329.809 4285.59 331.91 4285.8 333.959C4286.01 336.007 4286.16 337.57 4286.47 339.167C4287.08 342.76 4287.98 346.297 4289.17 349.74C4289.52 350.775 4290.1 351.72 4290.86 352.511C4291.62 353.302 4292.54 353.92 4293.56 354.323C4294.51 354.699 4295.52 354.866 4296.54 354.812C4297.56 354.758 4298.56 354.484 4299.46 354.01C4300.81 353.316 4302.13 352.483 4303.56 351.597C4304.98 350.712 4306.44 349.774 4308.02 348.941C4311.11 347.291 4314.3 345.836 4317.57 344.583C4320.63 343.42 4323.95 343.109 4327.18 343.683C4330.4 344.258 4333.41 345.697 4335.88 347.847C4338.29 349.843 4340.44 352.136 4342.27 354.67C4346.17 360.07 4349.05 366.144 4350.74 372.586C4353.2 380.839 4354.84 389.31 4355.66 397.881C4356.92 412.848 4361.24 427.397 4368.37 440.623C4372.58 448.452 4376.16 454.911 4379.6 460.917C4385.02 470.358 4389.37 480.374 4392.57 490.778C4396.18 502.75 4396.45 515.482 4393.36 527.6C4392.43 531.419 4391.3 535.065 4390.01 539.093C4382.13 563.745 4377.43 589.682 4372.88 614.768C4371.68 621.365 4370.48 627.962 4369.23 634.542C4367.58 643.222 4368.9 645.045 4378.04 647.163C4386.69 649.123 4395.67 649.224 4404.37 647.458C4405.9 647.18 4407.43 646.868 4408.95 646.555C4411.25 646.086 4413.56 645.618 4415.9 645.218C4418.38 644.97 4420.86 645.618 4422.9 647.045C4424.95 648.472 4426.41 650.583 4427.03 652.996L4427.18 653.621C4427.55 655.097 4427.93 656.624 4428.19 658.256C4432.81 688.171 4440.42 717.547 4450.9 745.945C4456.05 760.444 4462.05 774.629 4468.87 788.427C4470.43 791.702 4472.62 794.637 4475.32 797.063C4478.02 799.488 4481.17 801.355 4484.59 802.558C4488.07 803.826 4490.97 804.763 4493.74 805.51C4515.36 811.499 4537.64 814.748 4560.06 815.18C4571.36 815.353 4582.89 815.336 4594.02 815.301H4613.34C4618.67 815.301 4623.03 815.457 4627.02 815.752C4629.53 815.934 4631.94 816.856 4633.93 818.4C4635.92 819.945 4637.4 822.044 4638.2 824.433C4641.94 835.21 4644.55 846.346 4646 857.661C4646.14 859.048 4645.99 860.45 4645.54 861.772C4645.09 863.093 4644.37 864.303 4643.41 865.317C4642.55 866.258 4641.5 867.001 4640.32 867.496C4639.15 867.991 4637.88 868.224 4636.61 868.182C4628.19 867.713 4620.51 870.751 4613.46 874.102C4602.44 879.268 4592.23 886.037 4583.19 894.188C4557.96 917.069 4541.3 946.478 4532.22 984.082C4528.99 997.467 4527.82 1011.55 4526.71 1025.17C4526.54 1027.22 4526.38 1029.25 4526.21 1031.29C4525.97 1035.69 4526.1 1040.11 4526.59 1044.5C4526.69 1045.97 4526.82 1047.45 4526.92 1048.91C4527.04 1050.64 4527.28 1052.57 4527.55 1054.5C4527.81 1056.42 4528.07 1058.44 4528.21 1060.49C4529.34 1075.73 4531.88 1090.84 4535.79 1105.62C4540.38 1124.33 4546.18 1142.72 4553.15 1160.67C4555.03 1165.36 4556.88 1170.06 4558.72 1174.75C4560.93 1180.38 4563.13 1186 4565.41 1191.61C4574.21 1213.26 4557.13 1236.28 4542.04 1256.61C4537.16 1262.88 4532.65 1269.43 4528.53 1276.23C4563.72 1288.05 4609.85 1296.35 4642.59 1296.64C4676.28 1296.93 4709.92 1294.17 4743.11 1288.41C4750.4 1287.15 4757.38 1285.71 4762.82 1281.96C4771.06 1276.26 4775.3 1265.41 4778.72 1256.7L4927.57 875.751C4937.6 850.075 4950.14 818.131 4975.33 798.583C4992.08 785.632 5012.26 781.222 5033.7 785.823C5072.91 794.277 5107.36 829.398 5122.77 858.46C5140.13 891.341 5146.8 928.84 5150.93 961.166C5162.82 1054.05 5156.7 1135.22 5132.7 1202.48C5131.4 1206.22 5128.75 1209.36 5125.28 1211.28C5121.81 1213.2 5117.75 1213.77 5113.88 1212.88C5110.01 1212 5106.61 1209.72 5104.31 1206.48C5102.02 1203.24 5101 1199.27 5101.45 1195.33C5102.9 1181.7 5105.14 1167.93 5107.31 1154.62C5108.24 1148.75 5109.2 1142.88 5110.08 1137.03C5120.67 1067.08 5119.41 1002.76 5106.33 945.871C5090.88 878.702 5069.88 836.672 5043.83 820.874C5038.32 817.425 5032.14 815.179 5025.69 814.282C5019.25 813.384 5012.69 813.856 5006.44 815.666C4993.94 818.947 4985.47 831.134 4978.16 843.807C4939.15 911.514 4913.92 987.589 4889.48 1061.15C4862.54 1142.27 4834.69 1226.16 4788.23 1299.49C4779.8 1312.79 4769.92 1325.65 4755 1329.59C4740.09 1333.53 4726 1327.25 4712.37 1321.17C4708.29 1319.35 4704.05 1317.48 4699.99 1315.97C4683.64 1309.92 4665.7 1308.83 4648.34 1307.79C4578.41 1303.57 4515.24 1299.33 4450.15 1290.08C4445.15 1289.37 4440.13 1288.69 4435.12 1288.02C4429.68 1287.27 4424.25 1286.54 4418.82 1285.76C4409.49 1284.43 4400.18 1283.07 4390.88 1281.7L4361.13 1277.37C4339.91 1274.35 4321.04 1271.7 4303.44 1269.27C4295.46 1268.17 4287.5 1267.1 4279.57 1266.05C4268.44 1264.58 4257 1263.07 4245.64 1261.45C4235.75 1260.05 4225.69 1258.54 4215.96 1257.06C4199.25 1254.54 4181.98 1251.96 4164.95 1249.8C4149.67 1247.86 4134.74 1243.73 4120.63 1237.55C4093.29 1225.79 4069.39 1207.27 4051.19 1183.73C4042.51 1172.51 4035.56 1162.9 4029.69 1153.56C4017.28 1133.96 4005.63 1114.76 3994.97 1096.44C3981.66 1073.47 3968.41 1049.95 3955.58 1027.22C3951.71 1020.35 3947.83 1013.47 3943.93 1006.6C3939.57 998.856 3935.23 991.107 3930.91 983.353C3925.7 974.134 3920.62 964.933 3915.41 955.749C3908.46 943.798 3899.8 932.93 3889.7 923.493C3880.97 915.205 3870.55 908.925 3859.14 905.091L3856.24 904.118C3847.56 901.167 3838.48 898.112 3829.56 895.438C3815.01 890.981 3800.89 885.223 3787.37 878.233C3779.65 874.223 3771.97 870.178 3764.28 866.081C3756.59 861.984 3749.21 858.13 3741.71 854.206L3741.05 853.859C3733.57 849.988 3725.85 845.977 3718.07 842.575C3710.57 839.311 3706.45 841.863 3704.01 844.068C3703.45 844.557 3702.87 845.015 3702.27 845.439C3700.33 846.902 3698.02 847.805 3695.61 848.05C3693.19 848.294 3690.75 847.872 3688.56 846.828L3684.55 844.901C3681.87 843.599 3679.34 842.366 3676.77 841.429C3674.06 840.445 3671.22 839.86 3668.35 839.693C3665.49 839.507 3662.66 840.391 3660.42 842.171C3658.17 843.951 3656.67 846.502 3656.2 849.328C3655.7 852.196 3655.64 855.123 3656.02 858.008C3656.64 861.706 3657.5 865.359 3658.59 868.946L3658.99 870.421C3659.98 874.463 3662.19 878.101 3665.33 880.838C3666.77 882.053 3668.1 883.268 3669.22 884.31C3674.42 889.153 3677.18 895.49 3677.58 903.702C3677.65 905.805 3677.56 907.911 3677.34 910.004V910.247C3676.57 918.928 3679.04 927.588 3684.28 934.552C3687.35 938.824 3690.84 942.774 3694.7 946.34C3700.76 951.808 3707.13 957.19 3713.31 962.381L3721.18 968.995C3738.45 983.717 3756.9 996.581 3774.75 1008.92C3825.24 1044.1 3872.91 1077.33 3891.4 1147.36C3892.54 1151.65 3892.68 1158.05 3889.38 1161.99C3888.49 1163.07 3887.34 1163.91 3886.05 1164.44C3884.75 1164.96 3883.34 1165.16 3881.95 1165.01C3879.87 1164.82 3877.89 1163.99 3876.28 1162.65C3861.67 1150.97 3848.52 1137.56 3837.13 1122.72C3831.71 1115.78 3827.35 1106.87 3823.14 1098.42C3817.93 1088 3812.72 1077.34 3805.77 1070.64C3803.58 1068.3 3800.87 1066.49 3797.85 1065.37C3794.84 1064.24 3791.61 1063.83 3788.41 1064.17C3764.63 1066.32 3736.61 1102.55 3725.66 1117.98C3723.73 1120.73 3721.58 1123.56 3719.01 1126.79L3720.19 1128.05L3699.06 1164.06L3688.99 1181.13C3671.75 1210.26 3653.94 1240.36 3639.65 1270.46L3638.56 1272.74C3632.39 1285.74 3626 1299.18 3620.52 1312.67C3611.84 1334.14 3606.75 1358.62 3605.1 1387.56C3604.82 1392.6 3604.43 1397.7 3604.04 1402.63C3603.7 1407.02 3603.37 1411.31 3603.09 1415.79C3602.64 1423.17 3602.38 1430.67 3602.15 1437.28C3601.96 1447.99 3601.15 1458.68 3599.7 1469.3C3598.77 1475.53 3598.19 1481.97 3597.64 1488.2C3597.17 1493.41 3596.7 1498.62 3596.01 1503.95C3591.82 1536.29 3585.59 1568.65 3579.91 1595.96C3569.91 1644.79 3556.84 1692.02 3545.38 1731.75C3543.07 1739.76 3540.75 1747.76 3538.44 1755.75C3537.12 1760.58 3534.87 1765.11 3531.81 1769.08C3529.24 1772.39 3525.53 1774.61 3521.4 1775.3C3517.27 1775.99 3513.03 1775.1 3509.53 1772.79C3505.65 1770.15 3502.02 1767.16 3498.68 1763.85C3491.07 1755.93 3481.55 1750.08 3471.04 1746.88C3468.91 1746.21 3466.82 1745.41 3464.78 1744.5L3464.34 1744.31C3461.64 1743.2 3459.25 1741.44 3457.39 1739.18C3455.54 1736.93 3454.27 1734.24 3453.72 1731.37L3453.3 1729.53C3452.6 1726.75 3452.08 1723.92 3451.76 1721.06C3447.88 1680.85 3439.6 1640.59 3431.67 1601.65L3429.69 1591.97C3424.73 1567.66 3419.43 1542.11 3413.48 1513.84C3409.74 1496.14 3407.64 1477.96 3405.59 1460.41L3405.25 1457.49C3404.65 1451.22 3404.38 1444.93 3404.45 1438.64C3404.45 1435.89 3404.45 1433.15 3404.29 1430.42C3403.65 1412.94 3406.18 1395.98 3408.44 1383.15C3411.44 1366.88 3416.7 1351.1 3424.07 1336.28C3433.91 1316.19 3449.76 1303.69 3471.16 1299.14C3474.85 1298.36 3478.58 1297.65 3482.19 1296.96C3485.07 1296.42 3487.95 1295.88 3490.87 1295.22C3543.72 1284.44 3609.1 1264.68 3645.87 1207.1C3654.72 1192.69 3662.83 1177.84 3670.17 1162.6C3673.64 1155.55 3677.37 1148.26 3681.16 1141.14C3684.63 1134.56 3688.31 1128.3 3694.49 1124.17C3697.31 1122.3 3700.53 1121.11 3703.88 1120.69L3703.68 1119.44C3703.12 1116.09 3702.6 1112.95 3701.94 1109.81C3698.26 1093.99 3696.91 1077.15 3697.65 1056.81C3697.91 1049.55 3698.03 1042.29 3698.16 1035.26V1033.52C3698.31 1030.01 3698.22 1026.49 3697.88 1022.99C3697.37 1018.91 3696.42 1014.9 3695.05 1011.03C3694.04 1008.19 3692.39 1005.63 3690.25 1003.52C3688.1 1001.42 3685.5 999.829 3682.65 998.873C3663.42 991.356 3646.96 990.766 3639.7 997.328C3638.7 998.239 3637.86 999.306 3637.2 1000.49C3643.65 1003.73 3649.71 1007.67 3655.29 1012.24C3659.85 1015.95 3664.1 1020.01 3668.02 1024.39C3677.86 1035.03 3685.07 1047.83 3689.08 1061.75C3690.44 1065.77 3690.54 1070.11 3689.37 1074.18C3687.36 1079.93 3681.39 1084.15 3674.15 1084.93C3663.49 1086.09 3652.22 1080.35 3644.63 1069.95C3638.24 1061.11 3635.24 1050.4 3632.58 1040.96L3628.68 1027.07C3626.45 1020.04 3625.7 1012.63 3626.49 1005.3C3611.98 999.689 3595.85 998.561 3576.14 1001.44C3572.98 1001.89 3569.79 1002.14 3566.6 1002.19H3563.33C3544.76 1002.55 3525.52 1002.92 3506.62 1003.14C3499.29 1003.14 3493.32 1003.04 3487.88 1002.57C3483.18 1002.14 3478.53 1001.25 3473.99 999.915C3455.85 994.706 3441.36 983.092 3430.91 965.454C3429.17 962.624 3427.78 959.69 3426.37 956.86C3425.56 955.228 3424.74 953.579 3423.89 951.964C3419.09 942.794 3411.69 935.241 3402.63 930.246C3397.97 927.642 3393.08 925.16 3388.08 922.885C3364.01 912.137 3338.77 904.231 3312.87 899.327C3289.81 894.454 3266.27 892.229 3242.7 892.695C3233.53 892.955 3224.24 893.997 3215.25 895.021L3213.22 895.264C3173.67 899.726 3134.07 906.931 3110.13 935.333C3142.81 932.118 3175.67 939.467 3203.86 956.299C3232.06 973.132 3254.12 998.562 3266.8 1028.85C3273.37 1044.57 3277.21 1061.2 3280.46 1076.86C3301.59 1181.02 3302.63 1288.27 3283.51 1392.82C3273.57 1446.74 3252.61 1478.13 3221.24 1486.1C3190.36 1493.96 3160.29 1474.92 3144.19 1452.58C3127.51 1429.42 3120.93 1401.43 3115.13 1372.41C3093.78 1265.4 3081.32 1156.82 3077.89 1047.76C3077.04 1020.75 3076.85 994.376 3083.73 968.752C3085.7 961.197 3088.5 953.88 3092.06 946.93C3070.27 951.912 3050.39 961.86 3035.06 976.2C3021.3 989.134 3008.57 1004.29 2995.03 1023.89C2983.9 1040.02 2974.58 1057.4 2965.22 1075.28C2957.08 1090.9 2952.29 1105.29 2950.59 1119.44C2950.12 1123.31 2949.62 1127.2 2949.11 1131.07C2947.38 1143.94 2945.64 1157.25 2945.28 1170.4C2945.1 1175.24 2944.67 1180.08 2944.25 1184.79C2944.02 1187.23 2943.81 1189.68 2943.63 1192.13L2943.3 1196.47C2942.95 1201 2942.58 1205.69 2942.41 1210.26C2941.84 1224.87 2941.13 1241.87 2939.72 1258.66C2938.73 1270.43 2937.98 1282.46 2937.36 1294.09C2936.92 1301.52 2936.47 1309.2 2935.95 1316.66C2935.47 1323.9 2935.08 1331.3 2934.74 1338.43C2934.29 1347.65 2933.8 1357.18 2933 1366.59C2932.2 1376.55 2931.7 1386.76 2931.27 1396.64C2930.73 1407.49 2930.19 1418.71 2929.23 1429.77C2928.83 1434.24 2928.52 1438.74 2928.21 1443.24C2927.57 1452.46 2926.89 1462 2925.59 1471.43C2922.12 1498.07 2912.69 1523.59 2898 1546.08C2896.53 1548.34 2895.02 1550.56 2893.51 1552.8L2889.65 1558.55C2879 1574.57 2869.51 1591.33 2861.25 1608.7C2847.53 1637.73 2839.43 1662.42 2835.73 1686.37C2835.21 1689.85 2834.51 1693.32 2833.85 1696.58C2833.33 1699.17 2832.8 1701.79 2832.34 1704.45C2827.4 1733.42 2816.39 1760.52 2798.68 1787.33C2790.78 1799.3 2782.85 1810.92 2775.12 1821.84C2764.58 1836.7 2754.02 1851.54 2743.44 1866.35C2727.52 1888.66 2711.04 1911.75 2695.06 1934.56C2647.95 2001.73 2605.17 2071.84 2566.99 2144.45C2541.95 2192.11 2518.12 2243.29 2496.14 2296.58C2482.82 2328.88 2470.27 2362.38 2458.81 2396.15C2444.92 2437.31 2432.77 2478.04 2422.87 2517.15C2400.31 2606.47 2396.45 2675.27 2411.07 2727.46C2419.06 2756 2434.47 2782.6 2448.29 2805.27C2472.6 2845.2 2503.1 2887.04 2546.59 2900.6C2634.05 2901.14 2721.76 2906.31 2807.47 2923.44C2828.16 2927.58 2839.95 2936.83 2840.64 2949.48C2841.27 2961.13 2831.79 2971.67 2815.3 2977.64C2806.27 2980.91 2803.33 2980.58 2799.67 2977.96C2798.42 2977.09 2796.88 2975.99 2790.66 2976.01C2702.7 2976.01 2614.71 2976.01 2526.69 2976.01C2521.97 2976.01 2517.21 2975.77 2512.61 2975.53L2508.2 2975.3C2505.63 2975.18 2502.99 2975 2500.49 2974.85C2495.98 2974.57 2491.29 2974.28 2486.74 2974.22C2471.12 2974.05 2455.5 2974.12 2441.87 2974.22C2437.77 2974.22 2433.57 2974.47 2429.51 2974.69L2425.41 2974.9C2422.79 2975.02 2420.2 2975.18 2417.55 2975.33C2412.46 2975.65 2407.13 2975.98 2401.92 2976.03C2371.35 2976.31 2340.78 2976.56 2310.2 2976.78L2248.7 2977.24H2243.63C2237.71 2977.1 2231.79 2977.33 2225.9 2977.92C2214.03 2979.13 2202.1 2979.71 2190.17 2979.66H2187.2L2164.39 2979.97C2151.46 2980.14 2138.52 2980.3 2125.59 2980.53H2122.4C2117.52 2980.47 2112.64 2980.72 2107.8 2981.26C2097.23 2982.45 2086.61 2983.03 2075.97 2982.99L2062.59 2983.18C2049.2 2983.37 2035.82 2983.56 2022.45 2983.82H2018.98C2014.2 2983.79 2009.42 2984.03 2004.67 2984.55C1994.03 2985.75 1983.32 2986.33 1972.61 2986.29L1963.51 2986.41C1948.77 2986.62 1934.04 2986.85 1919.33 2987.09H1915.25C1911.22 2987.01 1907.2 2987.2 1903.2 2987.64C1891.18 2989.03 1879.09 2989.67 1866.99 2989.55H1861.12C1851.86 2989.69 1842.56 2989.81 1833.22 2989.9C1820.87 2990.06 1808.53 2990.23 1796.19 2990.4C1790.46 2990.49 1784.61 2990.79 1778.95 2991.06L1776.36 2991.19C1773.12 2991.34 1769.85 2991.57 1766.59 2991.78C1760.49 2992.17 1754.19 2992.59 1747.94 2992.64C1686.26 2993.06 1619.58 2993.42 1538.07 2993.77C1522.91 2993.77 1509.25 2993.77 1496.3 2993.29C1478.85 2992.58 1461.49 2990.35 1444.43 2986.62C1433.02 2984.26 1424.11 2979.87 1417.2 2973.22C1415.84 2971.81 1414.22 2970.67 1412.43 2969.87L1410.21 2968.95L1407.19 2950.04L1408.92 2948.46C1421.46 2936.92 1437.27 2930.21 1449.98 2924.82C1458.23 2921.34 1466.54 2917.97 1474.89 2914.69H0.15625V2906.01H1498.05C1541.41 2890.53 1585.93 2878.54 1631.19 2870.13C1649.61 2866.66 1669.39 2863.18 1688.83 2861.22L1697.84 2860.25C1715.64 2858.32 1734.02 2856.34 1752.42 2856.54C1765.55 2856.69 1778.9 2856.66 1791.8 2856.54C1801.83 2856.54 1812.18 2856.54 1822.39 2856.54C1837.01 2856.48 1851.62 2857.37 1866.14 2859.19C1875.96 2860.51 1886.08 2861.36 1895.86 2862.2C1901.27 2862.66 1906.88 2863.13 1912.38 2863.69C1917.59 2864.21 1922.8 2864.82 1927.85 2865.42C1932.09 2865.93 1936.31 2866.43 1940.54 2866.87C1958.53 2868.77 1977.33 2870.7 1998.01 2872.77C2000.77 2873.05 2003.6 2873.18 2006.39 2873.2C2031.17 2873.2 2057.64 2873.2 2089.72 2873.2C2093.16 2873.2 2096.6 2873.02 2100.02 2872.65C2108.28 2871.76 2116.54 2870.84 2124.79 2869.9C2132.84 2869 2140.87 2868.11 2148.89 2867.23C2176.25 2864.3 2203.9 2859.77 2230.64 2855.37H2231.06C2243.52 2853.34 2256.16 2850.95 2268.4 2848.62L2278.47 2846.73C2303.31 2842.07 2324.37 2824.75 2337.81 2797.96C2338.88 2795.83 2339.93 2793.57 2340.93 2791.38C2345.39 2781.71 2350.01 2771.71 2359.89 2765.08C2365.28 2761.34 2371.92 2759.88 2378.38 2761C2391.16 2763.4 2394.89 2774.51 2397.62 2782.63C2415.1 2834.71 2437.54 2873.62 2466.24 2900.96C2485.5 2900.61 2504.8 2900.4 2524.14 2900.32C2488.41 2881.22 2462.25 2844.66 2440.81 2809.54C2426.69 2786.36 2410.93 2759.19 2402.61 2729.56C2387.58 2675.88 2391.43 2605.62 2414.39 2514.79C2424.32 2475.43 2436.47 2434.5 2450.5 2393.11C2462.01 2359.17 2474.64 2325.49 2488.03 2293.03C2510.11 2239.48 2534.05 2188.06 2559.21 2140.25C2597.58 2067.31 2640.54 1996.89 2687.85 1929.41C2703.87 1906.56 2720.35 1883.47 2736.29 1861.13C2746.85 1846.31 2757.41 1831.49 2767.95 1816.65C2775.63 1805.8 2783.58 1794.27 2791.36 1782.36C2808.37 1756.6 2818.96 1730.57 2823.7 1702.81C2824.17 1700.07 2824.72 1697.35 2825.24 1694.69C2825.9 1691.46 2826.56 1688.13 2826.98 1684.88C2830.82 1660.05 2839.13 1634.62 2853.21 1604.83C2861.66 1587.08 2871.36 1569.95 2882.24 1553.58C2883.52 1551.64 2884.84 1549.71 2886.14 1547.77C2887.64 1545.56 2889.12 1543.34 2890.59 1541.13C2904.55 1519.74 2913.52 1495.47 2916.82 1470.13C2918.09 1460.98 2918.75 1451.59 2919.37 1442.49C2919.7 1437.96 2920.02 1433.43 2920.41 1428.9C2921.35 1417.99 2921.89 1406.87 2922.43 1396.1C2922.91 1386.16 2923.42 1375.88 2924.16 1365.77C2924.91 1356.49 2925.38 1347.02 2925.9 1337.88C2926.25 1330.69 2926.63 1323.27 2927.12 1315.95C2927.6 1308.62 2928.07 1300.9 2928.52 1293.38C2929.2 1281.7 2929.89 1269.61 2930.88 1257.74C2932.27 1241.12 2933 1224.23 2933.56 1209.72C2933.75 1204.98 2934.11 1200.2 2934.48 1195.59L2934.81 1191.28C2934.98 1188.8 2935.21 1186.3 2935.43 1183.82C2935.83 1179.23 2936.27 1174.49 2936.42 1169.93C2936.89 1156.39 2938.64 1142.88 2940.33 1129.81C2940.83 1125.95 2941.31 1122.1 2941.79 1118.24C2943.63 1103.04 2948.73 1087.62 2957.41 1071.11C2966.89 1052.97 2976.35 1035.33 2987.77 1018.8C3001.66 998.682 3014.77 983.092 3029.01 969.707C3047.18 952.607 3071.59 941.34 3097.91 936.722C3123.2 899.865 3169.28 891.254 3212.11 886.376L3214.16 886.15C3223.32 885.091 3232.8 884.015 3242.32 883.754C3266.55 883.277 3290.75 885.561 3314.47 890.56C3341.01 895.595 3366.88 903.704 3391.55 914.726C3396.76 917.104 3401.97 919.691 3406.74 922.399C3417.27 928.215 3425.86 936.992 3431.44 947.642C3432.35 949.378 3433.18 951.114 3434.03 952.746C3435.42 955.558 3436.74 958.214 3438.25 960.766C3447.68 976.669 3460.11 986.651 3476.29 991.304C3480.25 992.48 3484.32 993.271 3488.44 993.665C3494.39 994.143 3500.35 994.323 3506.32 994.203C3525.21 993.977 3544.41 993.613 3562.99 993.248H3566.23C3569.07 993.205 3571.9 992.984 3574.7 992.588C3595.54 989.55 3613.11 990.852 3628.92 996.79C3630.11 994.496 3631.7 992.437 3633.63 990.713C3643.63 981.651 3662.55 981.617 3685.55 990.592C3689.56 992.008 3693.19 994.302 3696.2 997.306C3699.2 1000.31 3701.5 1003.95 3702.91 1007.95C3704.51 1012.42 3705.6 1017.05 3706.18 1021.75C3706.58 1025.67 3706.69 1029.61 3706.52 1033.54V1035.17C3706.4 1042.24 3706.28 1049.55 3706 1056.87C3705.29 1076.42 3706.59 1092.55 3710.08 1107.6C3710.88 1111.07 3711.45 1114.55 3711.99 1117.78C3712.15 1118.7 3712.29 1119.51 3712.44 1120.5C3714.79 1117.55 3716.75 1114.96 3718.52 1112.46C3732.98 1092.03 3761.18 1057.38 3787.58 1054.98C3792.02 1054.55 3796.5 1055.12 3800.69 1056.67C3804.87 1058.21 3808.66 1060.69 3811.75 1063.91C3819.72 1071.7 3825.34 1083 3830.84 1094.11C3834.87 1102.27 3839.06 1110.69 3843.93 1117.05C3854.9 1131.3 3867.55 1144.17 3881.61 1155.4C3881.89 1155.65 3882.23 1155.82 3882.6 1155.9H3882.79C3883.58 1153.71 3883.63 1151.32 3882.94 1149.09C3865.27 1082.15 3818.85 1049.81 3769.72 1015.57C3751.71 1003.02 3733.07 990.036 3715.48 975.054L3707.67 968.457C3701.42 963.249 3694.98 957.797 3688.8 952.225C3684.52 948.262 3680.65 943.876 3677.25 939.135C3670.7 930.495 3667.61 919.726 3668.57 908.927V909.136C3668.76 907.406 3668.83 905.666 3668.78 903.927C3668.5 898.007 3666.72 893.737 3663.19 890.473C3662.15 889.518 3660.92 888.372 3659.62 887.279C3655.14 883.42 3651.96 878.272 3650.52 872.539L3650.1 871.098C3648.92 867.145 3647.98 863.121 3647.31 859.05C3646.81 855.317 3646.88 851.53 3647.51 847.818C3648.34 842.885 3650.97 838.432 3654.88 835.314C3658.79 832.197 3663.72 830.634 3668.71 830.926C3672.45 831.162 3676.14 831.952 3679.65 833.269C3682.65 834.381 3685.5 835.769 3688.33 837.106C3689.6 837.731 3690.86 838.356 3692.15 838.946C3692.98 839.364 3693.92 839.526 3694.85 839.412C3695.78 839.298 3696.65 838.912 3697.36 838.304C3697.66 838.097 3697.94 837.865 3698.21 837.61C3704.65 831.811 3712.72 830.769 3721.56 834.623C3729.6 838.096 3737.46 842.21 3745.08 846.168L3745.72 846.498C3753.31 850.422 3760.86 854.415 3768.41 858.408C3775.97 862.401 3783.76 866.498 3791.45 870.56C3804.5 877.307 3818.13 882.867 3832.18 887.174C3841.23 889.935 3850.32 893.008 3859.11 895.976L3862.01 896.948C3874.6 901.195 3886.12 908.139 3895.76 917.295C3906.47 927.307 3915.64 938.843 3922.99 951.53C3928.21 960.732 3933.39 969.95 3938.53 979.186C3942.86 986.929 3947.2 994.666 3951.55 1002.4C3955.44 1009.27 3959.32 1016.15 3963.18 1023.02C3976 1045.75 3989.23 1069.24 4002.52 1092.17C4013.08 1110.36 4024.68 1129.48 4037.02 1148.97C4042.8 1158.11 4049.48 1167.48 4058.04 1178.49C4075.33 1200.87 4098.03 1218.49 4124.01 1229.68C4137.37 1235.54 4151.5 1239.45 4165.97 1241.3C4183.09 1243.45 4200.44 1246.07 4217.19 1248.59C4226.89 1250.05 4236.93 1251.56 4246.81 1252.96C4258.06 1254.56 4269.53 1256.09 4280.62 1257.56C4288.61 1258.62 4296.58 1259.69 4304.55 1260.78C4322.17 1263.21 4341 1265.85 4362.29 1268.88C4372.22 1270.31 4382.14 1271.75 4392.06 1273.21L4420.05 1277.18C4425.45 1277.96 4430.86 1278.69 4436.3 1279.42L4451.38 1281.5C4485.88 1286.42 4519.89 1289.91 4554.66 1292.74C4542.77 1289.77 4531.3 1286.38 4520.91 1282.7L4516.49 1281.14L4518.4 1276.85C4521.87 1269.07 4528.24 1260.45 4535.03 1251.31C4548.74 1232.84 4564.28 1211.91 4557.32 1194.77C4555.03 1189.15 4552.8 1183.49 4550.58 1177.81C4548.77 1173.18 4546.92 1168.52 4545.04 1163.82C4537.96 1145.51 4532.07 1126.76 4527.41 1107.69C4523.36 1092.39 4520.73 1076.75 4519.56 1060.97C4519.44 1059.24 4519.19 1057.5 4518.95 1055.52C4518.71 1053.54 4518.41 1051.48 4518.27 1049.36C4518.19 1047.93 4518.07 1046.51 4517.94 1045.09C4517.41 1040.22 4517.29 1035.32 4517.58 1030.43C4517.75 1028.4 4517.91 1026.37 4518.08 1024.36C4519.21 1010.38 4520.39 995.956 4523.8 981.912C4533.29 942.572 4550.83 911.722 4577.37 887.626C4587.06 878.91 4597.97 871.668 4609.77 866.133C4617.84 862.296 4626.73 858.842 4637.07 859.38C4637.25 859.148 4637.36 858.872 4637.39 858.581C4636.02 847.861 4633.54 837.313 4629.99 827.106C4629.74 826.339 4629.26 825.663 4628.63 825.166C4627.99 824.668 4627.22 824.371 4626.41 824.311C4622.63 824.034 4618.46 823.895 4613.32 823.877H4594.05C4582.89 823.877 4571.33 823.877 4559.96 823.756C4536.8 823.312 4513.79 819.964 4491.47 813.791C4488.47 812.975 4485.32 811.95 4481.63 810.596C4472.63 807.405 4465.26 800.791 4461.12 792.194C4454.16 778.096 4448.02 763.604 4442.74 748.792C4432.05 719.849 4424.29 689.909 4419.56 659.419C4419.39 658.204 4419.06 656.937 4418.73 655.583L4418.57 654.958C4418.45 654.651 4418.26 654.374 4418.02 654.146C4417.78 653.918 4417.5 653.745 4417.18 653.638C4415.1 654.003 4412.9 654.472 4410.69 654.923L4405.97 655.861C4396.09 657.815 4385.9 657.685 4376.07 655.479C4362.32 652.302 4358.16 646.139 4360.69 632.771C4361.94 626.226 4363.14 619.646 4364.34 613.066C4368.94 587.72 4373.69 561.505 4381.7 536.315C4382.93 532.443 4384.02 528.954 4384.88 525.412C4387.64 514.817 4387.41 503.664 4384.22 493.191C4381.22 483.406 4377.14 473.985 4372.06 465.101C4368.59 459.008 4364.96 452.497 4360.71 444.581C4353.02 430.319 4348.35 414.631 4346.98 398.488C4346.21 390.47 4344.67 382.546 4342.38 374.826C4340.97 369.403 4338.58 364.288 4335.31 359.739C4333.9 357.807 4332.26 356.058 4330.41 354.531C4329.13 353.321 4327.52 352.501 4325.78 352.167C4324.05 351.832 4322.25 351.995 4320.61 352.639C4317.68 353.769 4314.82 355.074 4312.05 356.545C4310.76 357.222 4309.5 358.021 4308.16 358.871C4306.82 359.722 4305.1 360.798 4303.42 361.666C4301.42 362.695 4299.22 363.288 4296.97 363.405C4294.73 363.521 4292.48 363.16 4290.38 362.343C4288.22 361.485 4286.26 360.176 4284.64 358.502C4283.02 356.829 4281.78 354.83 4280.99 352.639C4279.64 348.747 4278.62 344.752 4277.92 340.695C4277.53 338.646 4277.34 336.615 4277.13 334.653C4276.93 332.691 4276.77 330.903 4276.44 329.167C4274.8 320.2 4270.12 312.071 4263.19 306.147C4257.62 301.338 4252.03 300.019 4245.59 301.946C4242.47 302.883 4239.15 303.682 4235.71 304.584C4234.51 304.832 4233.27 304.822 4232.07 304.556C4230.88 304.29 4229.75 303.773 4228.77 303.039C4227.62 302.253 4226.66 301.237 4225.93 300.056C4225.2 298.876 4224.72 297.556 4224.53 296.182C4222.12 274.464 4231.06 254.915 4246.79 247.572C4248.17 246.86 4249.5 246.048 4250.76 245.141L4251.13 244.898L4250.66 244.499C4249.6 243.528 4248.44 242.678 4247.19 241.964C4245.03 240.871 4242.83 239.898 4240.49 238.857C4238.14 237.815 4235.9 236.826 4233.54 235.68C4231.57 234.69 4229.93 233.156 4228.81 231.26C4227.69 229.364 4227.14 227.186 4227.22 224.986C4227.17 222.335 4228.01 219.743 4229.63 217.638C4231.24 215.534 4233.52 214.041 4236.09 213.406C4239.71 212.486 4243.39 211.826 4246.94 211.167L4249.36 210.715C4263.2 208.151 4276.64 203.718 4289.29 197.538C4287.98 196.892 4286.74 196.1 4285.61 195.177C4284.5 194.24 4283.32 193.337 4282.13 192.417C4278.89 190.092 4275.9 187.413 4273.25 184.431C4271.24 181.665 4269.91 178.475 4269.34 175.108C4267.99 169.293 4272.55 163.564 4277.52 162.314C4282.21 161.341 4287.04 161.2 4291.79 161.897L4293.84 162.088L4299.04 162.539C4304.88 163.077 4310.94 163.616 4316.79 163.633C4321.57 163.501 4326.33 162.955 4331.02 162.001L4332.53 161.741C4342.6 159.989 4351.67 154.602 4358.02 146.602C4363.9 139.658 4370.57 131.811 4376.82 124.033C4381.77 117.918 4387.41 112.395 4393.62 107.575C4432 77.737 4477.46 58.3785 4525.57 51.3962C4526.82 51.2052 4528.08 51.049 4529.35 50.8927C4531.4 50.6497 4533.34 50.424 4535.2 50.0247C4543.88 48.1845 4550.24 45.0769 4555.25 40.268C4556.71 38.8618 4558.22 37.4729 4559.71 36.1014L4561.45 34.5389C4569.18 27.3863 4578.81 23.1677 4590.96 21.6226C4601.57 20.2685 4611.8 22.9073 4622.21 29.7127C4624.33 31.0668 4626.33 32.5598 4628.27 34.0007C4629.92 35.2333 4631.5 36.3965 4633.12 37.4728C4634.79 38.7512 4636.73 39.6365 4638.79 40.0633C4640.85 40.49 4642.98 40.4473 4645.03 39.9381C4647.15 39.2633 4649.11 38.1496 4650.77 36.6691C4652.44 35.1887 4653.78 33.3746 4654.69 31.3446C4656.74 26.5101 4658.29 21.4858 4659.35 16.3449C4659.83 13.9403 4660.12 11.5028 4660.23 9.05341C4660.23 8.02913 4660.39 6.98755 4660.48 5.96327L4660.77 2.83836L4673.01 0.0432129L4674.66 2.61267C4678.74 8.97102 4681.6 16.0369 4683.08 23.4455C4684.82 31.8481 4689.71 37.4902 4698.11 40.6499C4704.59 43.2093 4711.27 45.1904 4718.1 46.5699C4744.47 51.5177 4770.37 62.5938 4797.26 80.4405C4818.61 94.6069 4839.22 113.287 4862.12 139.241C4882.15 161.932 4900.31 186.115 4913.79 204.569C4925.47 220.4 4935.7 237.25 4944.36 254.915C4968.06 303.734 4981.21 354.028 4983.49 404.374C4986.15 463.4 4976.06 545.62 4947.55 596.192C4941.55 606.817 4933.87 616.348 4926.46 625.566L4872.75 692.127C4871.21 693.979 4870.15 696.178 4869.65 698.533C4868.56 704.401 4870.28 710.529 4872.12 717.04C4874.41 725.216 4877.03 734.487 4873.77 744.244C4870.51 754.001 4861.77 763.896 4853.25 773.618C4849.28 777.958 4845.55 782.502 4842.05 787.229C4819.57 819.641 4792.31 855.96 4753.51 876.793C4720.51 894.299 4682.32 899.399 4645.88 891.167C4645.87 891.651 4645.95 892.132 4646.1 892.591C4647.35 896.705 4653.71 901.757 4659.99 903.65C4678.84 909.361 4696 910.42 4710.96 906.792C4723.29 903.806 4734.94 897.4 4746.2 891.167L4752.24 887.869L4773.49 876.237C4776.81 874.362 4780.21 872.487 4783.62 870.612C4791.84 866.099 4800.35 861.411 4808.25 856.203C4836.81 837.175 4859.14 810.179 4872.48 778.566C4884.85 749.053 4898.06 724.192 4934.64 718.376C4954.18 715.286 4971.53 715.633 4987.66 719.453C5009.76 724.523 5031.01 732.787 5050.73 743.983C5083.91 762.923 5114.44 786.168 5141.52 813.114C5154.94 826.603 5172.23 844.693 5186.92 864.987C5191.3 871.256 5197.18 876.329 5204.02 879.744C5215.29 885.282 5226.16 892.66 5239.28 903.667C5263.08 923.269 5281.76 948.348 5293.74 976.755C5304.53 1002.58 5311.02 1030 5312.94 1057.92C5313.45 1064.72 5315.57 1071.3 5319.14 1077.12C5334.64 1102.59 5350.68 1128.94 5366.14 1155.94C5380.13 1180.38 5397.84 1212.95 5410.67 1247.95C5418.22 1268.59 5425.42 1290.41 5432.68 1314.63C5438.58 1334.3 5443.96 1354.45 5449.17 1373.95C5450.47 1378.85 5451.79 1383.72 5453.1 1388.62C5468.72 1446.73 5487.63 1496.26 5510.82 1539.95C5515.63 1549.02 5520.44 1558.76 5526.44 1571.52C5536.98 1594.08 5543.81 1613.18 5548.11 1631.88C5553.68 1656.46 5554.62 1677.02 5551.06 1696.41C5548.22 1711.39 5550.99 1726.89 5558.84 1739.97C5561.83 1745.09 5565.12 1750.02 5567.64 1753.72C5569.52 1756.46 5571.5 1759.22 5573.41 1761.89C5576.29 1765.9 5579.26 1770.05 5582.09 1774.32C5593.93 1792.78 5601.06 1810.36 5603.91 1828.14C5604.85 1833.9 5605.64 1839.77 5606.44 1845.5C5606.93 1849.08 5607.43 1852.67 5607.95 1856.23C5609.57 1867.57 5609.66 1879.07 5608.23 1890.43C5607.64 1895.31 5607.31 1900.26 5606.98 1905.33C5606.66 1909.61 5607.44 1913.9 5609.25 1917.79C5614.69 1929.62 5619.1 1941.89 5622.43 1954.47L5622.59 1955.03V2066.14L5622.45 2066.66L5621.67 2069.66C5621.08 2071.88 5620.52 2073.99 5620.07 2076.12C5619.69 2077.86 5619.38 2079.7 5619.06 2081.5C5618.63 2084.05 5618.18 2086.71 5617.52 2089.32C5616.48 2093.57 5615.31 2097.84 5614.17 2101.97C5613.4 2104.75 5612.64 2107.51 5611.91 2110.3C5611.48 2111.95 5611.03 2113.6 5610.57 2115.25C5609.25 2120.06 5608.01 2124.61 5607.21 2129.26C5606.35 2133.34 5604.84 2137.25 5602.73 2140.84C5601.33 2143.28 5600.22 2145.87 5599.41 2148.57C5599.15 2149.62 5598.83 2150.67 5598.46 2151.69C5596.72 2156 5595.12 2160.37 5593.47 2164.64C5589.85 2174.19 5586.08 2184.07 5582 2193.67C5570.87 2220.07 5556.97 2245.22 5540.52 2268.69C5527.68 2287.3 5512.55 2304.21 5495.47 2319.03C5453.22 2355.11 5402.87 2375.59 5345.88 2379.95C5316.68 2382.02 5287.33 2380.41 5258.53 2375.16C5230.95 2370.11 5203.89 2362.5 5177.72 2352.43C5157.85 2344.9 5138.38 2336.34 5119.39 2326.81C5096.14 2315.18 5071.32 2302.38 5047.38 2287.66C5037.95 2281.86 5028.37 2276.29 5020.24 2271.58C5019.18 2270.99 5018.05 2270.54 5016.87 2270.25C5016.86 2270.34 5016.86 2270.43 5016.87 2270.53C5016.27 2279.55 5017.65 2288.37 5019.11 2297.7C5019.79 2302.07 5020.5 2306.58 5020.99 2311.12C5021.52 2312.13 5022.26 2313.01 5023.16 2313.72C5024.77 2315.05 5026.51 2316.22 5028.37 2317.19L5029.3 2317.73C5033.12 2319.95 5036.95 2322.16 5040.78 2324.34C5046.98 2327.82 5053.37 2331.55 5059.62 2335.3C5080 2347.52 5100.37 2359.77 5120.74 2372.03C5145.05 2386.69 5169.4 2401.32 5193.8 2415.94C5213.15 2427.54 5234.07 2439.78 5255.96 2450.85C5262.39 2454.21 5269.21 2456.74 5276.28 2458.39C5283.24 2459.86 5290.1 2461.77 5296.81 2464.11C5330.88 2476.27 5361.15 2488.63 5389.4 2501.87C5395.72 2504.84 5401.83 2508.3 5407.75 2511.65L5413.1 2514.67C5415.4 2516.01 5417.21 2518.05 5418.26 2520.49C5419.32 2522.94 5419.56 2525.65 5418.95 2528.25C5417.64 2532.72 5415.86 2538.66 5413.74 2544.36C5401.59 2576.47 5385.96 2607.43 5372.18 2633.92L5366.41 2645.01C5357.47 2662.18 5348.22 2679.93 5339.4 2697.51C5326.54 2723.13 5315.57 2749.66 5306.59 2776.89C5298.43 2801.83 5290.01 2827.23 5281.88 2851.62L5280.43 2855.96C5273.55 2876.61 5265.11 2896.69 5255.17 2916.05C5248.71 2928.65 5242.29 2941.27 5235.91 2953.89C5232.01 2961.6 5228.11 2969.3 5224.19 2976.98H5669.06V2985.66H5219.51C5218.76 2986.95 5218.03 2988.15 5217.29 2989.29C5215.42 2992.26 5212.58 2994.47 5209.24 2995.55C5205.91 2996.63 5202.3 2996.51 5199.06 2995.2C5192.75 2992.87 5186.81 2989.66 5181.42 2985.66H5008.94C5008.02 2990.97 5005.12 2995.74 5000.83 2999L4999.67 2999.97ZM4892.48 2991.29H4996.65C4998.28 2989.78 4999.47 2987.86 5000.12 2985.73H4835.73C4851.13 2986.84 4864.62 2987.82 4877.28 2988.69L4879.38 2988.81C4883.86 2988.83 4888.3 2989.67 4892.48 2991.29ZM4573.41 2985.73C4576.52 2985.92 4579.63 2986.15 4582.68 2986.38C4586.05 2986.62 4589.44 2986.88 4592.8 2987.07L4595.96 2987.28C4601.42 2987.61 4607.06 2987.96 4612.56 2988.03C4623.93 2988.16 4635.53 2988.11 4646.73 2988.03H4652.99C4655.95 2988.11 4658.9 2987.97 4661.83 2987.61C4668.38 2986.6 4674.96 2986.05 4681.5 2985.7L4573.41 2985.73ZM5198.5 2985.73C5199.61 2986.22 5200.74 2986.67 5201.89 2987.07C5203.1 2987.59 5204.43 2987.74 5205.73 2987.5C5207.02 2987.27 5208.22 2986.65 5209.16 2985.73H5198.5ZM1417.93 2963.51C1419.83 2964.61 1421.58 2965.95 1423.14 2967.49C1428.92 2973.04 1436.21 2976.59 1446.09 2978.63C1462.65 2982.27 1479.5 2984.45 1496.44 2985.13C1509.29 2985.53 1522.86 2985.68 1537.91 2985.61C1619.4 2985.27 1686.09 2984.9 1747.75 2984.48C1753.76 2984.48 1759.9 2984.03 1765.89 2983.63C1769.21 2983.42 1772.51 2983.2 1775.82 2983.04L1778.39 2982.9C1784.14 2982.63 1790.06 2982.33 1795.93 2982.24C1808.27 2982.06 1820.62 2981.9 1832.99 2981.76C1842.28 2981.64 1851.59 2981.53 1860.87 2981.39H1866.76C1878.5 2981.51 1890.25 2980.9 1901.92 2979.57C1906.29 2979.07 1910.69 2978.85 1915.09 2978.93H1919.05L1963.25 2978.25L1972.36 2978.13C1982.74 2978.15 1993.11 2977.57 2003.42 2976.39C2008.51 2975.83 2013.63 2975.56 2018.75 2975.6H2022.22C2035.62 2975.35 2049 2975.14 2062.38 2974.95L2075.78 2974.76C2086.08 2974.77 2096.37 2974.19 2106.6 2973.03C2111.79 2972.45 2117 2972.19 2122.22 2972.23H2125.38C2138.33 2972.02 2151.28 2971.83 2164.22 2971.67L2187.01 2971.36H2189.98C2201.58 2971.39 2213.17 2970.81 2224.7 2969.62C2230.94 2968.98 2237.22 2968.73 2243.49 2968.88H2248.47L2309.98 2968.41C2340.56 2968.16 2371.13 2967.92 2401.69 2967.66C2406.69 2967.66 2411.83 2967.3 2416.8 2966.98C2419.47 2966.83 2422.13 2966.65 2424.78 2966.53L2428.85 2966.32C2433 2966.12 2437.3 2965.89 2441.59 2965.86C2455.18 2965.77 2471 2965.7 2486.73 2965.86C2491.5 2965.86 2496.29 2966.2 2500.93 2966.5C2503.45 2966.65 2505.96 2966.81 2508.48 2966.93L2512.94 2967.16C2517.44 2967.4 2522.07 2967.64 2526.57 2967.64C2614.53 2967.64 2702.52 2967.64 2790.54 2967.64C2798.8 2967.64 2801.98 2969.38 2804.53 2971.12C2804.76 2971.29 2805 2971.44 2805.24 2971.57C2805.42 2971.57 2806.7 2971.76 2812.19 2969.74C2822 2966.27 2832.31 2959.19 2831.82 2950.23C2831.22 2938.96 2815.16 2934.1 2805.63 2932.19C2749.5 2920.98 2692.4 2914.83 2635.02 2911.95C2639.63 2913.41 2644.08 2915.34 2648.29 2917.71C2651.12 2919.31 2659.71 2924.16 2658.16 2934.17C2657.59 2937.56 2656.09 2940.73 2653.84 2943.33C2651.59 2945.92 2648.68 2947.86 2645.4 2948.91C2589.26 2968.27 2522.46 2957.21 2475.27 2920.72C2471 2917.42 2466.84 2913.91 2462.8 2910.2C2434.75 2910.75 2406.82 2911.53 2379.06 2912.32C2328.99 2913.72 2277.22 2915.16 2226.44 2915.16H1499.56C1483.97 2920.75 1468.53 2926.79 1453.23 2933.27C1438.68 2939.45 1426.61 2944.94 1416.39 2953.77L1417.93 2963.51ZM5009.55 2977.05H5170.5C5162.47 2969.23 5156.76 2959.34 5154.01 2948.48C5150.26 2934.31 5147.65 2922.32 5147.2 2909.87C5146 2881.43 5146.23 2852.94 5147.91 2824.52C5148.4 2818.38 5147.85 2812.19 5146.3 2806.22C5141.59 2788.25 5138.44 2769.91 5136.87 2751.4C5136.47 2747.09 5136.04 2742.72 5135.6 2738.5C5133.79 2723.36 5132.8 2708.13 5132.63 2692.88C5132.61 2691.32 5132.47 2689.78 5132.24 2688.24C5132.1 2687.15 5131.96 2686.07 5131.85 2684.98V2684.04C5131.23 2676.59 5130.6 2669.14 5130.12 2661.7L5129.87 2658.35C5129.35 2651.26 5128.8 2643.92 5128.47 2636.66C5128.23 2630.43 5128.49 2624.18 5129.25 2617.98C5129.52 2615.88 5129.91 2613.8 5130.41 2611.75L5130.53 2611.25C5132.27 2603.28 5118.29 2596.56 5107.97 2591.66C5104.04 2589.96 5100.27 2587.93 5096.68 2585.61C5078.45 2572.25 5071.8 2559.08 5065.92 2539.43C5063.09 2529.95 5060.14 2520.16 5057.93 2510.26C5054.36 2494.36 5052.48 2477.69 5050.66 2461.65C5046.72 2426.58 5042.98 2393.47 5023.49 2366.67C5019.91 2361.76 5014.39 2356.74 5009.32 2356.74C5009.44 2386.25 5018.37 2415.07 5027 2443C5030.61 2454.65 5035.24 2466.96 5040.14 2480C5051.39 2509.86 5063.02 2540.76 5064.96 2570.28C5067.25 2605 5055.48 2631.26 5028.97 2650.72C5024.11 2654.3 5018.94 2657.46 5013.92 2660.52C5012.31 2661.49 5010.7 2662.48 5009.08 2663.49C5007.48 2664.47 5005.85 2665.36 5004.27 2666.19C5002.69 2667.03 5001.58 2667.63 5000.33 2668.4C4999.23 2668.96 4998.3 2669.8 4997.63 2670.83C4996.96 2671.87 4996.58 2673.07 4996.53 2674.3C4996.27 2683.28 4996.02 2692.84 4996.06 2702.46C4996.13 2713.95 4996.23 2725.45 4996.37 2736.94C4996.47 2746.53 4996.57 2756.13 4996.65 2765.72C4996.65 2781.14 4996.8 2795.04 4996.65 2809.12C4996.36 2820.38 4997.68 2831.62 5000.57 2842.51C5006.13 2862.79 5008.07 2883.38 5009.34 2902.59C5010.78 2926.64 5010.31 2950.75 5009.55 2977.05ZM3071.56 2977.05H4505.86C4505.48 2974.76 4505.36 2972.43 4505.5 2970.11C4506.29 2960.27 4508.49 2950.6 4512.04 2941.4C4514.94 2933.38 4519.8 2926.22 4526.17 2920.56C4537.95 2909.68 4551.34 2900.68 4565.86 2893.88C4586.69 2884.54 4608.32 2875.25 4632.23 2865.49C4640.84 2861.98 4649 2857.45 4656.54 2851.99C4664.38 2846.15 4672.53 2840.71 4680.93 2835.7C4718.03 2814.12 4758.15 2791.83 4800.07 2774.94C4801.26 2774.47 4802.31 2773.7 4803.12 2772.72C4803.93 2771.73 4804.48 2770.55 4804.71 2769.3C4805.43 2766.23 4805.97 2763.12 4806.32 2759.99C4806.67 2757.3 4806.95 2754.61 4807.23 2751.9C4807.45 2749.65 4807.69 2747.39 4807.97 2745.13C4808.84 2737.86 4809.72 2730.59 4810.61 2723.31C4811.86 2712.89 4813.11 2702.54 4814.34 2692.23C4814.5 2691.25 4814.5 2690.25 4814.34 2689.27C4814.13 2688.73 4813.78 2688.27 4813.32 2687.93C4812.38 2687.67 4811.4 2687.53 4810.42 2687.53C4808.68 2687.53 4806.95 2687.41 4805.21 2687.37C4802.54 2687.37 4799.78 2687.29 4797 2687.03C4785.56 2685.95 4777.9 2678.21 4777.02 2666.84C4776.49 2661 4776.59 2655.13 4777.33 2649.32C4778.48 2638.51 4780.78 2627.85 4784.19 2617.53C4785.07 2615.08 4785.92 2612.64 4786.79 2610.17C4789.01 2603.75 4791.32 2597.12 4794.1 2590.71C4801.43 2573.8 4783.96 2549.95 4769.94 2530.76C4763.58 2522.08 4757.57 2513.85 4754.15 2506.84C4746.03 2490.19 4738.11 2473.25 4730.37 2456.39C4731.03 2465.35 4729.85 2475.68 4723.43 2483.92C4712.32 2498.4 4690.13 2491.72 4672.28 2486.35C4667.08 2484.61 4661.76 2483.25 4656.36 2482.26C4628.24 2478.42 4599.61 2475.43 4571.29 2473.37C4569.72 2473.25 4568.14 2473.11 4566.55 2472.95L4564.59 2472.78L4546.5 2471.04C4532.89 2469.77 4518.73 2468.46 4504.98 2467.57C4498.59 2467.15 4492.18 2466.79 4485.79 2466.42C4476.26 2465.89 4466.42 2465.31 4456.71 2464.55C4447.01 2463.78 4437.62 2463.33 4428.14 2462.81C4417.9 2462.33 4407.31 2461.82 4396.89 2460.94C4389.11 2460.28 4381.16 2459.9 4373.45 2459.53C4364.77 2459.12 4355.83 2458.68 4346.99 2457.8C4337.71 2456.93 4328.19 2456.37 4318.99 2455.83C4311.32 2455.38 4303.37 2454.93 4295.54 2454.27C4268.98 2452.08 4245.09 2449.91 4222.5 2447.66C4198.58 2445.26 4173.32 2442.03 4143.01 2437.47C4103.82 2431.57 4064.99 2423.52 4026.69 2413.35C3988.25 2403.11 3955.6 2390.09 3926.9 2373.53C3894.57 2354.86 3868.98 2333.13 3848.78 2307.05C3829.23 2281.95 3816.57 2254.62 3811.14 2225.84C3809.11 2215.26 3807.9 2204.55 3807.49 2193.79C3807.46 2187.45 3808 2181.11 3809.11 2174.87C3809.35 2173.13 3809.59 2171.55 3809.82 2169.9C3812.69 2149.55 3819.11 2129.86 3828.78 2111.73C3839.46 2091.76 3852.82 2073.33 3868.48 2056.97C3883.55 2041.11 3899.8 2026.41 3917.09 2013C3967.02 1973.64 4023.23 1937.81 4088.96 1903.43C4134.57 1879.58 4181.43 1859.65 4221.25 1843.28C4256.56 1828.78 4293.12 1815.92 4328.47 1803.49L4335.52 1801.01C4342.86 1798.42 4346.2 1797.2 4348.02 1795.36C4349.84 1793.52 4351 1790.16 4353.23 1783.32L4359.34 1765.16C4367.17 1741.94 4375.26 1717.95 4382.88 1694.27C4391.11 1668.68 4399.32 1642.61 4407.18 1617.38C4412.45 1600.65 4417.73 1583.92 4423.02 1567.21C4424.27 1563.29 4425.29 1558.53 4426.38 1553.49C4430.38 1535.01 4435.34 1512 4456.26 1508.13C4470.36 1505.53 4483.71 1510.72 4496.64 1515.74L4501.33 1517.47C4543.47 1533.3 4589.27 1536.69 4633.27 1527.23C4626.05 1526.5 4618.74 1525.49 4611.36 1524.35C4543.95 1514.07 4476.05 1501.17 4409.56 1486C4380.57 1479.38 4354.32 1466.66 4328.94 1454.35C4304.89 1442.7 4280.03 1430.65 4253.44 1424.24C4250.05 1423.31 4246.78 1421.99 4243.7 1420.3L4243.3 1420.1C4229.18 1413.3 4214.06 1408.79 4198.53 1406.76C4184.1 1404.64 4168.39 1402.02 4149.1 1398.52C4108.61 1391.16 4076.1 1382.89 4046.78 1372.63C4039.55 1370.02 4031.75 1369.42 4024.21 1370.9L4023.56 1371.02C4022.16 1371.29 4020.7 1371.57 4019.19 1371.76C3984.47 1375.91 3956.69 1365.32 3936.83 1340.29C3933.36 1336 3930.41 1331.38 3927.53 1326.92C3926.48 1325.32 3925.44 1323.73 3924.38 1322.15C3919.52 1314.42 3915.33 1306.28 3911.85 1297.84C3910.53 1294.86 3909.16 1291.78 3907.75 1288.81L3906.41 1285.98C3900.29 1273.05 3893.95 1259.68 3888.17 1246.3C3883.62 1235.74 3879.21 1224.91 3874.97 1214.46C3872.18 1207.51 3869.4 1200.73 3866.55 1193.89C3865.15 1190.53 3863.43 1187.31 3861.61 1183.9C3858.83 1188.73 3856.28 1193.21 3853.81 1197.79C3842 1220.32 3827.1 1241.09 3809.54 1259.49C3797.17 1272.68 3783.48 1284.58 3768.69 1294.99C3762.53 1299.22 3756.84 1304.09 3751.71 1309.53C3748.92 1312.26 3746.71 1315.52 3745.2 1319.12C3743.69 1322.72 3742.92 1326.59 3742.93 1330.5C3742.93 1333.97 3742.93 1337.98 3743.19 1341.97C3743.7 1347.54 3744.92 1353.03 3746.82 1358.29C3747.2 1359.51 3747.58 1360.74 3747.95 1361.97L3750.71 1371.1C3752.82 1378.05 3755.01 1385.24 3756.97 1392.39C3758.21 1396.93 3758.99 1401.58 3759.32 1406.28C3759.86 1412.19 3759.04 1418.15 3756.94 1423.7C3754.83 1429.25 3751.49 1434.26 3747.16 1438.32C3744.25 1441.32 3741.05 1444.03 3737.62 1446.41C3728.8 1452.09 3725.05 1459.85 3725.83 1470.82C3725.83 1472.06 3725.83 1473.18 3725.83 1474.3C3725.83 1474.89 3725.83 1475.48 3725.83 1476.03L3726.02 1488.74C3726.21 1500.89 3726.4 1513.58 3726.66 1526C3726.66 1529.97 3727.1 1534.07 3727.41 1538.04L3727.63 1540.7C3727.98 1545.18 3728.36 1549.68 3728.75 1554.15C3729.08 1557.96 3729.41 1561.78 3729.7 1565.58C3729.84 1567.31 3729.94 1569.05 3730.05 1570.79C3730.2 1573.56 3730.36 1576.17 3730.67 1578.79L3731.4 1585.07C3732.95 1598.16 3734.53 1611.71 3736.37 1625L3736.89 1628.77C3739.11 1644.81 3741.4 1661.39 3744.34 1677.52C3754.06 1731.04 3765.06 1777.52 3778 1819.6C3779.49 1824.48 3780.58 1829.46 3781.63 1834.3V1834.49C3782.23 1837.23 3781.77 1840.1 3780.34 1842.51C3778.91 1844.92 3776.61 1846.7 3773.92 1847.48C3770.58 1848.35 3767.22 1849.03 3763.97 1849.67L3760.72 1850.35C3758.31 1850.83 3757.93 1851 3758.26 1853.94C3759.4 1863.17 3759.3 1872.51 3757.95 1881.72C3756.47 1892.65 3753.28 1903.28 3748.48 1913.21C3744.39 1921.6 3742.46 1930.89 3742.86 1940.22C3742.86 1942.83 3742.86 1945.43 3742.86 1948.05C3742.86 1949.89 3742.86 1951.75 3742.86 1953.59V1961.11C3742.86 1970.1 3742.86 1979.4 3743.02 1988.55C3743.05 1997.85 3741.84 2007.1 3739.4 2016.07C3733.92 2036.9 3721.16 2051.92 3701.47 2060.46C3695.12 2063.13 3688.56 2065.29 3681.85 2066.9C3666.49 2070.77 3650.6 2071.82 3635.4 2072.81L3633.19 2072.94C3624.15 2073.55 3614.98 2073.88 3606.11 2074.19C3594.29 2074.63 3582.05 2075.08 3570.09 2076.14C3540.36 2078.79 3518 2090.65 3494.2 2103.22C3487.05 2107.07 3479.6 2110.33 3471.91 2112.96C3470.44 2143.13 3468.18 2173.32 3465.18 2203.24C3462.92 2225.63 3463.79 2246.64 3464.71 2268.91C3465.26 2282.28 3465.84 2296.12 3465.68 2310.25C3465.42 2330.89 3468.42 2351.46 3471.51 2370.78C3476.72 2403.35 3481.65 2435.5 3486.11 2466.27C3488.47 2482.48 3490.64 2499.01 3492.76 2514.98C3494.26 2526.27 3495.75 2537.55 3497.31 2548.8C3499.78 2566.73 3502.29 2584.67 3504.84 2602.62C3507.43 2620.96 3510 2639.32 3512.55 2657.7L3513.8 2666.66C3517.48 2693.43 3521.29 2721.11 3526.09 2748.12C3530.4 2772.97 3537.69 2797.22 3547.81 2820.32C3554.84 2836.28 3563.85 2851.29 3574.63 2864.99C3586.87 2880.44 3602.17 2888.67 3621.37 2890.16L3624.2 2890.34C3626.06 2890.34 3627.98 2890.53 3629.96 2890.81C3650.8 2893.76 3666.23 2901 3678.33 2913.58C3689.19 2925.06 3696.88 2939.16 3700.67 2954.5C3701.14 2956.46 3701.36 2958.48 3701.32 2960.49C3701.42 2966.27 3695.93 2972.64 3690.45 2973.25C3686.23 2973.65 3680.69 2974.12 3675.1 2974.12C3620.43 2974.12 3567.29 2974.12 3508.44 2974.12C3504.57 2974.12 3500.78 2973.96 3496.6 2973.79C3492.33 2973.53 3488.26 2971.89 3485 2969.12C3480.58 2965.57 3477.02 2961.06 3474.58 2955.94C3469.08 2944.83 3463.23 2933.13 3456.7 2920.2C3451.46 2909.78 3446.21 2899.36 3440.94 2888.95L3431.15 2869.57C3427.9 2863.11 3423.45 2857.33 3418.02 2852.54C3413.03 2847.89 3408.39 2842.88 3404.14 2837.54L3402.99 2836.19C3397.02 2829.07 3393.5 2820.22 3392.92 2810.95C3391.81 2797.67 3390.42 2785.86 3388.68 2774.87C3383.48 2741.47 3376.72 2707.49 3368.72 2673.9C3360.18 2638.07 3351.36 2601.68 3342.68 2566.49L3339.21 2552.6C3339.21 2552.6 3339.21 2552.43 3339.21 2552.34C3339.21 2553.47 3339.35 2554.58 3339.4 2555.71C3339.42 2557.38 3339 2559.03 3338.18 2560.48L3338.03 2560.85C3337.61 2561.65 3337.03 2562.36 3336.32 2562.92C3335.6 2563.48 3334.78 2563.87 3333.89 2564.08C3332.84 2564.38 3331.72 2564.37 3330.67 2564.06C3329.61 2563.76 3328.67 2563.16 3327.94 2562.34L3327 2561.21C3325.53 2559.64 3324.35 2557.81 3323.53 2555.81C3319.71 2545.4 3315.3 2533.25 3311.38 2521.09C3309.07 2514.03 3306.83 2506.8 3304.66 2499.83C3301.66 2490.12 3298.53 2480.1 3295.18 2470.31C3291.22 2458.82 3286.5 2447.31 3282 2436.16L3280.27 2431.72C3277.73 2424.97 3273.79 2418.84 3268.7 2413.73C3261.86 2407.15 3254.31 2405.52 3245.62 2408.77C3242.71 2409.85 3239.89 2411.16 3237.2 2412.69C3229.74 2416.76 3222.92 2421.89 3216.94 2427.92C3209.4 2435.68 3201.87 2443.7 3194.57 2451.48L3190.63 2455.68C3189.66 2456.7 3188.74 2457.81 3187.75 2458.99C3186.14 2460.97 3184.4 2462.84 3182.54 2464.58C3166.02 2479.65 3143.57 2498.58 3116.47 2511.46C3103.21 2517.67 3089.51 2522.89 3075.48 2527.08L3073.74 2527.59C3070.03 2528.71 3066.54 2529.77 3063.15 2531.06C3062.49 2531.37 3061.9 2531.84 3061.44 2532.41C3060.97 2532.98 3060.65 2533.66 3060.48 2534.37C3059.8 2536.71 3059.4 2539.13 3059.28 2541.56C3058.52 2555.68 3059.32 2569.84 3061.68 2583.78C3066.89 2611.3 3073.31 2639.02 3079.58 2664.87C3080.71 2669.51 3081.63 2674.23 3082.51 2678.76C3083 2681.23 3083.48 2683.71 3084 2686.18C3085.11 2692.2 3085.04 2698.38 3083.78 2704.37C3081.8 2714.58 3078.46 2724.48 3073.85 2733.8C3063.3 2755.61 3050.33 2776.18 3035.2 2795.11C3026.18 2806.66 3016.36 2817.55 3005.81 2827.72C2990.75 2842.21 2974.43 2855.33 2957.05 2866.93C2964.44 2866.33 2971.79 2865.2 2978.95 2864.21C2986.85 2863.06 2994.89 2862.18 3002.65 2861.33C3010.07 2860.51 3017.76 2859.59 3025.22 2858.58C3039.26 2856.63 3053.45 2856.05 3067.6 2856.85C3093.43 2858.22 3113.95 2869.49 3128.59 2890.28C3140.48 2907.21 3148.95 2925.8 3157.15 2943.81C3161.05 2952.49 3158.22 2960.2 3155.76 2965.3C3154.67 2967.53 3153.03 2969.44 3150.98 2970.84C3148.93 2972.24 3146.55 2973.08 3144.07 2973.27C3138.86 2973.65 3133.55 2973.84 3127.63 2973.84H3091.71H3090.93C3082.25 2972.23 3076.3 2971.32 3073.57 2973.36C3072.51 2974.34 3071.81 2975.63 3071.56 2977.05ZM2475.74 2910.02C2477.34 2911.34 2478.95 2912.65 2480.58 2913.9C2525.58 2948.62 2589.19 2959.19 2642.64 2940.75C2644.4 2940.19 2645.97 2939.16 2647.19 2937.78C2648.41 2936.4 2649.24 2934.72 2649.59 2932.91C2649.97 2930.39 2649.17 2928.24 2644.02 2925.32C2628.15 2916.34 2609.69 2915.74 2590.2 2915.09C2578.32 2914.69 2566.05 2914.29 2554.26 2911.86C2551.17 2911.23 2548.14 2910.46 2545.16 2909.57C2522.02 2909.45 2498.85 2909.64 2475.74 2910.02ZM1525 2906.55H2226.46C2277.11 2906.55 2328.88 2905.11 2378.83 2903.7C2403.8 2902.99 2428.93 2902.3 2454.14 2901.76C2427.35 2873.86 2406.03 2835.69 2389.33 2785.95C2386.42 2777.27 2383.97 2771.45 2376.73 2770.1C2372.51 2769.41 2368.19 2770.4 2364.68 2772.84C2356.82 2778.05 2352.89 2786.61 2348.76 2795.58C2347.72 2797.82 2346.66 2800.15 2345.52 2802.41C2330.85 2831.68 2307.58 2850.65 2280.01 2855.81L2269.96 2857.72C2257.67 2860.04 2244.98 2862.44 2232.41 2864.5H2231.99C2205.14 2868.91 2177.36 2873.46 2149.77 2876.43C2141.75 2877.28 2133.73 2878.17 2125.71 2879.09C2117.69 2880.01 2109.17 2880.95 2100.9 2881.83C2097.18 2882.24 2093.44 2882.44 2089.69 2882.44C2057.64 2882.44 2031.17 2882.44 2006.36 2882.44C2003.28 2882.44 2000.19 2882.26 1997.14 2881.95C1976.46 2879.9 1957.64 2877.96 1939.62 2876.07C1935.35 2875.62 1931.1 2875.11 1926.83 2874.59C1921.81 2874 1916.62 2873.39 1911.53 2872.85C1906.08 2872.32 1900.51 2871.85 1895.13 2871.38C1885.23 2870.55 1875.02 2869.64 1864.99 2868.32C1850.84 2866.56 1836.59 2865.7 1822.33 2865.75C1812.18 2865.75 1801.83 2865.75 1791.83 2865.75C1778.88 2865.75 1765.49 2865.75 1752.32 2865.75C1734.44 2865.55 1716.31 2867.49 1698.78 2869.43L1689.73 2870.39C1671.61 2872.3 1653.85 2875.29 1632.77 2879.19C1596.29 2885.97 1560.29 2895.1 1525 2906.53V2906.55ZM4719.14 1641.62C4693.1 1641.62 4666.86 1644.33 4641.12 1646.98C4620.03 1649.17 4598.2 1651.43 4578.34 1659.26C4553.12 1669.19 4532.22 1687.5 4511.99 1705.21L4465.12 1746.32C4447.29 1761.94 4427.08 1779.64 4415.81 1801.98C4414.3 1804.98 4412.7 1808.04 4411.11 1811.14C4401 1830.59 4390.57 1850.69 4391.07 1870.29C4391.63 1892.65 4403.97 1916.35 4414.86 1937.25C4416.32 1940.05 4417.74 1942.79 4419.09 1945.46C4447.41 2000.88 4476.66 2058.2 4513.73 2109.4C4522.51 2121.55 4531.94 2133.6 4541.03 2145.27C4554.71 2162.79 4568.81 2180.88 4581.31 2199.83C4595.74 2221.78 4608.2 2245.32 4620.25 2268.1C4635.63 2297.14 4651.5 2327.12 4671.45 2353.7C4676.08 2359.86 4681.08 2366.1 4685.93 2372.1C4690.77 2378.11 4695.56 2384.06 4700.2 2390.21C4699.07 2387.78 4697.96 2385.37 4696.85 2382.94C4684.1 2355.42 4671.22 2327.38 4658.77 2300.28C4633.88 2246.08 4608.13 2190.01 4582.18 2135.22C4579.14 2128.83 4576.14 2122.42 4573.12 2116.12C4541.87 2049.89 4509.56 1981.4 4466.45 1920.6C4460.64 1912.78 4454.36 1905.33 4447.63 1898.28C4428.54 1877.45 4408.83 1855.88 4425.06 1824.89C4441.75 1793.16 4466.64 1762.66 4497.06 1736.65C4517.42 1719.29 4536.99 1707.14 4556.8 1699.5C4594.21 1685.18 4636.03 1686.18 4672.92 1687.07C4719.71 1688.18 4768.08 1689.34 4813.91 1703.8C4835.42 1710.59 4856.08 1720.3 4876.04 1729.67C4884.72 1733.73 4893.68 1737.95 4902.57 1741.82C4949.44 1762.41 4999.79 1776.79 5048.4 1790.69C5096.28 1804.39 5145.79 1818.47 5192.32 1838.64C5197.53 1840.92 5202.95 1843.3 5208.33 1845.68C5254.91 1866.32 5303.05 1887.65 5347.49 1870.69C5348.08 1866.53 5342.28 1861.37 5337.86 1858.68C5305.63 1839.29 5268.31 1828.66 5232.23 1818.37L5223.05 1815.75C5098.09 1779.84 4976.19 1734.06 4858.47 1678.86L4853.14 1676.36C4831.6 1666.2 4809.33 1655.73 4786.18 1649.57C4764.14 1643.63 4741.67 1641.6 4719.12 1641.6L4719.14 1641.62ZM3435.59 2107.94C3443.94 2109.89 3453.27 2109.49 3463.7 2106.71C3464.02 2099.4 3464.31 2092.09 3464.57 2084.78C3462.83 2086.4 3461.1 2087.98 3459.2 2089.51C3456.17 2091.99 3452.9 2094.25 3449.76 2096.45C3444.6 2099.71 3439.84 2103.56 3435.58 2107.93L3435.59 2107.94ZM3475.52 1830.17C3474.46 1830.17 3473.4 1830.32 3472.38 1830.61C3469.88 1831.24 3467.69 1832.76 3466.24 1834.9C3464.79 1837.03 3464.18 1839.63 3464.52 1842.19C3472.12 1914.43 3475.26 1987.07 3473.93 2059.7C3495.73 2024.63 3495.24 1976.78 3494.76 1933.57C3494.67 1924.51 3494.58 1915.95 3494.76 1907.65C3495.09 1884.63 3495.47 1858.54 3485.05 1836.6L3484.85 1836.18C3484.06 1834.36 3482.75 1832.81 3481.08 1831.73C3479.41 1830.66 3477.46 1830.11 3475.47 1830.15L3475.52 1830.17ZM3706.19 1129.44C3703.72 1129.47 3701.31 1130.21 3699.25 1131.58C3694.74 1134.58 3691.72 1139.84 3688.75 1145.47C3685.03 1152.41 3681.39 1159.74 3677.86 1166.73C3670.4 1182.24 3662.15 1197.35 3653.14 1212.01C3614.62 1272.34 3547.08 1292.84 3492.57 1304.02C3489.65 1304.61 3486.74 1305.17 3483.89 1305.76C3480.33 1306.43 3476.65 1307.13 3473.06 1307.89C3454.39 1311.87 3440.56 1322.79 3431.95 1340.36C3424.93 1354.42 3419.92 1369.4 3417.07 1384.85C3414.86 1397.25 3412.43 1413.64 3413.02 1430.3C3413.13 1433.1 3413.16 1435.91 3413.2 1438.71C3413.16 1444.67 3413.44 1450.62 3414.03 1456.55L3414.38 1459.47C3416.39 1476.83 3418.48 1494.8 3422.12 1512.14C3428.08 1540.49 3433.39 1566.08 3438.35 1590.39L3440.33 1600.07C3448.35 1639.22 3456.63 1679.71 3460.56 1720.38C3460.86 1722.87 3461.31 1725.33 3461.91 1727.76L3462.35 1729.65C3462.6 1731.17 3463.25 1732.6 3464.22 1733.8C3465.2 1734.99 3466.46 1735.92 3467.9 1736.48L3468.34 1736.67C3470.06 1737.44 3471.83 1738.12 3473.63 1738.7C3485.51 1742.29 3496.26 1748.87 3504.88 1757.8C3507.84 1760.73 3511.07 1763.39 3514.51 1765.73C3516.2 1766.77 3518.22 1767.14 3520.17 1766.78C3522.12 1766.42 3523.87 1765.34 3525.07 1763.77C3527.44 1760.67 3529.18 1757.13 3530.17 1753.35C3532.49 1745.39 3534.8 1737.41 3537.12 1729.41C3548.52 1689.83 3561.54 1642.82 3571.49 1594.26C3577.07 1567.04 3583.33 1534.87 3587.46 1502.8C3588.12 1497.7 3588.61 1492.39 3589.06 1487.39C3589.63 1481.03 3590.22 1474.45 3591.2 1467.98C3592.58 1457.69 3593.36 1447.33 3593.56 1436.95C3593.78 1430.29 3594.04 1422.72 3594.5 1415.22C3594.77 1410.79 3595.12 1406.36 3595.45 1401.92C3595.83 1397.04 3596.23 1391.99 3596.51 1387.02C3598.24 1357.13 3603.45 1331.73 3612.55 1309.37C3618.12 1295.65 3624.56 1282.11 3630.8 1269.01L3631.87 1266.71C3646.33 1236.26 3664.25 1205.95 3681.58 1176.7C3684.96 1170.99 3688.31 1165.3 3691.65 1159.63L3708.42 1131.07C3707.63 1130.69 3706.94 1130.15 3706.38 1129.48L3706.19 1129.44ZM4763.79 1375.79C4754.61 1413.07 4739.21 1448.53 4718.24 1480.68C4711.88 1490.42 4704.24 1501.13 4694.31 1510.04C4703.44 1504.81 4711.95 1498.57 4719.68 1491.43C4739.18 1474.17 4756.17 1454.25 4770.14 1432.27C4777.45 1420.75 4784.03 1408.38 4782.82 1395.81C4782.42 1392.51 4781.36 1389.33 4779.7 1386.46C4778.05 1383.58 4775.83 1381.07 4773.18 1379.07C4770.5 1376.96 4767.2 1375.81 4763.79 1375.79ZM3103.22 945.107C3098.25 953.224 3094.51 962.036 3092.13 971.252C3085.57 995.731 3085.76 1021.41 3086.57 1047.74C3089.98 1156.31 3102.35 1264.4 3123.57 1370.93C3129.18 1398.98 3135.5 1425.96 3151.17 1447.7C3165.06 1467.02 3192.25 1484.71 3219.02 1477.91C3246.8 1470.84 3265.63 1441.74 3274.92 1391.45C3293.81 1288.04 3292.78 1181.98 3271.88 1078.96C3268.76 1063.75 3264.94 1047.59 3258.72 1032.57C3246.22 1002.77 3224.12 977.988 3195.94 962.167C3167.75 946.345 3135.09 940.384 3103.14 945.229L3103.22 945.107ZM4688.95 1303.78C4693.74 1304.84 4698.45 1306.22 4703.06 1307.91C4707.4 1309.51 4711.74 1311.38 4715.98 1313.34C4728.79 1319.06 4740.89 1324.44 4752.85 1321.3C4764.81 1318.15 4773.48 1306.75 4780.96 1294.92C4826.86 1222.5 4854.53 1139.11 4881.3 1058.49C4905.87 984.533 4931.25 908.059 4970.71 839.571C4978.96 825.249 4988.73 811.447 5004.3 807.35C5011.68 805.257 5019.4 804.717 5026.99 805.766C5034.58 806.815 5041.87 809.43 5048.4 813.443C5076.89 830.7 5098.64 873.355 5114.86 943.874C5128.19 1001.82 5129.49 1067.24 5118.75 1138.31C5117.84 1144.2 5116.89 1150.08 5115.93 1155.99C5113.8 1169.18 5111.58 1182.83 5110.15 1196.23C5109.98 1198.03 5110.47 1199.83 5111.52 1201.3C5112.58 1202.76 5114.13 1203.8 5115.89 1204.2C5117.66 1204.61 5119.5 1204.36 5121.1 1203.5C5122.69 1202.65 5123.91 1201.24 5124.54 1199.55C5148.07 1133.57 5154.06 1053.72 5142.34 962.277C5138.29 930.715 5131.92 894.188 5115.12 862.522C5100.15 834.311 5066.77 801.76 5031.79 794.312C5012.69 790.197 4995.43 793.947 4980.57 805.458C4957.22 823.53 4945.23 854.241 4935.59 878.911L4786.72 1259.82C4782.89 1269.65 4778.04 1281.87 4767.63 1289.06C4760.68 1293.81 4752.75 1295.5 4744.48 1296.92C4726.07 1300.14 4707.51 1302.42 4688.86 1303.78H4688.95ZM3634.89 1009.32C3634.79 1014.61 3635.51 1019.89 3637.05 1024.95L3640.95 1038.84C3643.54 1048 3646.16 1057.5 3651.68 1065.1C3657.2 1072.71 3665.71 1077.34 3673.14 1076.53C3676.37 1076.18 3680.08 1074.51 3681.11 1071.54C3681.64 1069.11 3681.47 1066.58 3680.62 1064.24C3676.98 1051.63 3670.44 1040.06 3661.52 1030.43C3657.92 1026.41 3654 1022.67 3649.81 1019.27C3645.14 1015.47 3640.12 1012.14 3634.81 1009.32H3634.89Z" fill="rgba(107,94,191,0.25)"/>
</g>
<defs>
<clipPath id="clip0_2147_22706">
<rect width="5670" height="3000" fill="white"/>
</clipPath>
</defs>
</svg>
