<svg width="5556" height="3000" viewBox="0 0 5556 3000" fill="none" xmlns="http://www.w3.org/2000/svg">
<g clip-path="url(#clip0_2148_22741)">
<path d="M10.1484 2724.5C10.1484 2724.5 2069.19 2711.8 1941.73 2724.3C1815.55 2736.67 1564.07 2559.37 1638.42 2316.04C1713.23 2071.1 1917.73 1881.65 1790.9 1743.91C1665.29 1607.4 1903.33 1678.1 1942.94 1929.39C1982.63 2181.24 1778.02 2251.29 1801.02 2391.75C1824.02 2532.2 1970.68 2586.21 1960.68 2624.01C1950.67 2661.81 1861.12 2728.25 2020.98 2813.74C2182.85 2900.31 2489.11 2805.14 2589.82 2749.73C2691.36 2693.88 2716.56 2564.74 2675.29 2605.29C2634.02 2645.83 2470.26 2787 2600.23 2851.07C2731.54 2915.71 3061.09 2902.51 3012.68 2801.01C2964.41 2699.92 2626.62 2754.39 2716.97 2718.22C2807.94 2681.78 3078.94 2435.03 2868.25 2202.59C2660.69 1973.81 2302.04 2354.01 2248.93 2363.64C2195.82 2373.27 2042.76 2501.25 2134.38 2589.8C2226.64 2678.95 2378.39 2747.01 2222.32 2716.83C2068.14 2686.95 1984.7 2583.11 1986.33 2346.86C1987.96 2110.61 1986.97 2059.86 2168.41 1914.48C2352.49 1767.05 2522.76 1463.07 2497.4 1293.86C2472.04 1124.65 2410.95 781.826 2458.51 679.682C2506.27 577.159 2654.47 502.696 2701.43 509.404C2748.39 516.113 2753.78 564.165 2754.92 664.682C2756.06 765.199 2845.96 884.371 2870.61 943.344C2895.26 1002.32 2839.41 1171.48 2640.03 1108.78C2443.6 1047 2442.4 803.445 2526.37 686.992C2610.86 569.737 2709.12 466.122 2781.98 488.855C2855.32 511.7 2824.19 593.941 2904.55 629.267C2985.47 664.927 3198.37 687.705 3197.1 658.241C3195.83 628.777 3126.72 597.864 3131.89 643.308C3137.06 688.753 3180.5 723.009 3202.32 703.819C3224.14 684.63 3242.97 669.073 3195.05 760.831C3147.32 852.21 3165.32 896.25 3088.21 898.59C3011.55 900.953 2955.18 848.622 3012.44 845.1C3069.69 841.579 3136.71 902.825 3070.87 939.978C3005.04 977.132 2945.22 983.774 2917.65 1006.48C2890.09 1029.2 3034.06 1199.92 3091.13 1262.9C3148.21 1325.89 3114.71 1437.97 3115.51 1382.01C3116.32 1326.04 3161.02 1018.72 3221.84 929.325C3282.93 839.595 3413.97 614.58 3462.87 678.478C3511.77 742.377 3443.21 910.715 3409.38 891.258C3375.55 871.801 3411.9 721.315 3430.55 772.331C3449.21 823.348 3458.37 882.32 3404.28 925.113C3350.19 967.905 3340.05 955.624 3322.67 1007.31C3305.28 1058.99 3326.32 1394.56 3284.18 1474.68C3242.03 1554.8 3090.13 1614.27 3029.24 1609.85C2968.36 1605.44 2831.81 1507.33 2833.72 1552.55C2835.64 1597.77 3042.24 1615.25 3043.06 1634.82C3043.88 1654.38 2939.21 2175.54 2903.81 2086.81C2868.42 1998.08 2976.22 1709.32 3175.17 1649.48C3377.16 1588.75 3430.4 1454.38 3427.01 1301.8C3423.62 1149.21 3401.78 1098.26 3452.04 1042.95C3502.29 987.629 3615.73 840.799 3562 830.301C3508.27 819.804 3340.94 902.468 3337.17 1042.19C3333.41 1181.91 3353.8 1428.43 3273.41 1528.62C3193.52 1628.17 2886.28 1752.9 2873.91 1832.02C2861.54 1911.14 2868 2134.91 2829.58 2118.12C2791.16 2101.34 2766.31 2028.66 2840.99 2091.38C2916.07 2154.41 2994.59 2139.18 2986.85 2329.07C2979.12 2518.97 2867.13 2628.87 2878.43 2599.07C2889.73 2569.27 3077.36 2510.12 3225.79 2528.28C3225.79 2528.28 3459.53 2512.32 3350.84 2571.12C3243.04 2629.44 3042.41 2587.23 3155.05 2679.86C3268.71 2773.22 3822.24 2741.69 3755.07 2744.72C3688.21 2747.72 3469.53 2744.29 3443.3 2592.87C3417.07 2441.45 3523.53 2315.72 3744.68 2194.68C3969.57 2071.61 4271.06 1858.92 4215.48 1863.15C4159.9 1867.39 4004.61 1933.51 4350.14 2065.84C4704.36 2201.52 5034.51 2258.16 5023.18 2167.42C5011.86 2076.69 4572.89 1981.34 4496.38 2021.31C4420.29 2061.04 4141.09 2223.3 3950.36 2411.34C3762.24 2596.68 3544.28 2794.19 3775.59 2905.01C4010.83 3017.72 4608.41 2789.36 4663.42 2738.5C4718.42 2687.64 4660.25 2502.78 4633.49 2545.75C4606.72 2588.73 4718.62 2687.41 4686.97 2786.06C4655.33 2884.7 4467.99 2988.1 4617.17 2989.77C4767.96 2991.46 4976.61 2942.16 4963.12 2802.55C4949.64 2662.94 4928.82 2355.73 4820.18 2368.88C4712.36 2381.94 4599.16 2416.04 4600.68 2450.59C4602.2 2485.13 4660.85 2525.65 4554.17 2537.98C4453.88 2570.32 4030.82 2760.32 4166.7 2651.33C4323.99 2588.93 4886.77 2560.98 4989.06 2394.4C5092.18 2226.6 5046.39 2025.27 5036.85 1976.64C5027.31 1928.01 4917.1 1094.05 4791.7 897.142C4667.36 701.791 4684.9 609.141 4543.58 660.715C4403.78 711.553 3980.34 1216.26 4029.95 1252.07C4079.56 1287.89 3909.6 1162.43 3825.89 1110.28C3742.59 1058.46 3555.36 1058.46 3629.97 1090.64C3705.03 1122.96 3751.03 1097.95 3692.58 989.88C3634.34 882.276 3651.7 665.484 3565.97 689.354C3480.79 713.024 3492.42 985.2 3516.6 1082.69C3540.78 1180.17 3861.91 1471.43 4005.77 1485.42C4151.12 1499.55 4576.3 1080.06 4581.62 1037.87C4586.95 995.675 4647.84 1239.57 4509.08 1336.07C4371.71 1431.62 4676.23 1396.83 4585.23 1446.78C4494.77 1496.41 4124.44 1522.4 4124.44 1522.4C4124.44 1522.4 4187.76 1544.13 4206.68 1658.71C4225.6 1773.29 4096.45 1831.37 4178.31 1804.51C4260.61 1777.5 4527.34 1915.44 4718.24 1859.63C4911.8 1803.04 4827.44 1375.99 4730.92 1161.74C4635.09 948.827 4503.18 1039.16 4562.24 922.015C4621.56 804.314 4636 642.684 4548.31 604.55C4461.17 566.661 4333.15 630.448 4234.51 539.426C4136.45 449.05 4138.26 329.142 4061.19 308.66C3984.55 288.267 3835.32 311.714 3820.63 286.618C3805.95 261.522 3798.93 333.422 3819.01 405.165C3839.09 476.909 3897.28 720.178 4016.91 716.144C4137.59 712.066 4177.53 512.28 4204.12 563.764C4230.7 615.248 4303.94 606.445 4301.51 630.805C4299.08 655.165 4163.75 914.147 4128.5 900.997C4093.24 887.848 4088.6 779.285 4088.6 779.285C4088.6 779.285 3997.52 902.023 3994.22 983.907C3990.92 1065.79 3949.65 1215.99 4039.86 1322.54C4130.77 1429.77 4009.78 1498.62 3850.56 1523.13C3693.24 1547.32 3473.7 1237.23 3458.12 1182.13C3442.54 1127.04 3459.13 1128.64 3484.87 1112.68C3510.61 1096.73 3479.99 1076.53 3470.13 1077.58C3460.28 1078.63 3488.86 1128.84 3596.81 1094.07C3705.66 1058.97 3690.12 1010.25 3717.71 1027.41C3745.3 1044.57 3916.8 1168.4 3899.5 1241.24C3882.21 1314.08 3869.24 1014.35 3902.69 922.706C3936.14 831.059 4046.1 753.476 4036.57 771.618C4027.03 789.76 4012.27 845.858 3906.73 779.976C3801.98 714.584 3750.54 542.145 3743.72 384.616C3736.9 227.088 3799.73 117.165 3848.47 144.044C3897.21 170.923 3807.06 207.296 3829.21 170.41C3851.37 133.524 3870.24 96.8611 3987.8 46.2237C4106.39 -5.03773 4179.47 -5.21593 4252.83 76.9807C4326.69 159.556 4343.03 291.699 4424.68 381.05C4506.81 470.936 4623.97 449.295 4689.74 552.665C4755.82 656.436 4818.55 761.076 4756.17 747.213C4693.79 733.35 4622.81 668.605 4655.37 755.281C4687.93 841.958 4813.47 1059.06 4857.71 1236.69C4902.06 1414.77 5056.86 1925.85 4969.56 1949.67C4882.85 1973.34 4624.12 1925.69 4707.9 1950.9C4792.07 1976.26 5025.95 1977.33 5041.3 2074.8C5056.66 2172.26 5009.72 2277.23 4965.22 2350.05C4920.71 2422.86 5100.83 2419.85 5109.61 2451.1C5118.39 2482.35 4863.26 2554.67 5006.87 2589.51C5084.72 2608.36 5385.94 2591.11 5545.87 2581.66" stroke="#6B5EBF" stroke-width="20" stroke-linecap="round" stroke-linejoin="round"/>
</g>
<defs>
<clipPath id="clip0_2148_22741">
<rect width="5556" height="3000" fill="white"/>
</clipPath>
</defs>
</svg>
