<svg width="3535" height="3000" viewBox="0 0 3535 3000" fill="none" xmlns="http://www.w3.org/2000/svg">
<g clip-path="url(#clip0_2147_22652)">
<path d="M88.9495 2974.05L451.941 2918.65L541.822 2904.94C558.744 2902.35 576.914 2900.21 579.302 2880.17C580.867 2867 578.153 2851.98 577.449 2838.73C576.63 2823.54 575.811 2808.34 574.992 2793.15C573.295 2761.6 571.597 2730.05 569.9 2698.5C569.682 2694.43 566.927 2692.14 563.044 2691.63L501.825 2683.7C502.988 2687.96 504.144 2692.23 505.293 2696.5C600.451 2630.67 696.016 2565.43 791.986 2500.79C877.35 2443.32 978.892 2358.99 1089.21 2381.76C1088.66 2377.58 1088.12 2373.4 1087.57 2369.21C1015.52 2422.76 943.466 2476.3 871.405 2529.83L879.757 2540.6C959.304 2440.65 1078.77 2389.25 1192.08 2337.81C1312.43 2283.18 1425.15 2218.37 1525.79 2132.01C1583.7 2082.23 1636.85 2027.17 1684.54 1967.53H1674.84L1823.94 2085.67C1835.7 2094.97 1847.45 2104.28 1859.2 2113.6C1864.44 2117.74 1870.9 2121.64 1875.48 2126.48C1879.54 2130.78 1884.68 2130.44 1882.06 2139.36C1880.96 2143.11 1874.7 2147.23 1871.49 2148.89C1842.51 2163.94 1811.53 2128.98 1791.81 2112.23L1721.71 2052.56C1701.89 2035.72 1667.57 2013.61 1673.16 1983.21C1677.86 1957.9 1705.91 1941.2 1730.17 1941.65C1757.86 1942.17 1782.2 1960.88 1799.92 1980.57C1826.33 2009.94 1846.39 2060.21 1893.34 2058.23C1938.48 2056.32 1967.48 2007.93 1989.52 1974.54C2018.48 1930.68 2040.91 1884.66 2039.69 1830.96C2038.39 1774.11 2016.9 1717.32 2028.13 1660.42C2037.9 1611.02 2086.35 1562.06 2071.4 1509.11C2061.84 1475.27 2022.71 1438.87 1987.65 1463.37L1997.04 1472.75C2011.33 1446 2027.13 1415.48 2020.25 1384.16C2014.88 1359.66 1996.84 1340.19 1971.55 1337.43L1976.39 1349.14C1991.13 1331.41 1995.93 1310.09 1989.16 1287.88C1988.34 1285.18 1985.57 1282.61 1982.55 1282.85L1872.34 1291.29C1862.07 1292.08 1843.61 1289.65 1834.44 1294.87C1825.77 1299.82 1819.63 1321.96 1815.69 1330.81C1791.19 1385.9 1775.48 1444.48 1769.12 1504.44C1765.71 1536.36 1765.05 1568.51 1767.14 1600.55C1769.35 1633.97 1775.39 1667.03 1777.13 1700.5C1780.92 1773.47 1749.39 1831.07 1711.2 1890.74C1706.43 1898.2 1718.29 1905.09 1723.08 1897.68C1776.41 1814.45 1797.48 1712.62 1780.74 1615.07C1771.07 1558.76 1743.3 1503.02 1773.07 1448.07C1791.32 1414.38 1823.6 1383.81 1828.6 1344.32C1839.5 1258.95 1726.02 1265.28 1678.88 1230.47C1642.06 1203.27 1641.32 1153.89 1638.85 1112.4C1636.34 1070.13 1631.41 1030.06 1605.28 995.219C1589.1 973.628 1568.74 954.694 1556.39 930.428C1545.15 908.323 1542.79 883.146 1540.63 858.811C1537.08 818.87 1534.39 775.878 1499.25 750.305L1497.62 762.839C1565.59 737.516 1638.05 726.457 1710.48 730.35L1703.86 721.66C1700.32 736.217 1693.63 749.823 1684.28 761.528C1674.93 773.233 1663.13 782.753 1649.72 789.423C1643.31 792.613 1635.22 796.26 1627.92 797.171C1617.02 798.548 1616.54 794.506 1611.62 785.361C1603.42 770.089 1595.21 754.817 1587 739.545C1582.75 731.618 1571.52 738.554 1575.12 746.48C1585.16 768.279 1601.46 817.899 1572.68 832.94C1553.75 842.849 1536.91 825.539 1531.55 808.526C1525.47 789.195 1533.53 771.301 1547.4 757.657C1575.15 730.379 1619.02 718.281 1654.52 705.073C1697.4 689.108 1740.92 675.051 1785.08 662.904C1791.81 661.031 1791.37 651.737 1785.08 649.666L1740.33 634.932L1736.76 648.111C1753.45 652.074 1774.15 639.817 1788.53 632.891C1812.1 621.546 1834.91 608.527 1857.26 594.962C1917.88 558.173 1965.56 503.727 2032.12 476.627C2181.62 415.741 2355.66 432.04 2496.78 507.521C2619.91 573.352 2722.8 683.107 2770.83 815.185C2782.2 846.237 2790.36 878.372 2795.18 911.087C2800.49 947.748 2809.91 1001.62 2778.4 1028.57C2763.36 1041.45 2743.73 1049.1 2726.08 1057.59C2705.49 1067.5 2684.84 1077.29 2664.13 1086.96C2620.66 1107.24 2576.94 1127.2 2532.91 1146.17C2510.2 1155.95 2479.54 1169.04 2463.29 1141.73C2453.33 1124.99 2453.83 1102.83 2455.23 1084.07C2459.11 1031.97 2466.28 979.861 2473.06 928.07C2487.09 820.935 2504.69 714.351 2525.87 608.319C2523.67 610.003 2521.46 611.681 2519.25 613.352C2586.83 616.592 2638.31 662.577 2675.7 715.408C2714.21 769.814 2747.42 834.417 2766.35 898.385C2776.56 932.885 2782.65 972.37 2767.45 1006.39C2754.05 1036.36 2720.03 1052.46 2713.43 1085.93C2700.55 1151.32 2779.67 1199.63 2823.78 1231.15C2905.02 1289.21 2987.25 1345.88 3068.7 1403.66L3066.25 1394.28C3054.41 1410.93 3045.14 1430.5 3052.92 1450.89C3059.86 1468.94 3076.89 1481.39 3091.06 1493.5C3136.11 1531.83 3165.08 1584.71 3186.42 1639.15C3209.8 1698.79 3220.41 1760.68 3234.89 1822.74C3242.3 1854.45 3252.98 1884.56 3265.75 1914.5C3279.22 1946.07 3293.7 1978.33 3297.04 2012.89C3303.45 2079.01 3272.92 2146.11 3219.27 2185.06L3229.59 2191C3230.29 2131.55 3230.86 2068.82 3204.97 2013.77C3184.26 1969.74 3146.36 1932.72 3097.4 1923.67L3102.19 1932.11C3125.44 1834.54 3140.86 1735.28 3148.31 1635.26L3134.84 1637.09C3146.71 1702.95 3143.34 1770.67 3124.99 1835.03C3115.85 1867.11 3103.03 1898.03 3086.78 1927.17C3071.66 1954.24 3051.48 1990.42 3019.06 1998.84C3000.54 2003.66 2983.58 1994.23 2967.77 1985.81C2953.95 1978.34 2939.67 1971.72 2925.03 1966C2893.54 1953.85 2860.52 1946.18 2827.26 1940.79C2796.13 1935.71 2764.72 1932.54 2733.33 1929.55C2697.06 1926.11 2660.42 1922.41 2624.07 1927.04C2566.79 1934.31 2506.75 1969.41 2497.65 2031.07C2497.11 2034.72 2498.51 2038.46 2502.44 2039.52C2551.7 2052.59 2617.53 2028.15 2658.61 2066.05C2703.63 2107.59 2645.53 2150.66 2607.6 2163.62C2569.36 2176.68 2528.16 2176.74 2492.34 2197.49C2464.71 2213.52 2443.18 2244.96 2456.19 2277.52C2470.15 2312.47 2516.71 2330.21 2548.89 2309.45L2540.57 2298.67L2466.94 2376.57C2465.67 2377.86 2464.96 2379.6 2464.96 2381.42C2464.96 2383.23 2465.67 2384.97 2466.94 2386.27C2495.1 2413.02 2529.97 2428.51 2568.62 2431.84L2563.77 2420.13C2537.3 2441.4 2521.74 2470.95 2517.92 2504.56C2517.48 2508.53 2521.45 2511.09 2524.78 2511.42L2590.86 2518.01L2584.01 2511.15C2588.72 2548.95 2628.9 2552.84 2659.87 2547.26C2684.31 2542.86 2705.86 2530.89 2727.98 2520.18L2821.11 2475.1C2882.73 2445.28 2944.35 2415.45 3005.96 2385.61C3055.04 2361.83 3104.1 2337.28 3149.26 2306.49C3197.5 2273.6 3240.41 2233.42 3269.95 2182.64L3257.16 2179.18C3258.68 2227.49 3262.12 2276.53 3276.98 2322.85C3291.84 2369.17 3318.28 2409.67 3351.5 2445.03L3361.2 2435.32C3344.22 2419.61 3319.08 2429.9 3311.47 2450.19C3301.26 2477.37 3315.26 2512.61 3327.87 2536.82C3358.78 2596.2 3416.56 2637.13 3472.33 2671.1V2659.21C3450.95 2675.5 3438.49 2701.73 3444.12 2728.82C3448.87 2751.7 3466.26 2767.46 3483.13 2782.2C3502.53 2799.13 3524.21 2818.7 3521.04 2847.2C3517.17 2881.94 3475.99 2898.86 3447.16 2907.77C3363.4 2933.63 3275.42 2948.56 3188.57 2959.16C3107.23 2969.06 3022.74 2978.9 2940.69 2975.75C2895.11 2974.01 2846.94 2964.52 2812.07 2933.09C2781.65 2905.67 2762.7 2864.88 2774.31 2824.1L2764.24 2828.19C2798.69 2854.59 2782.58 2907.67 2753.67 2931.23C2717.41 2960.73 2664.72 2965.26 2620.19 2971.52C2514.3 2986.38 2406.81 2990.35 2300.39 2978.74L2307 2987.43C2355.01 2850.55 2322.23 2703.73 2280.82 2569.69C2258.54 2497.57 2233.68 2426.1 2216.83 2352.42C2208.25 2314.9 2201.83 2276.85 2199.17 2238.47C2196.82 2204.55 2193.53 2160.82 2220.73 2135.27C2232.85 2123.88 2253.48 2115.38 2269.13 2125.07C2277.72 2130.38 2294.69 2159.69 2279.03 2167.17C2275.51 2168.86 2267.51 2161.3 2265.3 2158.87C2259.78 2152.77 2256.83 2144.71 2255.58 2136.72C2252.93 2119.66 2259.67 2104.31 2270.8 2091.56C2292.47 2066.79 2324.89 2050.65 2351.74 2032.11C2379.31 2013.09 2406.35 1993.33 2432.88 1972.84C2597.2 1846.04 2739.42 1692.92 2853.78 1519.7C2895.39 1456.61 2936.49 1384.72 2921.71 1306.39C2920.47 1299.76 2909.83 1299.93 2908.49 1306.39C2888.95 1398.32 2831.59 1473.33 2781.49 1550.48C2730.46 1629.06 2669.67 1700.1 2603.16 1766C2530.71 1837.76 2452.09 1903.96 2367.5 1961C2349.26 1973.3 2329.92 1988.75 2309.43 1996.93C2285.99 2006.29 2260.25 1996.78 2239.66 1984.74C2207.85 1966.13 2182.93 1939.79 2163.25 1909.04C2122.47 1845.36 2087.24 1776.06 2057.37 1706.6C2054.73 1700.42 2043.92 1703.47 2044.59 1710.05C2048.56 1748.94 2064.74 1786.67 2080.57 1822.02C2100.57 1866.66 2123.9 1910.34 2151.54 1950.75C2161.68 1965.55 2172.45 1980.31 2185.01 1993.17C2203.6 2012.18 2245.79 2042.83 2216.52 2070.6C2197.69 2088.43 2176.51 2095.26 2165.99 2121.13C2156.89 2143.45 2157.71 2168.56 2161.04 2191.99C2165.44 2222.71 2175.05 2252.51 2182.71 2282.49C2191.96 2318.52 2200.63 2354.69 2208.72 2391C2224.69 2462.5 2238.49 2534.44 2250.1 2606.83C2261.99 2680.81 2271.53 2755.09 2278.73 2829.68C2281.64 2860.08 2285.66 2897.16 2262.92 2921.42C2244.94 2940.62 2216.57 2944.89 2191.66 2940.43C2121.32 2927.83 2096.34 2854.23 2083.59 2792.79C2070.35 2729.03 2063.06 2660.45 2015.84 2611.22C2012.33 2607.57 2005.58 2609.24 2004.38 2614.26C2000.92 2628.57 1997.46 2642.89 1994.02 2657.22H2007.24C1996.67 2583.39 1986.09 2509.57 1975.48 2435.75C1974.61 2429.65 1965.67 2429.46 1962.95 2434.1L1937.49 2477.39L1950.27 2480.85C1956.44 2416.68 1944.24 2352.08 1915.09 2294.57C1912.53 2289.47 1906.12 2290.85 1903.25 2294.57C1891.77 2309.51 1880.29 2324.44 1868.81 2339.36L1881.6 2342.83C1877.92 2305.89 1862.35 2272.76 1835.78 2246.72C1831.82 2242.75 1826.2 2245.08 1824.32 2249.75C1742.79 2451.51 1608.78 2630.59 1440.23 2767.95C1355.24 2837.29 1261.67 2895.38 1161.82 2940.79C1102.92 2967.54 1038.61 2986.9 973.304 2978.09C908.251 2969.31 854.542 2927.01 802.27 2890.33C697.399 2816.76 595.917 2734.89 505.897 2643.55C493.889 2631.37 484.972 2618.86 480.445 2602.19C476.64 2588.18 474.5 2573.63 471.34 2559.46C464.93 2530.78 457.469 2502.35 449.097 2474.17C432.324 2417.44 412.241 2361.74 390.901 2306.58C306.508 2088.45 195.257 1868.22 198.239 1628.7C198.675 1594.39 201.994 1564.2 227.11 1538.68C246.687 1518.79 269.88 1502.82 289.616 1482.99C330.693 1441.73 363.764 1393.53 399.144 1347.54C476.422 1247.17 574.417 1169.36 678.367 1098.28C703.81 1080.89 729.49 1063.84 755.18 1046.76L744.856 1040.82C745.847 1068.63 733.76 1093.98 710.874 1110.02C708.08 1112 706.088 1116.21 708.417 1119.41C715.619 1129.32 724.586 1132.95 736.415 1135.36C743.053 1136.71 752.376 1136.4 758.212 1140.01C761.303 1141.93 772.379 1158.27 764.156 1158.54C766.356 1161.43 768.558 1164.33 770.765 1167.23C775.718 1133.16 785.923 1100.08 790.847 1066.01L777.373 1064.19C816.854 1393.15 997.756 1678.95 1095.9 1990.51C1108.06 2029.09 1119.88 2068.27 1128.01 2107.92C1131.82 2126.5 1134.58 2146.82 1129.72 2165.52C1124.5 2185.61 1110.44 2198.45 1094.55 2210.47C1076.09 2224.44 1050.46 2238.48 1044.22 2262.63C1038.39 2285.18 1052.63 2305.76 1074.42 2311.7C1098.85 2318.35 1123.8 2307.61 1136.16 2285.7C1150.72 2259.94 1144.09 2221.52 1132.2 2195.93C1122.51 2175.12 1104.68 2171.25 1086.87 2185.71C1056.64 2210.29 1040.93 2245.62 1039.94 2283.93C1039.03 2318.74 1048.2 2362.66 1086.01 2374.94C1125.64 2387.82 1173.31 2354.85 1205.53 2335.41C1235.99 2317.03 1250.57 2290.76 1244.97 2254.46C1239.31 2217.8 1209.41 2193.24 1172.32 2194.32C1173.94 2198.23 1175.56 2202.13 1177.17 2206.03C1181.89 2201.82 1192.94 2186.22 1197.32 2184.69C1205.32 2181.87 1216.35 2186.89 1223.99 2189.29C1239.4 2194.14 1255.7 2199.96 1272.12 2198.64C1306.73 2195.89 1310.67 2161.98 1306.53 2133.76C1300.25 2091.08 1277.25 2053.46 1261.28 2014.04C1244.33 1972.26 1232.84 1928.5 1223.02 1884.57C1203.56 1797.54 1189.7 1709.3 1155.22 1626.5C1138.37 1586.08 1118.69 1546.68 1106.05 1504.62C1099.62 1483.23 1095.08 1461.24 1094.28 1438.85C1093.83 1426.03 1092.97 1414.19 1104.37 1405.62C1113.91 1398.46 1125.01 1392.81 1135.15 1386.54C1142.21 1382.18 1175.48 1361.34 1162.39 1389C1161.04 1391.86 1155.2 1396.35 1152.68 1398.91L1133.26 1418.73L1075 1478.18C1038.35 1515.62 1002.13 1553.77 961.068 1586.49C954.846 1591.44 962.802 1601.01 969.38 1597.26C1025.85 1565.09 1073.54 1520.85 1117.46 1473.4C1128.41 1461.57 1139.13 1449.54 1149.78 1437.45C1158.74 1427.27 1170.13 1417.17 1176.93 1405.36C1190.92 1381.08 1165.3 1362.68 1149.27 1348.1C1099.85 1303.18 1047.12 1262.04 991.524 1225.04C962.673 1205.84 933.096 1187.79 902.792 1170.9C874.14 1154.94 839.542 1140.86 834.648 1104.52C830.408 1072.95 813.089 1056.5 786.171 1040.82C769.15 1030.91 753.298 1021.62 740.596 1006.14C728.172 990.918 718.175 973.866 706.564 958.043C703.076 953.277 695.993 953.772 694.031 959.687C685.639 984.874 704.632 1007.42 699.619 1031.9C692.683 1065.78 645.177 1048.6 624.847 1040.15C571.346 1017.93 512.763 992.018 478.166 943.24C474.034 937.677 470.416 931.751 467.357 925.533C459.807 909.205 465.177 900.168 478.86 890.101C491.668 880.747 504.941 872.047 518.628 864.033C547.236 847.356 577.11 832.955 607.974 820.961C667.568 797.459 729.589 780.932 791.432 764.573L783 759.787C787.247 772.173 791.501 784.558 795.761 796.943L800.547 788.511L569.325 842.234C530.537 851.241 491.66 862.19 452.416 868.987C411.221 876.131 376.129 859.504 339.639 842.472C271.981 810.894 206.591 774.57 137.853 745.301C121.793 738.464 104.237 732.638 90.8913 720.937C76.5353 708.353 68.4904 689.775 62.8431 671.96C51.8557 637.281 50.8848 600.62 51.4198 564.593C51.9548 528.299 54.2435 491.847 50.548 455.602C46.9813 420.655 35.0922 389.048 24.6596 355.786C5.14183 293.522 14.8314 230.713 48.4377 175.078C122.169 52.829 264.956 15.5539 399.302 14.6919C564.758 13.6119 731.709 58.229 895.411 16.3466L887.663 13.1957C921.705 65.3234 886.573 146.443 823.889 154.746C818.053 155.519 814.774 161.682 819.044 166.458C856.603 208.459 817.805 265.154 779.543 289.212C738.248 315.171 690.811 330.182 648.704 355.052C567.74 402.87 498.11 468.007 444.094 544.896C442.449 547.224 443.034 551.326 445.164 553.209L639.351 724.197L642.383 712.723C611.799 717.964 591.023 748.511 592.974 778.851C594.084 796.25 603.318 809.785 616.495 820.634C624.758 827.431 633.972 833.059 641.967 840.183C653.063 850.092 669.163 876.943 646.019 883.473C631.98 887.436 638.836 879.222 640.154 870.463C641.089 863.139 640.872 855.713 639.51 848.457C636.538 830.513 628.8 813.837 624.807 796.151C622.915 787.798 621.468 778.544 623.985 770.151C627.383 758.826 637.261 753.307 645.375 745.688C657.492 734.313 660.95 719.242 653.777 704.073C645.137 685.782 627.264 674.556 610.758 664.192C591.934 652.371 572.842 640.62 555.464 626.669C518.559 597.053 491.343 554.834 507.155 506.115C539.781 405.624 663.625 392.862 745.183 353.249C786.963 332.957 821.412 303.123 838.72 259.12C853.433 221.756 851.808 179.576 823.938 148.9L814.239 158.6C828.803 171.342 849.391 171.669 867.353 176.138C893.42 182.618 917.356 201.741 935.11 221.29C951.398 239.214 960.523 265.263 980.685 279.383C998.598 291.917 1019.74 288.984 1038.53 280.106C1060.91 269.544 1079.58 249.588 1104.76 246.011C1114.57 244.614 1125.32 244.892 1134.48 249.083C1149.93 256.158 1147.52 269.514 1141.22 282.87C1116.77 334.592 1084.23 383.816 1049.87 429.414C1014.3 476.585 974.554 520.452 931.108 560.482C892.895 595.696 846.894 627.967 823.799 676.121C803.42 718.668 815.061 762.195 851.818 791.058C868.046 803.82 890.536 819.723 911.154 823.815C933.119 828.174 952.657 807.575 967.993 794.833C1009.41 760.411 1050.23 715.566 1055.18 659.376C1059.14 614.095 1039.58 564.524 995.823 545.926L998.29 555.309L1024.33 511.643L1014.95 514.111C1044.61 527.574 1075.14 539.053 1106.32 548.473C1128.38 555.062 1161.68 569.884 1183.33 555.408C1202.93 542.29 1205.47 513.476 1209.46 492.51C1215.74 459.585 1221.07 425.936 1218.7 392.318C1216.92 367.032 1210.67 341.993 1198.64 319.571C1193.08 309.138 1186.17 299.478 1178.1 290.837C1172.55 284.892 1162 273.239 1153.47 272.209C1134.41 269.89 1112.6 293.621 1104.35 307.948C1098.73 317.786 1095.17 328.669 1093.91 339.931C1092.64 351.192 1093.7 362.593 1097 373.432C1103.93 396.648 1119.67 416.652 1139.01 430.901C1160.33 446.655 1186.16 453.987 1209.44 466.144C1238.7 481.423 1252.46 504.113 1260.55 535.503C1267.49 562.483 1273.14 588.572 1289.05 612.005C1321.07 659.208 1369.96 690.488 1381.83 749.829C1394.02 810.775 1369.85 871.533 1320.55 908.769C1213.45 989.66 1062.42 956.665 953.251 1034.13C948.476 1037.52 948.971 1044.82 954.886 1046.67C996.428 1059.67 1034.62 1038.75 1071.61 1021.97C1093.17 1012.19 1118.17 1002.22 1142.19 1007.72C1163.14 1012.51 1182.81 1027.65 1183.43 1050.53C1183.66 1059.39 1196.7 1059.33 1197.15 1050.53C1200.77 979.514 1269.48 935.016 1323.33 900.307C1332.54 894.362 1357.13 873.554 1367.44 879.341C1376.82 884.602 1377.88 899.157 1378.29 908.521C1379.36 933.034 1373.63 958.31 1366.7 981.684C1356.9 1014.76 1337.67 1044.24 1322.26 1074.82C1303.84 1111.36 1290.96 1149.92 1285.7 1190.58C1282.73 1213.37 1282.89 1236.16 1281.56 1259.02C1280.11 1284 1274.81 1307.68 1267.78 1331.61C1255.4 1373.74 1245.6 1413.1 1244.01 1457.2C1242.03 1512.06 1231.66 1563.6 1220.85 1617.22C1210.31 1669.54 1205.66 1722.34 1207.89 1775.7C1208.17 1782.37 1217.13 1785.19 1220.67 1779.15C1231.57 1760.71 1231.74 1740.51 1233.1 1719.7C1234.88 1692.6 1243.86 1667.37 1251.92 1641.68C1268.06 1590.5 1274.2 1537.4 1277.35 1484.02C1280.72 1426.69 1282.37 1369.43 1288.6 1312.28C1294.76 1255.81 1299.37 1196.64 1313.17 1141.48C1325 1094.18 1362.29 1061.42 1378.94 1016.35C1383.97 1002.71 1393.68 984.25 1411.33 990.918C1426.01 996.457 1430.03 1015.36 1423.43 1028.4C1413.52 1047.9 1392.99 1064.07 1379.21 1080.92C1365.71 1097.44 1352.88 1115.15 1345.53 1135.41C1338.59 1154.66 1339.07 1175.36 1341.51 1195.42C1347.03 1240.84 1361.71 1285.11 1371.3 1329.78C1383.02 1384.41 1396.45 1438.64 1411.57 1492.47C1426.43 1545.19 1441.18 1599.06 1461.76 1649.87C1479.29 1693.14 1507.24 1724.8 1545.04 1751.46C1564.39 1765.11 1584.67 1777.55 1602.96 1792.59C1614.76 1802.27 1625.79 1814.32 1641.81 1815.96C1684.54 1820.35 1692.7 1776.1 1710.29 1748.19C1715.31 1740.26 1730 1720.82 1741.25 1727.7C1758.43 1738.19 1735.31 1762.52 1726.24 1769.09C1709.09 1781.53 1684.63 1796.73 1662.57 1795.39C1643.18 1794.22 1631.7 1768.64 1617.54 1756.95C1604.45 1746.16 1590.33 1736.64 1576.57 1726.76C1553.48 1710.17 1523.8 1691.84 1511.96 1664.75C1489.08 1612.44 1474.46 1555.5 1457.35 1501.15C1446.64 1467.14 1436 1433.11 1425.14 1399.15C1420.7 1385.28 1416.19 1371.43 1411.61 1357.6C1408.33 1347.76 1405.93 1333.11 1398.45 1325.56C1387.16 1314.15 1369.16 1322.26 1356.67 1326.9C1351.23 1328.88 1349.73 1336.17 1355.03 1339.43C1377.82 1353.43 1394.05 1324.09 1398.18 1305.54C1405.75 1271.54 1398.53 1236.94 1395.89 1202.85C1393.44 1171.41 1394.9 1133.87 1417.93 1109.61C1442.36 1083.85 1482.64 1085.9 1511.83 1101.94C1543.11 1119.14 1562.6 1151.42 1577.14 1182.89C1592.8 1216.81 1607.31 1254.06 1608.52 1291.81C1609.78 1331.27 1610.74 1370.25 1614.68 1409.59C1618.33 1446.13 1622.89 1482.58 1625.83 1519.19C1628.91 1557.54 1630.27 1596.15 1626.91 1634.52C1623.7 1671.18 1617.6 1712.39 1599.49 1745.01C1579.51 1780.98 1540.04 1799.57 1504.32 1773.39C1482.78 1757.63 1461.36 1733.68 1431.73 1738C1408.44 1741.4 1403.99 1762.38 1413.23 1782.01C1424.73 1806.59 1450.76 1817.3 1476.77 1815.75C1493.29 1814.76 1508.65 1809.4 1524.4 1804.85C1540.68 1800.18 1550.52 1807.65 1566.14 1809.8C1596.73 1813.97 1606.34 1786.95 1620.3 1764.5C1639.7 1733.33 1656.19 1700.94 1661.14 1664.15C1666.42 1625 1666.38 1585.2 1664.06 1545.83C1659.2 1463.75 1643.38 1382.91 1635.02 1301.21C1634.61 1297.17 1632.18 1294.82 1628.16 1294.35C1611.39 1292.37 1592 1299.08 1597.01 1319.52C1598 1323.41 1601.87 1324.86 1605.45 1324.3C1627.03 1320.98 1648.2 1303.56 1656.46 1283.21C1667.35 1256.28 1653.16 1224.05 1644.38 1198.52C1628.09 1151.17 1608.86 1102.11 1573.79 1065.26C1555.83 1046.43 1535.23 1035 1511.79 1024.3C1477.91 1008.83 1464.39 972.707 1447 941.882C1430.25 912.157 1407.28 880.55 1401.73 846.257C1399.26 830.978 1400.93 816.205 1398.05 800.877C1395.66 788.175 1395.52 779.683 1405.84 770.28C1413.76 763.057 1422.78 760.669 1433.17 762.036L1426.31 755.17C1427.12 782.57 1427.93 809.983 1428.73 837.409H1442.5C1440.61 818.97 1435.31 797.637 1436.5 779.128C1436.9 772.995 1441.09 761.055 1447.73 758.568C1450.93 757.379 1456.75 759.639 1459.98 760.352C1467.65 762.066 1474.54 764.315 1482.4 764.86C1491.21 765.494 1491.17 751.771 1482.4 751.137C1464.72 749.869 1439.95 735.869 1426.59 755.249C1420.46 764.167 1422.47 775.65 1423.45 785.608C1425.14 802.878 1427.01 820.139 1428.78 837.409C1429.67 845.999 1442.77 846.406 1442.5 837.409C1441.7 810.003 1440.89 782.59 1440.09 755.17C1439.97 751.098 1437.01 748.809 1433.22 748.313C1415.62 746.015 1398.99 754.457 1388.93 768.992C1376.28 787.273 1387.59 804.295 1387.54 824.162C1387.43 875.586 1417.35 917.121 1441.86 960.599C1453.41 981.089 1463.66 1006.06 1481.57 1021.95C1498.31 1036.81 1521.47 1041.53 1539.85 1054.07C1576.92 1079.4 1599.45 1120.87 1616.08 1161.46C1625.69 1184.67 1634.04 1208.37 1641.1 1232.47C1645.94 1249.24 1650.32 1268.53 1640.5 1284.29C1632.02 1297.89 1617.64 1308.64 1601.86 1311.05L1610.3 1315.84C1607.58 1304.75 1624.06 1307.56 1628.22 1308.03L1621.35 1301.18C1628.43 1370.26 1640.86 1438.68 1647.43 1507.82C1653.92 1576.18 1660.85 1655.79 1630.08 1719.37C1622.84 1734.33 1614.23 1748.55 1605.31 1762.6C1601.05 1769.38 1597.02 1776.55 1592.31 1783.02C1583.48 1795.15 1576.09 1798.47 1562.05 1794.98C1552.01 1792.49 1543.52 1787.79 1532.88 1788.77C1515.64 1790.32 1499.48 1799.3 1482.05 1801.33C1462.73 1803.59 1443.3 1800.14 1430.74 1784.13C1425.93 1778 1420.4 1768.02 1423.01 1759.89C1426.49 1749.06 1440.02 1750.4 1449.49 1753.05C1479.32 1761.39 1495.88 1793.14 1527.04 1799.37C1589.22 1811.8 1620.46 1742.53 1631.5 1694.08C1647.24 1624.95 1643.39 1553.77 1636.31 1483.81C1632.58 1447.15 1628.06 1410.49 1625.2 1373.74C1622.55 1339.75 1625.31 1304.69 1620.38 1271.03C1615.55 1237.99 1602.97 1206.08 1589.02 1175.91C1576.45 1148.75 1560.52 1122.24 1537.31 1102.84C1493.79 1066.49 1421.39 1064.52 1393.73 1120.96C1380.93 1147.06 1380 1177.53 1382.47 1205.95C1384.24 1226.06 1387.43 1246.1 1387.8 1266.32C1388.02 1276.32 1384.66 1341.48 1361.99 1327.52C1361.43 1331.7 1360.88 1335.89 1360.34 1340.07C1372.18 1335.68 1384.52 1330.28 1392.41 1343.49C1395.59 1348.83 1396.95 1356.8 1398.91 1362.67C1403.75 1377.21 1408.44 1391.81 1413.11 1406.4C1424.45 1441.91 1435.55 1477.49 1446.79 1513.03C1457.44 1546.82 1468.11 1580.62 1479.34 1614.23C1486.17 1634.64 1492.22 1656.46 1502.02 1675.72C1516.06 1703.26 1547.29 1722.48 1571.65 1739.93C1586.32 1750.44 1602.22 1760.33 1615.24 1772.97C1627.52 1784.94 1636.17 1803.35 1653.82 1808.42C1670.35 1813.16 1691.07 1804.65 1705.87 1797.52C1723.99 1788.77 1747.12 1775.44 1756.12 1756.54C1762.06 1744.16 1762.06 1725.37 1750.22 1716.16C1737.92 1706.57 1719.68 1716.71 1710.24 1726.07C1695.94 1740.28 1690.62 1759.49 1681.28 1776.74C1674.81 1788.74 1666.84 1798.7 1652.97 1801.59C1638.42 1804.61 1628.75 1796.37 1618.29 1787.48C1582.48 1757.18 1538.25 1736.42 1507.33 1700.52C1469.16 1656.23 1455.53 1591.8 1439.03 1537.03C1421.94 1480.33 1406.75 1423.09 1393.45 1365.33C1381.79 1314.71 1367.83 1263.9 1358.26 1212.87C1353.61 1188.15 1350.33 1161.41 1359.63 1137.39C1369.35 1112.37 1387.82 1091.32 1405.44 1071.54C1417.75 1057.67 1435.16 1043.28 1439.58 1024.54C1443.2 1009.38 1437.5 992.385 1425.1 982.863C1419.51 978.47 1412.65 976 1405.55 975.822C1398.45 975.643 1391.47 977.765 1385.67 981.872C1367.27 994.515 1364.71 1020.44 1354.17 1038.6C1342.08 1059.4 1325.82 1077.58 1314.54 1098.92C1302.1 1122.48 1297.04 1148.58 1293.17 1174.69C1284.54 1232.89 1276.33 1291.3 1271.28 1349.93C1266.17 1408.88 1266.19 1468.17 1260.47 1527.07C1257.55 1557.23 1252.93 1587.25 1245.11 1616.55C1237.88 1643.57 1226.92 1669.67 1222.04 1697.3C1217.65 1722.15 1222.13 1749.68 1208.9 1772.14L1221.69 1775.61C1219.32 1718.72 1225.2 1663.2 1236.91 1607.56C1247.26 1558.42 1255.91 1510.67 1257.72 1460.38C1258.61 1435.19 1260.42 1410.42 1266.48 1385.86C1272.66 1360.75 1281.52 1336.38 1287.65 1311.24C1299.66 1262.07 1293.51 1211.08 1304.77 1161.73C1321.86 1086.85 1374.31 1026.97 1388.12 951.285C1392.14 929.269 1397.18 900.049 1385.66 879.291C1381.7 872.187 1375.39 866.292 1367.27 864.429C1352.57 861.1 1339.23 873.743 1327.69 881.144C1266.05 920.649 1187.67 968.882 1183.53 1050.38H1197.25C1196.26 1010.89 1155.2 989.264 1119.37 992.91C1064.11 998.538 1016.2 1051.31 958.631 1033.3C959.186 1037.46 959.734 1041.64 960.275 1045.83C1050.63 981.724 1168.07 993.138 1267.86 953.089C1309.36 936.433 1348.29 911.048 1372.82 872.831C1398.04 833.525 1404.85 783.389 1393.37 738.355C1380.74 688.754 1344.09 658.227 1312.77 620.387C1294.54 598.361 1284.49 575.116 1277.73 547.511C1272.13 524.643 1266.97 500.942 1252.03 482.057C1221.93 444.019 1167.12 442.146 1133.74 408.052C1113.55 387.443 1101.24 357.52 1110.09 328.885C1113.96 316.158 1121.55 304.882 1131.88 296.504C1136.02 293.195 1144.76 286.219 1150.71 286.596C1157.41 287.071 1164.29 295.781 1168.54 300.368C1217.62 353.001 1207.71 430.782 1195.1 495.225C1192.39 509.097 1190.65 525.208 1182.28 537.058C1169.4 555.309 1143.05 544.331 1125.47 539.515C1090.07 529.757 1055.48 517.262 1022.01 502.141C1018.6 500.606 1014.69 501.15 1012.62 504.599L986.58 548.264C984.856 551.148 985.589 556.191 989.037 557.658C1031.59 575.74 1048.19 625.48 1040.27 668.779C1030.92 719.847 990.493 759.193 951.775 790.434C939.509 800.342 926.451 813.827 909.321 808.913C897.036 805.395 883.799 796.111 873.03 789.165C850.342 774.511 830.329 754.427 827.337 726.327C821.947 675.794 869.701 632.872 903.931 602.711C982.201 533.779 1051.66 458.426 1107.55 370.004C1121.35 348.16 1134.27 325.796 1146.33 302.915C1154.2 287.973 1165.65 270.376 1157.91 253.086C1145.86 226.155 1104.78 228.147 1082.33 238.095C1058.55 248.647 1037.96 273.071 1010.5 274.23C978.872 275.568 965.913 235.974 948.594 215.642C931.94 196.058 911.405 180.14 888.288 168.895C868.879 159.581 840.434 163.109 824.047 148.781C817.419 142.985 808.373 151.902 814.348 158.481C864.143 213.304 815.656 295.067 763.621 327.428C699.549 367.279 619.962 374.403 558.674 419.476C510.623 454.839 472.162 513.912 496.495 574.621C507.393 601.769 528.437 622.834 551.214 640.412C563.995 650.271 577.479 659.158 591.092 667.808C607.499 678.222 627.551 687.783 638.509 704.469C655.065 729.735 627.254 737.464 616.098 754.813C609.659 764.84 608.351 776.502 609.668 788.135C612.958 817.305 637.35 851.34 622.736 880.282C621.666 882.383 621.31 885.127 622.736 887.218C631.812 900.446 648.734 900.882 661.029 891.181C677.446 878.231 672.601 855.898 661.594 840.996C645.91 819.772 612.532 810.983 607.291 782.725C602.505 756.963 620.418 730.211 646.138 725.831C651.092 724.969 652.835 717.588 649.11 714.367L454.923 543.37L455.993 551.693C518.549 462.627 603.149 390.019 701.065 342.38C744.262 321.364 796.098 306.234 826.227 266.175C850.153 234.369 856.772 187.899 828.803 156.628C827.191 160.532 825.573 164.436 823.948 168.34C896.194 158.779 939.955 67.9689 899.562 6.14101C898.772 4.86147 897.596 3.86647 896.203 3.30002C894.81 2.73357 893.273 2.62506 891.814 2.99017C733.611 43.4656 571.802 1.83088 411.845 0.840053C276.865 0.00775507 135.059 31.7738 51.1126 146.363C15.7924 194.577 -5.45925 254.582 1.57508 314.805C5.90467 351.703 22.3809 385.075 31.0797 420.883C40.2045 458.634 39.3426 497.811 38.4113 536.365C37.5493 571.926 36.3802 607.705 42.0869 642.968C47.1893 674.496 57.8498 711.088 83.4409 732.282C110.033 754.298 148.444 764.206 179.346 778.851C216.003 796.18 252.017 814.798 288.328 832.772C324.124 850.478 361.644 872.009 400.778 881.323C442.39 891.231 485.101 875.804 525.435 866.46L804.262 801.67C807.72 800.867 810.206 796.636 809.057 793.228L796.296 756.072C795.781 754.336 794.615 752.868 793.041 751.974C791.467 751.08 789.609 750.83 787.855 751.276C727.934 767.129 667.855 783.131 609.956 805.484C581.586 816.273 553.957 828.917 527.248 843.334C504.46 855.819 473.519 870.493 456.696 890.963C426.667 927.505 492.7 982.516 518.519 1000.7C540.9 1016.47 565.471 1028.87 590.408 1040.04C612.036 1049.74 634.497 1061.1 658.185 1064.45C678.922 1067.42 702.69 1063.14 711.082 1041.33C721.168 1015.13 698.658 989.293 707.327 963.264L694.784 964.899C710.765 986.697 723.902 1011.87 744.381 1029.95C766.415 1049.39 803.053 1057.54 816.438 1085.62C822.581 1098.5 820.401 1113.51 826.187 1126.71C830.269 1136 836.828 1143.93 844.397 1150.6C864.985 1168.76 891.487 1179.97 915.067 1193.62C970.94 1225.96 1024.34 1262.39 1074.84 1302.61C1100.29 1322.92 1124.97 1344.15 1148.87 1366.29C1153.6 1370.68 1162.4 1376.48 1164.72 1382.58C1169.34 1395.05 1161.42 1403.39 1154.05 1411.84C1143.48 1423.97 1132.82 1436.04 1122.08 1448.04C1074.88 1500.46 1024.22 1550.24 962.564 1585.4L970.876 1596.18C1011.97 1563.48 1048.16 1525.31 1084.81 1487.88L1138.2 1433.38C1147.91 1423.48 1157.71 1413.66 1167.33 1403.66C1173.48 1397.3 1181.72 1390.25 1182.76 1380.82C1183.97 1369.92 1176.63 1362.04 1166.07 1360.83C1148.18 1358.76 1131.72 1372.59 1117.53 1381.36C1103.03 1390.27 1085.68 1397.58 1081.57 1415.67C1077.24 1434.72 1081.42 1457.46 1084.98 1476.31C1093.76 1522.88 1114.3 1566.11 1133.08 1609.22C1152.82 1654.42 1168.52 1701.27 1180 1749.23C1203.15 1845.67 1215.67 1945.11 1256.12 2036.52C1267.77 2062.84 1332.58 2190.2 1263.11 2184.87C1242.78 2183.31 1224.55 2171.76 1204.32 2170.42C1183.71 2169.06 1180.73 2184.55 1167.55 2196.32C1163.11 2200.29 1166.56 2208.21 1172.4 2208.04C1213.26 2206.85 1236.95 2241.18 1231.59 2279.61C1226.58 2315.51 1189.09 2329.96 1160.26 2344.8C1126.77 2362.03 1082.49 2378.05 1061.77 2334.61C1045.34 2300.18 1051.53 2250.39 1074.09 2220.54C1080.91 2211.51 1097.38 2186.2 1110.84 2190.99C1122.94 2195.3 1126.08 2219.54 1128.12 2230.41C1133.92 2261.34 1124.97 2303.53 1084.96 2299.59C1072.65 2298.38 1060.19 2291.66 1057.32 2278.72C1054.26 2264.69 1063.17 2253.28 1072.88 2244.39C1089.5 2229.18 1110.15 2218.63 1125.39 2201.78C1164.03 2158.92 1139.69 2092.79 1126.38 2044.48C1109.03 1981.59 1087.75 1919.85 1064.47 1858.92C1017.38 1735.57 962.138 1615.56 912.888 1493.11C856.97 1355.11 808.819 1212.77 791.006 1064.26C790.173 1057.39 778.74 1054.03 777.522 1062.44C772.568 1096.5 762.373 1129.58 757.449 1163.64C756.845 1167.84 759.153 1172.49 764.067 1172.33C780.028 1171.81 783.238 1156.24 777.878 1143.41C766.821 1116.97 734.543 1132.17 720.226 1112.55C719.414 1115.68 718.595 1118.8 717.769 1121.94C744.52 1103.11 759.738 1073.71 758.549 1040.89C758.37 1035.93 752.753 1031.97 748.225 1034.94C642.125 1105.29 534.52 1176.71 446.749 1269.95C403.394 1315.99 367.945 1368.14 328.711 1417.58C309.055 1442.35 288.269 1466.31 264.927 1487.67C245.231 1505.7 222.136 1520.76 205.848 1542.22C187.906 1565.88 185.191 1594.08 184.587 1622.87C183.991 1653.86 185.222 1684.85 188.272 1715.69C193.92 1773.78 205.422 1831.18 220.729 1887.47C253.226 2006.92 301.852 2121.1 348.07 2235.68C394.477 2350.73 438.794 2467.07 463.543 2588.98C469.546 2618.52 480.564 2637.99 502.023 2659.09C526.287 2682.94 551.274 2706.09 576.627 2728.76C624.632 2771.69 674.331 2812.6 725.725 2851.47C779.018 2891.85 834.064 2934.22 893.013 2966.06C946.514 2994.95 1007.43 2999.37 1066.39 2987.67C1125.36 2975.97 1180.9 2948.63 1233.83 2920.8C1283.75 2894.54 1331.88 2865 1377.91 2832.39C1560.04 2703.43 1709.47 2528 1805.49 2326.38C1816.91 2302.39 1827.57 2278.06 1837.46 2253.41L1825.99 2256.43C1849.84 2279.78 1864.47 2309.54 1867.79 2342.81C1868.5 2349.89 1876.37 2351.73 1880.57 2346.27C1892.06 2331.34 1903.54 2316.42 1915 2301.48H1903.2C1931.1 2356.89 1942.64 2419.09 1936.5 2480.82C1935.83 2487.86 1946.05 2489.8 1949.29 2484.29L1974.74 2441L1962.2 2439.37C1972.77 2513.2 1983.36 2587.02 1993.97 2660.84C1994.96 2667.7 2005.71 2667.04 2007.19 2660.84C2010.65 2646.52 2014.1 2632.2 2017.56 2617.87L2006.09 2620.9C2053.44 2670.27 2058.08 2741.16 2072.07 2804.64C2083.59 2856.91 2104.41 2916.89 2155.6 2942.61C2193.53 2961.68 2248.08 2962.56 2276.55 2926.45C2293.65 2904.76 2295.66 2876.38 2294.1 2849.84C2291.93 2812.79 2286.97 2775.68 2282.46 2738.86C2263.93 2587.16 2235.85 2436.78 2198.4 2288.61C2185.3 2236.86 2145.21 2144.67 2196.36 2101.63C2214.62 2086.25 2241.75 2076.79 2240.38 2048.13C2239.14 2022.3 2215.61 2003.71 2198.61 1987.3C2162.14 1952.19 2136.45 1903.57 2113.56 1859.04C2090.17 1813.54 2063.53 1761.74 2058.27 1710.01L2045.47 1713.48C2074.06 1780.12 2107.45 1844.59 2145.37 1906.4C2163.49 1935.81 2183.64 1960.89 2211.35 1982.1C2241.97 2005.52 2284.4 2026.17 2321.91 2006.19C2366.59 1982.41 2408.4 1950.09 2448.42 1919.34C2490.46 1887.05 2530.94 1852.86 2569.86 1816.77C2643.83 1748.33 2713.45 1673.67 2771.1 1590.86C2830.68 1505.24 2899.61 1413.83 2921.7 1310.04H2908.42C2924.42 1394.9 2869.19 1473.38 2823.72 1539.75C2780.03 1603.47 2732.4 1664.4 2681.11 1722.17C2580.71 1835.42 2466.93 1936.05 2342.27 2021.87C2301.13 2050.17 2220.66 2088.3 2245.29 2151.67C2250.88 2166.04 2274.54 2193.28 2289.8 2175.38C2303.32 2159.52 2298.28 2134.64 2284.85 2120.43C2266.82 2101.41 2237.84 2105.21 2218.2 2119.59C2192.2 2138.64 2184.9 2170.87 2184.2 2201.49C2182.37 2281.46 2202.94 2362.25 2225.4 2438.3C2276.97 2613.08 2357.81 2801 2293.76 2983.73C2292.14 2988.34 2296.28 2991.96 2300.38 2992.41C2424.22 3005.85 2551.72 2999.71 2674.18 2976.73C2717.13 2968.67 2766.81 2953.04 2787.57 2910.72C2803.21 2878.83 2800.57 2838.89 2771.14 2816.34C2767.51 2813.55 2762.14 2816.61 2761.06 2820.43C2742.43 2885.91 2791.27 2948.6 2849.98 2972.27C2888.37 2987.75 2930.46 2990.48 2971.42 2989.69C3017.14 2988.82 3062.98 2985.21 3108.53 2981.22C3200.3 2973.2 3291.82 2960.41 3381.57 2939.2C3432.59 2927.17 3540.97 2910.07 3534.63 2836.35C3532.11 2807.08 3510.73 2788.21 3489.99 2770.05C3478.31 2759.8 3465.71 2748.89 3459.87 2734.06C3450.95 2711.35 3460.37 2685.51 3479.26 2671.07C3483.28 2668.01 3484.05 2662.15 3479.26 2659.18C3438.8 2634.54 3399.01 2607.1 3367.86 2570.93C3351.87 2552.32 3338.38 2531.19 3330.21 2507.97C3326.44 2497.28 3323.22 2485.83 3322.29 2474.47C3321.19 2460.6 3332.14 2427.07 3351.49 2444.98C3357.97 2450.98 3367.26 2441.73 3361.19 2435.27C3328.44 2400.42 3302.74 2360.54 3288.76 2314.53C3275.48 2270.66 3272.33 2224.71 3270.93 2179.14C3270.72 2172.45 3261.65 2169.66 3258.14 2175.68C3208.9 2260.17 3123.17 2311.54 3038.2 2354.43C2934.39 2406.82 2828.93 2456.1 2724.28 2506.77C2700.21 2518.42 2676.72 2531.7 2649.79 2534.96C2630.19 2537.34 2600.93 2535.83 2597.85 2511.09C2597.35 2507.13 2595.08 2504.64 2590.98 2504.23L2524.9 2497.64L2531.77 2504.5C2535.18 2474.39 2550.07 2448.68 2573.59 2429.77C2578.7 2425.67 2573.99 2418.52 2568.74 2418.06C2534.22 2415.18 2501.74 2400.52 2476.76 2376.53V2386.23L2550.36 2308.51C2555.55 2303.03 2548.82 2293.37 2542.05 2297.73C2502.71 2323.1 2449.03 2277.06 2472.46 2234.69C2492.14 2199.14 2544.23 2191.38 2580.29 2184.81C2614.35 2178.61 2652.62 2164.99 2674.66 2136.74C2695.47 2110.08 2690.7 2074 2664.24 2052.99C2618.51 2016.68 2558.06 2040.19 2506.17 2026.41C2507.78 2029.22 2509.38 2032.03 2510.97 2034.85C2522.05 1959.78 2604.35 1937.42 2669.11 1938.74C2739.05 1940.17 2813.21 1947.97 2880.82 1966.15C2914.82 1975.29 2944.22 1990.68 2975.86 2005.47C3000.48 2016.99 3024.98 2016.26 3047.29 2000.03C3070.64 1983.05 3086.46 1956.43 3100.14 1931.6C3115.37 1903.86 3127.61 1874.58 3136.67 1844.26C3157.02 1775.87 3160.95 1703.64 3148.16 1633.43C3146.7 1625.39 3135.22 1628.01 3134.68 1635.26C3127.29 1734.05 3112.03 1832.1 3089.05 1928.46C3088.25 1931.83 3090.09 1936.2 3093.85 1936.9C3209.77 1958.35 3217.05 2097.95 3215.97 2191C3215.91 2195.83 3221.98 2200.05 3226.29 2196.95C3268.95 2166.02 3298.2 2119.97 3308.06 2068.21C3319.63 2006.67 3296.8 1953.62 3273.57 1897.92C3246.88 1833.92 3239.98 1765.29 3221.06 1699.07C3204.78 1641.98 3182.33 1584.79 3148.1 1535.94C3131.75 1512.6 3112.49 1494.02 3091.04 1475.49C3081.57 1467.31 3070.69 1458.36 3066.01 1446.4C3059.55 1429.96 3068.74 1414.46 3078.15 1401.22C3080.43 1398.01 3078.49 1393.82 3075.69 1391.83C3001.69 1339.31 2927.07 1287.74 2853.07 1235.2C2803.53 1200.04 2678.39 1127.6 2746.52 1055.86C2769.1 1032.08 2785.74 1009.58 2789.43 975.917C2793.23 941.238 2784.31 905.856 2772.59 873.426C2750.79 812.985 2720.17 752.148 2681.79 700.476C2641.97 646.832 2588.54 602.958 2519.31 599.649C2517.81 599.662 2516.36 600.16 2515.17 601.067C2513.98 601.974 2513.11 603.243 2512.7 604.682C2492.42 706.725 2475.34 809.332 2461.47 912.504C2454.94 961.233 2449.14 1010.05 2444.06 1058.97C2440.88 1089.68 2434.85 1129.17 2456.12 1155.28C2481.1 1185.94 2520.21 1166.66 2549.33 1153.91C2596.43 1133.27 2643.24 1112 2689.75 1090.08C2710.42 1080.35 2731.07 1070.57 2751.58 1060.49C2768.78 1052.04 2786.69 1042.94 2798.51 1027.3C2819.94 998.974 2814.37 957.091 2810.64 924.087C2775.46 613.957 2455.55 390.346 2153.25 430.792C2105.87 436.979 2059.6 449.769 2015.77 468.79C1972.3 487.824 1937.83 518.827 1901.06 547.967C1874.96 568.666 1846.84 585.926 1817.79 602.136C1803.72 609.983 1789.47 617.583 1774.82 624.291C1766.33 628.185 1750.43 637.261 1740.51 634.883C1731.88 632.822 1728.48 645.366 1736.86 648.12L1781.61 662.854V649.617C1717.68 667.353 1654.45 688.556 1593.37 714.576C1557.91 729.686 1510.28 756.191 1516.31 801.977C1520.52 833.911 1555.03 865.697 1585.67 840.718C1614.71 817.018 1600.09 767.664 1587.12 739.505L1575.23 746.441L1609.09 809.428C1609.68 810.479 1610.54 811.35 1611.59 811.949C1612.64 812.547 1613.83 812.85 1615.03 812.826C1664.06 808.1 1705.29 773.322 1717.15 725.277C1717.41 724.259 1717.44 723.194 1717.24 722.163C1717.03 721.133 1716.59 720.162 1715.95 719.326C1715.31 718.49 1714.5 717.81 1713.56 717.337C1712.62 716.864 1711.58 716.611 1710.53 716.597C1636.87 712.633 1563.17 723.853 1494.02 749.562C1488.24 751.712 1487.48 758.539 1492.38 762.096C1526.59 787.005 1524.3 835.1 1528.28 872.861C1530.2 890.993 1532.87 909.234 1539.6 926.286C1547.33 945.845 1560.4 962.274 1573.85 978.206C1589.52 996.834 1605.55 1015.24 1613.85 1038.52C1620.9 1058.25 1622.99 1079.42 1624.42 1100.18C1626.9 1136.3 1626.01 1175.42 1642.92 1208.5C1658.96 1239.87 1689.38 1254.48 1721.55 1264.59C1754.15 1274.83 1801.73 1282.11 1813.25 1320.21C1825.24 1359.84 1787.77 1397.73 1768.58 1428.62C1743.53 1468.94 1741.64 1508.52 1752.42 1554.21C1766.16 1612.39 1777.35 1667.46 1770.08 1727.6C1763 1785.7 1742.9 1841.45 1711.28 1890.69L1723.17 1897.63C1755.3 1847.34 1787.19 1795.09 1790.99 1733.98C1794.95 1670.8 1777.93 1608.1 1780.09 1544.64C1782.27 1483.09 1794.56 1422.31 1816.47 1364.75C1822.62 1348.6 1828.72 1329.85 1838.21 1315.27C1846.63 1302.32 1864.58 1305.59 1879.3 1304.46L1982.62 1296.53L1976 1291.49C1981.25 1308.75 1978.43 1325.35 1966.76 1339.4C1962.8 1344.21 1965.55 1350.46 1971.61 1351.12C1995.39 1353.7 2008.87 1378.68 2008.22 1400.77C2007.54 1424.25 1996.07 1445.53 1985.27 1465.78C1982.29 1471.41 1988.69 1479.35 1994.65 1475.18C2017.6 1459.14 2041.99 1479.05 2053.03 1499.95C2067.07 1526.41 2057.22 1554.91 2045.76 1580.41C2034.92 1604.55 2021.44 1627.8 2015.56 1653.83C2009.62 1680.05 2010.86 1707.1 2014.14 1733.58C2021.75 1795.13 2035.86 1853.02 2009.41 1912.3C1997.85 1938.2 1981.81 1961.96 1965.82 1985.29C1950.65 2007.44 1930.98 2035.57 1903.4 2042.85C1872.84 2050.93 1851.94 2027.49 1835.76 2005.27C1821.68 1985.94 1808.31 1966.7 1789.31 1951.77C1756.09 1925.56 1709.17 1917.49 1676.83 1949.79C1664.56 1962.03 1657.01 1978.96 1659.39 1996.44C1662.62 2020.12 1681.88 2036.62 1699.02 2051.23C1723.22 2071.89 1747.45 2092.52 1771.72 2113.11C1791.2 2129.69 1811.02 2151.15 1834.98 2161.28C1853.8 2169.25 1877.26 2167.58 1890.88 2150.61C1895.27 2145.14 1900.3 2134.85 1897.45 2127.65C1895.47 2122.53 1886.71 2118.06 1882.47 2114.7L1860.77 2097.52C1801.98 2050.96 1743.22 2004.41 1684.47 1957.86C1681.82 1955.76 1677.29 1954.71 1674.77 1957.86C1589.39 2064.41 1486.7 2156.56 1371.02 2229.15C1261.8 2297.68 1139.62 2339.32 1027.7 2402.47C968.152 2436.07 912.769 2477.18 869.978 2530.96C865.609 2536.45 871.465 2546.81 878.291 2541.73L1094.48 2381.07C1098.76 2377.89 1099.21 2369.85 1092.85 2368.53C984.182 2346.1 887.138 2420.3 802.35 2477.31C700.56 2545.75 599.233 2614.87 498.367 2684.66C492.423 2688.76 495.118 2696.55 501.825 2697.44L563.044 2705.36L556.178 2698.51C559.15 2754.6 562.37 2810.68 565.233 2866.78C565.57 2873.37 567.512 2881.88 561.062 2886.82C557.178 2889.8 546.34 2890.49 541.633 2891.22C527.763 2893.38 513.972 2895.44 500.151 2897.56L417.175 2910.18L85.2737 2960.83C76.5749 2962.16 80.2705 2975.38 88.9197 2974.06L88.9495 2974.05Z" fill="rgba(255,255,255,0.9)"/>
</g>
<defs>
<clipPath id="clip0_2147_22652">
<rect width="3535" height="3000" fill="white"/>
</clipPath>
</defs>
</svg>
