<svg width="4885" height="3000" viewBox="0 0 4885 3000" fill="none" xmlns="http://www.w3.org/2000/svg">
<g clip-path="url(#clip0_2147_22588)">
<path d="M1543 2999.39H10.066C7.54138 2999.39 5.12015 2998.39 3.33497 2996.61C1.54978 2994.82 0.546875 2992.4 0.546875 2989.87C0.546875 2987.35 1.54978 2984.93 3.33497 2983.14C5.12015 2981.36 7.54138 2980.36 10.066 2980.36H1200.94C1180.95 2978.64 1161.04 2976.08 1141.24 2972.52C1080.77 2961.47 1023.65 2939.49 975.878 2908.94C922.291 2874.64 882.613 2831.41 857.942 2780.47C840.393 2744.21 835.286 2711.33 842.767 2682.75C847.453 2665.37 857.41 2649.87 871.268 2638.39C886.23 2626.13 903.958 2620.47 921.182 2622.43C959.405 2626.8 982.777 2663.87 999.811 2690.87C1047.05 2765.75 1096.58 2819.41 1151.22 2854.88C1218.63 2898.64 1295.48 2914.04 1362.05 2897.1C1435.47 2878.45 1493.97 2815.49 1501.11 2747.41C1534.06 2433.85 1589.44 2138.09 1665.74 1868.48C1685.32 1799.26 1709.48 1718.15 1740.25 1641.32C1773.18 1559.1 1810.06 1490.38 1852.99 1431.22C1878.55 1396.03 1883.66 1350.95 1889.07 1303.23C1892.16 1276 1895.35 1247.82 1902.73 1221.7C1916 1174.73 1931.04 1121.5 1920.55 1071.16C1920.04 1068.73 1919.43 1066.31 1918.89 1063.75C1916.25 1052.36 1913.51 1040.58 1915.66 1028.06C1917.55 1017.46 1923.56 1008.03 1932.36 1001.83C1935.54 999.598 1939.14 998.039 1942.94 997.247C1946.74 996.456 1950.66 996.449 1954.47 997.228C1966.43 999.827 1980.84 1010.59 1981.56 1047.05C1982.25 1081.83 1985.2 1122.08 2001.82 1156.7C2018.93 1192.37 2049.63 1216.7 2081.95 1220.21C2100.04 1222.17 2119.62 1216.04 2134.32 1203.81C2146.64 1193.62 2153.93 1180.29 2154.99 1166.44C2157.29 1135.95 2133.56 1106.07 2084.43 1077.62C2046.66 1055.75 1999.66 1028.53 1991.94 980.766C1985.6 941.571 2009.63 906.687 2034.24 887.179C2061.37 865.655 2095.31 854.523 2125.24 844.702C2160.27 833.201 2199.97 820.177 2240.37 822.562C2286.75 825.306 2326.07 850.189 2340.53 885.969C2342.68 891.311 2346.88 898.041 2350.94 904.548C2354.17 909.744 2357.48 915.041 2360.19 920.226C2363.55 920.383 2366.85 920.618 2369.97 920.842L2523.21 931.895C2535.86 932.813 2550.19 933.844 2563.53 939.017C2579.65 945.289 2591.39 956.857 2595.72 970.755C2601.32 988.561 2592.81 1008.2 2576.84 1014.56C2574.98 1015.29 2573.05 1015.8 2571.07 1016.09C2572.04 1019.91 2572.62 1023.83 2572.8 1027.77C2574.14 1058.3 2549.44 1082.64 2525.92 1092.37C2504.64 1101.16 2481.53 1102.09 2460.19 1101.95C2463.55 1107.55 2471.81 1113.28 2479.57 1117.35C2486.29 1120.87 2493.97 1122.95 2502.07 1125.11C2508.52 1126.72 2514.88 1128.71 2521.1 1131.05C2536.56 1137.18 2554.56 1151.59 2554.42 1172.06C2554.3 1190.42 2539.58 1204.12 2525.06 1209.56C2511.51 1214.64 2497.53 1214.36 2484.02 1214.04H2482.77C2445.95 1213.31 2408.17 1215.55 2381.36 1236.68C2347.83 1263.11 2341.92 1312.56 2350.94 1349.85C2361.2 1392.33 2387.3 1429.07 2412.53 1464.61C2420.63 1476.01 2428.14 1487.84 2435.4 1499.32C2450.82 1523.59 2465.37 1546.5 2485.16 1565.93C2516.9 1597.12 2556.83 1612.83 2592.04 1607.98C2628.29 1602.99 2657.42 1578.87 2688.25 1553.37C2697.36 1545.82 2706.78 1538.03 2716.31 1530.87C2777.37 1484.96 2853.74 1459.85 2930.1 1459.85H2931.56C2932.87 1458.54 2934.22 1457.26 2935.61 1456.04C2950.89 1442.6 2969.37 1436.03 2987.64 1437.5C2996.2 1438.19 3004.14 1440.49 3011.83 1442.7C3019.11 1444.81 3025.99 1446.8 3032.81 1447.27C3047.66 1448.28 3062.34 1442.24 3077.87 1435.85C3081.47 1434.36 3085.19 1432.84 3088.89 1431.37C3126.61 1416.95 3167.28 1411.93 3207.38 1416.74C3202.72 1413.15 3198.35 1409.2 3194.31 1404.93C3172.05 1381.33 3161.57 1350.44 3153.57 1320.55C3138.86 1265.67 3131.96 1206.32 3133.06 1144.26C3134.05 1088.76 3141.46 1029.38 3155.1 967.798C3155.39 966.479 3155.96 965.237 3156.77 964.155C3157.58 963.073 3158.61 962.175 3159.8 961.521C3160.98 960.868 3162.29 960.474 3163.64 960.364C3164.98 960.255 3166.34 960.434 3167.61 960.889C3179.52 965.031 3192.21 966.489 3204.75 965.159C3217.29 963.829 3229.39 959.744 3240.17 953.195C3244.05 950.78 3247.72 948.037 3251.13 944.998C3238.65 948.357 3225.46 949.544 3214.18 950.597C3186.81 953.027 3150.48 934.919 3134.81 911.054C3115.66 881.938 3108.85 806.279 3103.03 724.741C3102.88 722.791 3103.34 720.843 3104.34 719.164C3105.34 717.485 3106.84 716.155 3108.63 715.357C3108.31 712.928 3108.5 710.461 3109.17 708.107C3109.85 705.753 3111 703.563 3112.56 701.672C3115.5 697.96 3119.53 695.252 3124.08 693.922C3124.56 691.873 3124.98 689.599 3125.35 687.08C3126.47 678.871 3129.63 657.067 3147.39 651.244C3148.24 650.963 3149.12 650.731 3150.01 650.549C3150.8 650.001 3151.61 649.486 3152.44 649.026C3152.44 648.59 3152.44 648.153 3152.44 647.705C3152.49 638.668 3157.59 626.125 3166.02 620.761C3176.1 614.322 3190.57 615.789 3201.11 624.322C3201.91 624.983 3202.7 625.666 3203.45 626.371C3206.28 618.387 3212.32 611.634 3221.14 609.674C3230.52 607.591 3240.91 611.779 3247.67 620.178C3258.45 617.312 3270.74 620.246 3281.05 628.253C3289.9 635.129 3295.91 644.368 3301.2 652.52C3307.74 662.599 3315.89 675.097 3317.54 689.711C3319.78 709.029 3310.73 725.29 3302.03 741.013C3297.55 749.109 3293.33 756.691 3290.7 764.53C3283.58 785.673 3287.98 808.496 3292.65 832.674C3296.47 852.496 3300.49 872.99 3298.06 893.685C3297.11 901.926 3295.15 910.02 3292.23 917.785C3304.31 942.075 3300.76 970.855 3297.6 996.545C3297.28 999.076 3296.97 1001.58 3296.68 1004.08C3289.69 1064.94 3295.7 1126.59 3314.29 1184.95C3312.94 1168.53 3312.4 1152.02 3312.66 1135.42C3311.21 1128.54 3310.33 1121.54 3310.02 1114.51C3308.8 1080.6 3324.25 1050.68 3339.13 1021.68C3347.03 1006.36 3355.19 990.509 3360.54 974.641C3368.72 950.216 3370.83 924.459 3373.07 897.201C3375.65 865.632 3378.34 832.999 3391.37 802.931C3402.57 776.994 3421.51 754.507 3446.03 737.911C3470.54 721.314 3498.44 712.098 3526.66 711.28C3528.48 711.227 3530.27 711.695 3531.83 712.627C3533.39 713.56 3534.64 714.918 3535.46 716.543C3536.27 718.168 3536.6 719.99 3536.41 721.796C3536.21 723.602 3535.51 725.315 3534.38 726.734C3495.36 775.639 3461.66 817.881 3438.97 875.218C3414.34 937.584 3410.16 1000.95 3427.33 1053.6C3433.15 1071.45 3447.1 1103.35 3475.19 1116.41C3495.45 1125.83 3522.52 1124.65 3549.43 1113.16C3600.29 1091.43 3632.96 1045.01 3651.42 1009.89C3670.09 974.338 3682.98 935.075 3695.44 897.101C3698.69 887.19 3702.05 876.943 3705.52 866.864C3721.95 818.597 3741.96 768.237 3776.86 726.88C3790.49 710.72 3799.98 698.682 3807.5 679.364C3814.22 662.14 3814.53 644.648 3808.62 631.097C3789.89 630.759 3771.73 637.507 3757.76 649.989C3743.05 663.35 3734.25 681.951 3725.03 701.638C3715.41 722.065 3705.48 743.174 3688.07 759.076C3675.82 770.099 3660.88 777.69 3644.75 781.078C3628.63 784.467 3611.89 783.533 3596.24 778.372C3564.26 767.543 3541.71 741.058 3537.42 709.253C3533.74 682.029 3510.39 656.149 3484.24 650.348C3482.95 650.054 3481.73 649.498 3480.66 648.713L3476.62 652.599C3462.74 666.037 3447 681.144 3426.84 689.051C3407.06 696.811 3379.35 696.587 3362.09 678.602C3354.4 670.595 3350.41 660.919 3346.56 651.569C3344.89 647.503 3343.32 643.673 3341.49 640.101L3339.82 636.741C3335.95 629.014 3330.11 617.323 3325.31 618.51C3323.68 618.915 3321.96 618.876 3320.34 618.398C3318.72 617.92 3317.26 617.02 3316.1 615.791C3314.94 614.561 3314.13 613.045 3313.76 611.4C3313.38 609.754 3313.44 608.038 3313.95 606.426L3316.65 597.826C3313.94 596.236 3311.41 594.359 3309.11 592.226L3289.66 574.835L3289.31 574.51C3288.44 574.977 3287.54 575.396 3286.62 575.764C3282.66 577.334 3278.41 578.007 3274.16 577.734C3269.91 577.46 3265.78 576.249 3262.05 574.185C3251.59 568.127 3244.83 555.719 3243.95 541.003C3243.49 533.041 3244.58 525.493 3245.62 518.18C3246.05 515.213 3246.46 512.402 3246.74 509.591C3250.65 472.837 3230.63 442.309 3204.05 406.204C3168.18 357.467 3152.73 293.523 3162.11 233.587C3156.27 229.227 3151.45 223.639 3148 217.215C3136.62 195.724 3143 167.1 3165.51 138.678C3192.38 104.69 3229.15 75.9651 3274.68 53.2876C3311.89 34.7649 3355.14 19.9378 3406.91 7.94399C3429.39 2.73658 3455.5 -2.45964 3481.01 1.77348C3509.4 6.47694 3536.82 22.1664 3567.25 51.1487C3575.23 58.7526 3584.11 65.6398 3593.51 72.9302C3610.31 85.9767 3627.66 99.46 3639.87 117.49C3665 154.676 3680.86 197.345 3686.1 241.919C3688.06 258.717 3688.52 275.84 3688.96 292.414C3689.19 301.373 3689.43 310.153 3689.88 318.809C3706.01 308.316 3727.4 305.237 3747.85 310.858C3772.78 317.712 3790.57 334.992 3801.1 348.285C3819.69 371.802 3825.81 397.268 3817.9 418.31C3806.7 448.132 3770.05 459.298 3742.87 451.022C3718.32 443.53 3697.29 422.577 3685.17 393.55C3682.49 387.104 3680.25 380.486 3678.45 373.739C3678.34 374.49 3678.25 375.24 3678.16 375.979C3677.25 383.908 3677.52 392.52 3677.8 401.635C3678.22 409.87 3678.17 418.121 3677.68 426.351C3673.12 483.464 3705.05 542.459 3755.32 569.885C3760.49 572.696 3765.84 575.26 3771.52 577.97C3789.62 586.638 3808.35 595.586 3820.32 613.045C3841.31 616.199 3860.57 626.48 3874.87 642.162C3931.66 665.766 3977.79 709.421 4004.49 764.821C4008.22 772.705 4012.01 780.589 4015.84 788.473C4050.56 860.559 4086.47 935.109 4096.19 1016.05C4100.03 1048.07 4100 1080.02 4099.98 1110.93C4099.98 1152.52 4099.92 1191.81 4108.44 1231.74C4121.7 1293.92 4155.33 1349.71 4187.86 1403.65C4189.05 1405.62 4189.48 1407.94 4189.08 1410.2C4180.36 1460.04 4198.04 1509.79 4216.82 1556.49C4221.4 1567.85 4226.34 1579.39 4231.1 1590.55C4246.95 1627.63 4263.33 1665.96 4270.85 1706.65C4276.1 1735.1 4276.06 1763.76 4270.73 1789.52C4269.77 1794.2 4268.65 1798.75 4267.37 1803.17C4268.91 1804.66 4270.35 1806.24 4271.71 1807.89C4304.76 1848.4 4320.73 1902.87 4319.18 1969.77C4318.06 2019.11 4307.57 2075.83 4287.15 2143.16C4276.06 2179.67 4260.85 2214.79 4241.81 2247.86C4244.25 2249.18 4246.56 2250.75 4248.68 2252.54C4259.76 2261.82 4264.51 2275.44 4268.33 2286.38L4359.75 2548.02C4370.7 2579.37 4385.57 2621.93 4375.18 2661.89C4406.39 2659.9 4440.94 2664.57 4477.71 2675.91C4504.03 2684.01 4529.73 2694.6 4554.59 2704.82C4579.77 2715.17 4605.8 2725.88 4632.05 2733.8C4710.36 2757.19 4793.74 2757.66 4872.31 2735.16C4873.51 2734.81 4874.77 2734.7 4876.01 2734.84C4877.25 2734.98 4878.46 2735.36 4879.55 2735.96C4880.65 2736.56 4881.61 2737.38 4882.4 2738.35C4883.18 2739.33 4883.76 2740.45 4884.11 2741.65C4884.46 2742.85 4884.57 2744.11 4884.43 2745.35C4884.29 2746.59 4883.91 2747.8 4883.31 2748.89C4882.7 2749.99 4881.89 2750.95 4880.92 2751.73C4879.94 2752.52 4878.82 2753.1 4877.62 2753.45C4795.51 2776.96 4708.38 2776.47 4626.54 2752.04C4599.4 2743.83 4572.94 2733 4547.35 2722.43C4522.89 2712.35 4497.59 2701.95 4472.11 2694.1C4443.14 2685.15 4405.24 2677.51 4367.77 2681.6C4356.11 2704.97 4335.3 2724.96 4308.82 2737.88C4283.06 2750.41 4252.39 2756.66 4214.91 2756.97C4196.42 2757.12 4174.97 2755.94 4155.83 2745.91C4137.91 2736.53 4120.64 2716.21 4122.49 2692.01C4124.23 2669.19 4142.16 2652.32 4162.9 2644.07C4163.12 2642.14 4162.48 2641.3 4160.48 2638.72C4150.29 2625.46 4142.81 2610.33 4138.47 2594.18C4067.17 2588.24 3996.6 2614.24 3924.57 2643.77L3611 2772.34C3559.98 2793.26 3507.22 2814.89 3451.58 2825.56C3429.7 2829.75 3401.19 2833.39 3374.95 2823.91C3345.95 2813.47 3326.3 2787.61 3327.14 2761.02C3327.2 2758.92 3327.95 2756.9 3329.28 2755.27C3330.61 2753.64 3332.44 2752.5 3334.48 2752.02C3336.53 2751.54 3338.67 2751.75 3340.59 2752.62C3342.5 2753.49 3344.07 2754.96 3345.06 2756.82C3363.78 2791.76 3408.55 2811.46 3446.97 2801.61C3475.58 2794.32 3498.37 2774.24 3522.51 2752.99C3525.66 2750.2 3528.88 2747.39 3532.13 2744.54C3528.19 2737.03 3526.59 2728.51 3527.53 2720.07C3529.54 2703.8 3539.18 2690.73 3549.31 2679.03C3580.28 2643.2 3619.28 2612.12 3668.5 2583.84C3716.55 2556.29 3767.56 2535.54 3806.82 2520.5C3818.44 2513.07 3830.22 2505.95 3842.16 2499.13C3869.36 2483.61 3898.1 2469.13 3925.89 2455.14C4006.19 2414.69 4089.23 2372.87 4142.2 2301.58C4144.44 2298.54 4146.68 2295.36 4148.92 2292.28C4158.47 2278.9 4168.34 2265.07 4182.41 2254.9C4193.61 2246.79 4208.67 2241.72 4223.03 2242.58C4242.43 2209.52 4257.87 2174.29 4269.01 2137.61C4313.24 1991.73 4310.3 1888.99 4259.97 1823.59C4253.53 1838.16 4244.53 1851.45 4233.42 1862.86C4204.66 1892.22 4165.37 1904.73 4127.38 1916.83C4112.5 1921.57 4097.14 1926.47 4082.85 1932.27C4036.3 1951.19 3995.69 1982.27 3965.26 2022.25C3964.48 2023.27 3963.5 2024.13 3962.39 2024.76C3961.27 2025.4 3960.04 2025.8 3958.76 2025.94C3957.48 2026.09 3956.19 2025.97 3954.96 2025.61C3953.73 2025.24 3952.58 2024.63 3951.6 2023.8C3916.06 1994.25 3896.31 1945.84 3884.54 1912C3882.37 1905.75 3880.22 1899.39 3878.16 1893.23C3875.1 1884.1 3871.99 1874.9 3868.69 1865.76C3852.8 1838.68 3837.74 1811.13 3823.18 1783.5C3818.97 1778.6 3814.58 1773.73 3810.09 1768.74C3801.45 1759.17 3792.53 1749.28 3784.56 1738.61C3769.48 1718.36 3752.87 1687.25 3759.42 1654.09C3759.81 1652.15 3760.79 1650.37 3762.23 1649.02C3763.67 1647.66 3765.5 1646.79 3767.47 1646.52C3769.43 1646.25 3771.42 1646.6 3773.18 1647.52C3774.93 1648.44 3776.36 1649.88 3777.25 1651.65L3793.84 1684.48C3808.61 1713.72 3823.56 1743.31 3839.06 1772.77C3844 1778.61 3848.8 1784.63 3853.22 1790.96C3867.6 1811.52 3877.53 1834.42 3885.99 1857.63C3900.2 1881.78 3915.11 1905.53 3930.79 1928.58C3936.22 1936.54 3942.14 1944.48 3949.6 1946.5C3959.55 1949.25 3970.88 1940.99 3977.8 1931.58C3982.39 1925.29 3986.04 1918.22 3989.9 1910.75C3993.53 1903.31 3997.64 1896.12 4002.22 1889.22C4012.57 1874.31 4031.18 1859.54 4052.34 1862.78C4056.31 1863.48 4060.2 1864.54 4063.97 1865.95C4066.2 1866.76 4068.48 1867.45 4070.79 1868.02C4089.99 1872.33 4109.6 1855.95 4126.24 1839.36C4144.05 1821.61 4164.24 1801.5 4190.41 1791.46C4208.1 1784.75 4231.37 1783.23 4250.64 1791.82C4256.85 1767.19 4257.53 1739.11 4252.14 1709.97C4245.01 1671.36 4229.05 1634.01 4213.62 1597.89C4208.81 1586.7 4203.84 1575.02 4199.19 1563.47C4179.76 1515.32 4161.57 1463.8 4169.77 1410.35C4137 1355.99 4103.51 1299.71 4089.84 1235.58C4080.88 1193.68 4080.88 1151.59 4080.97 1110.77C4080.97 1080.43 4080.97 1049.07 4077.3 1018.19C4067.96 940.384 4032.76 867.29 3998.71 796.603C3994.9 788.682 3991.11 780.772 3987.32 772.873C3962.54 721.445 3919.62 680.991 3866.82 659.284C3864.19 658.869 3861.82 657.452 3860.21 655.331C3859.53 654.5 3859.01 653.556 3858.66 652.543C3850.55 644.493 3840.71 638.402 3829.89 634.737C3833.58 650.549 3832.13 668.579 3825.27 686.105C3816.72 708.111 3805.85 721.941 3791.45 738.986C3758.58 777.946 3739.41 826.336 3723.57 872.844C3720.21 882.789 3716.85 893.002 3713.61 902.834C3700.91 941.548 3687.76 981.584 3668.35 1018.55C3648.46 1056.4 3613.01 1106.55 3556.99 1130.46C3538.25 1138.46 3501.68 1149.5 3467.24 1133.46C3434.36 1118.17 3417.58 1084.69 3409.31 1059.3C3390.76 1002.44 3395.04 934.493 3421.35 868.006C3442.18 815.372 3471.32 775.606 3505.15 732.793C3463.53 741.662 3425.77 771.35 3408.84 810.299C3397.06 837.479 3394.63 867.144 3392.04 898.556C3389.8 925.747 3387.5 953.867 3378.6 980.486C3372.8 997.788 3364.29 1014.28 3356.07 1030.24C3351.11 1039.85 3346.26 1049.28 3342.05 1058.66C3343.47 1058.85 3344.87 1059.16 3346.25 1059.59C3350.43 1060.95 3354.26 1063.24 3357.45 1066.28C3360.64 1069.32 3363.1 1073.03 3364.66 1077.15C3368.85 1088.85 3366.08 1100.55 3363.65 1110.87L3363.49 1111.57C3352.91 1156.51 3349.32 1202.82 3352.84 1248.85C3356.84 1300.98 3370.03 1352.84 3382.81 1402.98C3385.64 1414.18 3388.57 1425.75 3391.53 1437.63C3404.27 1438.48 3417.21 1439.54 3430.35 1440.99C3493.41 1448.12 3564.88 1456.21 3627.26 1431.17C3637.05 1427.24 3646.85 1422.38 3656.38 1417.66C3668.6 1411.59 3681.23 1405.34 3694.58 1400.62C3707.14 1396.04 3720.36 1393.52 3733.72 1393.16C3730.59 1372.77 3730.59 1352.1 3730.93 1332.36C3732.81 1226.3 3744.62 1120.64 3766.21 1016.78C3769.84 999.356 3772.32 982.39 3774.74 965.973C3780.98 923.418 3786.88 883.304 3810.88 842.484C3829.58 810.691 3849.18 791.687 3872.59 782.694C3899.93 772.179 3933.06 776.457 3961.12 794.14C3983.51 808.216 4002.85 830.457 4018.7 860.212C4048.77 916.743 4060.61 988.258 4052.91 1067.05C4046.09 1136.94 4025.67 1204.8 4005.88 1270.31C3982.93 1346.46 3965.38 1427.47 3948.4 1505.8C3945.99 1516.95 3943.57 1528.06 3941.16 1539.13C3933.8 1572.85 3925.05 1604.78 3899.34 1624.6C3873.21 1644.76 3839.12 1644.76 3806.46 1642.99C3675.95 1636.03 3546.02 1620.72 3417.46 1597.16C3415.67 1596.83 3414.01 1595.99 3412.68 1594.75C3411.35 1593.5 3410.41 1591.91 3409.96 1590.15C3402.68 1561.54 3394.78 1529.67 3387.16 1498.82C3383.62 1484.53 3380.02 1470.01 3376.46 1455.7C3368.05 1455.22 3359.73 1454.81 3351.5 1454.39C3327.73 1453.21 3303.2 1451.98 3277.9 1449.28C3259.49 1467.19 3248.66 1494.79 3249.7 1520.32C3275.34 1516.78 3302.33 1520.67 3328.36 1531.72C3356.43 1543.84 3381.06 1562.73 3400.03 1586.71C3400.9 1587.8 3401.51 1589.07 3401.83 1590.42C3402.15 1591.77 3402.17 1593.18 3401.89 1594.55C3396.29 1621.66 3412.11 1648.21 3428.71 1663.98C3429.76 1664.96 3430.81 1665.94 3431.88 1666.89C3474.44 1684.88 3520.11 1697.29 3564.51 1709.45C3606.99 1721 3650.91 1732.96 3692.28 1749.76C3700.66 1753.12 3711.1 1757.39 3718.63 1766.1C3726.75 1775.46 3730.42 1791.54 3721.21 1802.91C3714.75 1810.88 3701.44 1817.88 3674.78 1805.87L3493.01 1724C3469.49 1713.43 3443.22 1701.61 3421.69 1683.33C3411.61 1679.02 3401.74 1674.37 3392 1669.38C3305.35 1624.71 3209.29 1601.35 3111.79 1601.23C3076.21 1614.96 3037.91 1620.16 2999.95 1616.41C2985.59 1621.56 2972.19 1629.1 2960.33 1638.7C2925 1667.97 2906.74 1719.5 2911.48 1776.57C2915.85 1829.14 2937.12 1878.94 2957.69 1927.11L3104.62 2271.21C3136.77 2346.51 3169.83 2406.85 3205.65 2455.67C3206.49 2456.81 3207.07 2458.12 3207.33 2459.51C3207.6 2460.89 3207.55 2462.32 3207.2 2463.69C3197.8 2500.42 3195.58 2538.62 3200.67 2576.19C3209.1 2520.24 3231.43 2467.29 3265.62 2422.2C3310.72 2363.04 3358.06 2325.89 3413.64 2306.34C3349.93 2225.33 3304.55 2131.46 3280.64 2031.21C3279.9 2028.22 3279.2 2025.19 3278.55 2022.11C3222.66 1995.05 3186.08 1946.75 3147.52 1891.17C3126.32 1860.62 3123.77 1832.31 3140.68 1815.44C3159.46 1796.71 3190.9 1804.54 3212.27 1821.98C3238.81 1843.63 3259.31 1876.16 3273.28 1918.65C3281.19 1942.71 3286.43 1967.69 3291.51 1991.83C3292.62 1997.43 3293.88 2003.12 3295.11 2008.83L3578.99 2139.52C3603.4 2150.72 3628.63 2162.34 3655.15 2165.87C3683.04 2169.6 3709.31 2162.64 3725.39 2147.25C3753.04 2120.81 3750.95 2075.18 3744.58 2029.84L3728.76 1917.13C3728.51 1915.37 3728.76 1913.57 3729.48 1911.95C3730.2 1910.33 3731.36 1908.94 3732.83 1907.94C3734.3 1906.94 3736.01 1906.37 3737.79 1906.29C3739.56 1906.22 3741.32 1906.64 3742.87 1907.52C3769.75 1922.76 3789.65 1949.69 3798.79 1983.37C3807.14 2015.08 3805.94 2048.56 3795.31 2079.6C3772.58 2144.46 3716.19 2191.2 3675.76 2220.7C3638.81 2247.68 3599.35 2272.02 3561.2 2295.56C3527.95 2316.08 3493.57 2337.3 3461.2 2360.06C3378.45 2418.29 3323.87 2478.11 3294.34 2543.1C3258.6 2621.67 3265.76 2708.84 3313.01 2770.52C3313.99 2771.81 3314.63 2773.32 3314.87 2774.91C3315.1 2776.51 3314.93 2778.14 3314.36 2779.65C3313.8 2781.17 3312.86 2782.51 3311.63 2783.56C3310.4 2784.6 3308.92 2785.32 3307.34 2785.64C3215.08 2804.41 3147.83 2811.48 3098.88 2811.48C3032.81 2811.48 3000.07 2798.6 2984.11 2784.25C2975.73 2776.71 2972.22 2769.08 2970.78 2763.48C2869.62 2736.97 2779.01 2718.61 2696.79 2752.74C2670.21 2763.77 2646.58 2779.69 2621.55 2796.53C2601.98 2809.7 2581.76 2823.32 2560.15 2834.22C2549.96 2839.35 2539.49 2843.92 2528.8 2847.91C2532.96 2857.59 2533.78 2868.39 2531.13 2878.59C2526.79 2895.79 2514.33 2908.49 2494.17 2916.33C2480.32 2921.71 2462.63 2924.78 2441.59 2925.47C2301.1 2930.04 2158.65 2933.46 2018.17 2935.55C1966.07 2936.34 1913.65 2936.97 1862.94 2937.59C1795.14 2938.4 1725.05 2939.26 1656.07 2933.44C1629.84 2931.2 1599.79 2927.59 1574.91 2912.03C1561.92 2903.89 1551.36 2892.42 1544.32 2878.81C1536.72 2863.88 1534.78 2848.32 1538.72 2833.82C1547.16 2802.54 1579.03 2786.07 1606.9 2783.63C1633.71 2781.26 1659.39 2788.94 1684.17 2796.35L1687.35 2797.29C1913 2864.48 2155.86 2885.52 2389.71 2858.24C2425.54 2854.07 2462.65 2848.57 2498.16 2838.09C2486.35 2827.56 2469.79 2819.77 2456 2815.69C2375.61 2792.17 2285.78 2798.63 2209.5 2833.3L2205.74 2835.02C2173.77 2849.58 2133.98 2867.79 2102.05 2845.96C2066.41 2821.62 2072.74 2767.49 2097.41 2726.59C2119.03 2690.76 2147.44 2659.65 2174.92 2629.53C2187.98 2615.22 2201.47 2600.42 2213.97 2585.42C2261.18 2528.69 2283.62 2477.34 2282.57 2428.45C2281.89 2396.95 2267.17 2363.83 2244.14 2342.02C2231.43 2329.98 2210.42 2315.85 2182.55 2316.74C2128.67 2318.51 2089.74 2371.53 2058.75 2423.13L1956.98 2592.73C1940.47 2620.25 1921.76 2651.43 1892.38 2671.44C1863.52 2691.08 1818.8 2697.93 1789.16 2673.02C1769 2656.02 1759.3 2626.5 1764 2595.98C1768.26 2568.2 1782.54 2544.14 1795.94 2524.31C1865.08 2422.6 1968.28 2348.92 2086.93 2316.54C2140.38 2302.16 2187.45 2286.9 2222.02 2245.65C2267.2 2191.75 2306.67 2142.43 2332.23 2084.66C2361.35 2018.93 2365.63 1953.05 2344.37 1899.12C2337 1880.45 2326.76 1863.37 2315.9 1845.29C2311.19 1837.45 2306.4 1829.44 2301.83 1821.25C2257.96 1784.1 2223.63 1736.98 2201.71 1683.85C2179.78 1630.71 2170.89 1573.09 2175.78 1515.82C2177.57 1494.64 2182.14 1463.79 2200.95 1440.45C2217.88 1419.43 2251.09 1404.62 2279.27 1418.6C2296.66 1427.23 2309.35 1445.93 2313.22 1468.65C2316.45 1487.69 2313.73 1506.31 2310.42 1525.36C2308.61 1535.7 2306.67 1546.29 2304.82 1556.54C2290.54 1634.12 2275.77 1714.35 2305.09 1784.82C2308.58 1793.07 2312.5 1801.12 2316.85 1808.96C2350.57 1836.99 2389.38 1858.29 2431.14 1871.67C2477.99 1886.64 2518.88 1887.71 2552.66 1874.84C2583.29 1863.16 2611.83 1838.31 2639.87 1798.84C2648.93 1786.1 2657.55 1772.58 2665.9 1759.51C2679.33 1738.43 2693.3 1716.61 2709.73 1696.8C2758.48 1638.1 2840.98 1598.04 2928.18 1589.93C2910.03 1562.36 2902.7 1531.84 2907.92 1504.12C2909.62 1495.32 2912.72 1486.85 2917.11 1479.03C2849.22 1481.7 2782.12 1505.14 2727.85 1545.98C2718.69 1552.88 2709.44 1560.54 2700.49 1567.93C2668.96 1594.02 2636.36 1621.01 2594.75 1626.74C2553.78 1632.41 2507.84 1614.7 2471.91 1579.42C2450.63 1558.45 2434.74 1533.5 2419.43 1509.42C2412.29 1498.23 2404.87 1486.57 2397.1 1475.56C2372.06 1440.28 2343.67 1400.29 2332.54 1354.27C2326.79 1330.52 2326.7 1304.99 2332.26 1282.37C2338.48 1257.04 2351.43 1236.05 2369.68 1221.66C2401.2 1196.82 2442.89 1194.14 2483.25 1194.93H2484.51C2496.82 1195.18 2508.34 1195.4 2518.48 1191.57C2526.88 1188.42 2535.42 1180.62 2535.48 1171.78C2535.55 1161.61 2524.83 1152.81 2514.21 1148.59C2508.65 1146.52 2502.97 1144.77 2497.22 1143.34C2488.47 1140.99 2479.43 1138.56 2470.83 1134.05C2446.59 1121.38 2435.7 1105.01 2440.96 1089.15C2441.59 1087.22 2442.82 1085.54 2444.47 1084.36C2446.13 1083.19 2448.12 1082.58 2450.15 1082.62C2472.38 1082.98 2497.57 1083.37 2518.74 1074.62C2536.31 1067.35 2554.81 1049.81 2553.87 1028.44C2553.41 1022.09 2551.78 1015.88 2549.06 1010.13L2548.3 1009.56C2540.67 1003.53 2536.88 994.72 2538.15 985.963C2538.43 984.013 2539.31 982.2 2540.67 980.772C2542.03 979.345 2543.8 978.374 2545.73 977.993C2547.66 977.612 2549.66 977.84 2551.46 978.646C2553.26 979.451 2554.76 980.795 2555.76 982.491C2558.32 986.825 2561.11 991.528 2563.6 996.568C2565.6 997.345 2567.81 997.396 2569.84 996.713C2576.42 994.093 2580.11 984.395 2577.58 976.276C2575.05 968.157 2567.2 960.709 2556.66 956.611C2546.12 952.512 2533.76 951.582 2521.94 950.731L2368.57 939.869L2366.86 939.757C2369.34 954.92 2365.65 969.579 2356.47 979.59C2352.76 983.46 2348.26 986.476 2343.27 988.427C2338.29 990.379 2332.93 991.219 2327.59 990.89C2318.03 990.308 2309.67 985.873 2304.55 978.728C2299.59 971.763 2298.01 962.938 2300.13 953.901C2301.51 948.267 2304.05 942.981 2307.58 938.375C2311.11 933.769 2315.55 929.942 2320.63 927.136C2326.31 924.15 2332.45 922.132 2338.8 921.167C2337.49 918.994 2336.11 916.788 2334.75 914.615C2330.27 907.415 2325.64 899.979 2322.85 893.103C2309.53 860.122 2271.25 843.459 2239.23 841.589C2202.45 839.416 2166.2 851.309 2131.16 862.866C2101.34 872.643 2070.51 882.755 2046.04 902.174C2020.44 922.477 2006.57 952.165 2010.71 977.799C2016.99 1016.66 2057.88 1040.33 2093.95 1061.23C2149.95 1093.71 2176.82 1129.54 2173.94 1167.95C2172.49 1187.05 2162.74 1205.01 2146.46 1218.53C2127.87 1233.99 2102.97 1241.72 2079.86 1239.21C2041.05 1235 2004.55 1206.57 1984.67 1165.02C1966.47 1127.09 1963.28 1084.39 1962.54 1047.51C1962.33 1036.65 1960.47 1018.09 1950.44 1015.91C1949.15 1015.67 1947.82 1015.71 1946.55 1016.02C1945.27 1016.33 1944.07 1016.9 1943.03 1017.7C1938.53 1020.99 1935.46 1025.87 1934.44 1031.35C1932.94 1040.1 1935.14 1049.53 1937.46 1059.52C1938.05 1062.08 1938.66 1064.72 1939.22 1067.35C1950.66 1122.23 1934.94 1177.89 1921.07 1226.95C1914.11 1251.59 1910.99 1278.98 1908 1305.46C1902.56 1353.53 1896.93 1403.23 1868.43 1442.49C1774.15 1572.4 1723.84 1733.2 1684.08 1873.74C1608.11 2142.31 1552.93 2436.95 1520.1 2749.48C1516.05 2788.06 1498.45 2824.7 1469.21 2855.43C1441.33 2884.63 1405.87 2905.48 1366.8 2915.64C1295.13 2933.87 1212.76 2917.56 1140.92 2870.93C1083.9 2833.92 1032.5 2778.37 983.762 2701.1C967.938 2676 948.228 2644.76 919.077 2641.43C891.606 2638.29 867.662 2662.95 861.223 2687.59C854.918 2711.66 859.599 2740.13 875.121 2772.19C919.133 2863.13 1019.91 2931.02 1144.69 2953.81C1248.45 2972.76 1356.67 2962 1461.32 2951.57L1487.16 2949.02C1501.27 2947.64 1518.84 2945.93 1534.73 2953.38C1544.81 2958.08 1551.19 2964.33 1553.85 2971.95C1556.24 2978.82 1555.47 2986.3 1551.61 2994.19C1550.8 2995.77 1549.57 2997.1 1548.05 2998.02C1546.52 2998.94 1544.77 2999.42 1543 2999.39ZM1350.52 2980.36H1536.11C1536.17 2979.6 1536.07 2978.84 1535.84 2978.12C1534.97 2975.58 1531.68 2972.89 1526.61 2970.51C1516.29 2965.67 1503.98 2966.4 1488.97 2967.87L1463.21 2970.42C1425.97 2974.15 1388.31 2977.89 1350.52 2980.36ZM1616.74 2802.3C1613.99 2802.3 1611.24 2802.41 1608.5 2802.64C1587.93 2804.45 1563.04 2816.55 1556.98 2838.84C1550.92 2861.12 1566.49 2884.42 1584.98 2895.95C1606.26 2909.25 1632.53 2912.42 1657.63 2914.54C1725.7 2920.26 1795.38 2919.42 1862.67 2918.61C1913.37 2917.99 1965.78 2917.36 2017.84 2916.57C2158.21 2914.43 2300.56 2911.02 2440.94 2906.49C2470.15 2905.55 2506.3 2899.13 2512.62 2874.01C2514.29 2867.39 2513.6 2860.4 2510.66 2854.24C2471.69 2866.55 2431.04 2872.7 2391.95 2877.27C2153.54 2904.93 1912.01 2883.98 1681.93 2815.68L1678.74 2814.73C1658.32 2808.58 1637.28 2802.32 1616.74 2802.32V2802.3ZM2189.73 2297.84C2213.94 2299.08 2237.65 2309.71 2257.22 2328.25C2284.21 2353.82 2300.8 2391.15 2301.59 2428.09C2302.71 2481.78 2278.87 2537.24 2228.59 2597.65C2215.82 2612.99 2202.17 2627.95 2188.96 2642.44C2162.09 2671.88 2134.35 2702.3 2113.71 2736.51C2098.11 2762.37 2084.05 2810.72 2112.78 2830.34C2135.84 2846.09 2168.77 2831.05 2197.81 2817.79L2201.61 2816.06C2281.95 2779.53 2376.61 2772.76 2461.33 2797.5C2483.26 2803.91 2504.78 2815.78 2518.34 2831.5C2529.67 2827.42 2540.75 2822.67 2551.51 2817.27C2572.05 2806.9 2591.83 2793.62 2610.86 2780.78C2635.5 2764.15 2661.1 2746.96 2689.44 2735.19C2731.35 2717.8 2779.13 2711.9 2835.49 2717.19C2884.52 2721.77 2934.62 2734.3 2981.72 2746.74C2986.43 2747.98 2989.56 2751.9 2988.8 2756.68C2988.8 2757.8 2989.47 2764.07 2997.95 2771.14C3003.84 2776.03 3013.93 2781.67 3031.17 2785.92C3015.73 2776.96 3003.77 2760.69 3005.54 2742.08C3007.52 2721.25 3024.96 2707.23 3040.63 2701.06C3052.04 2696.58 3063.86 2694.87 3075.34 2693.22C3079.66 2692.6 3083.74 2692.02 3087.82 2691.29C3126.64 2684.38 3163.83 2660.21 3191.42 2624.29C3176.36 2571.89 3175.1 2516.49 3187.78 2463.47C3152.09 2414.1 3119.17 2353.65 3087.22 2278.83L2940.29 1934.75C2919.13 1885.19 2897.24 1833.96 2892.62 1778.31C2887.37 1715.04 2908.17 1657.43 2948.3 1624.2C2955.82 1618 2963.95 1612.59 2972.57 1608.04C2963.61 1602.59 2957.14 1594.41 2957.11 1582.98C2957.11 1565.47 2973.14 1554.66 2986.89 1550.73C2995.94 1548.13 3005.03 1547.27 3013.83 1546.43C3018.45 1545.99 3022.79 1545.57 3027.13 1544.94C3040.78 1542.89 3050.44 1538.43 3055.84 1531.69C3058.89 1527.69 3060.25 1522.66 3059.64 1517.67C3059.51 1516.21 3059.08 1514.8 3058.39 1513.51C3057.7 1512.23 3056.75 1511.1 3055.61 1510.19C3046.65 1503.79 3030.81 1514.42 3024.41 1519.29C3015.76 1525.85 3001.26 1536.87 2985.56 1536.87C2981.08 1536.88 2976.66 1535.95 2972.57 1534.12C2964.08 1530.33 2958.01 1522.92 2955.37 1513.1C2952.52 1501.98 2954.17 1490.19 2959.95 1480.27C2953.32 1479.66 2946.67 1479.26 2940.01 1479.05C2933.32 1487.42 2928.71 1497.26 2926.57 1507.76C2921.49 1534.82 2931.28 1565.63 2953.45 1592.28C2954.59 1593.65 2955.32 1595.3 2955.56 1597.06C2955.81 1598.82 2955.56 1600.61 2954.84 1602.23C2954.12 1603.85 2952.96 1605.24 2951.5 1606.24C2950.03 1607.24 2948.32 1607.81 2946.54 1607.88C2858.17 1611.67 2773.03 1650.44 2724.33 1709.09C2708.65 1727.97 2695.06 1749.27 2681.9 1769.86C2673.43 1783.13 2664.68 1796.84 2655.35 1809.96C2625.04 1852.6 2593.66 1879.67 2559.39 1892.72C2521.47 1907.17 2476.36 1906.23 2425.3 1889.9C2395.58 1880.39 2367.22 1867.04 2340.95 1850.21C2348.79 1863.65 2356.28 1877.49 2362.08 1892.21C2374.16 1922.87 2378.75 1956.89 2375.71 1993.32C2373 2025.8 2363.98 2060.03 2349.65 2092.43C2323.07 2152.49 2282.73 2202.92 2236.62 2257.95C2223.34 2273.79 2207.49 2287.28 2189.73 2297.86V2297.84ZM3086.43 2792.41C3137.64 2793.78 3205.74 2786.23 3289.13 2769.9C3245.52 2703.67 3240.59 2615.21 3276.96 2535.26C3307.94 2467.11 3364.62 2404.72 3450.22 2344.54C3483.05 2321.44 3517.68 2300.08 3551.16 2279.4C3589.01 2256.05 3628.15 2231.91 3664.5 2205.37C3673.18 2199.03 3682.62 2191.87 3692.28 2183.9C3679.19 2186.32 3665.78 2186.6 3652.59 2184.75C3623.29 2180.86 3596.73 2168.64 3571.05 2156.83L3300.55 2032.42C3325.26 2132.39 3371.93 2225.6 3437.18 2305.27C3438.18 2306.49 3438.86 2307.93 3439.17 2309.47C3439.47 2311.01 3439.39 2312.61 3438.93 2314.11C3438.47 2315.61 3437.64 2316.97 3436.52 2318.08C3435.4 2319.18 3434.03 2319.99 3432.52 2320.44C3375.15 2337.38 3326.96 2373.44 3280.87 2433.91C3240.25 2487.44 3217.6 2552.44 3216.17 2619.62C3216.13 2621.46 3215.56 2623.25 3214.52 2624.77C3213.81 2625.83 3213.1 2626.87 3212.37 2627.9C3217.48 2643.83 3223.97 2659.29 3231.76 2674.1L3234.33 2678.92C3239.34 2688.19 3244.5 2697.79 3247.09 2708.78C3250.93 2725.14 3247.41 2740.92 3237.68 2750.98C3228.53 2760.45 3215.45 2763.42 3205.91 2765.54L3106.17 2788.26C3100.01 2789.72 3093.35 2791.29 3086.43 2792.41ZM3545.03 2758.62C3541.67 2761.52 3538.31 2764.44 3535.08 2767.32C3525.63 2775.65 3516.04 2784.12 3505.97 2791.82C3539.31 2781.17 3571.89 2767.81 3603.8 2754.73L3917.37 2626.16C3987.01 2597.61 4060.99 2570.28 4134.78 2574.84C4133.18 2560.91 4133.9 2546.82 4136.92 2533.13C4137.64 2529.88 4138.48 2526.53 4139.29 2523.28C4143.43 2506.76 4147.34 2491.16 4139.12 2481.49C4132.17 2473.3 4118.28 2473.3 4108.17 2477.53C4097.61 2482.01 4088.69 2490.1 4079.25 2498.72L4074.71 2502.85C3999.46 2570.47 3901.12 2602.41 3806.13 2633.28C3745.3 2653.06 3683.04 2673.29 3626.95 2703C3617.99 2713.55 3609.35 2724.32 3601.02 2735.29C3593.45 2745.24 3577.7 2765.93 3555.6 2762.44C3551.85 2761.86 3548.24 2760.56 3544.98 2758.61L3545.03 2758.62ZM3198.42 2645.82C3168.9 2679.99 3130.88 2702.93 3091.13 2710.04C3086.73 2710.82 3082.3 2711.46 3078.01 2712.08C3067.18 2713.61 3056.95 2715.08 3047.61 2718.8C3037.68 2722.72 3025.67 2731.64 3024.51 2743.91C3023.19 2757.83 3037.02 2770.16 3050.59 2773.59C3067.02 2777.76 3085.58 2773.59 3101.94 2769.81L3201.68 2747.09C3211.36 2744.85 3219.17 2742.8 3224 2737.79C3230.13 2731.45 3230.37 2720.91 3228.56 2713.15C3226.55 2704.62 3222.19 2696.53 3217.58 2687.97C3216.68 2686.33 3215.8 2684.67 3214.93 2683.01C3208.6 2670.99 3203.08 2658.57 3198.42 2645.82ZM3579.18 2731.87C3573.87 2735.56 3568.64 2739.4 3563.51 2743.37C3568.9 2742.01 3574.22 2737.44 3579.18 2731.87ZM4157.55 2668.37C4148.7 2674.6 4142.19 2683.21 4141.41 2693.45C4140.23 2708.94 4152.61 2722.76 4164.6 2729.06C4172.99 2733.45 4182.31 2735.77 4191.66 2736.89C4186.36 2735.14 4181.3 2732.71 4176.61 2729.68C4164.14 2721.55 4156.59 2710.11 4154.77 2696.59C4153.42 2686.58 4155.45 2677.32 4157.56 2668.37H4157.55ZM4342.66 2686.29C4334.14 2688.56 4325.85 2691.61 4317.89 2695.41C4307.81 2700.23 4298.41 2706.23 4288.42 2712.57C4274.4 2721.53 4259.95 2730.66 4243.62 2736.33C4265.37 2733.89 4284.11 2728.76 4300.4 2720.82C4317.94 2712.25 4332.45 2700.25 4342.68 2686.23L4342.66 2686.29ZM3737.18 2570.15C3672.23 2599.9 3610.63 2637.34 3563.6 2691.58C3555.44 2701.01 3547.7 2711.27 3546.33 2722.49C3545.98 2725.67 3546.29 2728.89 3547.23 2731.95C3568.36 2715.28 3590.94 2700.54 3614.7 2687.91C3651.56 2644.71 3692.59 2605.25 3737.19 2570.09L3737.18 2570.15ZM4179 2658.95C4179 2659.16 4178.94 2659.39 4178.89 2659.6C4178.22 2663.71 4177.28 2667.71 4176.36 2671.58C4174.48 2679.58 4172.7 2687.13 4173.64 2694.08C4174.76 2702.07 4179.24 2708.64 4187.01 2713.78C4199.24 2721.75 4217.58 2724.21 4232.66 2719.86C4248.72 2715.24 4263.04 2706.14 4278.21 2696.5C4288.23 2690.14 4298.6 2683.56 4309.66 2678.25C4323.87 2671.52 4338.95 2666.82 4354.46 2664.29C4354.95 2662.93 4355.41 2661.54 4355.83 2660.15C4365.61 2627.74 4355.22 2593.06 4341.7 2554.36L4250.37 2292.81C4247.16 2283.61 4243.52 2273.2 4236.45 2267.28C4235.08 2266.13 4233.58 2265.15 4231.97 2264.36C4225.52 2274.67 4218.69 2284.78 4211.47 2294.69C4178.08 2340.67 4137.2 2380.7 4090.52 2413.11C4020.91 2461.32 3940.31 2491.21 3862.36 2520.12C3846.9 2525.86 3830.92 2531.78 3815.33 2537.75C3758.71 2574.13 3706.64 2617.13 3660.21 2665.84C3705.59 2645.95 3753.27 2630.45 3800.13 2615.23C3893.28 2585 3989.61 2553.64 4061.85 2488.74C4063.34 2487.41 4064.82 2486.05 4066.33 2484.71C4076.54 2475.37 4087.11 2465.67 4100.73 2460.02C4116.71 2453.3 4140.06 2453.3 4153.55 2469.2C4168.11 2486.35 4162.32 2509.42 4157.67 2527.96C4156.85 2531.22 4156.08 2534.3 4155.43 2537.31C4153.03 2548.2 4152.34 2559.4 4153.38 2570.5C4168.36 2561.95 4180.79 2546.21 4187.89 2526.21C4196.47 2502.07 4196.98 2475.36 4197.46 2449.54L4199.7 2329.6C4199.73 2327.45 4200.49 2325.38 4201.84 2323.72C4203.2 2322.06 4205.08 2320.91 4207.17 2320.45C4209.27 2320 4211.46 2320.26 4213.38 2321.2C4215.31 2322.14 4216.86 2323.71 4217.78 2325.64L4317.2 2531.81C4332.72 2564.04 4345.91 2600.99 4326.02 2630.66C4307.98 2657.54 4273.05 2660.9 4253.78 2660.53C4244.92 2660.35 4236.07 2659.51 4227.53 2658.71C4212.17 2657.26 4197.68 2655.89 4183.49 2658.06C4181.98 2658.27 4180.5 2658.56 4179.01 2658.9L4179 2658.95ZM2105.45 2331.27C2100.97 2332.53 2096.49 2333.76 2091.86 2335C1979.11 2365.32 1876.99 2438.24 1811.71 2535.04C1799.5 2553.15 1786.49 2574.92 1782.8 2598.98C1779.17 2622.61 1786.47 2646.02 1801.41 2658.55C1823.81 2677.38 1858.72 2671.43 1881.65 2655.82C1907.57 2638.16 1925.14 2608.88 1940.64 2583.02L2042.41 2413.42C2057.36 2388.51 2075.75 2360 2098.83 2337.44C2101.03 2335.3 2103.24 2333.24 2105.45 2331.27ZM4199.54 2637.86C4209.62 2637.86 4219.53 2638.81 4229.27 2639.72C4237.86 2640.53 4245.97 2641.29 4254.15 2641.46C4266.47 2641.71 4296.7 2640.15 4310.14 2620.04C4324.7 2598.32 4313.17 2567.4 4299.97 2540.03L4217.99 2369.81L4216.47 2449.8C4215.98 2475.88 4215.42 2505.43 4205.82 2532.48C4196.32 2559.25 4178.52 2579.94 4156.95 2589.95C4160.67 2603.39 4166.96 2615.99 4175.46 2627.05C4179 2631.64 4180.82 2635.47 4181.54 2639.05C4187.51 2638.23 4193.52 2637.84 4199.54 2637.86ZM4210.61 2262.71C4204.46 2264.14 4198.65 2266.78 4193.52 2270.46C4181.98 2278.78 4173.43 2290.76 4164.4 2303.45C4162.16 2306.61 4159.82 2309.86 4157.46 2313.05C4101.85 2387.88 4016.9 2430.71 3934.7 2472.07C3985.44 2451.58 4035.17 2428.25 4079.78 2397.36C4131.67 2361.34 4176.1 2315.62 4210.61 2262.71ZM3750.7 1936.82L3763.4 2027.24C3766.76 2051.25 3769 2075.4 3766.67 2097.66C3770.8 2089.83 3774.35 2081.71 3777.29 2073.36C3792.92 2028.75 3786.11 1969.91 3750.7 1936.82ZM3916.51 1941.62C3926.23 1963.25 3939.15 1985.75 3956.5 2002.78C3988.23 1963.96 4029.19 1933.72 4075.64 1914.83C4090.6 1908.74 4106.33 1903.73 4121.55 1898.88C4158.98 1886.97 4194.35 1875.71 4219.78 1849.73C4230.65 1838.42 4239.15 1825.05 4244.79 1810.41C4230.59 1803.25 4211.83 1803.91 4197.27 1809.48C4174.87 1818.07 4156.19 1836.69 4139.72 1853.09C4119.42 1873.33 4094.86 1893.16 4066.67 1886.84C4063.68 1886.13 4060.73 1885.25 4057.84 1884.2C4055.13 1883.18 4052.34 1882.39 4049.5 1881.84C4036.99 1879.92 4024.97 1890.14 4017.88 1900.33C4013.78 1906.55 4010.08 1913.03 4006.81 1919.72C4002.79 1927.56 3998.63 1935.57 3993.17 1943.05C3983.21 1956.68 3964.5 1970.63 3944.51 1965.09C3931.76 1961.46 3923.34 1951.38 3916.51 1941.56V1941.62ZM3168.5 1823.72C3162.9 1823.72 3157.93 1825.32 3154.21 1829.05C3139.22 1843.99 3159.1 1874.49 3163.23 1880.45C3196.91 1928.97 3228.87 1971.65 3273.36 1997.85C3273.23 1997.2 3273.09 1996.54 3272.95 1995.89C3267.99 1972.25 3262.87 1947.79 3255.28 1924.72C3242.49 1885.74 3224 1856.18 3200.31 1836.86C3190.96 1829.32 3178.8 1823.72 3168.5 1823.72ZM3529.82 1719.8L3682.66 1788.64C3687.09 1790.65 3701.9 1796.72 3706.48 1791.06C3708.72 1788.34 3707.67 1782.57 3704.32 1778.74C3700.1 1773.88 3693.46 1770.9 3685.19 1767.54C3644.88 1751.21 3601.52 1739.4 3559.58 1727.98C3549.7 1725.31 3539.78 1722.6 3529.82 1719.84V1719.8ZM2255.56 1432.29C2240.56 1432.29 2224.99 1441.01 2215.76 1452.45C2200.23 1471.72 2196.32 1498.8 2194.73 1517.49C2190.75 1563.97 2196.35 1610.78 2211.18 1655.01C2226.02 1699.24 2249.77 1739.96 2280.96 1774.64C2258.26 1703.78 2272.34 1627.3 2285.99 1553.14C2287.87 1542.94 2289.82 1532.39 2291.59 1522.15C2294.62 1504.8 2297.1 1487.91 2294.38 1471.9C2291.54 1455.17 2282.7 1441.66 2270.75 1435.71C2266.02 1433.41 2260.82 1432.24 2255.56 1432.29ZM3149.24 1583.47C3234.16 1588.61 3317.16 1610.83 3393.28 1648.79C3384.08 1631.55 3380.17 1612.96 3382.56 1595.51C3346.67 1552.3 3291.26 1530.47 3243.41 1541.05C3242.14 1541.33 3240.84 1541.35 3239.57 1541.11C3238.3 1540.86 3237.09 1540.36 3236.02 1539.64C3234.95 1538.92 3234.04 1537.98 3233.34 1536.89C3232.64 1535.81 3232.17 1534.59 3231.96 1533.31C3226.6 1501.08 3238.5 1463.88 3261.27 1439.39C3255.97 1438.64 3250.73 1437.52 3245.59 1436.03C3245.25 1436.73 3244.83 1437.39 3244.33 1438C3226.42 1459.66 3218.13 1493.82 3222.66 1527.14C3222.9 1528.83 3222.68 1530.56 3222.02 1532.13C3221.36 1533.71 3220.29 1535.08 3218.91 1536.1C3196.62 1552.62 3173.85 1569.51 3149.2 1583.5L3149.24 1583.47ZM3426.98 1579.75C3552.78 1602.54 3679.88 1617.39 3807.54 1624.2C3836.66 1625.75 3866.83 1625.9 3887.8 1609.74C3908.44 1593.84 3916.05 1565.45 3922.64 1535.29C3925.05 1524.24 3927.47 1513.14 3929.88 1501.99C3946.93 1423.3 3964.6 1341.94 3987.74 1265.05C4007.22 1200.35 4027.38 1133.46 4034.01 1065.42C4041.33 990.386 4030.25 922.589 4001.94 869.373C3987.68 842.563 3970.58 822.741 3951.01 810.456C3928.32 796.166 3900.91 792.415 3879.46 800.668C3860.3 808.037 3843.74 824.454 3827.34 852.328C3805.21 889.956 3799.58 928.323 3793.62 968.94C3791.17 985.627 3788.63 1002.88 3784.89 1020.86C3763.55 1123.55 3751.87 1228.02 3750.01 1332.89C3749.66 1353.3 3749.68 1374.7 3753.37 1395.13C3760.49 1396.56 3767.34 1399.06 3773.71 1402.53C3780.9 1406.61 3787.19 1412.1 3792.21 1418.67C3797.23 1425.24 3800.87 1432.76 3802.91 1440.77C3806.27 1454.3 3804.4 1467.64 3797.5 1478.29C3796.13 1480.4 3793.99 1481.88 3791.54 1482.42C3789.08 1482.96 3786.52 1482.5 3784.39 1481.16C3762.41 1467.17 3745.85 1442.79 3737.75 1412.52V1412.4C3723.44 1411.98 3709.75 1415.68 3701 1418.77C3688.74 1423.09 3677.19 1428.85 3664.95 1434.92C3655.14 1439.79 3644.99 1444.83 3634.5 1449.04C3567.66 1475.92 3493.66 1467.5 3428.36 1460.11C3417.65 1458.9 3407.02 1457.97 3396.52 1457.2C3399.61 1469.61 3402.7 1482.12 3405.76 1494.46C3412.76 1523.19 3420.08 1552.8 3426.88 1579.79L3426.98 1579.75ZM3049.09 1489.14C3056.35 1489.01 3063.39 1491.59 3068.83 1496.39C3074.28 1501.19 3077.73 1507.84 3078.51 1515.06C3079.17 1520.09 3078.82 1525.21 3077.47 1530.11C3076.13 1535 3073.81 1539.58 3070.67 1543.57C3062.18 1554.17 3048.48 1560.96 3029.93 1563.73C3025.09 1564.44 3020.28 1564.85 3015.61 1565.35C3007.31 1566.14 2999.47 1566.89 2992.09 1568.99C2984.14 1571.23 2976.11 1576.83 2976.11 1582.91C2976.11 1590.75 2988.07 1595.36 2997.93 1597.04C3026.73 1587.13 3056.58 1584.27 3079.89 1583.1C3089.33 1582.63 3098.78 1582.37 3108.22 1582.33C3142.57 1568.43 3173.37 1546.1 3203.1 1524.09C3200.08 1493.15 3206.71 1461.81 3221.02 1438.12C3179.06 1430.08 3135.68 1433.92 3095.78 1449.2C3092.27 1450.55 3088.66 1452.04 3085.16 1453.49C3068.29 1460.43 3050.83 1467.61 3031.53 1466.3C3027.09 1465.96 3022.68 1465.26 3018.35 1464.22C3010.23 1475.66 2996.79 1479.71 2984.75 1480.88C2981.98 1483.01 2979.52 1485.52 2977.44 1488.34C2975.46 1491.2 2974.11 1494.45 2973.49 1497.88C2972.86 1501.3 2972.96 1504.82 2973.79 1508.2C2974.57 1511.1 2976.33 1514.92 2980.35 1516.74C2989.21 1520.69 3001.25 1513.02 3012.93 1504.14C3025.95 1494.22 3038.27 1489.18 3049.04 1489.18L3049.09 1489.14ZM2961.64 1461.28L2963.95 1461.51C2968.72 1462.01 2973.52 1462.21 2978.33 1462.1C2981.45 1460.1 2984.69 1458.28 2988.02 1456.66C2987.41 1456.59 2986.78 1456.52 2986.16 1456.48C2977.68 1455.84 2969.19 1457.52 2961.58 1461.31L2961.64 1461.28ZM3758.87 1416.49C3764.76 1433.5 3773.83 1447.73 3785.22 1457.92C3785.78 1453.73 3785.51 1449.46 3784.43 1445.37C3783.02 1439.9 3780.53 1434.76 3777.11 1430.26C3773.69 1425.76 3769.41 1421.99 3764.52 1419.16C3762.67 1418.18 3760.77 1417.32 3758.82 1416.58L3758.87 1416.49ZM3315.39 1433.5C3327.96 1434.31 3340.34 1434.94 3352.54 1435.55C3358.88 1435.86 3365.27 1436.19 3371.72 1436.53C3369.26 1426.7 3366.83 1417.07 3364.47 1407.78C3353.18 1363.45 3341.55 1317.8 3336.02 1271.25C3334.4 1271.16 3332.82 1270.65 3331.45 1269.77C3330.08 1268.9 3328.95 1267.69 3328.18 1266.26C3325.59 1261.45 3323.1 1256.6 3320.71 1251.7C3320.52 1251.9 3320.32 1252.1 3320.13 1252.31C3315.15 1257.44 3310.44 1262.29 3307.43 1267.79C3295.32 1289.97 3312.32 1319.17 3320.2 1330.69C3323.56 1335.64 3327.26 1340.54 3330.82 1345.25C3342.8 1361.18 3355.18 1377.64 3358.82 1399.42C3359.08 1400.93 3358.97 1402.48 3358.5 1403.94C3358.03 1405.4 3357.22 1406.72 3356.12 1407.8C3344.53 1419.21 3330.61 1428.01 3315.33 1433.59L3315.39 1433.5ZM3171.47 981.909C3145.45 1105.17 3145.59 1217.4 3171.9 1315.63C3179.26 1343.11 3188.7 1371.36 3208.09 1391.87C3224.87 1409.65 3247.91 1420.22 3272.33 1421.33C3296.75 1422.45 3320.65 1414.03 3338.98 1397.85C3335.07 1382.82 3325.54 1370.16 3315.53 1356.83C3311.83 1351.93 3308.02 1346.85 3304.39 1341.54C3292.15 1323.63 3274.1 1289.08 3290.63 1258.79C3294.88 1250.95 3300.71 1244.99 3306.31 1239.17C3308.28 1237.14 3310.2 1235.17 3311.98 1233.19C3280.51 1160.42 3268.7 1080.66 3277.72 1001.9C3278.01 999.379 3278.33 996.825 3278.65 994.261C3280.89 976.018 3283.2 957.305 3279.98 940.988C3272.04 952.374 3261.88 962.032 3250.1 969.377C3238.47 976.538 3225.53 981.331 3212.04 983.481C3198.54 985.632 3184.76 985.097 3171.47 981.909ZM3331.69 1133.7C3332.96 1139.67 3334.55 1145.69 3336.17 1151.87C3336.28 1152.32 3336.4 1152.76 3336.51 1153.2C3338.55 1137.82 3341.36 1122.55 3344.92 1107.39L3345.08 1106.71C3347.09 1098.18 3348.99 1090.14 3346.7 1083.76C3346.15 1082.41 3345.32 1081.2 3344.26 1080.2C3343.21 1079.2 3341.95 1078.43 3340.57 1077.96C3340.15 1077.77 3339.7 1077.69 3339.25 1077.7C3338.8 1077.72 3338.36 1077.84 3337.96 1078.05C3335.66 1079.7 3334.96 1085.96 3334.6 1088.63C3332.99 1103.65 3332.02 1118.67 3331.69 1133.7ZM2347.3 939.353C2341.13 939.574 2335.09 941.125 2329.59 943.9C2326.9 945.433 2324.53 947.49 2322.65 949.95C2320.76 952.41 2319.39 955.223 2318.6 958.223C2318 960.799 2317.75 964.539 2320 967.686C2322.39 971.046 2326.48 971.751 2328.69 971.897C2331.21 972.066 2333.74 971.692 2336.1 970.799C2338.46 969.906 2340.6 968.516 2342.38 966.723C2348.23 960.441 2350.03 949.959 2347.37 939.353H2347.3ZM3124.93 763.701C3129.34 817.78 3136.34 878.836 3150.61 900.561C3162.47 918.625 3191.9 933.407 3212.37 931.593C3234.09 929.655 3261.1 927.248 3271.73 910.405C3272.69 908.881 3274.06 907.662 3275.69 906.888C3277.31 901.901 3278.44 896.765 3279.05 891.557C3281.09 873.774 3277.57 855.576 3273.87 836.314C3268.94 810.781 3263.84 784.385 3272.57 758.483C3275.75 749.02 3280.6 740.251 3285.29 731.774C3292.87 718.066 3300.05 705.11 3298.54 691.828C3297.42 681.682 3290.88 671.67 3285.1 662.868C3283.82 660.908 3282.55 658.937 3281.21 656.989C3279.76 661.402 3277.15 665.341 3273.64 668.389C3269.73 671.877 3264.64 673.739 3259.4 673.596C3258.81 676.831 3257.79 679.969 3256.35 682.925C3254.26 686.983 3251.25 690.493 3247.55 693.172C3243.85 695.851 3239.58 697.623 3235.07 698.346C3235.36 700.641 3235.44 702.958 3235.3 705.266C3235.09 708.453 3234.37 711.587 3233.18 714.55C3233.45 718.029 3233.64 721.527 3233.74 725.043C3233.78 726.307 3233.56 727.566 3233.1 728.745C3232.65 729.925 3231.96 731.002 3231.08 731.913C3230.21 732.824 3229.16 733.551 3228 734.052C3226.84 734.554 3225.59 734.818 3224.32 734.831C3217.57 734.826 3210.98 732.759 3205.43 728.907L3207.13 733.902C3208.73 738.605 3213 751.092 3204.96 760.207C3197.58 768.573 3185.02 767.733 3177.14 762.078C3176.03 761.276 3174.99 760.396 3174.01 759.446C3175.19 764.996 3176.08 770.602 3176.69 776.244C3178.09 789.369 3173.15 799.19 3163.81 801.855C3158.64 803.345 3148.58 803.546 3139.5 788.26L3124.93 763.701ZM3123.73 724.439L3155.93 778.584C3156.53 779.613 3157.2 780.601 3157.93 781.541C3157.98 780.465 3157.95 779.387 3157.83 778.316C3155.74 759.012 3149.88 740.305 3140.6 723.252C3139.12 720.41 3137.31 717.755 3135.2 715.345C3132.34 719.39 3128.39 722.543 3123.81 724.439H3123.73ZM3503.97 637.089C3530.92 649.542 3552.26 677.079 3556.27 706.722C3559.63 731.673 3576.86 751.73 3602.32 760.353C3626.84 768.662 3656.14 762.503 3675.25 745.033C3689.86 731.673 3698.58 713.15 3707.82 693.519C3717.47 673.003 3727.45 651.804 3744.99 635.89C3758.75 623.437 3775.95 615.421 3794.34 612.888C3785.64 605.833 3774.67 600.569 3763.27 595.138C3757.67 592.439 3751.78 589.64 3746.18 586.593C3718.19 571.33 3695.03 547.723 3679.12 518.281C3663.22 488.84 3656.14 456.543 3658.68 424.783C3659.11 417.253 3659.13 409.706 3658.75 402.173C3658.46 392.788 3658.16 383.068 3659.22 373.762C3660.84 359.629 3665.28 346.885 3672.06 336.582C3670.67 322.023 3670.28 307.308 3669.9 292.84C3669.46 276.691 3669.02 259.983 3667.16 244.047C3662.27 202.507 3647.5 162.743 3624.08 128.084C3613.57 112.563 3598.13 100.58 3581.79 87.8917C3572.44 80.6237 3562.76 73.1206 3554.1 64.8671C3526.52 38.6397 3502.27 24.5517 3477.82 20.4754C3455.75 16.8134 3432.77 21.4049 3411.12 26.4219C3301.86 51.7198 3226.34 92.2816 3180.34 150.414C3172.02 160.93 3153.84 187.616 3164.74 208.233C3165.34 209.346 3166.01 210.416 3166.75 211.436C3173.05 189.039 3183.06 172.588 3197.19 161.535C3216.36 146.517 3241.41 143.269 3261.55 140.671C3286.87 137.401 3318.37 133.325 3346.37 144.725C3367.31 153.248 3383.09 168.881 3398.34 183.999C3407.93 193.507 3416.99 202.488 3427.21 209.756C3452.15 227.347 3483.02 234.386 3513.11 229.343C3521.87 227.612 3530.52 225.391 3539.02 222.691C3548.21 219.779 3557.56 217.393 3567.02 215.546C3581.4 212.993 3608.39 211.279 3627.69 228.481C3637.46 237.193 3643.02 251.035 3642.18 264.585C3641.47 276.109 3636.32 285.762 3627.62 291.753C3610.23 303.792 3588.58 296.412 3577.22 290.936C3573.56 289.178 3570 287.24 3566.55 285.336C3557.81 280.577 3549.54 276.098 3540.92 274.955C3537.91 274.591 3534.86 274.828 3531.95 275.655C3529.04 276.482 3526.32 277.881 3523.95 279.771C3522.86 280.603 3521.96 281.665 3521.31 282.881C3520.67 284.098 3520.3 285.441 3520.23 286.815C3520.28 289.362 3521.18 291.82 3522.8 293.792C3530.64 289.093 3539.71 286.872 3548.84 287.419C3570.35 289.054 3589.15 307.364 3599.23 336.414C3606.67 358.005 3607.94 376.371 3603.13 392.575C3596.63 414.447 3577.99 430.08 3557.79 430.595C3545.93 430.909 3533.68 424.805 3525.98 414.671C3519.09 405.622 3516.86 394.748 3519.89 384.86C3523.07 374.411 3530.91 366.942 3537.8 360.402C3545.57 353.033 3550.27 348.15 3550.12 342.484C3549.93 334.644 3539.46 327.925 3530.36 323.031C3528.41 321.979 3525.66 320.489 3522.64 318.552C3520.76 320.796 3519.12 323.236 3517.76 325.831C3511.04 338.743 3510.25 354.567 3510.47 367.266C3510.47 367.815 3510.47 368.386 3510.47 368.913C3510.44 371.412 3509.44 373.802 3507.67 375.566C3505.9 377.33 3503.5 378.327 3501 378.342H3500.95C3498.46 378.34 3496.07 377.365 3494.29 375.626C3492.52 373.888 3491.49 371.522 3491.43 369.036C3491.43 368.655 3491.43 368.263 3491.43 367.916C3491.09 364.155 3489.42 360.639 3486.71 358.005C3483.93 355.031 3480.09 353.276 3476.02 353.122C3471.98 353.357 3468.17 355.068 3465.31 357.93C3462.45 360.792 3460.74 364.605 3460.51 368.644C3460.66 371.689 3461.08 374.714 3461.79 377.681C3463.35 385.52 3465.3 395.364 3459.32 404.301C3457.38 407.179 3454.8 409.57 3451.78 411.289C3448.77 413.008 3445.4 414.008 3441.93 414.211C3432.05 415.029 3420.94 410.493 3413.65 402.688C3400.06 388.13 3396.6 368.218 3393.55 350.636C3393.05 347.781 3392.55 344.925 3392.03 342.125C3389.59 329.314 3383.07 307.073 3366.91 302.045C3362.17 300.578 3356.5 300.556 3350.5 300.533C3341.28 300.533 3330.84 300.455 3321.38 294.844C3312.19 289.402 3307.15 280.599 3302.71 272.828C3300.68 269.016 3298.33 265.376 3295.7 261.942C3285.63 249.702 3267.71 246.746 3254.49 246.421C3247.28 246.242 3240.07 246.667 3232.44 247.115C3222.03 247.731 3211.25 248.369 3200.33 247.362C3193.4 246.752 3186.57 245.304 3179.99 243.05C3173.41 296.154 3187.7 352.003 3219.43 395.073C3242.27 426.116 3270.72 464.74 3265.72 511.764C3265.39 514.922 3264.94 518.035 3264.5 521.047C3263.55 527.711 3262.65 534.004 3263 540.085C3263.37 546.502 3265.84 554.565 3271.63 557.914C3273.72 559.002 3276.15 559.266 3278.44 558.653C3277.46 554.683 3277.83 550.501 3279.49 546.766C3281.16 543.031 3284.01 539.955 3287.62 538.025C3293.07 535.034 3299.48 534.322 3305.45 536.042C3313.96 538.528 3319.91 544.833 3324.25 549.481C3325.82 551.134 3326.74 553.294 3326.85 555.569C3326.96 557.844 3326.25 560.084 3324.85 561.881C3323.45 563.678 3321.45 564.913 3319.22 565.363C3316.99 565.812 3314.67 565.446 3312.68 564.33C3309.52 562.572 3306.75 561.911 3304.07 562.393L3321.83 578.284C3324.54 580.85 3327.83 582.721 3331.42 583.738C3333.76 584.545 3335.69 586.234 3336.81 588.445C3337.92 590.655 3338.13 593.213 3337.39 595.575L3335.51 601.611C3339.27 603.45 3342.59 606.069 3345.26 609.293C3350.11 614.893 3353.7 622.082 3356.87 628.421C3357.42 629.541 3357.99 630.571 3358.47 631.59C3360.66 635.868 3362.46 640.247 3364.21 644.48C3367.57 652.543 3370.66 660.158 3375.86 665.578C3386.97 677.146 3406.5 676.777 3419.94 671.48C3436.55 664.962 3450.17 651.792 3463.44 639.004C3485.39 617.86 3507.95 596.124 3524.11 570.49C3539.48 532.056 3541.57 488.201 3527.77 448.95C3527.02 446.827 3527.06 444.509 3527.86 442.407C3528.66 440.305 3530.18 438.554 3532.15 437.466C3534.12 436.377 3536.41 436.021 3538.61 436.461C3540.82 436.901 3542.8 438.108 3544.2 439.868C3568.4 470.339 3571.27 517.52 3551.48 560.064C3548.36 566.729 3544.84 573.199 3540.94 579.437C3532.24 600.735 3519.74 620.274 3504.05 637.1L3503.97 637.089ZM3157.82 669.565C3156.7 671.382 3156.02 673.438 3155.83 675.567C3155.28 683.261 3159.46 691.727 3163.15 699.197L3181.73 736.824C3183.56 740.531 3185.64 744.742 3188.31 746.657C3189.02 747.144 3189.87 747.413 3190.74 747.43C3190.81 746.657 3190.74 744.664 3189.18 740.094L3172.67 691.716C3170.43 685.209 3168.19 678.49 3164.14 673.888C3162.48 671.912 3160.33 670.406 3157.9 669.52L3157.82 669.565ZM3201.87 700.048C3203.84 700.054 3205.76 700.674 3207.37 701.821C3208.98 702.969 3210.18 704.588 3210.83 706.453C3211.38 708.002 3212.23 709.431 3213.31 710.664C3213.45 710.567 3213.58 710.455 3213.72 710.328C3211.75 691.916 3207.17 673.878 3200.12 656.754C3197.37 650.034 3194.11 643.315 3189 639.127C3184.94 635.834 3179.28 634.838 3176.12 636.887C3173.88 638.309 3171.02 645.443 3171.35 648.399C3172.63 649.506 3173.6 650.936 3174.15 652.54C3174.69 654.144 3174.8 655.866 3174.46 657.526C3175.9 658.711 3177.23 660.011 3178.45 661.412C3184.94 668.826 3187.98 677.74 3190.67 685.613L3196.27 701.918C3197.75 700.838 3199.51 700.211 3201.34 700.115L3201.87 700.048ZM3226.97 677.102C3227.74 677.615 3228.43 678.246 3229.01 678.972C3229.38 679.304 3229.83 679.539 3230.31 679.657C3230.79 679.774 3231.29 679.77 3231.77 679.644C3233.33 679.435 3234.83 678.869 3236.14 677.989C3237.45 677.11 3238.53 675.94 3239.32 674.571C3241.77 669.598 3241.48 663.372 3240.27 656.238C3239.68 654.29 3239.22 652.397 3238.79 650.639C3238.27 647.902 3237.42 645.237 3236.27 642.699C3234.92 640.213 3231.79 639.16 3229.27 639.015C3226.75 638.869 3223.52 639.519 3221.87 641.826C3221.78 641.948 3221.7 642.075 3221.62 642.206C3223.78 647.951 3228.56 653.405 3232.82 658.31C3234 659.658 3234.77 661.311 3235.05 663.078C3235.33 664.845 3235.11 666.655 3234.41 668.301C3233.71 669.947 3232.56 671.363 3231.09 672.384C3229.62 673.406 3227.89 673.993 3226.1 674.078C3226.52 675.052 3226.79 676.049 3227.04 677.057L3226.97 677.102ZM3258.89 651.692C3259.16 652.763 3259.71 653.744 3260.48 654.536C3261.43 654.021 3262.21 653.243 3262.72 652.296C3263.44 651.221 3263.73 649.91 3263.51 648.634C3262.56 645.756 3260.01 643.595 3256.93 642.061C3257.18 643.181 3257.4 644.245 3257.63 645.286C3258.02 647.246 3258.48 649.396 3258.89 651.692ZM3691.84 342.125C3693.69 357.389 3696.91 372.115 3702.79 386.226C3712.72 410.001 3729.37 426.989 3748.48 432.824C3766.99 438.423 3792.74 431.144 3800.11 411.546C3805.54 397.133 3800.35 377.95 3786.23 360.032C3777.46 348.968 3762.81 334.622 3742.85 329.135C3725.54 324.375 3706.86 328.082 3695.24 338.575C3694.04 339.693 3692.9 340.878 3691.84 342.125ZM3540.72 306.995C3550.02 312.068 3568.71 323.054 3569.21 342.069C3569.55 356.628 3559.68 365.979 3550.96 374.266C3545.25 379.686 3539.85 384.815 3538.13 390.459C3536.47 395.901 3539.32 400.784 3541.16 403.203C3545.17 408.466 3551.55 411.77 3557.35 411.625C3570.79 411.277 3581.39 399.082 3584.92 387.211C3588.56 374.893 3587.36 360.334 3581.27 342.674C3578.47 334.566 3567.77 307.958 3547.48 306.468C3545.21 306.296 3542.93 306.469 3540.72 306.984V306.995ZM3251.12 227.305C3252.41 227.305 3253.69 227.305 3254.97 227.305C3272.14 227.73 3295.69 231.963 3310.4 249.702C3313.73 253.961 3316.7 258.498 3319.26 263.264C3323.01 269.815 3326.24 275.47 3331.12 278.36C3335.99 281.249 3342.82 281.35 3350.59 281.383C3357.4 281.383 3365.15 281.383 3372.59 283.757C3391.89 289.76 3405.06 308.675 3410.75 338.463C3411.3 341.364 3411.87 344.309 3412.33 347.265C3415.18 363.672 3417.86 379.171 3427.58 389.585C3430.85 393.068 3436.38 395.454 3440.41 395.129C3442.65 394.95 3443.23 394.009 3443.52 393.606C3445.11 391.232 3444.15 386.394 3443.13 381.287C3442.17 377.11 3441.62 372.849 3441.49 368.565C3441.73 359.473 3445.44 350.816 3451.87 344.381C3458.3 337.946 3466.95 334.225 3476.04 333.984H3476.17C3482.3 334.06 3488.3 335.827 3493.5 339.09C3494.88 331.396 3497.39 323.947 3500.95 316.984C3502.99 313.074 3505.47 309.401 3508.32 306.032C3503.75 300.561 3501.26 293.659 3501.27 286.535C3501.38 282.473 3502.35 278.48 3504.13 274.827C3505.91 271.174 3508.45 267.945 3511.59 265.358C3515.99 261.704 3521.09 258.993 3526.58 257.394C3532.07 255.795 3537.83 255.342 3543.5 256.063C3555.61 257.676 3565.84 263.219 3575.71 268.583C3579.07 270.431 3582.32 272.167 3585.57 273.735C3591.71 276.691 3607.04 282.839 3616.85 276.042C3621.91 272.536 3623 266.601 3623.2 263.365C3623.42 259.524 3622.81 255.679 3621.4 252.099C3619.99 248.519 3617.82 245.29 3615.03 242.636C3601.74 230.787 3581.33 232.288 3570.36 234.237C3561.62 235.962 3552.97 238.179 3544.48 240.878C3535.29 243.791 3525.94 246.18 3516.48 248.034C3508.93 249.369 3501.28 250.04 3493.61 250.038C3465.87 250.04 3438.82 241.393 3416.22 225.3C3404.75 217.103 3394.71 207.158 3385.02 197.55C3370.46 183.103 3356.69 169.474 3339.27 162.374C3315.92 152.867 3288.37 156.428 3264.07 159.575C3245.32 161.994 3224.06 164.749 3209 176.541C3196.82 186.082 3188.4 201.57 3183.33 223.8C3189.33 226.232 3195.66 227.742 3202.11 228.279C3211.59 229.164 3221.15 228.593 3231.33 227.988C3237.78 227.685 3244.41 227.294 3251.12 227.294V227.305Z" fill="rgba(255,255,255,0.9)"/>
</g>
<defs>
<clipPath id="clip0_2147_22588">
<rect width="4885" height="3000" fill="white"/>
</clipPath>
</defs>
</svg>
