<svg width="4037" height="3000" viewBox="0 0 4037 3000" fill="none" xmlns="http://www.w3.org/2000/svg">
<path d="M4035.47 2999.56C4018.84 2992 4002.17 2984.56 3985.63 2976.82C3865.91 2920.89 3766.05 2840.33 3686.05 2735.15C3620.4 2648.97 3581.73 2551.5 3561.61 2446.03C3544.35 2355.58 3543.21 2264.37 3549.92 2172.86C3559.3 2045.43 3584.71 1920.65 3611.12 1795.97C3627.04 1720.8 3642.08 1645.42 3656.24 1569.84C3664.14 1528.01 3667.76 1485.75 3662.22 1443.06C3659.63 1423.87 3654.14 1405.18 3645.94 1387.63C3629.32 1351.29 3608.14 1317.64 3584.73 1285.38C3569.88 1264.94 3554.59 1244.79 3539.29 1224.69C3519.9 1199.24 3504.18 1172.01 3496.23 1140.66C3493.74 1130.87 3489.72 1121.45 3485.38 1109.09C3482.54 1114.97 3480.77 1118.14 3479.52 1121.32C3449.2 1201.82 3420.98 1282.99 3398.12 1366.01C3392.63 1386.78 3389.09 1408.01 3387.55 1429.44C3380.68 1511.95 3374.18 1594.48 3366.73 1676.93C3362.26 1726.17 3356.11 1775.27 3344.61 1823.47C3342.91 1830.22 3340.62 1836.82 3337.77 1843.18C3335.49 1848.41 3330.95 1852.66 3325.11 1850.69C3320.77 1849.07 3317.23 1845.82 3315.23 1841.65C3312.88 1835.84 3312.3 1829.15 3311.9 1822.78C3308.79 1773.23 3311.99 1723.84 3317.22 1674.62C3326.93 1583.57 3346 1494.27 3369.32 1405.79C3373.66 1389.31 3374.74 1371.89 3376.37 1354.81C3381.47 1298.59 3391.39 1242.9 3406.04 1188.38C3413.88 1159.83 3425.32 1132.4 3440.08 1106.74C3447.32 1094.08 3455.71 1082.19 3470.28 1077.31C3467.87 1063.39 3463.18 1060.54 3452.64 1065.95C3447.86 1068.39 3443.34 1071.37 3438.49 1073.69C3400.5 1092.03 3361.83 1082.23 3337.19 1047.76C3316.88 1019.27 3311.87 987.686 3320.53 954.128C3323.87 941.115 3328.31 928.407 3333.79 916.138C3356.49 865.377 3391.82 824.709 3436.03 791.604C3443.46 786.318 3451.56 782.058 3460.13 778.94C3467.36 776.118 3475.27 776.552 3480.57 783.698C3485.31 790.084 3484.35 797.212 3480.44 803.417C3473.86 813.873 3466.91 824.13 3459.49 833.99C3445.28 852.894 3430.17 871.129 3416.24 890.251C3398.03 915.306 3384.57 942.876 3379.27 973.467C3377.46 985.099 3377.57 996.95 3379.61 1008.54C3383.07 1029.33 3394.39 1039.8 3414.99 1042.45C3426.22 1043.66 3437.53 1043.89 3448.8 1043.15C3453 1042.61 3456.86 1040.56 3459.66 1037.38C3466.3 1030.36 3472.23 1022.7 3477.37 1014.51C3510.2 958.434 3534.96 899.079 3543.05 833.972C3544.45 822.255 3543.84 810.386 3541.24 798.876C3534.33 768.846 3510.49 754.518 3480.35 761.031C3455.77 766.331 3433.81 777.493 3413.76 792.454C3388.59 810.977 3366.15 832.949 3347.1 857.724C3297.05 923.281 3258.15 996.646 3231.98 1074.86C3215.7 1123.71 3200.09 1172.97 3183.92 1221.96C3163.55 1283.63 3133.47 1340.52 3098.37 1394.96C3092.18 1404.38 3086.79 1414.3 3082.24 1424.61C3064.71 1465.29 3042.22 1503.01 3016.53 1539.06C2938.22 1649.23 2876.65 1770.39 2833.83 1898.59C2808.74 1973.07 2789.85 2049.31 2779.11 2127.2C2775 2156.87 2774.19 2187.23 2774.57 2217.24C2775.07 2255.23 2788.32 2289.95 2810.08 2321.06C2829.18 2348.38 2848.67 2375.43 2868.54 2402.21C2926.43 2480.64 2978.62 2562.71 3026.77 2647.39C3076.21 2734.34 3123.95 2822.18 3165.94 2913.03C3168.4 2918.35 3170.95 2924.02 3171.36 2929.7C3171.65 2933.08 3168.79 2938.02 3165.94 2940.01C3163.8 2941.42 3157.99 2940.32 3155.88 2938.2C3149.66 2932.28 3144.16 2925.67 3139.47 2918.48C3101.34 2857.37 3061.56 2797.17 3026.05 2734.55C2962.28 2622.14 2893.99 2512.71 2816.21 2409.61C2744.72 2315.05 2665.34 2227.39 2579.85 2145.28C2526.29 2093.83 2465.76 2052.18 2399.68 2018.64C2371.42 2004.3 2342.44 1991.51 2313.79 1977.89C2311.83 1976.98 2309.03 1976.8 2307.98 1975.32C2305.72 1972.11 2303.06 1968.26 2303.12 1964.73C2303.12 1962.92 2308.54 1959.6 2311.6 1959.58C2321.8 1959.58 2331.99 1960.7 2342.19 1961.21C2415.74 1964.93 2477.68 1937.69 2530.85 1888.84C2541.7 1878.89 2549.68 1865.33 2557.47 1852.66C2570.03 1832.13 2571.35 1809.84 2562.77 1787.54C2545.93 1743.72 2520.95 1704.1 2497.65 1660.78C2494.27 1666.02 2491.7 1669.12 2490.07 1672.66C2479.89 1694.99 2476 1718.88 2473.79 1743.02C2471.22 1770.86 2469.52 1798.77 2467.21 1826.63C2466.54 1835.74 2465.33 1844.8 2463.59 1853.77C2456.08 1890.29 2426.47 1911.28 2389.84 1903.73C2370.43 1899.58 2351.6 1893.08 2333.76 1884.38C2300.35 1868.31 2267.99 1850 2235.21 1832.75C2177.12 1801.99 2117.43 1775.16 2054.8 1754.96C2006.57 1739.38 1957.03 1734.42 1906.75 1736.29C1870.77 1737.63 1834.83 1740.54 1798.89 1742.75C1759.09 1745.19 1720.34 1740.48 1683.65 1724.53C1631.43 1701.82 1600.15 1663.26 1597.46 1604.79C1596.1 1575.3 1602.52 1547.13 1614.39 1520.14C1627.63 1489.98 1647.47 1463.18 1672.46 1441.72C1697.78 1419.72 1725.98 1401.92 1755.67 1386.73C1788.23 1370.01 1820.79 1353.44 1853.64 1337.47C1909.04 1310.89 1959.43 1274.94 2002.59 1231.22C2021.42 1212.08 2041.29 1193.83 2061.91 1176.64C2084.18 1158.1 2109.83 1146.12 2139.4 1143.92C2176.29 1141.17 2208.04 1153.67 2236.62 1175.88C2256.96 1191.91 2274.41 1211.3 2288.19 1233.23C2305.54 1260.36 2322.56 1287.88 2337.4 1316.44C2381.41 1401.47 2424.23 1487.04 2467.64 1572.26C2476.69 1589.9 2486.76 1606.98 2496.01 1623.67L2577.55 1548.54C2573.32 1544.67 2568.96 1540.78 2564.71 1536.79C2534.12 1507.93 2515.69 1472.71 2512.77 1430.68C2508.27 1365.45 2552.17 1302.89 2617.8 1280.39C2673.41 1261.32 2726.11 1269.41 2774.98 1301.16C2807.83 1322.49 2817.78 1358.49 2802.24 1394.41C2795.57 1410.42 2785 1424.5 2771.49 1435.37C2751.29 1451.34 2730.46 1466.61 2709.28 1481.3C2681.88 1500.28 2653.84 1518.33 2626.07 1536.88C2621.66 1539.81 2617.55 1543.19 2611.74 1547.51C2615.42 1549.9 2619.24 1552.04 2623.19 1553.94C2673.84 1574.23 2724.19 1571.88 2773.66 1550.08C2809.25 1534.4 2839.35 1511.24 2862.08 1479.4C2916.19 1403.64 2894.65 1307.63 2813.24 1262.32C2778.46 1242.96 2740.54 1233.08 2701.41 1227.73C2644.83 1220 2587.83 1218.79 2530.79 1218.85C2489.37 1218.85 2448 1218.32 2406.95 1211.61C2372.83 1205.98 2339.66 1197.14 2308.51 1181.94C2257.71 1157.16 2224.01 1117.88 2211.42 1062.33C2208.15 1047.85 2209.07 1032.48 2208.47 1017.48C2208.24 1011.71 2209.14 1005.89 2209.76 996.713C2200.55 1001.91 2193.47 1005.25 2187.09 1009.61C2171.12 1020.56 2155.97 1032.77 2139.62 1043.04C2101 1067.3 2059.7 1085.01 2013.83 1090.08C1966.92 1095.22 1924.16 1084.76 1886.44 1055.71C1884.36 1054.1 1882.13 1052.69 1877.59 1049.52C1876.07 1060.84 1874.64 1070.52 1873.49 1080.27C1868.98 1118.39 1860.08 1155.35 1844.54 1190.62C1832.02 1218.73 1813.71 1243.87 1790.8 1264.4C1747.69 1303.55 1698.42 1312.39 1643.98 1293.34C1632.88 1289.51 1621.25 1287.42 1609.51 1287.16C1547.93 1285.07 1494.63 1262.82 1449.61 1220.42C1446.1 1217.09 1442.79 1213.55 1439.48 1210.02C1436.17 1206.49 1433.04 1202.96 1428.52 1197.97C1426.35 1203.67 1424.68 1207.43 1423.49 1211.34C1408.15 1261.01 1401.22 1312.03 1399.76 1363.84C1398.92 1393.71 1406.63 1422.45 1413.72 1451.13C1423.92 1492.32 1437.64 1532.88 1444.67 1574.58C1453.99 1629.92 1471.05 1683.12 1484.11 1737.39C1510.5 1847.11 1501.37 1954.04 1464.37 2059.4C1438.27 2133.79 1402.13 2203.49 1361.17 2270.59C1311.32 2352.27 1259.87 2433.04 1209.22 2514.19C1168.15 2579.88 1129.43 2646.87 1095.25 2716.48C1085.87 2735.06 1076.01 2753.66 1065.15 2771.57C1060 2780.37 1053.36 2788.21 1045.53 2794.74C1032.19 2805.6 1018.64 2798.97 1017.7 2781.7C1017.39 2773.11 1018.1 2764.52 1019.82 2756.1C1027.24 2716.75 1041.53 2679.65 1058.39 2643.52C1086.7 2582.97 1120.76 2525.74 1158.31 2470.51C1210.34 2394.04 1261.14 2316.88 1306.85 2236.29C1344.66 2169.61 1369.51 2098.62 1389.12 2025.16C1410.27 1945.99 1423.49 1865.54 1431.72 1784.1C1436.24 1739.11 1440.77 1694.15 1437.87 1648.91C1437.51 1639.27 1435.68 1629.74 1432.44 1620.65C1399.54 1536.59 1367.32 1452.23 1332.35 1368.98C1315.98 1329.94 1294.75 1292.87 1274.96 1255.32C1260.48 1227.85 1239.72 1205.31 1216.35 1185.11C1164.7 1140.42 1134.94 1082.93 1120.25 1017.34C1115.57 996.46 1114.83 974.715 1111.9 953.441C1101.46 878.944 1091.69 804.303 1072.73 731.29C1071.33 726.099 1069.52 721.029 1067.31 716.13C1044.8 665.477 1013.31 620.848 975.41 580.597C974.204 579.26 972.738 578.182 971.103 577.43C969.467 576.677 967.695 576.265 965.895 576.219C968.681 581.013 971.412 585.825 974.27 590.601C994.35 624.158 1005.28 659.959 1002.64 699.596C998.89 756.092 966.004 785.688 911.988 800.721C894.604 805.551 876.586 801.21 860.469 792.472C841.131 781.962 837.748 765.336 851.822 748.476C856.767 742.824 862.61 738.026 869.116 734.275C877.903 729.062 887.084 724.544 896.576 720.762C932.592 706.398 947.914 678.068 949.325 641.326C950.048 622.603 948.167 603.752 946.846 584.993C946.312 580.777 944.558 576.81 941.8 573.578C918.554 545.483 889.919 525.385 854.21 516.43C838.455 512.206 821.723 513.581 806.869 520.319C785.939 529.817 774.706 546.406 772.39 569.164C769.731 595.25 773.494 620.685 780.802 645.632C790.498 678.629 801.46 711.282 810.306 744.478C816.511 767.797 820.165 791.803 824.778 815.537C826.442 824.04 828.396 831.276 836.952 836.739C848.24 843.976 853.233 856.802 856.29 869.302C863.291 897.433 870.472 925.6 875.501 954.128C890.117 1037.22 903.486 1120.56 917.795 1203.78C926.46 1254.1 936.789 1304.12 944.802 1354.54C953.938 1412 957.917 1469.92 953.54 1528.21C952.943 1536.19 952.038 1544.49 949.234 1551.84C947.661 1556.02 941.998 1561.04 938.055 1561.26C934.111 1561.48 927.599 1557.1 925.863 1553.14C922.087 1544.24 919.508 1534.89 918.193 1525.32C911.608 1480.09 905.657 1434.86 899.325 1389.64C892.325 1339.62 885.704 1289.53 877.943 1239.61C862.579 1140.84 846.823 1042.13 830.675 943.491C825.845 913.841 819.532 884.444 813.671 853.636C810.451 855.825 807.484 857.091 805.549 859.28C790.643 876.213 774 892.042 761.555 910.639C736.754 947.706 706.128 978.93 673.567 1008.87C661.432 1020.27 650.448 1032.83 640.77 1046.37C614.522 1082.35 607.196 1123.47 609.656 1167.2C613.473 1235.36 630.025 1301.07 648.73 1366.19C676.321 1462.33 695.954 1560.57 707.43 1659.93C725.267 1813.52 709.059 1963.85 660.596 2110.38C616.888 2243.09 545.764 2365.13 451.842 2468.57C383.463 2544.3 302.892 2605.05 221.399 2664.85C152.893 2715.13 83.2301 2763.79 13.983 2813.01C10.2566 2815.67 5.57137 2816.99 1.32031 2818.95V2799.57C4.6567 2797.86 7.89934 2795.97 11.0344 2793.91C108.899 2722.8 207.632 2652.8 304.34 2580.17C458.517 2464.39 567.326 2313.93 634.421 2133.7C665.662 2049.76 684.185 1962.51 692.651 1873.2C701.696 1778.35 695.057 1684.26 680.803 1590.33C667.778 1504.57 645.853 1420.97 623.187 1337.43C609.403 1286.63 598.404 1235.2 593.213 1182.5C585.977 1108.33 606.87 1045.79 662.261 995.013C682.431 976.524 701.479 956.751 720.346 936.942C727.709 929.218 733.009 919.612 739.576 911.091C750.43 897.017 760.976 882.761 772.481 869.284C783.624 856.223 795.78 844.048 809.51 829.304C804.38 793.29 796.709 757.683 786.554 722.751C776.931 690.315 766.982 657.951 758.534 625.19C753.172 604.238 752.388 582.377 756.236 561.095C758.952 544.79 766.919 529.817 778.926 518.457C790.933 507.096 806.322 499.968 822.752 498.159C845.349 495.331 868.267 499.565 888.363 510.279C900.302 516.472 911.787 523.503 922.733 531.318C933.08 538.898 942.216 548.124 952.925 557.549C966.619 548.92 977.056 556.536 986.571 567.264C994.422 576.11 1002.22 584.993 1010.09 593.821C1013.22 597.708 1017.13 600.889 1021.57 603.155C1020.54 599.157 1019.77 595.069 1018.46 591.198C1011.57 571.696 1010.97 552.05 1018.34 532.766C1033.66 492.623 1048.47 452.209 1065.5 412.772C1104.26 322.898 1148.47 235.612 1194.02 149.013C1195.52 146.173 1196.95 143.314 1199.05 139.208C1187 131.465 1187.67 119.308 1190.01 107.694C1196.95 72.0927 1214.16 39.3026 1239.52 13.3706C1243.24 9.50083 1247.5 6.19733 1252.18 3.56551C1264.68 -3.36313 1273.33 1.37657 1274.3 15.3243C1274.52 18.454 1274.3 21.6198 1274.3 25.3283C1296.57 22.6328 1310.48 34.7534 1321.52 50.9806C1340.46 79.0389 1351.22 110.444 1356.96 143.658C1357.56 149.162 1359.29 154.483 1362.04 159.288C1365.66 151.129 1368.84 142.79 1372.89 134.848C1378.92 122.872 1385.1 110.95 1392 99.463C1395.56 94.0978 1399.81 89.2308 1404.66 84.9907C1410.56 79.3826 1417.16 74.0278 1426.13 77.2298C1435.1 80.4318 1436.44 88.6992 1436.61 97.1293C1436.79 98.9517 1437.07 100.763 1437.44 102.556C1443.33 100.892 1448.76 98.9384 1454.37 97.871C1477.89 93.3303 1493.28 102.882 1498.65 126.255C1504.61 151.985 1506.41 178.505 1503.97 204.804C1501 236.824 1497.64 268.808 1494.29 302.112C1498.83 300.43 1503.5 298.494 1508.24 296.975C1529.39 289.738 1547.6 296.179 1556.65 316.548C1561.83 328.895 1565.16 341.941 1566.52 355.262C1570.49 388.91 1564.34 421.943 1555.25 454.054C1543.8 494.341 1530.18 533.96 1517.39 573.921C1515.58 579.493 1513.61 584.975 1511.24 591.867C1532.64 596.173 1537.06 612.165 1538.47 630.165C1541.13 663.885 1535.21 696.719 1526.73 728.993C1506.83 804.611 1480.76 877.949 1441.71 946.078C1407.13 1006.2 1372.21 1066.11 1336.93 1125.82C1328.81 1139.14 1319.93 1151.97 1310.32 1164.25C1296.92 1181.91 1280.49 1195.22 1255.42 1196.56C1258.19 1200.68 1260.16 1203.61 1262.11 1206.56C1274.47 1225.41 1287.85 1243.67 1299 1263.22C1333.67 1324.06 1360.76 1388.5 1386.46 1453.52C1392.6 1469.72 1399.76 1485.52 1407.88 1500.82C1407.35 1497.71 1407.01 1494.58 1406.3 1491.52C1399.47 1461.69 1391.07 1432.1 1386.21 1401.94C1382.81 1380.95 1382.79 1359.1 1383.77 1337.75C1386.1 1287.1 1396.3 1237.59 1411.68 1189.21C1412.33 1187.17 1412.8 1185.03 1413.63 1183.06C1418.3 1171.96 1424.36 1170.54 1432.95 1179.01C1438.38 1184.29 1442.99 1190.23 1448 1195.85C1485.45 1238.06 1534.02 1258.93 1588.23 1268.94C1589.55 1269.19 1591.05 1268.49 1594.29 1267.91C1589.43 1263.44 1585.61 1259.89 1581.76 1256.4C1530.65 1210.02 1504.69 1152.44 1506.01 1083.35C1506.72 1046.5 1516.62 1012.23 1540.28 982.928C1574.14 940.977 1622.73 929.652 1670.03 955.268C1725.51 985.298 1757.23 1033.62 1769.82 1094.76C1774.61 1118.6 1774.17 1143.19 1768.51 1166.84C1757.03 1216.48 1726.04 1250.21 1681.29 1272.48C1676.98 1274.64 1672.57 1276.55 1668.22 1278.63C1667.83 1278.83 1667.63 1279.45 1666.27 1281.38C1687.74 1287.86 1708.31 1286.97 1728.93 1280.9C1749.56 1274.82 1766.69 1263.1 1782.26 1248.64C1813.19 1219.93 1831.43 1183.9 1843.15 1144.01C1853.05 1110.3 1857.04 1075.61 1860.5 1040.89C1861.23 1034.46 1859.48 1027.99 1855.61 1022.8C1786.87 923.628 1814.12 791.549 1888.59 715.986C1917.41 686.77 1952.05 669.765 1994.13 673.039C2028.37 675.698 2059.83 687.186 2083.74 712.44C2140.91 772.771 2160.61 844.102 2140.73 925.111C2133.8 953.35 2119.02 977.7 2094.78 995.23C2070.92 1012.47 2044.63 1018.04 2016.99 1007.89C2000.53 1001.89 1984.79 993.167 1969.85 983.869C1955.38 974.824 1942.41 963.137 1928.37 953.115C1920.1 947.158 1911.33 941.939 1902.14 937.521C1893.95 933.686 1890.15 935.712 1887.29 943.925C1885.16 950.018 1883.78 956.348 1883.18 962.775C1881.68 979.907 1881.14 997.147 1879.57 1014.24C1878.77 1022.65 1881.7 1028.55 1887.67 1034.03C1911.44 1056.28 1941.95 1069.97 1974.37 1072.93C2001.76 1075.51 2029.39 1072.32 2055.47 1063.58C2095.88 1050.41 2132.08 1029.87 2165.49 1003.88C2179.96 992.643 2194.58 981.535 2214.06 978.786C2215.87 973.612 2217.46 968.564 2219.18 963.535C2237.87 908.757 2268.46 862.229 2314.66 826.681C2343.98 804.158 2376.85 790.79 2414.53 791.133C2453.21 791.477 2482.75 808.374 2503.39 840.611C2521.48 868.995 2529.15 900.689 2529.78 934.102C2530.79 985.732 2515.54 1031.66 2480.16 1069.91C2462.72 1088.74 2442.17 1103.28 2416.34 1108.51C2383.18 1115.21 2352.54 1107.3 2326.34 1087.6C2298.5 1066.67 2272.96 1042.68 2246.57 1019.83C2241 1015 2236.11 1009.38 2228.93 1002.12C2227.3 1008.45 2225.75 1012.18 2225.44 1016C2221.42 1068.3 2241.48 1110.52 2280.83 1143.82C2309.88 1168.41 2345.17 1180.01 2381.48 1188.89C2414.04 1196.79 2447.18 1200.19 2480.54 1201.1C2517.1 1202.09 2553.69 1201.33 2590.23 1202.37C2636.45 1203.69 2682.67 1205.68 2728.22 1214.67C2758.97 1220.75 2788.84 1229.61 2816.57 1244.35C2866.05 1270.66 2897.78 1310.84 2907.27 1366.61C2913.86 1405.25 2905.46 1441.96 2885.13 1474.95C2847.25 1536.15 2791.52 1571.48 2720.7 1582.77C2676.67 1589.81 2635.22 1580.46 2594.59 1559.62C2563.01 1584.02 2531.15 1608.35 2507.22 1642.45C2510.26 1648.11 2513.05 1653.31 2515.78 1658.41C2534.41 1693.54 2553.3 1728.53 2571.48 1763.89C2576.33 1773.49 2580.04 1783.63 2582.53 1794.1C2587.9 1815.76 2584.91 1838.65 2574.15 1858.2C2559.52 1885.8 2539.78 1908.96 2513.68 1926.22C2470.5 1954.82 2423.92 1974.65 2371.69 1979.13C2370.12 1979.28 2368.58 1979.8 2363.73 1980.94C2370.97 1984.78 2375.76 1987.6 2380.79 1989.99C2461.98 2028.76 2536.47 2077.35 2600.27 2141.17C2635.25 2176.14 2669.58 2211.72 2703.28 2247.9C2831.59 2386.37 2936.51 2541.53 3029 2705.59C3048.01 2739.29 3068 2772.53 3087.63 2805.81C3090.61 2810.88 3094.07 2815.65 3098.26 2822C3100.18 2814.12 3096 2809.59 3093.49 2805.05C3055.35 2736.45 3017.51 2667.57 2978.58 2599.56C2933.36 2520.6 2880.3 2446.75 2826.43 2373.43C2816.55 2360 2806.84 2346.45 2797.29 2332.8C2769.94 2293.71 2756.97 2250.36 2756.69 2202.55C2756.39 2146.16 2766.61 2091.4 2778.15 2036.61C2809.37 1888.27 2866.53 1750.36 2942.98 1620.13C2962.55 1586.81 2985.31 1555.35 3006.66 1523.07C3011.96 1515.06 3017.51 1507.21 3022.79 1499.56C3005.5 1476.83 3009.14 1451.22 3009.08 1425.53C2978.49 1417.84 2960.24 1395.92 2945.77 1369.96C2898.54 1286.05 2853.2 1201.17 2818.33 1111.26C2805.92 1079.24 2794.81 1046.62 2784.5 1013.86C2770.99 971.314 2771.71 928.223 2781.44 884.824C2785.74 866.527 2788.55 847.911 2789.84 829.159C2791.64 799.527 2788.55 770.329 2778.98 741.71C2769.21 712.766 2761.34 682.844 2761.07 651.909C2760.93 635.881 2761.58 619.473 2764.87 603.897C2767.22 592.79 2773.92 582.297 2779.99 572.402C2781.89 569.044 2784.94 566.498 2788.59 565.247C2792.23 563.996 2796.21 564.128 2799.77 565.618C2807.62 568.639 2809.19 576.11 2808.56 583.057C2806.89 601.147 2804.05 619.238 2802.03 637.455C2797.43 678.81 2798.95 720.183 2803.96 761.356C2805.37 772.916 2809.63 784.349 2813.97 795.276C2845.19 873.843 2868.74 954.779 2890.36 1036.39C2905 1091.54 2926.54 1144.63 2954.47 1194.39C2973.25 1227.98 2996.22 1258.3 3024.8 1284.13C3031.52 1290.33 3038.88 1295.79 3046.76 1300.42C3059.91 1307.87 3066.14 1305.44 3072.09 1291.88C3073.96 1287.42 3075.5 1282.83 3076.72 1278.15C3084.04 1251.19 3090.12 1223.87 3098.84 1197.34C3106.62 1173.82 3103.71 1153.92 3088.73 1134.02C3057.91 1093.18 3032.74 1048.37 3013.91 1000.8C3008.21 986.329 3002.28 971.857 2997.5 957.023C2976.85 892.946 2949.98 831.421 2921.67 770.438C2903.58 731.453 2885.66 692.341 2868.6 652.85C2838.19 582.496 2828.8 509.32 2841.3 433.521C2841.64 431.387 2841.91 429.252 2842.42 427.171C2852.33 386.166 2877.23 372.9 2917.11 387.372C2919.1 388.096 2921.15 388.711 2925.38 390.104C2924.3 382.361 2923.03 375.903 2922.56 369.373C2921.93 360.454 2919.28 350.522 2929.79 345.041C2936.23 341.676 2943.29 345.584 2950.49 358.79C2958.67 373.25 2965.61 388.38 2971.24 404.016C2976.48 419.447 2973.72 422.956 2957.4 431.151C2963.06 447.867 2968.81 464.8 2974.57 481.805L2977.7 481.497L2979.81 451.72C2981.86 423.192 2986.13 394.989 2995.88 368.07C3000.79 354.435 3007.21 341.389 3015.01 329.176C3028.36 308.426 3044.84 305.658 3065.95 318.81C3067.76 319.931 3069.57 321.089 3073.44 323.586C3070.8 311.628 3068.22 301.678 3066.52 291.584C3065.45 285.306 3064.54 278.613 3065.59 272.444C3068.56 255.041 3084.46 249.035 3098.15 260.179C3103.51 264.669 3108.05 270.041 3111.6 276.062C3128.04 303.704 3137.39 333.951 3141.79 365.61C3143.87 380.552 3142.58 394.934 3127.31 401.519C3173.14 549.969 3233.59 690.695 3321.34 818.649C3323.15 821.272 3325.16 823.732 3327.69 827.079C3332.47 822.774 3336.74 818.884 3341.13 814.922C3370.67 787.877 3403.09 765.029 3439.63 748.368C3459.89 739.123 3480.89 733.208 3503.52 734.076C3547.28 735.758 3576.19 768.05 3572.83 811.865C3571.02 836.197 3563.89 859.262 3556.42 882.418C3547.81 908.956 3538.53 935.423 3532.32 962.54C3519.84 1017.08 3523.04 1071.54 3538.75 1125.16C3548.1 1157.12 3558.06 1188.89 3567.87 1220.71C3572.66 1236.21 3580.39 1250 3589.78 1263.44C3609.77 1292.06 3628.76 1321.33 3646.99 1351.18C3673.91 1395.1 3684.47 1443.13 3682.09 1494.63C3679.92 1541.04 3672.01 1586.5 3662.84 1631.8C3640.48 1742.42 3616.6 1852.74 3595.49 1963.59C3572.52 2084.28 3558.77 2206.01 3565.21 2329.22C3570.24 2425.1 3590.1 2517.67 3628.99 2605.79C3662.26 2681.15 3711.68 2745.21 3768.5 2803.91C3838.27 2876.02 3920.94 2929.41 4012.15 2970.2C4020 2973.71 4027.92 2977.07 4035.81 2980.51L4035.47 2999.56ZM2486.27 1642.47C2483.49 1637.31 2480.85 1632.63 2478.42 1628C2455.27 1584.33 2431.7 1540.87 2409.1 1496.9C2377.45 1435.23 2346.77 1373.07 2315.2 1311.34C2298.77 1279.23 2279.91 1248.55 2256.99 1220.56C2241.52 1201.66 2223.83 1185.29 2201.9 1174.09C2165.73 1155.6 2129.55 1155.66 2094.07 1175.9C2082.43 1182.59 2071.45 1190.39 2061.31 1199.2C2045.48 1212.93 2030.13 1227.28 2015.56 1242.33C1970.16 1289.25 1917.5 1325.69 1858.87 1354.11C1822.69 1371.69 1786.37 1389.44 1751.26 1409.14C1727.82 1422.28 1705.55 1437.41 1684.7 1454.37C1647.58 1484.61 1624.27 1524.29 1616.6 1571.74C1606.56 1633.99 1628.48 1680.08 1686.73 1707.41C1693.58 1710.53 1700.62 1713.2 1707.8 1715.41C1732.41 1723.4 1758.25 1726.88 1784.09 1725.67C1814.15 1724.31 1844.27 1723.32 1874.23 1720.62C1959.01 1712.99 2039.95 1726.97 2118.44 1759.46C2179.15 1784.59 2237.4 1814.42 2295.07 1845.66C2316.77 1857.42 2339.04 1868.28 2361.65 1878.22C2373.04 1882.99 2385.03 1886.15 2397.29 1887.61C2420.7 1890.65 2438.17 1878.44 2444.85 1855.97C2446.42 1850.84 2447.49 1845.57 2448.03 1840.23C2450.24 1815.61 2452.27 1790.97 2454.13 1766.34C2457.38 1722.99 2462 1680.28 2486.27 1642.47ZM1514.86 611.531C1501.82 621.843 1495.99 635.049 1490.2 648.345C1464.66 706.995 1441.65 766.615 1421.17 827.206C1401.28 886.542 1374.45 942.767 1337.37 993.638C1318.08 1020.25 1294.64 1043.58 1267.94 1062.74C1256.32 1071.08 1243.81 1076.87 1229.14 1076.51C1212.46 1076.08 1204.53 1065.15 1210.34 1049.37C1212.94 1042.31 1216.74 1035.75 1221.56 1029.96C1233.4 1016.09 1245.6 1002.41 1258.59 989.604C1299.29 949.533 1338.18 907.907 1368.93 859.533C1399.18 812.245 1423.04 761.845 1443.1 709.383C1450.57 689.809 1459.16 670.669 1467.28 651.367C1476.33 630.11 1486.53 609.306 1493.99 587.525C1509.83 541.304 1525.1 494.848 1538.85 447.957C1546.84 420.677 1552.63 392.42 1550.04 363.656C1548.97 350.325 1546.08 337.203 1541.45 324.653C1536.3 311.085 1525.71 307.811 1512.4 313.799C1497.62 320.492 1486.95 331.292 1482.39 347.501C1473.96 377.495 1465.91 407.616 1456.54 437.32C1436.32 501.397 1415.78 565.509 1384.18 625.117C1354.44 681.198 1324.23 736.952 1292.72 792.002C1270.58 830.697 1245.94 867.982 1222.28 905.791C1219.75 909.861 1217.01 914.293 1213.23 916.97C1210.25 919.087 1204.66 920.444 1201.84 918.997C1199.02 917.549 1196.41 912.14 1196.63 908.595C1196.85 903.439 1199.07 898.156 1201.31 893.344C1238.52 812.878 1271.3 730.349 1315.4 653.085C1351.83 589.756 1383.67 523.894 1410.66 456.008C1426.95 414.508 1442.39 372.557 1466.42 334.567C1468.53 330.778 1469.87 326.61 1470.36 322.301C1475.52 290.498 1481.65 258.804 1485.1 226.802C1488.38 196.374 1489.35 165.62 1483.08 135.21C1478.65 113.7 1465.71 107.477 1446.9 118.928C1434.45 126.526 1423.8 136.458 1417.12 149.935C1398.31 187.925 1379.26 225.915 1360.79 264.177C1356.66 272.92 1353.54 282.102 1351.48 291.547C1345.78 316.675 1341.33 342.201 1335.54 367.238C1314.97 456.406 1287.08 543.403 1255.04 629.025C1236.05 679.841 1215.24 730.024 1195.2 780.424C1192.81 786.376 1190.12 792.581 1186.01 797.302C1183.42 800.269 1177.15 802.729 1173.96 801.662C1170.78 800.595 1168.17 794.263 1168.32 790.374C1168.57 784.096 1171.14 777.855 1173.04 771.704C1197.91 691.093 1223.26 610.699 1247.62 529.871C1268.59 460.422 1285.95 389.706 1316.2 323.513C1332.35 288.128 1342.52 252.165 1342.47 213.324C1342.47 212.8 1342.58 212.257 1342.61 211.714C1345.7 164.679 1339.17 119.344 1316.98 77.2479C1311.4 66.8783 1304.41 57.3371 1296.19 48.9002C1287.75 40.1082 1279.7 40.3434 1270.65 48.7193C1264.89 54.2906 1260.06 60.7458 1256.34 67.8409C1247.1 84.8278 1238.76 102.321 1229.93 119.543C1192.96 191.779 1155.15 263.616 1119.19 336.376C1087.96 399.503 1060.4 464.381 1036.64 530.685C1028.34 553.859 1028.9 575.911 1039.32 597.909C1041.13 601.799 1042.63 605.851 1044.48 609.74C1060.76 643.678 1078.14 677.091 1086.53 714.195C1087.48 718.319 1089.79 722.136 1091.58 726.044C1132.95 816.038 1161.46 911.405 1176.26 1009.34C1184.49 1064.5 1204.59 1114.84 1232.07 1162.93C1242.54 1181.27 1259.2 1181.78 1271.72 1175.03C1279.79 1170.79 1286.93 1164.97 1292.72 1157.94C1304.53 1143.29 1315.36 1127.9 1325.15 1111.84C1356.31 1059.7 1386.66 1007.04 1417.41 954.653C1457.7 886.072 1486.22 812.552 1507.17 736.066C1515.86 704.39 1522.73 672.333 1521.95 639.156C1521.73 630.092 1521.57 620.993 1514.77 611.531H1514.86ZM3315.19 838.386C3311 831.945 3306.78 825.143 3302.24 818.577C3238.31 726.026 3188.28 626.366 3149.66 520.844C3133.57 476.975 3116.71 433.395 3100.23 389.67C3092.02 367.961 3077.3 350.902 3059.95 336.104C3045.48 323.712 3036.43 324.436 3027.59 340.971C3018.66 357.456 3011.52 374.849 3006.3 392.854C2993.63 438.46 2994.3 485.441 2996.18 532.241C2996.62 544.569 2998.66 556.787 3002.26 568.585C3022.97 634.741 3044.79 700.536 3065.45 766.711C3092.58 853.907 3119.17 941.302 3145.86 1028.66C3147.78 1034.24 3148.78 1040.1 3148.81 1046.01C3148.68 1049.54 3145.78 1054.95 3142.96 1055.83C3140.14 1056.72 3134.48 1054.19 3132.36 1051.4C3128.2 1045.97 3125.54 1039.26 3122.41 1033.02C3084.55 957.276 3057.29 877.443 3031.35 797.103C3010.13 731.489 2992.15 665.26 2984.77 596.462C2982.96 580.488 2981.87 564.08 2977.24 548.83C2964.76 507.71 2950.62 467.079 2936.92 426.321C2935.6 422.396 2933.7 417.873 2930.64 415.467C2919.99 407.127 2908.16 400.814 2894.47 398.679C2882.47 396.87 2872.76 400.85 2867.33 411.541C2862.59 420.536 2859.27 430.207 2857.47 440.215C2846.82 511.582 2855.32 580.651 2884.5 646.862C2899.66 681.282 2915.09 715.594 2930.79 749.797C2956.31 805.515 2983.25 860.691 3002.17 919.087C3026.72 994.778 3058.25 1066.78 3106.66 1130.6C3121.89 1150.72 3124.08 1172.21 3116.68 1196.11C3107.63 1225.36 3100.56 1255.19 3092.49 1284.75C3091.08 1289.94 3089.26 1295.02 3087.07 1299.93C3077.3 1321.64 3060.85 1328 3039.85 1316.35C3028.26 1309.59 3017.51 1301.48 3007.83 1292.18C2977.89 1264.56 2954.58 1231.76 2935.24 1196.05C2904.89 1139.97 2883.36 1080.45 2867.06 1018.91C2851.94 961.781 2837.41 904.434 2815 849.529C2813.3 845.405 2811.13 841.479 2808.2 835.455C2803.53 860.872 2799.82 883.539 2795.14 906.008C2788.86 936.687 2789.87 968.412 2798.08 998.631C2801.9 1013.1 2805.9 1027.72 2810.75 1041.94C2836.13 1115.66 2867.08 1187.34 2903.35 1256.37C2922.21 1292.55 2942.28 1328.22 2962.01 1364C2970.13 1378.71 2979.92 1392.21 2994.57 1401.23C3010.2 1410.84 3013.86 1409.65 3023.81 1394.2C3027.83 1387.89 3032.7 1382.16 3038.28 1377.17C3042.78 1373.18 3049 1371.64 3054.56 1376.23C3060.11 1380.83 3059.42 1387.09 3056.1 1392.26C3051.19 1399.86 3046.02 1407.67 3039.4 1413.68C3024.93 1426.74 3020.71 1446.12 3029.87 1465.56C3037.97 1453.19 3045.01 1440.45 3053.96 1429.24C3071.82 1406.9 3082.25 1381.24 3090.14 1354.27C3093.34 1343.42 3096.47 1332.56 3099.46 1321.71C3118.74 1251.79 3135.64 1181.2 3160.24 1112.8C3195.62 1014.32 3242.04 922.181 3312.06 843.252C3313.21 841.718 3314.23 840.09 3315.1 838.386H3315.19ZM1862.6 999.083C1864.41 980.848 1865.22 966.339 1867.48 952.048C1872.8 918.508 1890 910.187 1919.51 926.577C1926.86 930.936 1933.94 935.751 1940.69 940.995C1950.22 947.996 1959.07 955.937 1968.87 962.504C1981.79 971.133 1994.74 980.124 2008.67 986.655C2046.66 1004.37 2082.44 994.416 2105.67 959.356C2113.84 947.019 2120.97 932.981 2124.43 918.707C2142.52 844.392 2124.12 778.416 2070.9 724.542C2030.63 683.785 1958.96 670.271 1904.47 724.886C1844.47 785.001 1822.85 858.448 1838.57 942.098C1842.25 962.613 1850.4 982.067 1862.43 999.083H1862.6ZM2233.6 975.113C2245.1 989.893 2252.25 1000.89 2261.17 1010.19C2285.42 1035.52 2311.58 1058.8 2341.47 1077.13C2382.06 1102.14 2422.87 1098.42 2457.56 1068.08C2516.37 1016.45 2531.08 917.242 2489.55 850.85C2471.57 822.086 2445.28 807.614 2411.31 808.175C2385.85 808.676 2361.06 816.412 2339.84 830.48C2283.74 866.661 2250.46 919.051 2233.43 975.113H2233.6ZM1523.06 1096.57C1524.21 1105.24 1525.06 1120.38 1528.37 1134.96C1540.89 1190.08 1572.37 1232.09 1619.38 1262.79C1625.19 1266.57 1631.01 1269.44 1638.86 1268.21C1691.32 1260.04 1738.72 1216.89 1751.02 1165.1C1771.3 1080.07 1719.78 1002.81 1667.01 972.96C1662.81 970.579 1658.46 968.447 1654.01 966.575C1620 952.102 1586.77 958.958 1561.03 985.515C1532.81 1014.68 1523.53 1050.86 1523.06 1096.57ZM2593.73 1537.98C2644.25 1503.81 2694.18 1470.3 2743.72 1436.24C2753.01 1429.81 2761.42 1422.19 2768.72 1413.57C2776.13 1405.11 2782.23 1395.58 2786.81 1385.31C2798.43 1357.91 2791.01 1332.33 2766.25 1316.17C2716.77 1283.92 2664.11 1278 2609.81 1302.39C2552.48 1328.13 2520.16 1388.05 2531.88 1445.3C2539.78 1484.32 2560.6 1515.2 2593.73 1537.98ZM1459.51 1708.9L1456.5 1709.06C1455.87 1712.52 1454.98 1715.95 1454.69 1719.44C1453.36 1734.97 1452.34 1750.51 1450.91 1766.03C1442.65 1856.05 1428.59 1945 1405.31 2032.52C1384.36 2111.3 1355.98 2186.58 1314.86 2257.51C1271.19 2332.98 1223.38 2405.6 1174.43 2477.58C1137.22 2532.32 1103.25 2588.94 1075.05 2648.9C1059.92 2681.06 1046.92 2714.02 1039.03 2748.74C1036.86 2758.33 1035.58 2768.09 1033.89 2777.79L1037.69 2779.42C1041.85 2774.19 1046.74 2769.4 1050.05 2763.66C1059.36 2747.38 1068.55 2730.92 1076.86 2714.06C1113.19 2640.9 1153.31 2569.69 1197.06 2500.72C1241.42 2430.16 1285.99 2359.85 1329.82 2289.06C1374.87 2216.3 1416 2141.44 1445.38 2060.79C1479.64 1966.72 1492.92 1870.32 1473.22 1770.95C1469.04 1750.13 1464.01 1729.54 1459.4 1708.86L1459.51 1708.9ZM3315.7 866.118C3311.87 870.478 3307.85 874.693 3304.25 879.252C3257.22 938.733 3221.56 1004.76 3193.11 1074.86C3161.09 1153.77 3140.1 1236.05 3118.58 1318.18C3118.21 1319.94 3117.95 1321.71 3117.78 1323.5C3124.19 1316.88 3128.24 1309.46 3132.05 1301.92C3155.3 1256.22 3170.87 1207.61 3186.81 1159C3202.06 1112.56 3216.55 1065.8 3234.22 1020.27C3255.26 966.068 3284.98 916.048 3315.7 866.118ZM969.911 619.111L966.401 620.414C966.401 628.971 966.962 637.582 966.401 646.084C963.308 687.276 945.436 718.591 906.036 735.379C897.147 739.114 888.453 743.298 879.987 747.915C874.797 750.688 870.087 754.28 866.04 758.552C858.497 766.856 859.528 772.5 869.405 777.565C881.073 783.553 894.079 787.714 906.706 784.277C953.142 771.614 980.584 749.019 985.486 702.671C987.729 681.26 985.284 659.617 978.322 639.246C976.007 632.372 972.733 625.823 969.911 619.111ZM933.732 1516.54L937.078 1516.27C937.35 1510.64 937.747 1505.02 937.856 1499.39C938.978 1440.06 933.207 1381.3 922.625 1322.97C912.35 1266.41 901.767 1209.91 891.872 1153.29C877.744 1072.86 864.286 992.281 850.067 911.887C847.336 896.51 843.862 881.133 835.035 864.635C834.724 867.143 834.603 869.671 834.673 872.197C843.627 924.659 852.98 976.958 861.554 1029.44C877.31 1125.93 893.193 1222.43 907.863 1319.1C914.864 1365.31 919.025 1411.93 924.868 1458.4C927.31 1477.79 930.783 1497.15 933.786 1516.54H933.732ZM3417.92 1061.12C3413.78 1060.28 3411.18 1059.87 3408.64 1059.31C3379.7 1052.07 3364.83 1035.12 3361.38 1005.4C3359.28 988.287 3360.85 970.927 3365.99 954.472C3374.35 926.649 3387.47 900.484 3404.76 877.135C3417.98 859.551 3431.78 842.402 3445.15 824.926C3451.5 816.623 3457.43 807.994 3463.55 799.6L3461.3 796.995C3456.85 799.455 3452.06 801.409 3448.04 804.43C3400.65 839.96 3363.87 883.829 3342.85 939.837C3335.93 957.395 3333.17 976.317 3334.78 995.121C3337.97 1028.77 3360.82 1057.44 3390.59 1064.66C3399.44 1066.65 3408.26 1067.52 3417.92 1061.12ZM1196.52 1139.99L1198.87 1137.84C1197.83 1134.9 1196.62 1132.01 1195.25 1129.21C1175.45 1093.35 1167.83 1053.86 1159.8 1014.3C1149.97 965.941 1138.8 917.839 1127.53 869.773C1124.4 856.494 1118.82 843.795 1114.39 830.824C1112.33 836.251 1112.85 840.973 1113.51 845.658C1119.58 890.341 1126.42 934.916 1131.6 979.708C1135.68 1016.06 1145.8 1051.47 1161.55 1084.49C1170.8 1104.39 1182.53 1123.04 1196.47 1139.99H1196.52ZM1224.65 1058.69C1230.32 1059.46 1236.08 1059.04 1241.58 1057.45C1247.08 1055.87 1252.18 1053.16 1256.58 1049.5C1269.24 1039.7 1282.19 1029.85 1293.43 1018.46C1332.82 978.568 1359.62 930.412 1382.06 879.541C1382.35 878.047 1382.35 876.513 1382.06 875.019C1379.03 875.019 1378.34 876.828 1377.22 878.637C1344.89 926.45 1305.65 968.203 1264.3 1008.18C1253.54 1018.58 1243.99 1030.27 1234.38 1041.78C1230.76 1045.92 1228.65 1051.44 1224.59 1058.69H1224.65ZM1430.56 460.024L1428.75 459.409C1426.69 463.714 1424.41 467.947 1422.62 472.362C1399.42 528.963 1373 584.193 1343.5 637.781C1313.16 693.354 1282.5 748.766 1258.64 807.578C1257.23 811.069 1256.23 814.814 1255.02 818.323C1259.94 813.923 1264 808.64 1266.98 802.747C1293.32 755.387 1319.44 707.881 1345.94 660.647C1377.55 604.486 1403.48 545.308 1423.33 483.994C1425.84 476.07 1428.19 468.002 1430.56 460.024ZM3363.93 1513.79C3344.03 1570.07 3319.95 1764.62 3331.56 1805.36C3350 1707.45 3355.3 1610.43 3364 1513.79H3363.93ZM3474.82 1049.77C3485.2 1056.23 3488.67 1066.52 3489.29 1078.45C3489.47 1081.94 3491.53 1085.37 3493.01 1088.74C3498.44 1100.97 3504.48 1112.94 3509.3 1125.41C3515.28 1140.95 3519.93 1156.98 3525.79 1172.57C3530.62 1185.41 3532.94 1187.97 3540.83 1194.28C3532.07 1163.05 3522.36 1131.83 3514.72 1100.1C3507.09 1068.37 3505.93 1035.25 3508.12 998.631L3474.82 1049.77ZM3082.54 270.924C3082.15 307.322 3098.82 335.308 3109.33 364.995C3111.54 371.254 3115.32 377.169 3122.88 379.467C3127.8 352.042 3105.88 290.534 3082.54 270.924ZM3099.55 940.271L3102.93 939.167C3075.94 855.469 3048.96 771.765 3021.98 688.054L3017.89 689.375C3040.39 774.562 3068.23 857.959 3099.55 940.271ZM3466.57 1105.27C3439.56 1129.33 3411.85 1215.39 3406.87 1272.59C3427.66 1214.41 3447.1 1159.89 3466.57 1105.27ZM1253.28 572.329C1269.98 544.199 1311.32 404.993 1307.7 388.621C1289.51 449.863 1271.37 511.099 1253.28 572.329ZM1209.15 112.162C1226.82 85.4067 1242.94 57.9816 1252.25 27.1374C1228.28 50.6911 1213.07 78.6409 1209.09 112.162H1209.15ZM1416.56 99.1012C1394.85 119.001 1386.97 146.01 1378.34 172.675C1391.31 148.307 1414.66 129.312 1416.51 99.1012H1416.56ZM2789.56 593.17C2776.34 617.646 2775.09 643.298 2781.59 669.511L2789.56 593.17ZM1369.91 205.744L1360.86 205.093V220L1363.05 220.362L1369.91 205.744ZM2945.97 385.726C2946.2 400.488 2946.2 400.488 2955.32 407.435L2945.97 385.726Z" fill="rgba(255,255,255,0.9)"/>
</svg>
